<svg id="Layer_1" enable-background="new 0 0 100 100" height="100" viewBox="0 0 100 100" width="100" xmlns="http://www.w3.org/2000/svg"><g clip-rule="evenodd" fill-rule="evenodd"><path d="m47.572 45.301c1.475-1.275 2.417-2.639 2.935-4.291.759-2.423.666-4.879-.004-7.276-.717-2.568-1.671-5.068-2.439-7.624-.657-2.187-1.278-4.391-1.764-6.62-.42-1.931-.248-3.884.354-5.778.486-1.533 1.327-2.838 2.606-3.83 2.32-1.797 4.715-1.381 6.284 1.093.881 1.388 1.259 2.953 1.513 4.552.187 1.171.341 2.348.518 3.521.035.237.107.47.223.958.276-.461.481-.706.582-.988.514-1.436.945-2.903 1.509-4.319.718-1.807 1.47-3.606 2.336-5.346.425-.855 1.062-1.645 1.737-2.33 1.62-1.642 3.584-2.475 5.888-1.777 2.297.696 3.456 2.498 3.987 4.721.399 1.675.29 3.366-.119 5.039-.699 2.859-2.016 5.425-3.999 7.566-1.867 2.016-3.909 3.873-5.924 5.747-1.396 1.298-2.86 2.524-4.318 3.753-4.021 3.392-6.417 7.71-7.377 12.854-.342 1.833-.652 3.671-.991 5.505-.089.481-.124.913.486 1.225.217-.402.421-.76.606-1.127 1.658-3.275 3.657-6.313 6.36-8.824.956-.887 2.011-1.708 3.134-2.364.815-.476 1.8-.778 2.741-.896 1.653-.206 2.694.745 2.714 2.43.01.873-.242 1.751-.397 2.624-.063.355-.187.7-.336 1.246.703-.17 1.221-.305 1.743-.42.991-.218 1.978-.473 2.979-.617.531-.076 1.105-.018 1.634.099 1.202.266 1.798.976 1.606 2.194-.14.889-.506 1.792-.971 2.57-1.022 1.711-2.597 2.9-4.256 3.939-2.126 1.331-4.389 2.391-6.819 3.056-3.537.97-6.882.706-9.919-1.544-.098-.072-.226-.104-.476-.215-.197.404-.404.8-.587 1.207-2.227 4.958-3.982 10.079-5.4 15.326-.292 1.082-.153 1.864.613 2.623.259.257.417.617.73 1.097.383-.72.585-1.078.768-1.445 1.358-2.74 3.244-5.057 5.603-6.99 1.157-.949 2.419-1.727 3.899-2.061.491-.111 1.005-.178 1.507-.169 1.734.029 2.774.925 3.032 2.646.125.828.128 1.675.198 2.697.589-.227 1.081-.421 1.578-.605 1.624-.602 3.224-1.291 4.886-1.761.771-.218 1.693-.135 2.497.039 1.291.281 1.896 1.313 1.577 2.598-.158.639-.444 1.323-.877 1.801-.845.935-1.74 1.88-2.78 2.572-3.76 2.499-8.009 3.628-12.458 3.967-1.76.135-3.562.058-5.314-.16-1.146-.143-2.238-.712-3.471-1.129-.527 1.123-.777 2.442-1.022 3.75-.541 2.891-.544 5.817-.5 8.744.005.381.049.772-.024 1.14-.039.195-.29.35-.445.522-.193-.182-.435-.334-.561-.553-.094-.164-.041-.414-.046-.626-.108-4.464-.004-8.907 1.441-13.199.185-.549.143-.965-.311-1.359-.374-.326-.691-.717-1.179-1.233-.167.636-.304 1.101-.41 1.572-1.134 5.051-1.265 10.163-.909 15.303.088 1.269.2 2.535.296 3.803.017.21.076.457-.008.625-.098.194-.313.392-.517.448-.116.032-.362-.182-.454-.34-.101-.171-.109-.405-.126-.614-.417-5.073-.776-10.15-.071-15.225.262-1.887.599-3.771 1.059-5.616.274-1.099.063-1.879-.863-2.592-.312.265-.626.53-.938.799-2.802 2.403-6.046 3.758-9.735 3.836-1.242.025-2.514-.292-3.729-.615-.666-.178-1.318-.608-1.847-1.072-2.33-2.042-1.771-5.401 1.073-6.642.419-.184.862-.313 1.376-.496-.169-.435-.347-.808-.461-1.199-.234-.811-.566-1.62-.626-2.447-.192-2.654 1.908-4.535 4.538-4.12 1.721.271 3.199 1.09 4.52 2.195 1.541 1.289 2.788 2.839 3.907 4.497.685 1.015 1.348 2.046 2.131 3.236.346-.504.63-.895.89-1.302 2.925-4.591 4.375-9.702 5.272-15.005.061-.354.073-.805-.093-1.098-.769-1.357-1.609-2.675-2.453-4.055-.165.048-.33.072-.47.142-4.624 2.311-8.957 1.569-13.053-1.292-1.645-1.149-3.129-2.482-3.885-4.427-.152-.392-.294-.801-.347-1.215-.183-1.425.396-2.431 1.765-2.842 2.306-.693 1.804-.326 2.282-2.732.108-.541.18-1.091.331-1.618.488-1.705 1.771-2.459 3.515-2.06 1.271.291 2.412.91 3.258 1.877 1.082 1.237 2.175 2.51 2.988 3.926 1.177 2.052 2.11 4.245 3.14 6.38.291.607.561 1.225.934 2.04zm2.25 4.248c.11-.026.219-.053.329-.08.192-1.074.414-2.145.571-3.224.908-6.206 3.589-11.425 8.499-15.43 1.346-1.098 2.673-2.224 3.946-3.404 1.894-1.755 3.813-3.494 5.571-5.38 1.993-2.139 3.378-4.678 3.962-7.57.453-2.245.486-4.48-.924-6.477-1.271-1.801-3.254-2.331-5.271-1.437-1.463.648-2.516 1.768-3.216 3.141-.882 1.73-1.631 3.532-2.354 5.337-.55 1.375-.945 2.81-1.459 4.2-.218.59-.496 1.185-.872 1.681-.249.328-.725.659-1.095.656-.247-.001-.61-.557-.71-.922-.231-.854-.328-1.745-.495-2.618-.31-1.62-.535-3.265-.984-4.846-.245-.864-.78-1.695-1.357-2.401-.795-.973-1.977-1.123-3.117-.583-1.026.486-1.808 1.251-2.388 2.217-1.165 1.937-1.494 4.072-1.155 6.251.298 1.917.763 3.821 1.322 5.681.804 2.676 1.765 5.305 2.649 7.958.636 1.912.834 3.882.802 5.89-.044 2.905-1.13 5.349-3.158 7.399-.261.265-.518.533-.839.864.598 1.064 1.171 2.081 1.743 3.097zm2.674 2.959c.099.168.13.251.186.31.088.091.189.17.29.245 2.218 1.675 4.708 2.3 7.433 1.794 3.868-.717 7.326-2.358 10.32-4.91.73-.623 1.33-1.417 1.913-2.19.297-.394.491-.897.614-1.381.246-.968-.11-1.508-1.103-1.552-.793-.035-1.606.066-2.389.22-.953.187-1.876.531-2.827.731-.551.116-1.212.501-1.679-.035-.458-.525.009-1.12.142-1.68.224-.943.55-1.88.625-2.836.111-1.402-.611-2.015-1.968-1.634-.958.27-1.908.72-2.737 1.275-2.319 1.556-4.094 3.674-5.663 5.951-1.245 1.808-2.325 3.72-3.157 5.692zm-4.128 22.192c.99.816 2.006 1.196 3.096 1.423 2.19.454 4.393.31 6.573.006 3.719-.518 7.307-1.499 10.476-3.607.869-.579 1.652-1.321 2.36-2.094.617-.673 1.343-1.516.742-2.478-.542-.866-1.565-.736-2.442-.552-.865.181-1.723.437-2.548.752-1.186.453-2.324 1.027-3.508 1.482-1.646.635-1.942.414-1.985-1.317-.016-.677-.007-1.359-.105-2.025-.196-1.32-.972-1.999-2.293-1.783-1.021.166-2.091.487-2.959 1.029-1.171.73-2.242 1.665-3.225 2.645-1.845 1.837-3.243 3.991-4.182 6.519zm-1.751-28.725c-1.414-3.193-2.629-6.399-4.497-9.292-.504-.78-1.074-1.523-1.668-2.237-.768-.923-1.697-1.654-2.83-2.1-1.63-.641-2.535-.197-2.917 1.48-.206.908-.373 1.828-.495 2.751-.109.822-.537 1.299-1.319 1.509-.45.121-.898.252-1.334.413-.998.369-1.318.952-1.054 1.98.268 1.047.769 2.001 1.568 2.719 1.004.902 2.045 1.784 3.164 2.533 1.998 1.338 4.261 1.831 6.651 1.754 1.687-.053 3.221-.585 4.731-1.51zm-3.896 23.543c-1.64-2.69-3.21-5.246-5.41-7.339-.958-.914-2.032-1.69-3.301-2.086-.709-.221-1.49-.328-2.232-.299-1.112.044-1.906.752-2.15 1.833-.118.521-.163 1.109-.044 1.621.189.815.496 1.614.835 2.384.705 1.599.697 1.652-.939 2.031-.287.066-.581.127-.853.237-2.145.866-2.616 3.288-.879 4.805.554.484 1.283.817 1.985 1.073 1.254.456 2.573.45 3.89.307 3.554-.386 6.519-1.93 9.098-4.567zm2.098.875c.228-.819.406-1.46.584-2.102-1.283 1.19-1.283 1.19-.584 2.102z"/><path d="m49.822 49.549c-.572-1.017-1.146-2.034-1.743-3.096.321-.331.578-.6.839-.864 2.028-2.05 3.114-4.495 3.158-7.399.032-2.008-.166-3.979-.802-5.89-.884-2.653-1.845-5.281-2.649-7.958-.559-1.859-1.024-3.764-1.322-5.681-.339-2.179-.009-4.314 1.155-6.251.58-.965 1.361-1.73 2.388-2.217 1.141-.54 2.322-.391 3.117.583.577.706 1.112 1.538 1.357 2.401.449 1.581.675 3.226.984 4.846.167.873.264 1.763.495 2.618.1.365.463.92.71.922.37.003.846-.329 1.095-.656.376-.497.654-1.091.872-1.681.514-1.39.909-2.826 1.459-4.2.723-1.805 1.472-3.607 2.354-5.337.7-1.373 1.753-2.493 3.216-3.141 2.018-.894 4-.364 5.271 1.437 1.41 1.997 1.377 4.232.924 6.477-.584 2.892-1.969 5.431-3.962 7.57-1.758 1.886-3.678 3.625-5.571 5.38-1.273 1.18-2.601 2.306-3.946 3.404-4.91 4.005-7.591 9.224-8.499 15.43-.157 1.08-.379 2.15-.571 3.224-.11.026-.218.053-.329.079z" fill="#e5e981"/><path d="m52.496 52.508c.832-1.972 1.912-3.884 3.157-5.692 1.569-2.277 3.344-4.396 5.663-5.951.829-.556 1.779-1.005 2.737-1.275 1.356-.381 2.079.232 1.968 1.634-.075.956-.401 1.893-.625 2.836-.133.56-.6 1.155-.142 1.68.467.536 1.128.151 1.679.035.951-.2 1.874-.544 2.827-.731.782-.153 1.596-.254 2.389-.22.992.043 1.349.583 1.103 1.552-.123.483-.317.987-.614 1.381-.583.773-1.183 1.567-1.913 2.19-2.994 2.552-6.452 4.193-10.32 4.91-2.725.506-5.215-.119-7.433-1.794-.101-.075-.202-.154-.29-.245-.056-.059-.087-.142-.186-.31z" fill="#f15a29"/><path d="m48.368 74.7c.939-2.528 2.337-4.683 4.182-6.52.982-.979 2.054-1.914 3.225-2.645.868-.542 1.938-.863 2.959-1.029 1.321-.216 2.097.463 2.293 1.783.099.666.09 1.349.105 2.025.043 1.731.339 1.952 1.985 1.317 1.184-.455 2.322-1.029 3.508-1.482.825-.315 1.683-.571 2.548-.752.877-.185 1.9-.314 2.442.552.601.962-.125 1.805-.742 2.478-.708.772-1.491 1.515-2.36 2.094-3.169 2.108-6.757 3.09-10.476 3.607-2.181.304-4.383.448-6.573-.006-1.09-.226-2.107-.605-3.096-1.422z" fill="#b783ba"/><path d="m46.617 45.975c-1.51.926-3.044 1.457-4.731 1.512-2.391.077-4.654-.417-6.651-1.754-1.119-.75-2.16-1.631-3.164-2.533-.799-.718-1.3-1.672-1.568-2.719-.264-1.029.056-1.611 1.054-1.98.436-.161.885-.292 1.334-.413.782-.21 1.21-.687 1.319-1.509.122-.923.289-1.843.495-2.751.382-1.678 1.287-2.122 2.917-1.48 1.132.446 2.062 1.177 2.83 2.1.595.714 1.165 1.457 1.668 2.237 1.868 2.89 3.083 6.096 4.497 9.29z" fill="#7fd2f0"/><path d="m42.721 69.518c-2.58 2.638-5.544 4.182-9.098 4.567-1.317.144-2.636.149-3.89-.307-.702-.256-1.431-.589-1.985-1.073-1.736-1.517-1.266-3.938.879-4.805.272-.11.565-.171.853-.237 1.636-.379 1.644-.433.939-2.031-.339-.77-.646-1.568-.835-2.384-.119-.512-.074-1.101.044-1.621.244-1.081 1.038-1.789 2.15-1.833.742-.029 1.523.078 2.232.299 1.269.396 2.342 1.172 3.301 2.086 2.2 2.092 3.77 4.648 5.41 7.339z" fill="#f19d7e"/></g></svg>