<svg id="flat" viewBox="0 0 960 960" xmlns="http://www.w3.org/2000/svg"><path d="m660.912 473.632c7.71-20.833 2.529-44.235-5.746-64.849-3.681-9.183-16.34-22.87-24.907-15.091-.049.04-.104.086-.147.132-16.994 14.918-28.299 32.384-44.017 49.786l-.006-.005c-67.844 9.889-129.522 16.684-195.184 21.865 31.399-38.528 61.583-75.673 96.987-118.779 6.043-7.367 30.092-43-15.354-88.448-46.449-46.444-38.564-42.977-81.33-76.503-38.525-30.21-54.981-36.053-87.992-14.254-13.145-21.569-33.263-52.027-51.367-63.818-15.638-10.192-34.176-18.314-52.553-15.023-16.232 2.911-29.896 14.525-38.692 28.463s-13.335 30.098-17.028 46.168c-12.538 54.498-17.129 106.743-20.062 161.519-2.134 2.077-4.301 4.189-6.495 6.329-5.106 4.98-17.761 20.588-18.658 27.669-1.369 10.789 6.066 22.414 13.962 29.905 60.072 57.04 102.94 96.594 163.017 153.629 8.732 8.296 19.323 17.213 31.229 15.41 9.587-1.458 16.624-9.47 22.775-16.963 3.289-4.006 6.535-7.966 9.744-11.874 88.33-21.755 162.032-41.178 251.235-63.073 15.205 6.68 36.298 13.658 52.969 18.725 1.641.839 3.418 1.317 5.291 1.212 6.105-.322 10.205-6.399 12.327-12.132zm-397.22-275.383c-54.005 45.325-86.005 74.349-124.375 111.257 2.29-46.954 7.154-75.818 16.474-122.314 1.89-9.446 8.546-40.027 16.067-55.339 4.25-8.654 26.73-41.968 64.876-20.877 14.255 7.889 39.276 42.434 52.806 66.326-7.635 5.834-16.145 12.808-25.847 20.946z" fill="#feca7a"/><g fill="#3d4659"><path d="m638.916 482.848c-.917 0-1.823-.419-2.412-1.212-6.912-9.313-10.909-21.775-11.557-36.038-.138-3.036-.341-5.986-.538-8.84-.397-5.764-.772-11.207-.654-17.275.118-6.029.312-15.954 3.192-21.636.75-1.478 2.555-2.069 4.032-1.319 1.478.749 2.068 2.555 1.319 4.032-2.26 4.458-2.444 13.879-2.542 18.94-.115 5.902.251 11.218.639 16.846.199 2.888.404 5.873.546 8.979.593 13.064 4.183 24.384 10.381 32.734.987 1.331.709 3.21-.621 4.197-.538.398-1.165.591-1.786.591z"/><path d="m637.578 415.741c-.742 0-1.484-.273-2.065-.824l-.181-.173c-1.197-1.146-1.238-3.045-.092-4.241 1.145-1.197 3.044-1.239 4.242-.093l.163.155c1.202 1.141 1.251 3.039.11 4.241-.59.621-1.382.935-2.176.935z"/><path d="m651.456 420.038c-.733 0-1.465-.262-2.036-.798-1.207-1.136-1.299-2.998-.164-4.205l.095-.1c1.136-1.207 3.068-1.301 4.275-.166 1.207 1.136 1.299 2.998.164 4.205l-.095.1c-.599.637-1.42.964-2.239.964z"/><path d="m640.952 436.623c-.746 0-1.493-.276-2.074-.833l-.172-.164c-1.197-1.146-1.238-3.045-.092-4.241 1.145-1.198 3.044-1.239 4.242-.093l.172.164c1.197 1.146 1.238 3.045.092 4.241-.589.616-1.377.926-2.167.926z"/><path d="m643.583 461.381c-.737 0-1.475-.27-2.054-.814l-.192-.182c-1.197-1.146-1.238-3.045-.092-4.241 1.145-1.197 3.044-1.239 4.242-.093l.152.145c1.207 1.135 1.266 3.033.13 4.24-.59.628-1.387.945-2.186.945z"/><path d="m656.608 445.624c-.746 0-1.493-.276-2.074-.833l-.172-.163c-1.197-1.146-1.238-3.045-.092-4.241 1.145-1.198 3.044-1.239 4.242-.093l.172.163c1.197 1.146 1.238 3.045.092 4.241-.589.616-1.377.926-2.167.926z"/><path d="m656.462 467.193c-.746 0-1.493-.276-2.074-.833l-.171-.163c-1.197-1.146-1.238-3.045-.092-4.241 1.145-1.198 3.044-1.239 4.242-.093l.171.163c1.197 1.146 1.238 3.045.092 4.241-.589.616-1.377.926-2.167.926z"/><path d="m648.627 478.615c-.746 0-1.493-.276-2.074-.833l-.1-.095 2.002-2.235 2.065-2.176.181.172c1.197 1.146 1.238 3.045.092 4.241-.589.616-1.377.926-2.167.926z"/></g><g fill="#a3d6ff"><path d="m744.273 538.402c.603-4.508 1.604-18.114 1.604-18.114 5.142 6.21 9.35 13.193 12.438 20.641 1.207 2.91 2.258 5.99 2.074 9.135s-1.866 6.381-4.78 7.579c-4.206 1.729-9.116-1.554-10.827-5.768-1.71-4.214-1.112-8.964-.509-13.472z"/><path d="m702.374 524.665c-2.023-3.895-8.444-12.086-11.529-15.208-1.033 4.907-2.066 9.814-3.1 14.721-.715 3.396-1.433 6.88-.919 10.312s2.529 6.858 5.785 8.058c4.118 1.518 8.973-1.197 10.771-5.201s1.015-8.788-1.008-12.683z"/><path d="m704.249 478.36c-1.003-4.9.862-12.15.501-19.554 6.259 3.389 11.871 6.745 16.356 12.272 2.24 2.761 3.647 8.221 3.36 11.765-.403 4.985-6.48 8.117-11.262 6.655-4.783-1.463-7.952-6.238-8.954-11.137z"/><path d="m712.912 609.387c-.443-3.589-1.85-6.984-3.394-10.255-1.789-3.791-5.043-8.701-7.226-12.28-3.975 6.059-6.799 13.828-7.715 21.016-.381 2.993-.469 6.096.472 8.962s3.06 5.476 5.943 6.367c3.455 1.068 7.384-.611 9.566-3.495s2.798-6.727 2.355-10.316z"/><path d="m751.191 603.979c-2.466 8.189-4.304 16.566-5.494 25.035-.547 3.894-.648 8.577 2.503 10.931 2.874 2.146 7.285 1.007 9.618-1.717s2.956-6.536 2.836-10.121c-.206-6.153-5.729-19.233-9.463-24.127z"/></g><path d="m837.006 851.823c-30.925-11.612-50.84-21.016-81.765-32.628-12.096-4.542-24.076-9.18-36.953-6.849-4.904.887-11.625 2.287-16.111 4.247-31.366 13.702-70.612 33.858-104.982 39.68 87.515 11.406 172.064 11.032 253.929 0-5.627-1.75-9.067-2.553-14.119-4.45z" fill="#f2ab5a"/><path d="m724.229 765.881c1.26-14.429 4.029-27.123 9.18-40.659 10.37-27.254 30.696-51.565 57.819-62.272 13.037-5.146 28.132-6.938 40.907-1.174 12.776 5.764 21.946 20.578 18.107 34.058-5.326 18.701-28.701 23.667-47.408 28.972-22.139 6.278-64.802 15.991-78.605 41.076" fill="#6aac96"/><path d="m725.05 756.952c0-41.116-20.823-81.252-48.47-91.33-5.895-2.149-12.272-3.302-18.476-2.366-11.112 1.676-20.783 10.571-23.38 21.505s2.086 23.164 11.213 29.721c13.449 9.662 67.476 15.154 79.113 42.47" fill="#6aac96"/><path d="m725.754 760.85c-1.256 0-2.426-.795-2.846-2.052-7.54-22.617-21.386-41.09-37.989-50.682-1.435-.829-1.926-2.664-1.097-4.099.828-1.435 2.663-1.927 4.098-1.097 17.856 10.315 32.683 29.99 40.68 53.979.524 1.572-.326 3.271-1.897 3.795-.315.105-.635.155-.949.155z" fill="#3d4659"/><path d="m724.71 814.471c-1.521 0-2.824-1.151-2.981-2.696-1.568-15.416-1.742-31.808-.489-46.154 3.543-30.325 37.373-62.318 66.752-73.228 1.556-.577 3.28.216 3.857 1.769s-.215 3.279-1.768 3.856c-34.33 12.748-60.226 45.562-62.873 68.212-1.212 13.896-1.042 29.886.489 44.938.168 1.648-1.032 3.121-2.681 3.288-.103.011-.206.016-.307.016z" fill="#3d4659"/></svg>