<svg id="Layer_3" enable-background="new 0 0 300 300" viewBox="0 0 300 300" xmlns="http://www.w3.org/2000/svg"><g><g><path d="m185.685 112.55c9.31 10.57 5.33 25.08 9.41 34.51-6.4-2.86-15.31-2.66-23.71-4.77-4.48-1.13-8.81-2.91-12.53-6.15-.45 1.82-1.09 3.51-1.89 5.1-5.2 10.49-16.76 16.6-21.56 24.59-2.06-10.05-13.62-19.68-12.05-33.67-13.57 6.63-27.69.48-38.65 2.53 7.23-8.16 8.55-22.96 21.22-31.08-13.51-5.52-16.62-19.9-24.75-26.54 11.08-.12 24.28-8.96 38.51-5.07-3.27-13.53 6.97-25.3 7.79-35.63 6.58 8 21.72 11.79 26.78 24.75 9.44-11.33 25.32-11.64 34.47-17.89-2.86 10.1 2.83 23.67-5.08 35.93 15.02-.6 24.58 10.78 35.18 13.34-10.16 4.59-18.21 17.71-33.14 20.05z" fill="#eb6029"/><path d="m170.735 257.78c.23 3.15-2.21 5.85-5.36 5.85h-2.54c-3.08 0-5.52-2.59-5.37-5.68 1.09-21.74 4.85-37.36 7.51-51.27-7.01-3.34-13.05-8.56-18.28-15.32-1.98-2.55-1.9-6.13.12-8.64 1.38-1.71 3.41-2.61 5.47-2.61 1.38 0 2.78.41 3.99 1.27 4.2 2.98 8.01 6.03 11.12 9.2 1.28-14.48-.55-29-10.43-49.34.8-1.59 1.44-3.28 1.89-5.1 3.72 3.24 8.05 5.02 12.53 6.15 20.14 55.66 1.5 58.07-.65 115.49z" fill="#7cad45"/></g><g><path d="m219.295 90.556c-3.78-.913-7.56-3.114-11.563-5.445-5.907-3.44-12.506-7.284-20.711-7.891 3.447-7.171 3.177-14.567 2.935-21.188-.163-4.468-.317-8.688.693-12.256.229-.81-.073-1.677-.756-2.168s-1.601-.502-2.296-.028c-3.284 2.243-7.651 3.721-12.274 5.286-6.865 2.324-14.547 4.924-20.511 10.717-3.733-6.874-10.188-11.055-15.962-14.794-3.86-2.5-7.505-4.861-9.83-7.688-.518-.63-1.368-.884-2.144-.637-.778.244-1.33.937-1.394 1.75-.29 3.648-1.926 7.67-3.659 11.928-2.594 6.373-5.494 13.499-4.62 21.276-8.21-1.336-16.005.93-22.969 2.958-4.683 1.364-9.107 2.652-13.081 2.695-.842.009-1.588.544-1.866 1.339s-.029 1.678.623 2.21c2.873 2.345 5.164 5.892 7.59 9.647 3.595 5.565 7.611 11.782 14.546 15.686-6.384 5.199-9.596 12.128-12.47 18.328-1.948 4.203-3.789 8.172-6.367 11.083-.566.639-.665 1.568-.243 2.312.421.743 1.266 1.136 2.108.98 3.932-.735 8.456-.329 13.244.102 7.084.637 15.009 1.349 22.896-1.519.146 7.763 3.853 14.187 7.17 19.936 2.23 3.866 4.337 7.517 5.063 11.057.166.807.81 1.431 1.622 1.569.113.02.226.029.338.029.694 0 1.349-.362 1.714-.97 1.972-3.283 5.303-6.345 8.829-9.586 3.693-3.396 7.766-7.173 10.816-11.756 6.685 14.668 9.446 27.223 8.909 40.684-2.335-2.063-5.06-4.195-8.24-6.452-1.51-1.073-3.29-1.64-5.148-1.64-2.745 0-5.306 1.223-7.028 3.356-2.63 3.268-2.688 7.84-.144 11.117 5.199 6.721 11.118 11.831 17.611 15.209-.347 1.782-.71 3.595-1.081 5.446-2.463 12.311-5.255 26.264-6.176 44.615-.099 2.026.645 4.028 2.04 5.492 1.403 1.473 3.296 2.285 5.328 2.285h2.54c2.063 0 3.972-.833 5.377-2.344 1.381-1.486 2.101-3.496 1.985-5.532.774-20.473 3.614-33.654 6.12-45.287 4.205-19.52 7.28-33.797-4.393-67.476 2.383.444 4.758.775 7.08 1.087 4.749.639 9.234 1.243 12.736 2.808.754.337 1.635.176 2.222-.404s.757-1.459.43-2.216c-1.438-3.324-1.802-7.529-2.187-11.98-.572-6.609-1.211-13.993-5.539-20.438 8.111-2.167 14.198-7.285 19.642-11.861 3.681-3.094 7.157-6.017 10.801-7.664.779-.352 1.248-1.159 1.168-2.01s-.694-1.557-1.524-1.757zm-44.348 121.069c-2.418 11.227-5.429 25.2-6.21 46.081-.003.073-.001.147.004.22.072.986-.254 1.923-.917 2.636-.64.688-1.51 1.068-2.448 1.068h-2.54c-.927 0-1.791-.371-2.432-1.043-.652-.685-.986-1.587-.94-2.536.905-18.052 3.667-31.852 6.103-44.027.477-2.381.94-4.697 1.374-6.968.171-.894-.283-1.79-1.104-2.181-6.47-3.082-12.377-8.041-17.561-14.741-1.405-1.809-1.364-4.342.097-6.157.957-1.186 2.383-1.866 3.914-1.866 1.023 0 2.002.312 2.833.901 4.538 3.22 8.087 6.154 10.85 8.969.546.557 1.367.747 2.102.482.734-.263 1.249-.929 1.318-1.707 1.471-16.646-1.583-31.506-10.203-49.519.026-.056.046-.115.071-.171.233-.52.455-1.045.654-1.577.366.253.74.497 1.122.733.128.079.261.153.39.231.257.154.514.307.779.454.16.089.325.173.488.259.243.129.485.257.734.38.177.088.359.171.54.256.243.115.488.229.737.338.19.083.384.164.578.245.25.104.502.207.759.307.201.078.405.154.61.23.259.095.522.189.788.28.211.072.424.144.639.213.272.088.55.174.829.258.219.066.438.131.661.195.099.028.194.059.295.087 12.272 34.318 9.404 47.623 5.086 67.67zm31.326-112.701c-6.02 5.061-12.244 10.293-20.897 11.65-.721.113-1.324.61-1.571 1.297-.248.687-.103 1.454.38 2.001 5.299 6.017 5.948 13.511 6.575 20.758.28 3.232.549 6.344 1.217 9.23-3.066-.827-6.416-1.278-9.899-1.747-3.37-.454-6.854-.922-10.203-1.764-4.935-1.245-8.655-3.062-11.706-5.719-.526-.458-1.252-.609-1.916-.399-.665.21-1.172.751-1.339 1.427-.101.408-.212.809-.334 1.206 0 .002-.001.003-.002.005-.365 1.188-.829 2.335-1.405 3.481-2.737 5.522-7.412 9.82-11.932 13.977-2.586 2.378-5.073 4.665-7.112 7.096-1.104-2.743-2.663-5.443-4.281-8.249-3.638-6.305-7.4-12.825-6.506-20.793.082-.726-.238-1.438-.835-1.858-.343-.242-.747-.365-1.152-.365-.299 0-.6.067-.878.203-7.865 3.843-15.966 3.116-23.802 2.411-3.367-.303-6.612-.594-9.715-.511 1.576-2.542 2.886-5.368 4.245-8.299 3.186-6.872 6.48-13.978 13.8-18.669.628-.403.98-1.123.913-1.866-.068-.744-.544-1.387-1.235-1.67-7.75-3.166-11.853-9.519-15.822-15.662-1.716-2.657-3.37-5.216-5.261-7.438 3.149-.52 6.388-1.463 9.754-2.443 7.657-2.23 15.577-4.536 23.805-2.287.684.188 1.413 0 1.92-.494.508-.493.717-1.217.551-1.905-1.866-7.72 1.064-14.92 3.898-21.882 1.276-3.136 2.504-6.153 3.255-9.121 2.315 2.004 5.05 3.775 7.893 5.617 6.308 4.085 12.831 8.31 15.717 15.703.257.659.843 1.133 1.542 1.247.698.115 1.404-.151 1.857-.694 5.457-6.549 13.264-9.192 20.814-11.747 3.324-1.125 6.522-2.208 9.404-3.587-.277 2.905-.166 5.95-.05 9.111.267 7.309.542 14.866-3.995 21.898-.405.627-.426 1.428-.056 2.076s1.067 1.029 1.817 1.007c8.674-.351 15.448 3.596 21.994 7.408 2.792 1.626 5.483 3.193 8.229 4.376-2.596 1.714-5.089 3.81-7.676 5.984z" fill="#603913"/><g fill="#fff"><path d="m140.712 83.558c.851.034 1.468.205 2.001.426.548.212.977.494 1.341.815.363.321.585.725.68 1.204.088.483.15.981.292 1.433l.411 1.363.346 1.401c.204.95.414 1.896.541 2.891l-.431.254c-.808-.594-1.533-1.237-2.265-1.876l-1.057-.982-.992-1.02c-.326-.343-.731-.639-1.111-.951-.373-.315-.618-.706-.723-1.179s-.143-.986-.063-1.568c.066-.574.215-1.196.598-1.957z"/><path d="m130.92 101.373c.295-.799.649-1.333 1.024-1.772.371-.455.772-.777 1.19-1.023.418-.245.871-.332 1.355-.275.487.066.98.16 1.453.165l1.423.031 1.439.104c.966.1 1.931.192 2.916.378l.108.488c-.815.585-1.65 1.076-2.484 1.574l-1.261.702-1.277.629c-.427.204-.834.498-1.247.763-.415.257-.862.37-1.345.323-.482-.047-.982-.169-1.51-.425-.525-.24-1.071-.574-1.676-1.174z"/><path d="m144.838 116.19c-.669-.528-1.067-1.029-1.369-1.521-.318-.494-.5-.974-.605-1.448-.104-.473-.047-.931.158-1.374.213-.443.455-.882.606-1.331l.469-1.344.543-1.337c.394-.888.779-1.777 1.261-2.657l.498.048c.305.956.513 1.902.73 2.849l.278 1.416.203 1.409c.062.469.216.947.34 1.422.116.474.085.934-.108 1.379-.194.444-.464.881-.871 1.305-.39.425-.877.842-1.634 1.231z"/><path d="m163.231 107.532c-.708.473-1.308.697-1.87.832-.568.15-1.081.175-1.564.128-.482-.047-.9-.243-1.258-.574-.355-.339-.698-.706-1.078-.987l-1.133-.861-1.103-.93c-.723-.649-1.449-1.29-2.137-2.02l.199-.458c1.003.005 1.967.099 2.935.186l1.433.173 1.403.242c.465.086.967.087 1.457.116.487.036.915.208 1.278.529.363.322.695.714.972 1.232.284.503.529 1.094.666 1.935z"/><path d="m160.68 87.365c.231.82.258 1.46.213 2.035-.033.587-.168 1.082-.361 1.527-.194.444-.509.781-.935 1.019-.432.233-.887.446-1.272.721l-1.169.812-1.225.762c-.84.487-1.675.98-2.582 1.408l-.374-.331c.315-.952.703-1.84 1.084-2.734l.608-1.309.664-1.259c.226-.416.382-.893.561-1.35.185-.452.48-.806.898-1.052s.893-.44 1.472-.544c.566-.115 1.204-.166 2.046-.036z"/></g></g></g></svg>