<svg id="Layer_1" enable-background="new 0 0 100 100" height="100" viewBox="0 0 100 100" width="100" xmlns="http://www.w3.org/2000/svg"><g clip-rule="evenodd" fill-rule="evenodd"><path d="m47.119 39.506c-2.347-.112-4.006-1.388-5.539-2.842-4.366-4.144-8.556-8.452-12.068-13.369-1.396-1.954-2.515-4.046-2.875-6.453-.122-.817-.174-1.689-.027-2.493.323-1.766 1.864-2.548 3.491-1.793.749.347 1.498.814 2.064 1.403 1.029 1.068 2.051 2.185 2.842 3.431 1.195 1.884 2.194 3.894 3.268 5.854.265.484.498.987.953 1.416-.182-.815-.361-1.631-.545-2.446-.607-2.68-1.374-5.342-1.392-8.112-.009-1.386.044-2.817.377-4.152.773-3.108 3.279-3.719 5.486-1.369.72.767 1.29 1.713 1.777 2.655 1.385 2.682 1.971 5.614 2.499 8.555.676 3.775.877 7.589.946 11.414.014.777.002 1.555.002 2.333.107.019.215.038.323.056.145-.348.338-.684.425-1.045.854-3.578 1.724-7.153 2.524-10.744.894-4.012 1.916-7.976 3.799-11.663.724-1.417 1.517-2.798 2.76-3.831.529-.439 1.124-.854 1.759-1.101 1.467-.571 2.7.039 3.214 1.533.484 1.409.35 2.854.106 4.287-.108.636-.286 1.261-.502 2.194.476-.38.75-.57.989-.796 1.017-.959 1.954-2.017 3.054-2.869.944-.731 2.015-1.369 3.125-1.804 1.966-.771 3.439.288 3.52 2.411.052 1.373-.289 2.672-.844 3.929-1.488 3.372-3.67 6.264-6.163 8.937-2.957 3.169-5.965 6.292-8.916 9.467-3.381 3.638-6.214 7.669-8.549 12.057-.738 1.386-1.113 2.817-1.252 4.385-.81 9.068-2.15 18.044-4.72 26.806-1.054 3.593-2.478 7.033-4.163 10.362-.897 1.772-1.582 3.563-1.602 5.577-.008.789-.131 1.579-.226 2.365-.056.457-.092 1.034-.75.938-.538-.078-.51-.58-.468-1.012.059-.603.133-1.204.183-1.808.667-8.138 1.889-16.198 3.63-24.168 1.524-6.977 3.68-13.771 6.537-20.333.381-.875.565-1.864.687-2.819.164-1.292.188-2.602.256-3.905.026-.456.005-.915.005-1.438zm1.27 3.437c.253-.336.405-.495.508-.681 2.489-4.472 5.674-8.418 9.171-12.126 2.463-2.611 4.955-5.194 7.408-7.814 2.368-2.529 4.505-5.236 5.896-8.443.385-.887.624-1.847.844-2.793.183-.792.171-1.664-.551-2.178-.706-.502-1.428-.003-2.099.303-1.558.712-2.771 1.874-3.948 3.076-1.175 1.198-2.322 2.423-3.526 3.592-.213.206-.641.191-.969.279-.079-.296-.231-.597-.218-.89.017-.364.169-.722.267-1.082.314-1.169.724-2.323.917-3.512.163-.997.205-2.053.066-3.05-.194-1.401-1.164-1.845-2.313-1.007-.918.67-1.794 1.536-2.372 2.504-.95 1.591-1.843 3.271-2.401 5.028-.999 3.146-1.847 6.352-2.547 9.579-.998 4.605-1.908 9.221-3.891 13.538-.133.29-.227.626-.232.943-.023 1.485-.01 2.973-.01 4.734zm-1.172-12.364c-.157-4.388-.502-8.75-1.454-13.048-.496-2.24-1.104-4.447-2.271-6.434-.485-.826-1.128-1.616-1.863-2.224-1.076-.892-2-.627-2.533.686-.327.805-.587 1.711-.57 2.566.039 1.902.108 3.83.459 5.692.595 3.157 1.425 6.27 2.137 9.405.154.679.288 1.375.307 2.067.007.291-.31.59-.479.885-.263-.155-.624-.249-.77-.479-.425-.665-.773-1.381-1.138-2.083-1.565-3.019-3.04-6.09-4.727-9.039-.798-1.393-1.95-2.602-3.047-3.796-.483-.526-1.197-.889-1.868-1.18-.707-.306-1.332.009-1.515.758-.151.616-.192 1.295-.113 1.926.284 2.275 1.278 4.275 2.593 6.118 3.701 5.186 8.092 9.75 12.792 14.023.68.618 1.5 1.119 2.329 1.523.934.455 1.512.084 1.688-.937.055-.319.043-.65.043-.977.003-1.816 0-3.634 0-5.452zm-8.991 53.758c5.155-10.405 6.762-21.668 7.96-33.029-4.463 10.573-6.626 21.701-7.96 33.029z"/><path d="m48.389 42.943c0-1.761-.013-3.249.011-4.736.005-.316.099-.653.232-.943 1.982-4.317 2.893-8.933 3.891-13.538.7-3.227 1.548-6.433 2.547-9.579.559-1.757 1.451-3.437 2.401-5.028.578-.968 1.454-1.834 2.372-2.504 1.148-.837 2.118-.394 2.313 1.007.139.998.097 2.054-.066 3.05-.193 1.189-.603 2.343-.917 3.512-.098.36-.25.718-.267 1.082-.014.292.139.593.218.89.328-.087.756-.073.969-.279 1.204-1.168 2.352-2.394 3.526-3.592 1.178-1.202 2.391-2.364 3.948-3.076.671-.306 1.393-.805 2.099-.303.722.514.733 1.386.551 2.178-.22.947-.459 1.906-.844 2.793-1.391 3.207-3.527 5.914-5.896 8.443-2.453 2.62-4.945 5.203-7.408 7.814-3.497 3.708-6.682 7.654-9.171 12.126-.104.188-.255.347-.509.683z" fill="#b783ba"/><path d="m47.217 30.579c0 1.818.002 3.636-.001 5.454 0 .326.011.658-.043.977-.176 1.021-.753 1.392-1.688.937-.829-.404-1.649-.905-2.329-1.523-4.7-4.273-9.091-8.838-12.792-14.023-1.315-1.843-2.31-3.842-2.593-6.118-.079-.63-.038-1.31.113-1.926.184-.75.808-1.064 1.515-.758.671.292 1.385.654 1.868 1.18 1.098 1.194 2.25 2.403 3.047 3.796 1.688 2.949 3.162 6.02 4.727 9.039.365.703.712 1.419 1.138 2.083.146.23.507.323.77.479.169-.295.487-.595.479-.885-.019-.692-.153-1.388-.307-2.067-.712-3.136-1.542-6.248-2.137-9.405-.351-1.862-.42-3.791-.459-5.692-.017-.854.243-1.761.57-2.566.533-1.313 1.457-1.578 2.533-.686.735.608 1.378 1.398 1.863 2.224 1.167 1.986 1.775 4.194 2.271 6.434.953 4.297 1.298 8.658 1.455 13.046z" fill="#f15a29"/></g></svg>