<svg id="Layer_3" enable-background="new 0 0 300 300" viewBox="0 0 300 300" xmlns="http://www.w3.org/2000/svg"><g><g><path d="m190.735 160.888c-2.675 10.009-12.8 14.931-21.717 12.547-2.947-.788-5.754-2.366-8.128-4.833l-.324-.335.129.448c3.822 13.236-8.274 25.571-21.577 22.015-10.009-2.675-14.934-12.79-12.55-21.707.788-2.947 2.369-5.764 4.835-8.137l.335-.324-.448.129c-13.236 3.821-25.583-8.267-22.024-21.58 2.682-9.996 12.8-14.931 21.727-12.545 2.937.785 5.752 2.376 8.128 4.833l.324.335-.129-.448c-3.831-13.238 8.264-25.573 21.577-22.015 9.999 2.673 14.934 12.79 12.547 21.717-.785 2.937-2.376 5.752-4.833 8.128l-.335.324.448-.129c13.227-3.824 25.571 8.274 22.015 21.577z" fill="#ea5766"/><path d="m153.076 144.673c5.678-9.835-11.829-9.835-6.151 0-5.678-9.835-14.432 5.327-3.076 5.327-11.356 0-2.602 15.162 3.076 5.327-5.678 9.835 11.829 9.835 6.151 0 5.678 9.835 14.432-5.327 3.076-5.327 11.355 0 2.602-15.162-3.076-5.327z" fill="#fbd529"/></g><g fill="#603913"><path d="m187.42 142.247c-3.906-3.827-8.979-5.802-14.245-5.646.978-1.591 1.72-3.307 2.198-5.097 2.81-10.516-3.454-21.356-13.964-24.166-6.965-1.861-14.126.101-19.166 5.245-3.825 3.905-5.791 8.996-5.64 14.247-1.591-.976-3.306-1.718-5.095-2.196-10.508-2.81-21.354 3.452-24.176 13.96-1.858 6.955.101 14.115 5.241 19.155 3.908 3.83 9.02 5.805 14.258 5.651-.974 1.59-1.716 3.309-2.197 5.107-2.809 10.51 3.457 21.346 13.967 24.155 1.729.462 3.47.688 5.188.688 5.195 0 10.18-2.067 13.968-5.931 3.824-3.902 5.793-8.988 5.647-14.234 1.576.966 3.279 1.695 5.098 2.181 10.516 2.811 21.355-3.453 24.166-13.963 1.858-6.953-.104-14.114-5.248-19.156zm1.383 18.124c-2.508 9.387-11.955 13.086-19.268 11.132-2.75-.735-5.173-2.177-7.206-4.291l-.324-.335c-.639-.659-1.644-.801-2.438-.342-.795.458-1.176 1.398-.925 2.281l.13.455c1.593 5.513.145 11.251-3.872 15.349-4.019 4.098-9.726 5.661-15.266 4.179-9.387-2.509-13.088-11.95-11.136-19.258.737-2.756 2.181-5.183 4.295-7.217l.335-.324c.66-.638.8-1.643.341-2.438-.364-.63-1.031-.999-1.731-.999-.183 0-.368.025-.551.077l-.452.13c-5.519 1.591-11.261.144-15.36-3.876-4.098-4.017-5.659-9.723-4.178-15.264 2.519-9.385 11.963-13.087 19.278-11.131 2.696.721 5.188 2.205 7.207 4.292l.324.335c.639.659 1.645.8 2.439.34.794-.459 1.174-1.401.92-2.284l-.13-.452c-1.595-5.512-.15-11.249 3.863-15.347 4.018-4.1 9.729-5.663 15.276-4.18 9.387 2.509 13.087 11.955 11.132 19.268-.721 2.697-2.204 5.189-4.291 7.208l-.335.324c-.66.638-.8 1.643-.341 2.438.459.794 1.398 1.175 2.282.922l.453-.13c5.509-1.593 11.244-.146 15.344 3.872 4.103 4.017 5.666 9.725 4.185 15.266z"/><path d="m159.32 139.687c-.555-.202-1.802-.528-3.292-.129-.398-1.491-1.305-2.406-1.757-2.785-2.355-1.977-6.188-1.977-8.543 0-.452.379-1.358 1.294-1.757 2.785-1.49-.4-2.737-.073-3.292.129-2.889 1.052-4.805 4.371-4.271 7.398.103.581.442 1.824 1.534 2.915-1.092 1.09-1.432 2.333-1.534 2.915-.533 3.028 1.383 6.347 4.271 7.398.556.202 1.803.529 3.292.129.398 1.491 1.305 2.406 1.757 2.785 1.178.988 2.725 1.482 4.271 1.482s3.094-.494 4.271-1.482c.452-.379 1.358-1.294 1.757-2.785 1.488.398 2.737.072 3.292-.129 2.889-1.052 4.805-4.371 4.271-7.398-.103-.581-.442-1.824-1.534-2.915 1.092-1.09 1.432-2.333 1.534-2.915.535-3.027-1.381-6.346-4.27-7.398zm-3.169 12.313c1.201 0 3.254.209 3.501 1.609.194 1.104-.647 2.563-1.701 2.946-1.328.48-2.543-1.187-3.144-2.228-.554-.957-1.777-1.287-2.732-.732-.642.371-1.001 1.043-1 1.734 0 .339.086.683.268.998.602 1.041 1.446 2.923.357 3.836-.857.72-2.543.72-3.4 0-1.089-.914-.244-2.796.357-3.836.182-.315.268-.658.268-.998.001-.691-.358-1.364-1-1.734-.956-.555-2.18-.225-2.732.732-.602 1.041-1.815 2.707-3.144 2.228-1.054-.383-1.896-1.842-1.701-2.946.247-1.4 2.3-1.609 3.501-1.609 1.104 0 2-.896 2-2s-.896-2-2-2c-1.201 0-3.254-.209-3.501-1.609-.194-1.104.647-2.563 1.701-2.946 1.329-.484 2.542 1.187 3.144 2.228.553.956 1.776 1.285 2.732.732.642-.371 1.001-1.043 1-1.734 0-.339-.086-.683-.268-.998-.602-1.041-1.446-2.923-.357-3.836.857-.72 2.543-.72 3.4 0 1.089.914.244 2.796-.357 3.836-.182.315-.268.658-.268.998-.001.691.358 1.364 1 1.734.955.553 2.179.224 2.732-.732.601-1.041 1.814-2.712 3.144-2.228 1.054.383 1.896 1.842 1.701 2.946-.247 1.4-2.3 1.609-3.501 1.609-1.104 0-2 .896-2 2s.896 2 2 2z"/></g></g></svg>