<svg id="Layer_1" enable-background="new 0 0 100 100" height="100" viewBox="0 0 100 100" width="100" xmlns="http://www.w3.org/2000/svg"><g clip-rule="evenodd" fill-rule="evenodd"><path d="m53.024 21.121c.126-.945.283-1.887.373-2.835.265-2.811.412-5.637.796-8.43.168-1.222.629-2.479 1.257-3.544 1.082-1.835 2.87-1.731 3.635.234.554 1.422.865 2.997.968 4.525.28 4.164-.199 8.301-.93 12.392-1.621 9.078-3.331 18.141-5.005 27.21-.061.332-.126.663-.009 1.117.243-.324.473-.658.728-.971.653-.799 1.224-1.701 2-2.356 1.204-1.017 2.333-.541 2.608 1.032.118.672.106 1.382.049 2.066-.115 1.378-.318 2.748-.454 4.125-.07.718-.074 1.44-.128 2.58.917-.687 1.529-1.079 2.064-1.557 1.506-1.345 2.934-2.777 4.481-4.068.921-.767 1.951-1.459 3.038-1.956 2.031-.928 3.539.205 3.165 2.419-.228 1.342-.646 2.729-1.313 3.906-2.753 4.847-6.368 8.915-11.371 11.544-1.199.63-2.56 1.018-3.891 1.316-1.495.335-2.555-.443-3.177-1.788-.352-.764-.618-1.565-.922-2.351-.12.005-.239.008-.359.011-.372 2.654-.784 5.305-1.081 7.967-.057.51.26 1.114.536 1.6 3.292 5.762 3.971 12.086 4.029 18.547.001.172.046.39-.038.509-.182.254-.423.618-.661.635-.223.017-.603-.315-.684-.569-.136-.426-.076-.911-.121-1.369-.308-3.094-.525-6.2-.966-9.275-.309-2.15-.997-4.229-2.447-6.093-.055.717-.175 1.436-.155 2.151.119 4.321.272 8.642.411 12.963.017.518.103 1.051.001 1.545-.052.249-.427.523-.706.596-.153.041-.512-.276-.596-.5-.138-.366-.155-.786-.177-1.187-.316-5.872-.754-11.745-.16-17.624.09-.895-.282-1.535-.782-2.199-2.374-3.149-5.232-5.825-8.123-8.482-2.249-2.064-4.513-4.133-6.568-6.384-1.302-1.426-2.387-3.11-3.276-4.832-.557-1.075-.806-2.438-.782-3.663.066-3.366 3.072-5.178 6.083-3.686 1.109.549 2.189 1.352 2.988 2.29 1.3 1.526 2.363 3.254 3.513 4.907.314.451.583.934 1.173 1.337 0-.543-.022-1.087.003-1.629.1-2.067.143-4.143.363-6.199.087-.825.455-1.683.908-2.39.679-1.062 1.866-1.125 2.573-.083.598.88 1.102 1.941 1.258 2.981.341 2.272.545 4.58.599 6.877.06 2.533-.162 5.072-.166 7.608-.002 1.635.169 3.27.262 4.904.125.019.25.036.375.055.228-.501.505-.985.673-1.506 3.59-11.056 4.106-22.172.374-33.29-.969-2.885-2.408-5.61-3.591-8.426-.825-1.964-1.723-3.915-2.319-5.951-.378-1.287-.486-2.749-.312-4.08.282-2.167 2.122-2.789 3.796-1.377.692.583 1.292 1.329 1.771 2.101 1.096 1.761 2.085 3.586 3.131 5.379.256.437.561.846.844 1.268.149-.015.296-.031.444-.047zm4.193-14.713c-.428.655-.794 1.032-.939 1.48-.319.981-.646 1.985-.757 3.004-.279 2.577-.42 5.169-.661 7.751-.096 1.028-.203 2.081-.515 3.056-.188.591-.718 1.394-1.204 1.48-.489.086-1.238-.491-1.651-.969-.593-.687-.992-1.544-1.465-2.334-1.036-1.729-2.034-3.483-3.114-5.185-.447-.705-.959-1.461-1.963-1.415-.71.614-.672 1.428-.529 2.125.323 1.571.652 3.169 1.248 4.647 1.141 2.831 2.485 5.58 3.719 8.374 2.355 5.335 3.689 10.904 3.792 16.751.005.278.079.554.122.831.328-.287.421-.553.469-.826 1.38-7.833 2.795-15.659 4.111-23.502.592-3.526.92-7.093.714-10.68-.088-1.486-.235-2.977-1.377-4.588zm-12.729 39.041c-.283.919-.652 1.641-.705 2.386-.145 2.003-.195 4.016-.204 6.025-.008 1.61.142 3.222.123 4.831-.004.353-.428.7-.658 1.05-.313-.211-.741-.354-.918-.646-.563-.935-1.023-1.932-1.537-2.896-1.244-2.341-2.461-4.723-4.389-6.581-.888-.856-1.973-1.609-3.104-2.086-1.436-.604-2.882.212-3.145 1.756-.175 1.032-.159 2.249.234 3.19.632 1.517 1.483 3.011 2.538 4.265 1.587 1.887 3.4 3.592 5.173 5.316 2.599 2.527 5.245 5.006 7.879 7.497.179.169.423.27.857.539-.09-1.111-.18-1.965-.224-2.82-.11-2.124-.259-4.249-.279-6.375-.025-2.647.125-5.296.08-7.942-.027-1.605-.228-3.213-.451-4.806-.125-.889-.33-1.804-1.27-2.703zm13.538 4.474c-.181-.061-.362-.122-.543-.184-.526.737-1.153 1.42-1.56 2.219-.938 1.848-1.817 3.73-2.635 5.636-1.186 2.764-.938 5.645-.523 8.518.056.391.229.776.404 1.137.525 1.081 1.033 1.409 2.215 1.121.996-.242 1.983-.632 2.889-1.117 4.723-2.528 8.137-6.38 10.766-10.959.534-.931.781-2.037 1.075-3.086.108-.387-.035-.844-.068-1.356-1.462.165-2.428.912-3.328 1.686-1.662 1.427-3.215 2.98-4.884 4.398-.778.66-1.674 1.228-2.601 1.649-.787.357-1.354.027-1.598-.81-.174-.595-.23-1.252-.192-1.873.065-1.091.272-2.174.365-3.265.105-1.236.148-2.475.218-3.714zm-10.178 22.031c.101-.03.202-.06.302-.089 0-.358 0-.717 0-1.16-.354.156-.596.262-.963.422.272.342.466.584.661.827z"/><path d="m57.217 6.408c1.143 1.611 1.289 3.103 1.375 4.589.206 3.587-.122 7.153-.714 10.68-1.316 7.843-2.731 15.669-4.111 23.502-.048.273-.141.539-.469.826-.043-.277-.117-.553-.122-.831-.103-5.847-1.437-11.416-3.792-16.751-1.234-2.794-2.578-5.542-3.719-8.374-.596-1.478-.925-3.077-1.248-4.647-.144-.697-.181-1.512.529-2.125 1.004-.046 1.516.71 1.963 1.415 1.081 1.701 2.078 3.455 3.114 5.185.474.79.872 1.647 1.465 2.334.413.478 1.162 1.055 1.651.969.486-.086 1.016-.889 1.204-1.48.312-.975.419-2.027.515-3.056.241-2.582.382-5.174.661-7.751.11-1.019.438-2.023.757-3.004.147-.449.513-.826.941-1.481z" fill="#92d1b9"/><path d="m44.488 45.449c.94.899 1.146 1.814 1.27 2.701.223 1.593.424 3.201.451 4.806.046 2.646-.104 5.295-.08 7.942.02 2.126.169 4.251.279 6.375.044.855.134 1.709.224 2.82-.435-.27-.679-.37-.857-.539-2.634-2.491-5.28-4.97-7.879-7.497-1.773-1.725-3.586-3.43-5.173-5.316-1.055-1.254-1.905-2.748-2.538-4.265-.393-.941-.409-2.158-.234-3.19.263-1.543 1.709-2.36 3.145-1.756 1.131.477 2.216 1.23 3.104 2.086 1.928 1.858 3.145 4.24 4.389 6.581.514.965.974 1.962 1.537 2.896.177.293.604.436.918.646.23-.35.654-.697.658-1.05.019-1.609-.131-3.221-.123-4.831.009-2.009.059-4.021.204-6.025.053-.743.422-1.465.705-2.384z" fill="#e5e981"/><path d="m58.026 49.923c-.07 1.239-.113 2.478-.218 3.714-.093 1.091-.3 2.174-.365 3.265-.038.621.019 1.278.192 1.873.244.837.811 1.167 1.598.81.927-.422 1.822-.989 2.601-1.649 1.669-1.418 3.222-2.972 4.884-4.398.9-.773 1.866-1.521 3.328-1.686.033.513.177.97.068 1.356-.294 1.049-.541 2.155-1.075 3.086-2.629 4.579-6.043 8.431-10.766 10.959-.905.485-1.893.875-2.889 1.117-1.182.288-1.689-.04-2.215-1.121-.176-.36-.349-.746-.404-1.137-.414-2.873-.662-5.754.523-8.518.817-1.905 1.696-3.788 2.635-5.636.406-.799 1.033-1.482 1.56-2.219.181.062.363.123.543.184z" fill="#7fd2f0"/></g></svg>