<svg id="Layer_1" enable-background="new 0 0 100 100" height="100" viewBox="0 0 100 100" width="100" xmlns="http://www.w3.org/2000/svg"><g clip-rule="evenodd" fill-rule="evenodd"><path d="m53.055 51.926c-.069.835-.138 1.467-.172 2.1-.221 4.048-.558 8.073-1.901 11.945-.162.467-.157 1.008-.15 1.514.018 1.349.093 2.695.115 4.044.017.963.263 1.827 1.023 2.698.188-.438.331-.797.497-1.145.718-1.507 1.376-3.048 2.194-4.498.373-.658 1.001-1.236 1.638-1.671 1.05-.715 2.169-.402 2.635.775.351.888.438 1.883.602 2.838.097.567.113 1.149.194 2.024.648-.575 1.076-.915 1.456-1.3 1.111-1.125 2.146-2.333 3.321-3.385.926-.828 1.941-1.623 3.049-2.164 1.59-.778 2.841.01 2.853 1.773.007 1.088-.188 2.243-.579 3.256-1.411 3.651-3.917 6.393-7.356 8.258-3.255 1.767-6.766 1.424-9.139-1.015-.123-.127-.297-.204-.54-.366-.111.364-.224.653-.288.953-.977 4.624-1.209 9.307-1.063 14.017.013.418.036.84-.005 1.254-.021.207-.182.578-.27.574-.647-.02-1.173.209-1.671.593-.025.019-.502-.364-.551-.604-.08-.396.006-.83.042-1.247.532-6.307.792-12.623.806-18.952.002-1.277-.443-2.322-1.177-3.43-.326.295-.598.524-.85.771-3.448 3.374-7.667 3.575-11.422.506-1.503-1.229-2.638-2.757-3.296-4.592-.215-.6-.342-1.271-.329-1.905.031-1.469 1.046-2.309 2.507-2.099.773.11 1.525.366 2.467.603.035-.56.026-1.053.104-1.53.142-.866.215-1.771.533-2.573.621-1.566 2.021-2.151 3.522-1.377 1.006.519 2.036 1.234 2.696 2.127 1.265 1.71 2.282 3.604 3.385 5.431.282.469.498.979.787 1.551.74-.725.819-1.527.766-2.368-.118-1.856-.308-3.711-.354-5.569-.117-4.741-.276-9.484-.218-14.225.05-4.104-1.849-7.5-3.467-11.28-.37.462-.564.752-.804.998-.872.892-1.652 1.918-2.658 2.625-4.129 2.904-8.48.982-10.434-1.658-.758-1.024-1.216-2.277-1.753-3.453-.167-.366-.187-.816-.202-1.23-.041-1.162.141-2.311 1.248-2.917 1.163-.636 2.177.012 3.034.765.693.609 1.282 1.339 1.903 2.029.302.336.569.703.973 1.207.14-.563.23-.945.329-1.324.71-2.699 2.874-3.602 5.244-2.099.966.612 1.789 1.448 2.79 2.275.161-.431.341-.833.464-1.251 1.143-3.849 1.681-7.809 2.205-11.777.267-2.024.674-4.033 1.078-6.036.136-.675.405-1.339.712-1.959.309-.626.723-1.254 1.543-1.233.75.019 1.144.6 1.419 1.193.352.756.614 1.553.907 2.335.173.464.329.935.606 1.727.323-.886.532-1.442.73-2.003.573-1.621 1.095-3.262 1.733-4.857.287-.72.714-1.429 1.234-2.001.884-.972 1.935-.716 2.332.53.18.563.295 1.2.226 1.778-.149 1.24-.345 2.489-.686 3.688-.766 2.691-1.876 5.247-3.22 7.707-1.248 2.285-2.465 4.587-3.644 6.909-1.887 3.717-2.773 7.678-2.767 11.842.001.791.046 1.584-.007 2.372-.162 2.43.936 4.493 1.796 6.715.556-.314.417-.779.456-1.138.249-2.32.632-4.619 1.49-6.792.421-1.067.968-2.133 1.678-3.025 1.184-1.485 2.617-1.202 3.242.609.313.906.491 1.902.501 2.859.017 1.811-.132 3.623-.214 5.434-.022.505-.052 1.01.154 1.619.184-.265.405-.511.545-.798.793-1.63 1.521-3.294 2.363-4.899.625-1.19 1.378-2.314 2.1-3.452.222-.35.494-.682.797-.965 1.293-1.211 2.717-.872 3.207.815.216.743.33 1.567.261 2.334-.437 4.896-2.635 8.944-6.122 12.335-.331.322-.718.593-1.102.854-2.534 1.728-4.778 1.632-7.162-.291-.241-.194-.491-.377-.919-.706zm-1.73-41.337c-.164-.009-.328-.017-.491-.025-.276.716-.66 1.412-.81 2.154-.429 2.139-.832 4.289-1.119 6.45-.464 3.505-.96 7-1.898 10.416-.295 1.073-.972 2.163-.876 3.189.1 1.077.926 2.084 1.421 3.129.327.691.629 1.393.943 2.091.263-.479.29-.922.34-1.363.16-1.384.271-2.776.504-4.147.49-2.872 1.623-5.522 2.96-8.087 1.16-2.225 2.394-4.414 3.542-6.645 1.494-2.904 2.717-5.913 3.221-9.167.111-.717.216-1.451-.306-2.249-.743.675-1.093 1.481-1.386 2.29-.618 1.703-1.154 3.436-1.763 5.143-.232.652-.502 1.31-.876 1.888-.496.766-1.069.755-1.475-.058-.433-.866-.688-1.819-1.033-2.729-.289-.763-.598-1.52-.898-2.28zm5.566 25.749c-.473.572-.937.975-1.196 1.482-.463.905-.87 1.852-1.182 2.819-.76 2.358-.896 4.829-1.274 7.26-.313 2.007.594 3.163 2.023 4.203 1.385 1.008 2.861 1.102 4.329.307.847-.459 1.673-1.036 2.345-1.721 2.078-2.118 3.619-4.605 4.516-7.438.376-1.186.555-2.446.705-3.687.104-.855.074-1.758-.785-2.558-.369.317-.752.563-1.022.899-.438.541-.86 1.109-1.183 1.721-1.038 1.972-2.015 3.976-3.041 5.954-.533 1.029-1.09 2.048-1.696 3.035-.256.417-.669.994-1.196.7-.341-.19-.557-.826-.598-1.283-.075-.826.017-1.668.052-2.503.084-2.042.214-4.083.248-6.126.016-1.008-.096-2.032-1.045-3.064zm-14.823 36.651c2.416-.066 4.212-1.368 5.627-3.273.19-.255.188-.837.029-1.138-1.169-2.212-2.362-4.415-3.639-6.568-.391-.659-1.021-1.202-1.621-1.706-.637-.537-1.386-1.099-2.267-.712-.857.376-1.017 1.262-1.116 2.112-.026.23-.036.464-.052.694-.046.649-.06 1.303-.146 1.945-.119.883-.446 1.124-1.321.979-.408-.067-.796-.247-1.2-.352-.447-.117-.897-.264-1.354-.296-.704-.051-1.069.257-1.075.961-.004.498.105 1.021.278 1.49.506 1.373 1.35 2.54 2.408 3.542 1.506 1.427 3.278 2.255 5.449 2.322zm16.307 5.988c.769-.169 1.583-.228 2.296-.527 4.284-1.8 7.12-4.937 8.434-9.407.141-.477.164-1.014.125-1.514-.06-.769-.419-.999-1.126-.751-.432.152-.872.366-1.219.658-.921.777-1.815 1.59-2.682 2.429-1.033 1.003-1.99 2.086-3.049 3.06-.56.515-1.216 1.222-2.063.835-.784-.357-.609-1.268-.688-1.987-.111-1.014-.124-2.049-.342-3.038-.227-1.032-.798-1.155-1.6-.472-.141.119-.271.258-.384.403-1.516 1.945-2.406 4.177-2.938 6.558-.07.313.023.779.226 1.02 1.299 1.546 2.847 2.674 5.01 2.733zm-20.713-40.901c2.451.015 5.292-1.75 6.61-4.63.109-.239.073-.678-.081-.883-.874-1.155-1.851-2.22-3.262-2.735-1.018-.372-1.855-.055-2.337.901-.205.407-.347.868-.41 1.319-.095.687-.057 1.392-.149 2.079-.05.377-.147.922-.402 1.062-.525.287-.795-.266-1.063-.632-.686-.937-1.327-1.908-2.057-2.809-.492-.607-1.05-1.189-1.672-1.659-1.167-.88-1.885-.531-2.04.916-.02.184-.02.372-.008.556.209 3.397 3.456 6.474 6.871 6.515zm12.768 9.117c-.105.016-.21.033-.314.049.034 4.9-.191 9.811.554 14.7.189-.305.3-.613.327-.93.302-3.42.597-6.842.87-10.264.024-.31-.048-.658-.176-.943-.395-.882-.837-1.742-1.261-2.612zm.948 28.609c-.11.013-.221.026-.331.04v2.836c.285-.95.88-1.884.331-2.876z"/><path d="m51.325 10.589c.3.76.608 1.517.899 2.281.346.91.601 1.863 1.033 2.729.405.813.979.824 1.475.058.374-.578.644-1.236.876-1.888.608-1.707 1.145-3.439 1.763-5.143.293-.808.643-1.614 1.386-2.29.521.798.417 1.532.306 2.249-.504 3.254-1.727 6.263-3.221 9.167-1.148 2.231-2.382 4.419-3.542 6.645-1.338 2.564-2.471 5.215-2.96 8.087-.233 1.371-.344 2.763-.504 4.147-.05.441-.077.884-.34 1.363-.314-.698-.616-1.4-.943-2.091-.496-1.044-1.321-2.052-1.421-3.129-.096-1.026.581-2.116.876-3.189.938-3.416 1.435-6.911 1.898-10.416.287-2.162.69-4.311 1.119-6.45.149-.743.533-1.438.81-2.154.162.008.326.016.49.024z" fill="#f19d7e"/><path d="m56.891 36.338c.949 1.032 1.062 2.056 1.044 3.064-.034 2.043-.164 4.084-.248 6.126-.035.834-.127 1.677-.052 2.503.041.457.257 1.093.598 1.283.527.294.94-.282 1.196-.7.606-.987 1.163-2.006 1.696-3.035 1.026-1.979 2.003-3.982 3.041-5.954.322-.612.745-1.181 1.183-1.721.271-.336.653-.582 1.022-.899.859.8.889 1.703.785 2.558-.15 1.241-.329 2.501-.705 3.687-.896 2.833-2.438 5.319-4.516 7.438-.672.685-1.498 1.262-2.345 1.721-1.468.795-2.944.701-4.329-.307-1.43-1.04-2.336-2.196-2.023-4.203.378-2.431.515-4.901 1.274-7.26.312-.967.719-1.914 1.182-2.819.26-.507.724-.91 1.197-1.482z" fill="#b783ba"/><path d="m42.068 72.989c-2.171-.067-3.943-.896-5.448-2.32-1.059-1.002-1.902-2.169-2.408-3.542-.173-.47-.282-.992-.278-1.49.005-.704.371-1.012 1.075-.961.457.032.907.179 1.354.296.403.104.792.284 1.2.352.875.145 1.202-.097 1.321-.979.087-.643.1-1.296.146-1.945.016-.23.026-.464.052-.694.099-.851.258-1.736 1.116-2.112.881-.387 1.63.175 2.267.712.6.504 1.23 1.047 1.621 1.706 1.277 2.153 2.469 4.356 3.639 6.568.159.301.161.883-.029 1.138-1.416 1.903-3.213 3.205-5.628 3.271z" fill="#7fd2f0"/><path d="m58.375 78.977c-2.163-.059-3.711-1.187-5.01-2.734-.202-.24-.296-.706-.226-1.02.532-2.381 1.423-4.612 2.938-6.558.113-.146.243-.284.384-.403.802-.684 1.373-.561 1.6.472.218.989.23 2.024.342 3.038.078.72-.097 1.63.688 1.987.848.387 1.504-.32 2.063-.835 1.059-.974 2.016-2.057 3.049-3.06.866-.839 1.761-1.651 2.682-2.429.347-.292.787-.506 1.219-.658.707-.248 1.066-.018 1.126.751.039.5.016 1.037-.125 1.514-1.313 4.471-4.149 7.607-8.434 9.407-.713.3-1.527.359-2.296.528z" fill="#e5e981"/><path d="m37.662 38.076c-3.415-.041-6.662-3.118-6.872-6.516-.012-.185-.012-.372.008-.556.155-1.447.873-1.795 2.04-.916.622.469 1.181 1.051 1.672 1.659.73.901 1.371 1.873 2.057 2.809.269.367.538.919 1.063.632.255-.139.352-.684.402-1.062.092-.687.054-1.392.149-2.079.063-.451.205-.912.41-1.319.482-.956 1.319-1.273 2.337-.901 1.411.515 2.388 1.58 3.262 2.735.154.205.19.644.081.883-1.317 2.882-4.158 4.646-6.609 4.631z" fill="#f15a29"/></g></svg>