<svg id="flat" viewBox="0 0 960 960" xmlns="http://www.w3.org/2000/svg"><g fill="#a3d6ff"><path d="m651.471 405.498c-1.872-4.705-5.685-5.773-10.661-6.714-4.976-.94-9.021.222-13.921 1.501l-7.288 20.672c4.319 2.347 12.056 4.165 16.97 4.022 4.914-.142 9.875-2.072 13.139-5.748s3.578-9.166 1.761-13.733z"/><path d="m575.286 383.388c-4.608 1.925-6.954 7.544-6.083 12.461.871 4.918 4.387 9.05 8.571 11.777s9.707 4.964 15.533 5.68l8.937-21.458c-4.35-3.639-9.938-6.329-15.334-8.074-3.445-1.114-8.283-1.783-11.624-.387z"/><path d="m443.764 115.927c-3.801-3.117-9.299-3.214-13.792-1.218-4.628 2.056-5.545 5.908-6.289 10.917s.578 9.005 2.048 13.851l20.943 6.468c2.175-4.409 3.687-12.211 3.351-17.115s-2.46-9.785-6.262-12.902z"/><path d="m410.811 180.077c-.978 3.486-1.455 8.346.071 11.629 2.105 4.529 7.812 6.651 12.692 5.587s8.871-4.74 11.43-9.028c2.56-4.288 4.578-9.896 5.063-15.745l-21.794-8.084c-3.465 4.489-5.932 10.18-7.463 15.641z"/><path d="m310.989 390.85c-2.474 4.248-4.52 11.928-4.523 16.843-.003 4.916 1.779 9.932 5.356 13.304s9.056 3.848 13.675 2.167c4.759-1.731 5.939-5.511 7.027-10.457s.045-9.023-1.088-13.959l-20.447-7.897z"/><path d="m337.578 341.217c-4.941.725-9.176 4.117-12.026 8.218-2.849 4.102-5.25 9.556-6.138 15.358l21.184 9.568c3.767-4.24 6.62-9.747 8.524-15.088 1.216-3.41 2.027-8.226.731-11.606-1.788-4.664-7.335-7.175-12.276-6.45z"/></g><path d="m747.328 119.379c-5.412-8.765-13.715-12.542-23.616-9.692-9.895 2.859-18.151 14.221-13.829 25.033-33.966 22.86-122.933 79.802-178.605 115.734l10.778 16.23c55.583-35.922 135.648-87.983 179.615-116.401 6.023 2.824 17.308 1.178 23.16-5.175 6.978-7.582 7.917-16.969 2.497-25.729z" fill="#dfccb2"/><path d="m448.754 432.058c.281 3.831.639 7.881 2.89 10.993 4.633 6.406 15.399 5.176 20.658-.727s6.137-14.52 5.476-22.398-2.597-15.714-1.959-23.594c.524-6.471-.193-10.651 3.075-16.224 2.999-5.115 9.61-10.049 10.635-15.873.351-1.995-1.026-8.686 6.965-8.069 6.03.465 13.055-6.425 18.305-10.878 7.54-6.394 7.199-13.089 8.367-17.069 1.955-5.27 8.929-1.236 11.679-2.014 8.774-2.481 11.522-13.174 13.158-21.092 2.454-11.882.773-22.584-2.135-33.154-5.576-20.269-24.607-36.857-45.629-36.995-6.618-.043-12.999 1.844-19.294 3.804-12.003 3.737-3.744 11.533-10.468 14.352-3.965 1.663-6.548-3.701-9.123-3.314-6.736 1.012-16.636 9.11-19.559 11.914-4.09 3.923-10.321 8.902-10.845 15.097-.145 1.718.016 3.669-1.167 4.923-1.388 1.472-3.762 1.117-5.757.775-7.523-1.291-14.129 12.161-16.538 18.047-3.553 8.684-4.15 18.318-1.622 27.361 3.759 13.448 11.86 21.128 21.986 29.472 22.531 18.567 18.922 47.696 20.901 74.663z" fill="#f2ab5a"/><path d="m481.668 350.36c-.518 0-1.043-.134-1.521-.416-10.479-6.182-16.019-10.779-25.344-19.102-9.338-8.336-18.049-20.997-22.19-32.256-.572-1.556.225-3.279 1.779-3.852 1.557-.572 3.28.225 3.852 1.779 3.769 10.245 12.029 22.241 20.556 29.852 9.025 8.057 14.375 12.499 24.396 18.41 1.427.842 1.901 2.682 1.06 4.108-.56.948-1.56 1.476-2.587 1.476z" fill="#614d48"/><path d="m512.523 314.673c-.514 0-1.034-.133-1.511-.411-17.512-10.231-32.036-25.913-40.896-44.156-.725-1.49-.103-3.285 1.388-4.009 1.49-.725 3.286-.103 4.009 1.388 8.348 17.186 22.03 31.958 38.527 41.598 1.431.835 1.912 2.673 1.076 4.104-.558.954-1.562 1.487-2.593 1.487z" fill="#614d48"/><path d="m593.132 415.07c-.326 4.949 1.46 10.349 5.659 12.99 3.71 2.334 8.651 2.062 12.586.131 3.935-1.93 6.987-5.302 9.446-8.93 6.302-9.298 11.288-29.91-4.236-33.384-14.167-3.17-22.736 18.287-23.455 29.193z" fill="#fecf87"/><g fill="#614d48"><path d="m625.604 411.618c-.196 0-.396-.02-.596-.061-9.935-2.003-19.59-5.261-28.698-9.682-1.49-.724-2.112-2.519-1.389-4.01.726-1.49 2.517-2.11 4.01-1.389 8.652 4.2 17.825 7.296 27.263 9.199 1.624.327 2.676 1.909 2.348 3.533-.287 1.424-1.539 2.408-2.938 2.408z"/><path d="m619.603 423.958c-.282 0-.57-.04-.855-.125-9.265-2.752-18.124-6.694-26.332-11.718-1.413-.865-1.857-2.712-.992-4.125.864-1.413 2.711-1.859 4.125-.992 7.762 4.751 16.143 8.48 24.908 11.083 1.588.472 2.493 2.142 2.021 3.73-.387 1.303-1.581 2.146-2.875 2.146z"/><path d="m597.49 439.108c-.388 0-.782-.076-1.162-.235-1.527-.643-2.245-2.401-1.603-3.929.755-1.795 1.264-3.1 1.674-4.15.479-1.23.858-2.201 1.339-3.199.721-1.492 2.513-2.119 4.005-1.401 1.493.72 2.12 2.513 1.401 4.005-.381.79-.706 1.623-1.155 2.775-.424 1.088-.951 2.439-1.732 4.297-.482 1.147-1.596 1.838-2.767 1.838z"/></g><path d="m441.836 172.625c4.958.131 10.283-1.867 12.757-6.166 2.186-3.799 1.719-8.726-.365-12.581-2.084-3.856-5.573-6.773-9.296-9.087-9.539-5.931-30.332-10.1-33.191 5.549-2.609 14.281 19.169 21.998 30.095 22.286z" fill="#feca7a"/><path d="m425.776 171.768c-.401 0-.81-.081-1.201-.253-1.518-.664-2.209-2.433-1.545-3.951 3.855-8.812 6.587-18.1 8.116-27.604.263-1.636 1.804-2.758 3.438-2.485 1.636.264 2.749 1.803 2.485 3.438-1.61 10.005-4.484 19.781-8.544 29.058-.492 1.126-1.594 1.798-2.75 1.798z" fill="#614d48"/><path d="m436.291 174.995c-.495 0-.998-.123-1.461-.383-1.446-.808-1.963-2.636-1.154-4.082 4.44-7.944 7.836-16.465 10.092-25.326.409-1.605 2.034-2.578 3.647-2.167 1.605.408 2.576 2.042 2.167 3.647-2.384 9.366-5.974 18.374-10.67 26.773-.549.983-1.569 1.537-2.621 1.537z" fill="#614d48"/><path d="m462.685 170.441c-.351 0-.706-.062-1.054-.192-1.819-.682-3.143-1.139-4.208-1.507-1.249-.432-2.236-.772-3.254-1.214-1.52-.66-2.217-2.428-1.557-3.947.66-1.518 2.425-2.214 3.947-1.557.805.35 1.65.643 2.822 1.047 1.103.381 2.472.854 4.356 1.561 1.551.581 2.337 2.311 1.755 3.862-.451 1.204-1.595 1.947-2.809 1.947z" fill="#614d48"/><path d="m317.657 364.567c-4.937-.473-10.388 1.153-13.152 5.272-2.442 3.639-2.317 8.586-.504 12.577s5.093 7.141 8.647 9.707c9.107 6.575 29.563 12.169 33.495-3.245 3.588-14.067-17.606-23.268-28.486-24.309z" fill="#fecf87"/><path d="m323.148 400.214c-.226 0-.454-.025-.683-.079-1.614-.375-2.618-1.988-2.242-3.602 2.296-9.867 5.838-19.422 10.527-28.398.769-1.467 2.578-2.035 4.049-1.27 1.468.768 2.036 2.58 1.27 4.049-4.456 8.527-7.821 17.604-10.002 26.979-.322 1.385-1.556 2.321-2.919 2.321z" fill="#614d48"/><path d="m310.989 393.851c-.312 0-.628-.049-.94-.151-1.573-.52-2.429-2.215-1.91-3.789 3.026-9.181 7.229-17.919 12.492-25.973.907-1.385 2.766-1.773 4.153-.87 1.387.907 1.776 2.766.87 4.153-4.979 7.616-8.954 15.883-11.816 24.568-.416 1.262-1.59 2.062-2.849 2.062z" fill="#614d48"/><path d="m303.616 374.464c-.465 0-.938-.109-1.38-.339-.778-.403-1.603-.754-2.744-1.238-1.073-.456-2.406-1.021-4.236-1.856-1.508-.687-2.173-2.466-1.485-3.974.687-1.507 2.466-2.174 3.974-1.485 1.769.806 3.057 1.353 4.093 1.793 1.218.517 2.18.925 3.165 1.437 1.47.763 2.043 2.574 1.279 4.045-.533 1.028-1.58 1.618-2.665 1.618z" fill="#614d48"/><g><path d="m656.933 600.55c30.42 39.4 31.81 103.57 12.18 149.3-10.16 23.65-21.5 43.44-34.75 60.58h-.01c-110.834 25.099-222.361 25.234-331.91-2.58-13.65-18.13-26.22-38.67-33.38-56.98-16.99-43.47-17.67-91.09 3.54-127.92 4.81-8.34 10.78-16.32 16.95-24.22h.01c124.063-5.803 247.153-6.934 365.59-.46.61.77 1.2 1.53 1.78 2.28z" fill="#c7b19a"/><path d="m627.36 564.37c7.97 10.54 19.23 23.16 27.73 33.9-121.3 14.27-244.26 14.46-365.59.46 14.27-18.27 29.63-36.12 34.14-57.04 59.65 1.96 237.5-.84 290.69-3.45 2.33 9.45 7.41 18.71 13.03 26.13z" fill="#dfccb2"/><path d="m619.983 552.771c-2.431-4.631-4.425-9.553-5.653-14.531-51.115-11.133-228.949-8.439-290.69 3.45-1.088 5.046-2.812 9.913-4.995 14.651 1.56.067 3.219.129 4.995.188 59.65 1.96 237.5-.84 290.69-3.45 2.081-.103 3.968-.205 5.653-.308z" fill="#c7b19a"/><path d="m628.47 491.19c18.49 6.44 16.32 40.44.83 45.82-1.12.39-6.45.81-14.97 1.23-53.19 2.61-231.04 5.41-290.69 3.45-11.3-.37-18.36-.91-19.53-1.66-16.66-10.57-18.1-36.61 0-46.32 5.3-2.85 316.59-5.23 324.36-2.52z" fill="#dfccb2"/><path d="m634.29 810.43c-12.35 15.98-26.37 29.65-42.67 41.99-23.87 18.07-212.72 21.16-244.26 1.66-11.87-7.34-29.14-25.16-44.98-46.23 110.12 12.78 221.61 13.62 331.91 2.58z" fill="#dfccb2"/><g fill="#614d48"><path d="m470.196 612.101c-60.524 0-121.006-3.463-181.04-10.39-1.646-.19-2.826-1.679-2.637-3.324.19-1.646 1.684-2.828 3.324-2.637 120.927 13.954 243.695 13.8 364.896-.46 1.637-.188 3.136.983 3.33 2.629.193 1.646-.983 3.137-2.629 3.33-61.491 7.234-123.391 10.852-185.244 10.852z"/><path d="m480.226 821.111c-59.59 0-119.14-3.429-178.191-10.281-1.646-.191-2.825-1.681-2.635-3.326.191-1.646 1.681-2.812 3.326-2.635 109.691 12.729 221.145 13.597 331.266 2.575 1.644-.155 3.118 1.038 3.284 2.687.165 1.648-1.038 3.119-2.687 3.284-51.266 5.131-102.831 7.696-154.363 7.696z"/></g></g><path d="m396.559 482.953c-7.863 10.807-8.072 25.418-5.71 38.572s6.962 25.961 7.634 39.308c1.038 20.618-7.325 40.393-11.48 60.615-1.849 8.998-2.814 18.63.639 27.141 3.453 8.512 12.551 15.327 21.531 13.396 7.307-1.571 12.529-8.356 14.704-15.507 2.175-7.15 1.928-14.772 2.194-22.241.457-12.822 2.491-25.587 6.041-37.916 2.545-8.839 8.117-19.077 17.309-18.771 13.234.441 17.49 21.982 30.689 23.041 5.58.448 10.827-3.333 13.705-8.133s3.835-10.481 4.604-16.026c1.847-13.324 2.921-26.756 3.215-40.205.306-13.99-.822-29.453-10.676-39.388-14.096-14.211-33.549-6.872-50.796-10.864-15.261-3.533-32.28-8.587-43.604 6.976z" fill="#f2ab5a"/><path d="m501.636 529.229c-.022 0-.044 0-.066 0-1.657-.036-2.97-1.408-2.934-3.064.289-13.22-.649-27.978-9.807-37.21-8.365-8.433-19.058-8.485-30.378-8.541-6.242-.03-12.696-.062-18.966-1.513l-2.513-.589c-14.633-3.444-28.453-6.697-37.988 6.406-.975 1.339-2.852 1.637-4.19.661-1.34-.975-1.636-2.851-.661-4.19 11.882-16.331 29.809-12.109 44.216-8.717l2.49.583c5.615 1.3 11.729 1.33 17.642 1.358 12.043.06 24.495.12 34.608 10.316 10.739 10.826 11.862 27.087 11.545 41.565-.035 1.635-1.371 2.935-2.998 2.935z" fill="#614d48"/><path d="m406.063 665.316c-9.388 0-17.868-7.381-21.202-15.599-3.959-9.759-2.506-20.556-.798-28.872 1.308-6.364 3.041-12.741 4.718-18.908 3.804-13.991 7.396-27.206 6.705-40.953-.083-1.654 1.19-3.063 2.846-3.146 1.633-.102 3.064 1.19 3.146 2.846.739 14.7-3.147 28.999-6.907 42.828-1.652 6.077-3.361 12.361-4.631 18.541-1.537 7.488-2.872 17.143.481 25.409 3.617 8.916 12.044 12.887 18.12 11.592 6.614-1.422 10.849-8.133 12.465-13.447 1.674-5.504 1.812-11.33 1.957-17.499.031-1.327.062-2.653.109-3.976.466-13.068 2.537-26.068 6.156-38.639 5.562-19.326 16.057-21.09 20.291-20.938 8.084.269 13.222 6.824 17.755 12.608 4.039 5.153 7.854 10.021 13.075 10.44 4.535.36 8.74-3.096 10.893-6.687.853-1.421 2.694-1.881 4.116-1.03 1.421.853 1.882 2.695 1.03 4.116-3.791 6.321-10.275 10.091-16.519 9.581-7.843-.629-12.877-7.053-17.318-12.72-4.086-5.213-7.944-10.138-13.231-10.313-.099-.003-.196-.005-.293-.005-8.58 0-12.903 12.683-14.033 16.607-3.483 12.1-5.478 24.613-5.926 37.192-.046 1.298-.077 2.6-.107 3.903-.148 6.3-.302 12.814-2.215 19.104-2.19 7.203-7.792 15.6-16.944 17.566-1.255.271-2.505.397-3.739.397z" fill="#614d48"/></svg>