<svg id="Layer_3" enable-background="new 0 0 300 300" viewBox="0 0 300 300" xmlns="http://www.w3.org/2000/svg"><g><g><path d="m174.845 140.001c2.755 6.846 2.481 14.147-.183 20.436-.018.061-.046.126-.074.191-2.705 6.241-7.769 11.47-14.588 14.214-6.846 2.755-14.147 2.481-20.436-.183-.061-.018-.126-.046-.191-.074-6.241-2.706-11.47-7.769-14.214-14.588-2.755-6.846-2.481-14.147.183-20.436.019-.061.046-.126.074-.191 2.705-6.241 7.769-11.47 14.588-14.214 6.846-2.755 14.147-2.481 20.436.183.061.018.126.046.191.074 6.241 2.705 11.47 7.77 14.214 14.588z" fill="#f9d338"/><g fill="#fc5441"><path d="m158.387 101.491c2.8 6.958 3.203 15.753 2.052 23.848-6.29-2.665-13.59-2.939-20.436-.183-6.819 2.744-11.883 7.973-14.588 14.214-6.449-5.015-12.267-11.599-15.064-18.547-4.279-10.631-1.454-21.772 6.302-24.893 3.906-1.572 8.304-.82 12.261 1.673 1.127-4.539 3.778-8.128 7.675-9.697 7.765-3.124 17.52 2.954 21.798 13.585z"/><path d="m125.158 159.998c2.744 6.819 7.973 11.883 14.214 14.588-5.015 6.449-11.599 12.267-18.547 15.064-10.631 4.279-21.772 1.454-24.897-6.311-1.568-3.896-.816-8.295 1.677-12.252-4.539-1.127-8.128-3.779-9.7-7.684-3.121-7.755 2.956-17.51 13.588-21.789 6.958-2.8 15.753-3.203 23.848-2.052-2.664 6.289-2.938 13.589-.183 20.436z"/><path d="m189.651 179.176c4.275 10.622 1.454 21.772-6.311 24.897-3.896 1.568-8.295.816-12.252-1.677-1.127 4.539-3.778 8.128-7.684 9.7-7.756 3.121-17.514-2.966-21.789-13.588-2.8-6.958-3.203-15.753-2.052-23.848 6.29 2.665 13.59 2.939 20.436.183 6.818-2.744 11.883-7.973 14.588-14.214 6.449 5.015 12.268 11.598 15.064 18.547z"/><path d="m212.094 136.587c3.125 7.765-2.962 17.523-13.584 21.798-6.958 2.8-15.753 3.203-23.848 2.052 2.664-6.29 2.939-13.59.183-20.436-2.744-6.818-7.973-11.883-14.214-14.588 5.015-6.449 11.599-12.267 18.547-15.064 10.622-4.275 21.772-1.453 24.893 6.302 1.572 3.906.82 8.304-1.673 12.261 4.538 1.127 8.128 3.779 9.696 7.675z"/></g></g><g><g fill="#fc7232"><circle cx="145.117" cy="139.798" r="4.431"/><circle cx="138.724" cy="149.129" r="4.431"/><circle cx="143.609" cy="159.33" r="4.431"/><circle cx="154.886" cy="160.201" r="4.431"/><circle cx="161.278" cy="150.87" r="4.431"/><circle cx="156.394" cy="140.668" r="4.431"/></g><path d="m213.949 135.841c-1.486-3.692-4.507-6.509-8.633-8.103 1.871-4.009 2.098-8.136.61-11.833-3.53-8.769-15.865-12.093-27.495-7.411-5.268 2.12-10.622 5.997-15.463 11.126.321-7.036-.598-13.591-2.725-18.876-4.682-11.632-15.626-18.221-24.4-14.693-3.692 1.486-6.509 4.508-8.103 8.633-4.007-1.87-8.135-2.099-11.833-.61-4.359 1.754-7.504 5.659-8.856 10.994-1.294 5.109-.781 10.969 1.445 16.5 2.12 5.268 5.996 10.623 11.125 15.463-7.037-.321-13.59.599-18.875 2.726-5.531 2.226-10.113 5.915-12.902 10.388-2.912 4.67-3.549 9.643-1.795 14.002 1.488 3.698 4.511 6.517 8.637 8.112-1.871 4.007-2.1 8.132-.614 11.824 2.446 6.077 9.115 9.541 16.85 9.541 3.432 0 7.074-.682 10.649-2.121 5.268-2.12 10.622-5.997 15.463-11.126-.321 7.036.598 13.591 2.725 18.876 3.826 9.507 11.834 15.648 19.419 15.648 1.695 0 3.37-.307 4.971-.951 3.697-1.488 6.517-4.511 8.112-8.637 4.008 1.872 8.133 2.1 11.824.613 8.773-3.531 12.101-15.867 7.42-27.499-2.119-5.264-5.991-10.615-11.115-15.452.898.041 1.79.068 2.67.068 6.015 0 11.585-.95 16.194-2.805 5.529-2.225 10.109-5.914 12.898-10.388 2.915-4.67 3.553-9.647 1.797-14.009zm-41.129 23.816c-.017.04-.022.083-.036.124-.009.019-.022.034-.031.053-2.615 6.031-7.409 10.703-13.5 13.154-6.122 2.464-12.837 2.403-18.909-.169-.039-.016-.081-.021-.121-.035-.02-.009-.036-.024-.056-.032-6.031-2.614-10.703-7.409-13.154-13.5-2.463-6.121-2.403-12.836.17-18.909.017-.04.022-.082.036-.123.009-.019.022-.034.031-.053 2.614-6.031 7.409-10.703 13.5-13.154 6.121-2.463 12.836-2.403 18.91.17.04.017.082.022.122.036.019.009.035.023.054.031 6.032 2.615 10.703 7.409 13.154 13.5 2.463 6.119 2.403 12.834-.17 18.907zm-60.613-39.581c-1.912-4.751-2.366-9.731-1.279-14.025 1.03-4.065 3.328-7 6.472-8.266 1.126-.453 2.321-.678 3.553-.678 2.235 0 4.595.738 6.896 2.188.542.343 1.217.403 1.813.164.596-.24 1.04-.75 1.194-1.374 1.017-4.095 3.318-7.05 6.48-8.323 6.729-2.708 15.338 2.89 19.196 12.475 2.227 5.532 3 12.682 2.229 20.346-6.379-2.051-13.212-1.814-19.504.717-6.264 2.521-11.346 7.063-14.536 12.933-5.894-4.979-10.298-10.65-12.514-16.157zm7.872 67.718c-9.587 3.857-19.588 1.524-22.295-5.203-1.273-3.163-.735-6.87 1.514-10.439.342-.543.403-1.217.164-1.813-.24-.596-.75-1.04-1.374-1.194-4.094-1.016-7.051-3.321-8.327-6.49-1.265-3.144-.74-6.835 1.479-10.393 2.343-3.759 6.25-6.881 11-8.793 4.141-1.667 9.185-2.519 14.675-2.519 1.845 0 3.742.097 5.67.291-2.051 6.378-1.815 13.211.717 19.503 2.521 6.264 7.063 11.347 12.933 14.536-4.979 5.894-10.65 10.298-16.156 12.514zm67.717-7.872c3.858 9.586 1.524 19.587-5.202 22.294-3.163 1.273-6.87.735-10.439-1.514-.542-.341-1.216-.401-1.813-.163-.596.24-1.04.75-1.194 1.374-1.017 4.094-3.322 7.052-6.49 8.327-6.723 2.704-15.329-2.894-19.187-12.479-2.227-5.532-3-12.681-2.229-20.345 6.378 2.049 13.21 1.813 19.503-.718 6.264-2.521 11.347-7.063 14.536-12.933 5.895 4.98 10.299 10.651 12.515 16.157zm20.964-32.185c-2.344 3.76-6.249 6.882-10.997 8.793-5.534 2.227-12.683 3-20.345 2.228 2.051-6.378 1.814-13.211-.718-19.503-2.521-6.264-7.063-11.346-12.933-14.536 4.979-5.894 10.65-10.298 16.157-12.514 9.586-3.858 19.586-1.528 22.291 5.193 1.275 3.168.739 6.879-1.51 10.449-.342.543-.403 1.217-.163 1.813s.75 1.04 1.374 1.194c4.095 1.017 7.05 3.318 8.323 6.48 1.266 3.147.741 6.841-1.479 10.403z" fill="#603913"/></g></g></svg>