<svg id="Layer_1" enable-background="new 0 0 100 100" height="100" viewBox="0 0 100 100" width="100" xmlns="http://www.w3.org/2000/svg"><g clip-rule="evenodd" fill-rule="evenodd"><path d="m52.476 75.131c-.751 3.359-1.533 6.715-2.242 10.084-.579 2.757-1.059 5.533-1.61 8.295-.129.65-.109 1.634-1.1 1.473-1.018-.165-.65-1.056-.531-1.725 1.438-8.071 3.146-16.082 5.35-23.981.172-.616.39-1.228.482-1.856.309-2.076.155-3.993-1.22-5.806-2.831-3.728-5.72-7.38-9.106-10.636-3.876-3.727-7.715-7.495-11.464-11.35-2.82-2.899-5.337-6.071-6.972-9.817-.581-1.333-.924-2.781-1.261-4.203-.142-.599-.064-1.281.045-1.901.391-2.209 1.988-3.261 4.065-2.43 1.457.583 2.75 1.59 4.092 2.445.566.361 1.073.817 1.907 1.463-.216-1.741-.458-3.054-.52-4.375-.06-1.268-.089-2.575.145-3.813.625-3.308 3.142-4.428 5.988-2.587 1.372.887 2.578 2.1 3.676 3.327 2.548 2.845 4.261 6.214 5.772 9.693 2.779 6.391 4.443 13.076 5.33 19.971.171 1.325.372 2.647.707 3.962-.181-3.948-.412-7.896-.531-11.846-.228-7.562-.113-15.112 1.346-22.573.23-1.182.707-2.319 1.114-3.46.149-.415.387-.815.657-1.167 1.221-1.595 2.715-1.489 3.591.304.389.795.661 1.677.813 2.55.416 2.395.738 4.806 1.104 7.21.104.686.228 1.37.718 2.158.255-.586.541-1.161.757-1.761 1.042-2.89 1.982-5.82 3.124-8.67.757-1.892 1.681-3.74 2.74-5.479.649-1.065 1.586-2.035 2.588-2.79 2.157-1.624 4.301-.829 4.955 1.812.271 1.098.324 2.288.262 3.424-.145 2.636-.772 5.176-1.756 7.638-2.491 6.251-5.42 12.296-8.505 18.273-3.671 7.114-7.114 14.333-9.702 21.932-.492 1.445-.603 2.836-.395 4.33.505 3.623 1.192 7.179 2.555 10.607.752 1.893 1.203 3.911 1.688 5.898.198.813.614 1.992-.536 2.324-1.124.324-1.241-.935-1.46-1.641-.852-2.748-1.61-5.525-2.37-8.301-.398-1.459-.763-2.922-1.892-4.547-.072.928-.13 1.46-.154 1.992-.343 7.29-.678 14.578-1.027 21.867-.024.504-.086 1.03-.267 1.494-.084.214-.515.438-.756.406-.23-.03-.564-.364-.598-.6-.078-.562-.022-1.145.011-1.717.273-4.602.561-9.201.828-13.803.04-.696.006-1.396.006-2.094-.147.001-.295-.001-.441-.003zm.092-15.411c0-.927.046-1.564-.008-2.193-.268-3.124-.498-6.252-.856-9.365-.968-8.402-3.129-16.473-7.157-23.949-1.144-2.124-2.63-4.083-4.125-5.989-.77-.983-1.82-1.816-2.89-2.48-1.715-1.065-2.921-.475-3.376 1.515-.141.617-.204 1.272-.174 1.904.058 1.212.193 2.421.326 3.628.125 1.144.369 2.281.412 3.426.058 1.527-.606 1.907-1.857 1.077-.902-.599-1.696-1.36-2.569-2.007-.975-.722-1.929-1.499-2.99-2.071-2.023-1.092-3.069-.421-2.861 1.9.112 1.248.5 2.51.976 3.68 1.197 2.936 3.041 5.494 5.159 7.815 2.587 2.834 5.259 5.597 8.005 8.278 4.669 4.561 9.5 8.965 13.311 14.322.098.137.278.215.674.509zm3.565-3.992c.129.038.26.075.39.112.139-.273.308-.535.413-.821 2.554-6.917 5.948-13.445 9.176-20.056 2.748-5.629 5.306-11.352 7.888-17.061 1.064-2.354 1.535-4.878 1.621-7.458.024-.759-.022-1.548-.209-2.28-.386-1.523-1.36-1.922-2.518-.88-1.072.967-2.093 2.12-2.754 3.389-1.147 2.204-2.058 4.538-2.962 6.858-.858 2.204-1.546 4.474-2.378 6.688-.335.889-.77 1.773-1.319 2.543-.735 1.03-1.646.889-2.195-.274-.215-.455-.341-.967-.423-1.468-.246-1.514-.422-3.041-.678-4.553-.352-2.078-.729-4.152-1.15-6.217-.088-.427-.423-.803-.717-1.335-1.189 1.425-1.667 2.89-1.884 4.4-.454 3.163-.948 6.333-1.139 9.518-.485 8.125-.142 16.245.458 24.355.113 1.514.253 3.027.38 4.54zm-1.921.544c.018.001.035.002.054.002 0-.55 0-1.099 0-1.648-.019 0-.036 0-.054 0zm.309 4.554c.093-.003.185-.006.277-.009-.03-.678-.062-1.355-.091-2.033-.063.003-.124.004-.187.007.001.679.001 1.357.001 2.035z"/><path d="m52.568 59.72c-.396-.294-.576-.372-.675-.509-3.811-5.357-8.642-9.762-13.311-14.322-2.746-2.681-5.418-5.443-8.005-8.278-2.118-2.321-3.962-4.879-5.159-7.815-.477-1.169-.864-2.432-.976-3.68-.208-2.321.838-2.992 2.861-1.9 1.061.572 2.015 1.349 2.99 2.071.873.647 1.667 1.408 2.569 2.007 1.25.83 1.915.45 1.857-1.077-.043-1.146-.287-2.283-.412-3.426-.132-1.207-.268-2.416-.326-3.628-.03-.632.033-1.287.174-1.904.456-1.99 1.662-2.58 3.376-1.515 1.07.665 2.12 1.498 2.89 2.48 1.494 1.906 2.981 3.865 4.125 5.989 4.027 7.476 6.188 15.547 7.157 23.949.358 3.113.589 6.241.856 9.365.055.628.009 1.266.009 2.193z" fill="#e5e981"/><path d="m56.133 55.728c-.127-1.513-.267-3.025-.379-4.539-.6-8.11-.943-16.23-.458-24.355.19-3.185.685-6.355 1.139-9.518.217-1.51.694-2.975 1.884-4.4.294.532.629.909.717 1.335.422 2.064.799 4.139 1.15 6.217.256 1.512.432 3.039.678 4.553.082.5.208 1.013.423 1.468.549 1.163 1.46 1.304 2.195.274.55-.77.984-1.654 1.319-2.543.832-2.214 1.52-4.484 2.378-6.688.904-2.321 1.814-4.655 2.962-6.858.661-1.269 1.682-2.421 2.754-3.389 1.157-1.042 2.132-.643 2.518.88.187.732.233 1.521.209 2.28-.086 2.58-.557 5.104-1.621 7.458-2.582 5.708-5.14 11.432-7.889 17.061-3.228 6.611-6.622 13.139-9.176 20.056-.105.286-.274.548-.413.821-.13-.038-.261-.075-.39-.113z" fill="#f19d7e"/><g fill="#f17db1"><path d="m54.212 56.272c0-.548 0-1.099 0-1.646h.054v1.648c-.019 0-.037-.001-.054-.002z"/><path d="m54.521 60.826c0-.678 0-1.356 0-2.035.063-.003.124-.004.187-.007.029.678.061 1.355.091 2.033-.094.003-.186.006-.278.009z"/></g></g></svg>