<svg id="flat" viewBox="0 0 960 960" xmlns="http://www.w3.org/2000/svg"><path d="m211.036 525.196c-82.989 58.805 117.189 231.049 190.757 255.012-12.805-67.28-114.635-308.951-190.757-255.012z" fill="#6aac96"/><path d="m690.556 579.778c-41.933-56.333-238.436 74.861-288.763 200.43 155.733-7.651 335.553-137.572 288.763-200.43z" fill="#6aac96"/><path d="m494.974 492.936c-49.797-9.933-67.653-67.806-52.747-108.773-29.698 2.783-97.622-15.385-97.656-86.998-.035-73.626 66.225-89.851 100.694-85.465-24.371-14.417-43.98-111.923 47.526-135.768 73.32-19.106 105.348 41.145 105.677 80.082 14.989-36.022 55.595-56.259 94.101-49.972 38.507 6.287 69.223 45.877 71.976 84.796s-23.9 77.999-61.139 89.643c23.745 2.598 75.433 60.52 48.311 112.706-40.791 78.487-131.106 44.825-145.762 23.085.739 13.394-15.118 95.787-110.983 76.664z" fill="#fe7e61"/><path d="m472.17 876.24c4.3-15.09 8.59-30.17 12.88-45.26-32.27 10.95-62.91 26.72-90.57 46.61-12.19-22.64-30.74-39.91-81.91-65.13 9.39 19.07 13.77 39.66 14.06 63.71-24.27-23.21-60.32-41.13-93.15-48.17 14.06 17.43 24.74 37.6 31.22 59.03l290.03.74c7.67-23.54 20.47-47.53 45.98-66.71-46.07 9.17-90.16 28.1-128.54 55.18z" fill="#6aac96"/><path d="m396.474 879.171c-.037 0-.074 0-.111-.002-1.656-.06-2.949-1.451-2.889-3.107 1.162-31.979 3.462-64.36 6.835-96.241.045-.439.091-.874.148-1.32.1-.997.217-2.067.336-3.145l.035-.318c7.571-69.399 31.685-190.772 66.737-293.255.536-1.568 2.24-2.406 3.809-1.868 1.568.536 2.404 2.242 1.868 3.809-34.903 102.051-58.913 222.885-66.449 291.967l-.036.321c-.116 1.06-.232 2.112-.339 3.173-.061.478-.101.863-.142 1.259-3.359 31.752-5.649 63.993-6.806 95.835-.059 1.619-1.39 2.891-2.996 2.891z" fill="#3d4659"/><path d="m505.115 242.739c-21.342 16.553-32.307 46.229-24.767 72.164 5.277 18.152 18.991 33.431 36.005 41.669 17.014 8.239 37.031 9.603 55.333 4.872 28.546-7.378 53.497-29.846 54.713-59.305 2.837-68.699-74.325-95.822-121.284-59.401z" fill="#feca7a"/><g fill="#3d4659"><path d="m403.294 783.137c-.872 0-1.736-.378-2.329-1.107-1.045-1.285-.852-3.175.434-4.22 37.902-30.836 97.546-73.53 145.043-103.825 1.398-.891 3.252-.48 4.143.916.891 1.397.481 3.251-.916 4.143-47.325 30.185-106.739 72.713-144.484 103.42-.556.453-1.226.673-1.891.673z"/><path d="m403.291 783.137c-.694 0-1.392-.24-1.959-.729-40.274-34.768-82.906-82.25-108.611-120.966-.916-1.38-.54-3.242.84-4.159s3.242-.54 4.159.84c25.037 37.711 68.251 85.832 107.533 119.743 1.254 1.083 1.393 2.977.311 4.231-.593.687-1.431 1.04-2.272 1.04z"/><path d="m242.881 395.491h-103.28c-1.657 0-3-1.343-3-3s1.343-3 3-3h103.28c1.657 0 3 1.343 3 3s-1.343 3-3 3z"/><path d="m680.176 519.003c-1.653 0-2.995-1.337-3-2.991-.005-1.657 1.334-3.004 2.991-3.009l78.981-.236c18.177-.057 38.504-1.226 49.649-14.456 3.665-4.35 11.099-20.395 6.904-32.469-2.45-7.051-8.601-11.631-18.283-13.613-8.483-1.737-15.516 3.078-19.27 8.164-3.971 5.381-4.985 11.691-2.583 16.075.796 1.453.264 3.276-1.189 4.072-1.451.795-3.276.264-4.072-1.189-3.575-6.525-2.419-15.154 3.017-22.521 6.192-8.392 15.885-12.408 25.3-10.479 11.902 2.437 19.555 8.332 22.748 17.522 4.95 14.248-2.891 32.26-7.983 38.304-12.798 15.191-34.697 16.529-54.22 16.59l-78.981.236z"/><path d="m228.222 184.689c-1.647 0-2.988-1.33-3-2.979-.012-1.657 1.322-3.009 2.979-3.021l86.785-.604c1.668.012 3.009 1.322 3.021 2.979.011 1.657-1.322 3.009-2.979 3.021l-86.785.604z"/><path d="m241.172 249.593c-4.717 0-9.39-1.421-13.11-4.253-7.688-5.851-10.278-16.959-5.896-25.288 4.272-8.122 11.565-12.188 20.016-11.15 9.564 1.172 18.392 8.646 20.533 17.385 1.051 4.291 1.324 12.514-8.662 19.385-3.805 2.618-8.364 3.921-12.882 3.921zm-13.696-26.748c-3.005 5.713-1.112 13.663 4.22 17.721 5.195 3.954 13.346 4.024 18.957.163 5.276-3.63 7.432-8.129 6.235-13.013-1.553-6.339-8.333-11.987-15.436-12.857-4.191-.514-10.013.455-13.977 7.988z"/><path d="m839.091 892.009h-.01l-720.183-2.477c-1.657-.006-2.996-1.354-2.99-3.01.006-1.653 1.348-2.99 3-2.99h.01l720.183 2.477c1.657.006 2.996 1.354 2.99 3.01-.006 1.653-1.348 2.99-3 2.99z"/></g></svg>