<svg id="Layer_1" enable-background="new 0 0 100 100" height="100" viewBox="0 0 100 100" width="100" xmlns="http://www.w3.org/2000/svg"><g clip-rule="evenodd" fill-rule="evenodd"><path d="m41.605 64.601c.582-.793.977-1.257 1.288-1.771 2.006-3.3 3.961-6.632 5.999-9.913 1.668-2.688 3.286-5.429 5.194-7.942 1.517-1.998 3.355-3.777 5.21-5.482 1.317-1.211 2.998-1.881 4.851-1.929 2.443-.062 4.254 1.281 4.943 3.617.574 1.943.229 3.8-.678 5.517-.912 1.727-2.016 3.353-3.085 5.104.456.521 1.128.238 1.698.239 2.011 0 3.885.482 5.644 1.437 2.983 1.618 3.873 4.921 1.089 7.509-1.63 1.514-3.518 2.517-5.631 3.005-2.955.686-5.95 1.213-8.938 1.752-3.893.701-7.667 1.745-11.024 3.909-1.216.783-2.317 1.756-3.42 2.701-1.839 1.578-2.936 3.467-3.17 6.013-.218 2.374-.997 4.697-1.536 7.042-.057.244-.099.55-.264.699-.249.227-.652.523-.895.455-.251-.072-.563-.557-.542-.837.051-.686.275-1.358.436-2.035.202-.851.41-1.7.336-2.658-.19.404-.44.793-.563 1.218-.993 3.467-1.964 6.939-2.936 10.413-.135.487-.228.986-.349 1.479-.134.544-.457 1.055-1.023.785-.304-.146-.584-.843-.504-1.21 1.256-5.757 2.397-11.593 5.454-16.715 1.459-2.445 1.444-4.858 1.231-7.666-.487.304-.831.517-1.173.732-.534.335-1.037.738-1.605.999-1.812.829-3.116.19-3.163-1.785-.038-1.613.263-3.279.695-4.846.434-1.573 1.069-3.134 1.882-4.546.82-1.427.817-2.678.142-4.106-1.377-2.916-2.593-5.913-4.034-8.797-1.555-3.114-3.313-6.126-4.942-9.204-1.577-2.976-2.906-6.053-3.463-9.407-.336-2.031-.299-4.036.518-5.973 1.582-3.751 5.208-4.608 8.053-1.724 1.214 1.23 2.167 2.806 2.927 4.375.847 1.748 1.34 3.668 2.106 5.854.142-.638.262-.999.297-1.367.412-4.293.999-8.559 2.294-12.688 1.032-3.292 2.432-6.407 4.991-8.834.775-.734 1.63-1.423 2.549-1.957 2.926-1.697 6.087-1.339 8.617.912 1.913 1.702 3.039 3.861 3.547 6.355.603 2.965.548 5.914-.217 8.848-1.041 4.001-2.373 7.902-4.575 11.419-2.754 4.398-5.625 8.724-8.486 13.054-2.232 3.381-4.513 6.73-6.801 10.074-.622.91-.75 1.782-.386 2.846.51 1.489.862 3.032 1.412 5.03zm-2.449-8.924c.222-.273.427-.494.596-.739 2.438-3.55 4.917-7.071 7.291-10.662 2.617-3.96 5.199-7.946 7.678-11.994 2.032-3.32 3.228-7.001 4.184-10.761.636-2.5.682-5.01.213-7.534-.38-2.036-1.187-3.866-2.666-5.36-2.202-2.224-4.957-2.568-7.588-.887-1.739 1.112-3.185 2.586-4.065 4.431-1.057 2.217-2.047 4.503-2.719 6.858-1.326 4.646-1.772 9.448-2.007 14.266-.078 1.581-.173 3.163-.355 4.734-.04.337-.491.626-.751.938-.309-.27-.779-.483-.896-.819-.287-.831-.427-1.716-.602-2.583-.662-3.29-1.175-6.635-2.636-9.687-.699-1.46-1.582-2.92-2.697-4.073-1.919-1.979-4.163-1.424-5.28 1.123-.251.573-.518 1.212-.504 1.814.037 1.632-.065 3.349.408 4.87.823 2.644 1.873 5.249 3.121 7.723 2.991 5.931 6.567 11.569 8.851 17.853.057.159.234.276.424.489zm3.122 16.659c1.151-1.033 1.92-1.778 2.744-2.456 3.876-3.188 8.451-4.736 13.3-5.646 3.169-.596 6.344-1.165 9.488-1.866 1.869-.417 3.57-1.278 4.921-2.707 1.525-1.616 1.425-3.245-.436-4.435-.937-.6-2.044-1.075-3.134-1.259-1.413-.24-2.888-.122-4.334-.184-.839-.035-1.932.458-2.381-.583-.383-.885.56-1.431 1.015-2.083 1.154-1.655 2.358-3.282 3.408-5.002.699-1.144.976-2.466.769-3.838-.354-2.339-2.116-3.624-4.364-2.92-1.293.405-2.617 1.066-3.62 1.959-1.594 1.419-3.094 3.009-4.337 4.741-1.951 2.719-3.678 5.602-5.462 8.439-2.456 3.908-4.88 7.837-7.307 11.765-.226.366-.518.789-.514 1.184.015 1.497.139 2.994.244 4.891zm-3.34-11.5c-.185.009-.37.016-.554.022-1.325 2.729-2.53 5.486-2.201 8.808 1.948-.305 2.842-1.607 3.767-2.849.131-.177.164-.496.117-.724-.36-1.756-.75-3.505-1.129-5.257z"/><path d="m39.156 55.677c-.19-.213-.367-.33-.425-.489-2.284-6.284-5.86-11.922-8.851-17.853-1.248-2.474-2.298-5.079-3.121-7.723-.474-1.521-.372-3.238-.408-4.87-.013-.603.253-1.242.504-1.814 1.118-2.547 3.361-3.103 5.28-1.123 1.116 1.152 1.998 2.613 2.697 4.073 1.461 3.051 1.974 6.396 2.636 9.687.175.868.315 1.752.602 2.583.116.336.586.55.896.819.261-.312.711-.601.751-.938.182-1.571.278-3.153.355-4.734.235-4.818.682-9.619 2.007-14.266.671-2.355 1.662-4.641 2.719-6.858.881-1.845 2.326-3.319 4.065-4.431 2.631-1.681 5.386-1.337 7.588.887 1.479 1.494 2.286 3.324 2.666 5.36.469 2.524.423 5.035-.213 7.534-.956 3.76-2.151 7.441-4.184 10.761-2.479 4.047-5.061 8.034-7.678 11.994-2.374 3.591-4.853 7.112-7.291 10.662-.168.245-.373.465-.595.739z" fill="#f15a29"/><path d="m42.278 72.336c-.105-1.896-.229-3.394-.243-4.892-.004-.395.288-.817.514-1.184 2.426-3.928 4.851-7.856 7.307-11.765 1.784-2.838 3.511-5.721 5.462-8.439 1.243-1.731 2.743-3.322 4.337-4.741 1.003-.893 2.327-1.554 3.62-1.959 2.248-.704 4.01.581 4.364 2.92.207 1.372-.069 2.694-.769 3.838-1.05 1.72-2.254 3.347-3.408 5.002-.455.652-1.397 1.198-1.015 2.083.449 1.041 1.542.548 2.381.583 1.446.062 2.921-.057 4.334.184 1.09.184 2.197.659 3.134 1.259 1.86 1.189 1.961 2.818.436 4.435-1.351 1.429-3.052 2.29-4.921 2.707-3.145.701-6.319 1.271-9.488 1.866-4.849.91-9.424 2.459-13.3 5.646-.824.679-1.594 1.424-2.745 2.457z" fill="#f17db1"/></g></svg>