<svg id="Layer_3" enable-background="new 0 0 300 300" viewBox="0 0 300 300" xmlns="http://www.w3.org/2000/svg"><g><g><path d="m197.259 198.653c-6.052 2.65-12.42 3.587-18.535 3.013-3.907-.362-7.718-1.332-11.288-2.867-1.223 2.365-2.695 4.618-4.413 6.683-3.636 4.398-8.337 8.047-13.94 10.499-18.833 8.24-40.682-.115-48.791-18.657-4.281-9.77-3.89-20.427.187-29.518-7.4-3.689-13.588-9.842-17.142-17.97-8.12-18.549.561-40.263 19.403-48.505 9.921-4.339 20.671-4.074 29.825-.137 3.803-7.377 10.108-13.568 18.363-17.175 18.824-8.238 40.673.117 48.791 18.657 4.271 9.763 3.879 20.42-.204 29.522 7.405 3.67 13.595 9.831 17.149 17.96 8.118 18.539-.563 40.253-19.405 48.495z" fill="#e44619"/><circle cx="150.002" cy="149.998" fill="#f49788" r="26.105"/></g><g fill="#603913"><path d="m218.496 149.355c-3.344-7.646-9.138-14.004-16.429-18.074 3.719-9.496 3.552-20.11-.517-29.408-8.548-19.524-31.614-28.354-51.423-19.688-7.772 3.397-14.271 9.214-18.466 16.49-9.551-3.584-20.28-3.307-29.724.823-9.596 4.197-17.007 11.825-20.867 21.477-3.864 9.662-3.71 20.196.434 29.662 3.337 7.63 9.129 13.99 16.424 18.081-3.717 9.494-3.544 20.108.531 29.408 4.138 9.462 11.771 16.721 21.492 20.438 4.543 1.737 9.287 2.604 14.032 2.604 5.397 0 10.796-1.12 15.9-3.354 5.758-2.52 10.696-6.239 14.677-11.052 1.394-1.676 2.659-3.501 3.777-5.443 3.272 1.229 6.695 2.015 10.198 2.339 6.622.624 13.369-.478 19.524-3.172h-.001c9.596-4.197 17.007-11.824 20.868-21.476 3.867-9.66 3.714-20.193-.43-29.655zm-3.281 28.169c-3.469 8.669-10.13 15.522-18.758 19.297 0 0 0 0-.001 0-5.535 2.423-11.607 3.406-17.548 2.854-3.697-.342-7.291-1.255-10.683-2.713-.965-.419-2.084-.015-2.566.919-1.184 2.288-2.588 4.416-4.177 6.327-3.581 4.33-8.022 7.675-13.201 9.941-8.624 3.773-18.179 4.013-26.9.679-8.712-3.332-15.551-9.833-19.257-18.307-3.873-8.837-3.807-19.006.181-27.897.438-.979.027-2.13-.933-2.608-7.237-3.608-12.992-9.639-16.203-16.982-3.71-8.478-3.847-17.914-.384-26.573 3.468-8.67 10.129-15.523 18.756-19.298 4.55-1.988 9.431-2.984 14.302-2.984 4.76 0 9.51.951 13.933 2.853.961.416 2.087.014 2.567-.921 3.717-7.209 9.892-12.983 17.388-16.26 17.785-7.781 38.492.124 46.156 17.627 3.866 8.837 3.794 19.006-.197 27.901-.439.98-.026 2.133.938 2.61 7.231 3.584 12.986 9.61 16.205 16.971 3.709 8.473 3.845 17.906.382 26.564z"/><path d="m141.979 146.325c.887-1.937.035-4.226-1.902-5.113s-4.226-.035-5.113 1.901c-.887 1.937-.035 4.226 1.901 5.113 1.938.888 4.228.036 5.114-1.901z"/><path d="m146.329 158.021c-1.937-.887-4.226-.035-5.113 1.902s-.035 4.226 1.902 5.113 4.226.035 5.113-1.901c.886-1.939.035-4.228-1.902-5.114z"/><path d="m163.137 151.769c-1.937-.887-4.226-.035-5.113 1.902s-.035 4.226 1.901 5.113c1.937.887 4.226.035 5.113-1.902s.036-4.226-1.901-5.113z"/><path d="m158.787 140.074c.887-1.937.035-4.226-1.901-5.113s-4.226-.035-5.113 1.902-.035 4.226 1.902 5.113c1.936.886 4.225.035 5.112-1.902z"/><path d="m190.073 159.471-12.13-6.393c.479-4.308-.045-8.698-1.599-12.878-1.554-4.179-4.026-7.844-7.202-10.791l4.997-12.769c.222-.565-.012-1.219-.561-1.509-.59-.311-1.321-.085-1.632.505l-5.942 11.258c-1.348-.93-2.783-1.755-4.303-2.45-1.521-.697-3.085-1.244-4.671-1.657l4.639-11.855c.222-.565-.012-1.219-.561-1.509-.59-.311-1.321-.085-1.632.505l-6.402 12.128c-4.305-.478-8.692.047-12.869 1.602-4.178 1.553-7.842 4.024-10.789 7.199l-12.772-4.994c-.565-.222-1.219.012-1.509.562-.311.59-.085 1.321.505 1.632l11.26 5.938c-.931 1.349-1.756 2.784-2.453 4.305-.695 1.519-1.242 3.08-1.655 4.663l-11.859-4.64c-.565-.222-1.219.012-1.509.561-.312.59-.086 1.321.504 1.632l12.13 6.403c-.479 4.308.044 8.698 1.599 12.878 1.554 4.178 4.025 7.842 7.2 10.789l-4.994 12.772c-.222.565.012 1.219.562 1.509.59.311 1.321.085 1.632-.505l5.938-11.26c1.349.931 2.784 1.756 4.306 2.453 1.519.696 3.079 1.242 4.663 1.655l-4.64 11.858c-.222.565.012 1.219.561 1.509.59.312 1.321.086 1.632-.504l6.4-12.125c1.02.113 2.044.172 3.069.172 3.306 0 6.62-.591 9.812-1.778 4.179-1.554 7.844-4.026 10.791-7.202l12.77 4.997c.565.222 1.219-.012 1.509-.561.312-.59.086-1.321-.504-1.632l-11.258-5.942c.93-1.348 1.754-2.782 2.45-4.302.696-1.519 1.242-3.08 1.655-4.664l11.86 4.632c.565.221 1.219-.012 1.508-.562.311-.593.084-1.324-.506-1.635zm-18.154.56c-5.532 12.086-19.862 17.416-31.952 11.885-5.854-2.68-10.313-7.479-12.559-13.515-2.244-6.035-2.005-12.583.676-18.438 4.049-8.844 12.809-14.07 21.954-14.07 3.352 0 6.756.703 9.997 2.187 5.855 2.681 10.315 7.48 12.56 13.515 2.244 6.035 2.005 12.582-.676 18.436z"/></g></g></svg>