<svg id="Layer_1" enable-background="new 0 0 100 100" height="100" viewBox="0 0 100 100" width="100" xmlns="http://www.w3.org/2000/svg"><g clip-rule="evenodd" fill-rule="evenodd"><path d="m65.944 14.526c.176-.323.349-.647.526-.969.934-1.684 1.817-3.396 2.816-5.04.837-1.375 1.979-2.482 3.49-3.132 2.113-.909 3.983-.189 4.907 1.914.607 1.382.706 2.842.53 4.333-.438 3.704-1.951 6.993-4.139 9.931-1.686 2.264-3.56 4.408-5.521 6.44-3.343 3.465-6.831 6.79-10.237 10.195-3.611 3.61-7.15 7.312-12.38 8.8.167.605.295 1.067.442 1.603 3.301.148 6.458-.151 9.247-1.865 1.867-1.148 3.624-2.526 5.255-3.998 2.226-2.01 4.261-4.231 6.424-6.314 1.883-1.813 3.915-3.444 6.294-4.587 1.341-.644 2.726-1.123 4.249-1 2.256.181 3.557 1.88 2.817 4.019-.411 1.187-1.228 2.278-2.039 3.267-.703.857-1.657 1.507-2.728 2.451.656 0 1.063-.008 1.468.001 1.636.037 3.273.054 4.906.135.438.021.888.195 1.297.377 1.853.825 2.396 2.62 1.074 4.139-.83.955-1.928 1.755-3.047 2.366-2.462 1.343-5.183 1.986-7.941 2.369-4.432.616-8.893 1.034-13.311 1.734-2.896.46-5.746 1.233-8.598 1.941-.812.202-1.577.63-2.33 1.02-1.411.731-1.422.775-1.125 2.397 1.436 7.821 1.439 15.68.413 23.53-.564 4.32-1.427 8.603-2.181 12.896-.11.625-.069 1.643-.974 1.505-1.139-.175-.563-1.161-.429-1.804 1.395-6.664 2.488-13.368 2.75-20.186.193-5.052-.023-10.083-.924-15.069-.049-.276-.114-.548-.213-1.018-.381.3-.714.476-.93.744-1.424 1.779-2.107 3.849-2.367 6.092-.375 3.247.063 6.45.523 9.646.834 5.802 1.175 11.61.497 17.451-.051.446-.085.911-.247 1.321-.075.19-.446.391-.659.367-.216-.023-.487-.282-.579-.503-.1-.238-.051-.556-.016-.832.829-6.53.241-13.005-.694-19.475-.414-2.861-.665-5.737-.225-8.635.42-2.766 1.392-5.271 3.424-7.236.719-.694.889-1.365.634-2.268-.305-1.08-.557-2.175-.849-3.337-2.961-.115-5.749.147-8.475 1.023-2.563.824-4.88 2.106-7.079 3.636-1.767 1.229-3.506 2.507-5.344 3.621-1.049.635-2.234 1.128-3.423 1.427-1.654.415-2.669-.468-2.601-2.166.033-.831.264-1.677.54-2.469.39-1.121.938-2.187 1.354-3.3.249-.667.372-1.38.606-2.281-.974-.1-1.742-.173-2.507-.258-.787-.088-1.602-.087-2.35-.307-1.305-.383-1.777-1.634-.889-2.659.712-.823 1.684-1.535 2.683-1.97 1.945-.847 4.061-1.128 6.165-.833 4.318.604 8.614 1.359 12.931 1.979 1.564.225 3.158.265 4.742.336.667.03 1.34-.081 2.179-.139-.134-.581-.24-1.039-.328-1.417-.224-.103-.331-.2-.425-.189-4.724.557-8.955-.962-12.99-3.164-4.612-2.517-8.823-5.565-12.031-9.809-.747-.989-1.402-2.063-1.967-3.166-.381-.743-.639-1.588-.764-2.416-.43-2.84 1.356-4.437 4.064-3.527 1.374.461 2.622 1.308 3.902 2.022.535.298 1.007.707 1.78 1.26-.196-.689-.312-1.081-.417-1.476-.456-1.693-1.021-3.367-1.333-5.086-.43-2.365 1.29-3.747 3.516-2.83.913.376 1.759 1.037 2.478 1.731 1.743 1.686 2.811 3.833 3.677 6.058 1.088 2.797 1.986 5.67 3.13 8.444.751 1.82 1.725 3.561 2.728 5.26.537.91 1.299 1.721 2.744 2.045-.266-.718-.443-1.276-.674-1.811-1.904-4.423-3.86-8.824-5.705-13.271-.625-1.507-1.152-3.1-1.401-4.704-.212-1.363-.203-2.862.137-4.191.773-3.023 3.569-3.734 5.658-1.426 1.158 1.279 1.955 2.888 2.882 4.368.292.466.48.997.97 1.492.044-.401.113-.802.128-1.204.093-2.431.05-4.876.309-7.289.154-1.434.684-2.854 1.224-4.209.385-.97 1.171-1.699 2.347-1.677 1.188.022 1.952.825 2.247 1.799.555 1.828 1.064 3.71 1.251 5.604.443 4.485-.073 8.949-.845 13.364-.476 2.727-1.124 5.437-1.896 8.096-.736 2.528-1.958 4.833-4.323 6.416.163.431.312.828.553 1.467 1.047-.536 2.034-.937 2.912-1.506 3.439-2.231 5.765-5.392 7.389-9.105 1.626-3.721 2.362-7.673 3.025-11.647.438-2.626.804-5.273 1.438-7.854.454-1.849 1.222-3.637 2.002-5.384.41-.921 1.14-1.822 2.337-1.651 1.165.166 1.438 1.285 1.596 2.186.309 1.775.415 3.586.579 5.385.048.53.008 1.067.008 1.601.089.023.173.039.256.055zm-2.388-7.438c-.167-.021-.332-.043-.498-.065-.246.281-.596.522-.721.85-.646 1.683-1.396 3.35-1.803 5.095-.614 2.642-.994 5.339-1.439 8.019-.624 3.748-1.347 7.476-2.843 10.988-2.227 5.222-5.559 9.442-10.975 11.69-.14.058-.231.232-.393.403.175.454.354.915.609 1.574 1.111-.459 2.244-.73 3.148-1.341 1.961-1.323 3.967-2.652 5.669-4.278 4.828-4.613 9.554-9.338 14.233-14.103 1.618-1.648 3.089-3.469 4.44-5.345 1.834-2.543 3.241-5.335 3.654-8.497.144-1.103.171-2.279-.054-3.359-.481-2.316-2.124-2.949-4.012-1.504-1.005.77-1.849 1.83-2.557 2.897-2.213 3.333-3.483 7.098-4.74 10.859-.162.483-.253 1.009-.514 1.432-.168.274-.585.396-.891.586-.175-.321-.447-.627-.5-.967-.057-.375.114-.778.143-1.172.229-3.383.524-6.765.634-10.152.042-1.195-.379-2.406-.59-3.61zm-15.871 46.796c2.711-1.477 5.356-2.461 8.158-2.924 3.016-.497 6.047-.889 9.069-1.335 3.863-.57 7.737-1.074 11.579-1.753 2.064-.365 4.046-1.128 5.783-2.354.768-.542 1.781-1.134 1.489-2.244-.263-1.006-1.347-1.181-2.245-1.189-2.031-.019-4.063.082-6.094.141-.509.015-1.03.138-1.521.056-.402-.068-.964-.286-1.088-.588-.111-.271.208-.805.465-1.118.279-.34.711-.552 1.068-.831.981-.766 2.05-1.448 2.911-2.332.773-.792 1.483-1.734 1.922-2.741.607-1.392-.118-2.44-1.63-2.337-1.151.078-2.336.43-3.397.905-2.408 1.076-4.372 2.813-6.246 4.633-2.112 2.052-4.168 4.162-6.27 6.224-3.735 3.664-8.076 5.984-13.443 6.02-.423.003-.845.141-1.36.232.284 1.175.532 2.212.85 3.535zm-5.078-11.179c-.25-1.248-.237-1.323-1.058-1.465-1.69-.293-2.905-1.296-3.812-2.622-.92-1.346-1.78-2.769-2.418-4.265-1.019-2.389-1.781-4.887-2.75-7.3-.82-2.042-1.669-4.087-2.719-6.015-.605-1.112-1.569-2.06-2.495-2.955-.591-.573-1.44-1.143-2.288-.568-.733.498-.331 1.351-.207 2.053.109.611.246 1.226.454 1.809.589 1.648 1.231 3.278 1.831 4.923.244.669.733 1.462-.062 1.994-.704.471-1.251-.259-1.771-.632-1.195-.856-2.296-1.851-3.533-2.637-.99-.628-2.084-1.156-3.203-1.499-1.233-.377-1.978.307-1.888 1.613.046.663.204 1.365.5 1.955.553 1.107 1.139 2.227 1.894 3.199 4.025 5.179 9.286 8.714 15.288 11.2 1.194.495 2.464.839 3.727 1.134 1.485.347 2.997.398 4.51.078zm.787-3.132c.603-.643 1.191-1.055 1.483-1.621.825-1.602 1.723-3.206 2.242-4.916 1.672-5.508 2.385-11.192 2.451-16.931.025-2.187-.388-4.387-.709-6.565-.137-.932-.457-1.881-1.422-2.362-1.123.754-1.295.99-1.704 2.41-.73 2.537-.788 5.141-.742 7.752.036 1.982.088 3.964.125 5.947.008.396.067.819-.049 1.182-.121.38-.422.703-.645 1.05-.342-.248-.78-.431-1.001-.759-.31-.46-.45-1.033-.679-1.55-.869-1.966-1.666-3.97-2.651-5.877-.481-.931-1.231-1.772-2.014-2.485-.885-.806-1.874-.643-2.393.423-.404.832-.718 1.861-.617 2.751.196 1.726.492 3.504 1.139 5.102 2.126 5.248 4.426 10.425 6.667 15.626.087.202.235.377.519.823zm1.18 9.035c.137-1.091-.394-1.246-1.214-1.172-3.245.289-6.425-.213-9.612-.765-3.342-.578-6.701-1.08-10.067-1.496-1.927-.239-3.849.047-5.656.812-.742.315-1.523.668-1.762 1.794.686.076 1.228.15 1.772.192.563.044 1.132.025 1.694.087 2.302.254 2.903 1.082 2.27 3.264-.299 1.027-.785 1.998-1.161 3.004-.355.951-.721 1.904-.991 2.882-.104.376.042.822.095 1.526 1.022-.335 1.861-.486 2.575-.87 1.242-.668 2.422-1.456 3.599-2.237 1.556-1.032 3.054-2.153 4.63-3.151 3.306-2.094 6.912-3.339 10.833-3.625 1.004-.072 2.004-.163 2.995-.245z"/><path d="m63.556 7.088c.211 1.204.633 2.415.594 3.611-.109 3.387-.404 6.769-.634 10.152-.028.394-.199.797-.143 1.172.053.34.325.646.5.967.306-.19.723-.312.891-.586.261-.423.352-.949.514-1.432 1.257-3.761 2.527-7.526 4.74-10.859.708-1.067 1.552-2.127 2.557-2.897 1.888-1.445 3.53-.812 4.012 1.504.225 1.08.197 2.256.054 3.359-.413 3.162-1.82 5.953-3.654 8.497-1.352 1.876-2.822 3.697-4.44 5.345-4.68 4.765-9.405 9.49-14.233 14.103-1.702 1.626-3.708 2.955-5.669 4.278-.904.61-2.037.882-3.148 1.341-.255-.659-.434-1.12-.609-1.574.162-.171.253-.345.393-.403 5.417-2.249 8.749-6.468 10.975-11.69 1.496-3.512 2.219-7.24 2.843-10.988.445-2.68.825-5.377 1.439-8.019.406-1.745 1.157-3.412 1.803-5.095.125-.328.475-.569.721-.85.162.021.327.043.494.064z" fill="#f19d7e"/><path d="m47.685 53.884c-.317-1.323-.566-2.359-.848-3.537.515-.091.937-.229 1.36-.232 5.367-.036 9.708-2.356 13.443-6.02 2.102-2.062 4.157-4.172 6.27-6.224 1.874-1.82 3.838-3.557 6.246-4.633 1.062-.475 2.246-.827 3.397-.905 1.512-.103 2.237.946 1.63 2.337-.438 1.007-1.148 1.949-1.922 2.741-.861.884-1.93 1.566-2.911 2.332-.357.278-.789.49-1.068.831-.257.313-.576.847-.465 1.118.124.302.686.52 1.088.588.49.083 1.012-.041 1.521-.056 2.031-.059 4.063-.16 6.094-.141.898.008 1.982.184 2.245 1.189.292 1.11-.722 1.703-1.489 2.244-1.737 1.226-3.719 1.989-5.783 2.354-3.842.68-7.716 1.183-11.579 1.753-3.022.446-6.054.838-9.069 1.335-2.804.465-5.449 1.449-8.16 2.926z" fill="#f17db1"/><path d="m42.607 42.705c-1.513.32-3.026.269-4.509-.078-1.262-.295-2.532-.639-3.727-1.134-6.002-2.486-11.263-6.021-15.288-11.2-.755-.972-1.341-2.092-1.894-3.199-.296-.59-.454-1.292-.5-1.955-.089-1.306.655-1.99 1.888-1.613 1.119.343 2.213.871 3.203 1.499 1.237.786 2.338 1.78 3.533 2.637.52.373 1.067 1.104 1.771.632.794-.531.305-1.325.062-1.994-.6-1.646-1.242-3.275-1.831-4.923-.208-.583-.345-1.198-.454-1.809-.124-.702-.527-1.555.207-2.053.848-.575 1.697-.005 2.288.568.926.896 1.89 1.843 2.495 2.955 1.05 1.928 1.899 3.973 2.719 6.015.969 2.413 1.731 4.911 2.75 7.3.638 1.496 1.498 2.918 2.418 4.265.906 1.326 2.122 2.329 3.812 2.622.821.142.807.218 1.057 1.465z" fill="#e5e981"/><path d="m43.394 39.573c-.283-.445-.431-.621-.518-.823-2.24-5.202-4.541-10.379-6.667-15.626-.647-1.598-.943-3.376-1.139-5.102-.102-.89.213-1.919.617-2.751.519-1.066 1.508-1.229 2.393-.423.782.712 1.533 1.554 2.014 2.485.985 1.907 1.782 3.911 2.651 5.877.229.517.369 1.09.679 1.55.222.329.659.511 1.001.759.222-.348.523-.67.645-1.05.116-.363.057-.786.049-1.182-.037-1.982-.089-3.964-.125-5.947-.046-2.612.012-5.215.742-7.752.409-1.419.582-1.655 1.704-2.41.965.48 1.285 1.43 1.422 2.362.321 2.179.735 4.378.709 6.565-.066 5.739-.779 11.423-2.451 16.931-.519 1.709-1.417 3.314-2.242 4.916-.293.566-.881.978-1.484 1.621z" fill="#7fd2f0"/><path d="m44.574 48.608c-.991.082-1.992.172-2.994.246-3.921.286-7.527 1.531-10.833 3.625-1.577.998-3.075 2.119-4.63 3.151-1.177.781-2.357 1.569-3.599 2.237-.713.384-1.552.535-2.575.87-.054-.704-.2-1.15-.095-1.526.271-.978.636-1.931.991-2.882.376-1.006.862-1.977 1.161-3.004.634-2.183.033-3.01-2.27-3.264-.562-.062-1.131-.043-1.694-.087-.545-.042-1.087-.117-1.772-.192.238-1.126 1.02-1.479 1.762-1.794 1.807-.765 3.729-1.051 5.656-.812 3.367.417 6.726.918 10.067 1.496 3.187.551 6.367 1.053 9.612.765.82-.074 1.35.08 1.213 1.171z" fill="#b783ba"/></g></svg>