<svg id="Layer_1" enable-background="new 0 0 100 100" height="100" viewBox="0 0 100 100" width="100" xmlns="http://www.w3.org/2000/svg"><g clip-rule="evenodd" fill-rule="evenodd"><path d="m27.677 18.486c.112-.979.193-1.807.307-2.631.076-.555.121-1.132.313-1.65.496-1.33 1.584-1.671 2.652-.765.673.571 1.297 1.285 1.715 2.057 1.017 1.877 1.965 3.798 2.824 5.753 1.087 2.473 2.024 5.012 3.094 7.493.478 1.108 1.123 2.145 1.691 3.214.136-.049.272-.097.408-.146-.097-.516-.185-1.033-.291-1.546-.779-3.809-1.521-7.621-1.602-11.528-.06-2.892.16-5.741 1.191-8.477.563-1.494 1.329-2.861 2.554-3.923 2.399-2.082 5.445-1.725 7.071 1.006.729 1.225 1.044 2.705 1.494 4.086.169.517.19 1.083.338 1.987.434-.701.676-1.107.933-1.505.763-1.18 1.482-2.392 2.315-3.52.39-.528.948-.981 1.521-1.312 1.219-.705 2.456-.241 2.772 1.125.209.904.251 1.933.044 2.831-.389 1.69-.861 3.394-1.563 4.975-2.522 5.686-5.811 10.928-9.526 15.906-.334.448-.667.897-1.175 1.581.596-.149.979-.161 1.27-.331 1.551-.907 3.161-1.743 4.595-2.812 2.209-1.647 4.267-3.498 6.44-5.196 1.328-1.038 2.694-2.054 4.153-2.888 1.106-.633 2.351-1.118 3.594-1.39 1.619-.354 2.664.714 2.363 2.344-.17.919-.629 1.792-1.009 2.665-.218.502-.536.96-.96 1.702.8-.138 1.33-.218 1.854-.322 1.544-.307 3.076-.711 4.635-.904.927-.115 1.929-.04 2.836.192 1.469.376 1.982 1.639 1.123 2.872-.594.851-1.422 1.609-2.295 2.179-2.187 1.426-4.62 2.324-7.158 2.926-3.34.794-6.692 1.543-10.025 2.367-3.238.8-6.405 1.809-9.087 3.902-.796.62-1.553 1.303-2.252 2.029-1.467 1.523-2.106 3.214-1.889 5.478 1.189 12.404-.481 24.468-4.527 36.253-.924 2.69-1.22 5.598-1.804 8.405-.081.385-.126.78-.236 1.157-.308 1.055-.53 1.103-1.464.423-.16-.116-.427-.143-.635-.121-.972.097-1.242-.185-.948-1.098.171-.534.399-1.055.652-1.557 2.122-4.198 3.02-8.691 3.264-13.349.321-6.129.676-12.257.988-18.387.238-4.694.886-9.297 2.695-13.685.222-.538.268-1.222.178-1.804-.404-2.614-.925-5.209-1.32-7.824-.153-1.01-.688-1.333-1.599-1.632-6.45-2.112-12.013-5.613-16.377-10.871-.671-.809-1.253-1.759-1.619-2.739-.769-2.065.209-3.286 2.42-3.186.504.023 1.003.145 1.507.182.438.035.883.009 1.557.009zm15.106 15.654c1.609-.261 2.462-1.194 3.213-2.155 4.275-5.473 7.948-11.321 10.615-17.75.552-1.33.777-2.805 1.065-4.231.113-.563.209-1.244-.563-1.715-1.036.493-1.685 1.394-2.295 2.329-1.932 2.955-3.098 6.229-4.023 9.606-.132.484-.261.992-.521 1.406-.129.204-.568.316-.843.282-.159-.021-.382-.416-.38-.641.001-.5.09-1.006.207-1.496.567-2.375.704-4.78.518-7.206-.122-1.589-.5-3.115-1.386-4.464-1.246-1.897-3.168-2.147-4.888-.655-1.095.95-1.743 2.189-2.223 3.528-.907 2.53-1.094 5.152-1.029 7.813.106 4.3 1.008 8.478 1.903 12.657.186.866.404 1.728.63 2.692zm1.67 8.902c1.405-1.272 2.581-2.473 3.893-3.498 3.045-2.379 6.686-3.392 10.357-4.288 3.331-.812 6.707-1.459 9.993-2.422 2.081-.611 4.063-1.604 6.026-2.555.803-.389 1.659-.952 1.696-2.063-1.227-.532-1.975-.618-3.475-.304-1.981.414-3.945.907-5.933 1.285-.499.096-1.223.067-1.552-.229-.533-.48-.13-1.154.174-1.695.523-.93 1.104-1.829 1.605-2.771.335-.63.679-1.298.324-2.039-1.251-.062-1.789-.015-3.059.755-1.533.93-3.035 1.933-4.454 3.03-2.311 1.788-4.505 3.729-6.821 5.511-2.754 2.118-5.758 3.724-9.331 3.952-.207.013-.406.137-.735.255.43 2.343.849 4.646 1.292 7.076zm-20.931-23.2c.083 1.626.221 2.025 1.324 3.369 3.692 4.496 8.391 7.588 13.729 9.775.114.046.28-.035.441-.061-.737-1.52-1.498-2.958-2.141-4.447-.957-2.219-1.782-4.496-2.753-6.708-.813-1.85-1.716-3.662-2.66-5.449-.348-.659-.927-1.196-1.553-1.979-.216.588-.383.876-.423 1.18-.132 1.002-.159 2.021-.338 3.014-.207 1.136-.575 1.436-1.705 1.45-.782.009-1.564-.132-2.348-.17-.521-.024-1.044.016-1.573.026zm17.455 56.707c1.969-4.584 3.85-21.312 2.352-26.66-2.428 8.734-1.572 17.768-2.352 26.66z"/><path d="m42.783 34.14c-.226-.964-.444-1.826-.631-2.694-.895-4.18-1.797-8.357-1.903-12.657-.065-2.661.122-5.283 1.029-7.813.48-1.339 1.128-2.578 2.223-3.528 1.72-1.492 3.642-1.242 4.888.655.886 1.349 1.264 2.875 1.386 4.464.187 2.426.05 4.831-.518 7.206-.117.489-.206.996-.207 1.496-.001.226.221.621.38.641.274.035.714-.078.843-.282.261-.414.39-.922.521-1.406.925-3.377 2.091-6.651 4.023-9.606.61-.935 1.259-1.836 2.295-2.329.772.472.677 1.152.563 1.715-.288 1.426-.514 2.901-1.065 4.231-2.667 6.43-6.34 12.277-10.615 17.75-.75.962-1.602 1.896-3.212 2.157z" fill="#f15a29"/><path d="m44.453 43.042c-.442-2.429-.861-4.733-1.289-7.078.329-.118.528-.242.735-.255 3.573-.228 6.577-1.833 9.331-3.952 2.316-1.781 4.511-3.723 6.821-5.511 1.419-1.097 2.921-2.1 4.454-3.03 1.27-.77 1.808-.816 3.059-.755.354.741.011 1.409-.324 2.039-.501.942-1.082 1.841-1.605 2.771-.304.541-.707 1.215-.174 1.695.329.296 1.053.325 1.552.229 1.987-.378 3.951-.871 5.933-1.285 1.5-.314 2.248-.228 3.475.304-.037 1.111-.894 1.675-1.696 2.063-1.964.951-3.945 1.944-6.026 2.555-3.286.963-6.662 1.61-9.993 2.422-3.672.896-7.313 1.909-10.357 4.288-1.316 1.027-2.492 2.228-3.896 3.5z" fill="#92d1b9"/><path d="m23.522 19.842c.528-.01 1.052-.05 1.573-.025.784.038 1.566.179 2.348.17 1.129-.014 1.498-.314 1.705-1.45.18-.992.206-2.011.338-3.014.04-.304.207-.592.423-1.18.626.783 1.205 1.32 1.553 1.979.944 1.787 1.848 3.599 2.66 5.449.972 2.212 1.796 4.488 2.753 6.708.643 1.489 1.404 2.927 2.141 4.447-.161.025-.327.107-.441.061-5.338-2.187-10.037-5.279-13.729-9.775-1.102-1.345-1.241-1.743-1.324-3.37z" fill="#f19d7e"/></g></svg>