<svg id="flat" viewBox="0 0 960 960" xmlns="http://www.w3.org/2000/svg"><path d="m691.33 228.73c-24.76 39.09-49.83 68.44-67.73 104.05-.34-10.05-1.07-19.09-2.47-25.89-10.65-51.66-23.2-99.92-37.62-150.65-12.38 41.81-23.76 70.38-35.47 103.29-8.33-48.23-26.24-90.86-49.31-152.2-2.84-7.54-10.13-24.67-17.2-36.33-31.42 87.63-51.9 141.05-60.81 207.72-12.61-27.51-28.82-62.93-40.78-88.99-11.88 43.98-22.29 87.91-30.05 131.55-9.76-32.13-24.77-62.28-47.04-82.01.75 33.77-10.34 89.89-17.29 123.11-14.4 68.8-9.99 139.72 2.96 208.82l75.8-.52c13.5-.05 26.99-.1 40.48-.15 6.03-.02 12.06-.04 18.09-.05 10.76-.03 21.51-.06 32.27-.08 20.28-.04 40.55-.06 60.83-.06 7.98 0 15.97.01 23.96.02 9.96.01 19.92.02 29.88.05 8.39.02 16.67.04 24.88.06l77.89.75c4.9-58.53 17.59-111.35 24.53-168.03 8.06-65.89 11.35-110.33-5.8-174.46z" fill="#6aac96"/><path d="m702.468 573.395c-.897-1.264-2.67-1.448-4.22-1.498-43.793-1.427-84.699-1.362-128.55-1.48-55.16-.148-110.32-.058-165.48.119-23.905.077-47.809.173-71.713.287-9.633.046-19.266.096-28.899.146-5.334.028-13.339-.02-18.588.398-8.441.673-13.762-.432-22.336.629-1.392.172-2.816.396-4.031 1.097-4.098 2.365-3.665 8.32-2.689 12.95 2.328 11.037 4.657 21.071 6.985 32.108 1.326 6.287 2.669 12.627 5.262 18.506.319.723.671 1.458 1.182 2.051.138.16.288.31.453.447 2.671 2.225 9.89 1.207 13.378 1.216.894.002 1.788 0 2.682 0 6.91 40.833 13.72 81.685 20.941 122.465 2.827 15.965 6.043 34.534 8.521 50.176 3.696 23.334 8.058 43.919 16.538 65.89.726 1.882 1.545 3.864 3.183 5.042 1.592 1.145 3.663 1.317 5.62 1.449 76.315 5.134 132.987 4.456 209.378 4.456 14.926 0 50.32-.359 64.759-4.144 2.826-.741 5.74-1.662 7.837-3.696 1.769-1.716 2.776-4.051 3.709-6.332 16.65-40.698 21.785-85.543 29.62-128.574 6.528-35.851 13.812-77.054 18.077-105.195 5.33.37 13.794 1.148 16.562-1.021 5.269-4.163 5.803-20.783 6.887-26.731 1.288-7.068 2.432-14.158 3.593-21.247.716-4.374 3.935-15.851 1.34-19.511z" fill="#f2ab5a"/><g fill="#3d4659"><path d="m631.269 644.934c-3.445 0-6.999-.003-10.666-.009-41.939-.068-84.577-.349-125.811-.619l-32.781-.212c-54.657-.345-111.175-.7-166.759-.725l-4.745.002c-2.431.004-4.861.006-7.292 0-1.657-.004-2.997-1.351-2.993-3.007.004-1.654 1.347-2.993 3-2.993h.007c2.426.006 4.848.004 7.272 0l4.753-.002c55.602.024 112.129.38 166.795.725l32.783.212c41.226.271 83.855.551 125.78.619 22.289.034 40.515-.038 54.174-.222h.041c1.638 0 2.977 1.316 2.999 2.96.022 1.656-1.303 3.018-2.96 3.04-11.439.153-26.073.23-43.598.23z"/><g><path d="m364.315 573.683c-1.562 0-2.879-1.208-2.989-2.79-1.938-27.574-.803-55.61.295-82.724.973-24.02 1.979-48.857.83-73.185-1.529-32.18-7.011-65.146-15.434-92.828-.482-1.585.412-3.261 1.997-3.743 1.586-.485 3.261.412 3.743 1.997 8.563 28.142 14.135 61.628 15.688 94.29 1.16 24.591.149 49.562-.829 73.711-1.091 26.95-2.219 54.818-.306 82.062.116 1.652-1.129 3.087-2.782 3.202-.071.006-.143.008-.213.008z"/><path d="m539.952 573.362c-.105 0-.211-.005-.317-.017-1.647-.173-2.843-1.648-2.67-3.297 5.637-53.681 6.776-92.698 7.879-130.432.779-26.646 1.515-51.815 3.763-80.896 2.856-36.829 1.736-68.185-3.524-98.679-.282-1.633.813-3.185 2.446-3.466 1.621-.286 3.185.812 3.466 2.446 5.349 30.997 6.49 62.824 3.595 100.162-2.237 28.936-2.971 54.034-3.747 80.607-1.106 37.844-2.25 76.977-7.91 130.883-.162 1.541-1.464 2.687-2.979 2.687z"/><path d="m594.709 573.473c-.025 0-.051 0-.076 0-1.656-.041-2.965-1.418-2.924-3.074.348-13.913.11-28.091-.119-41.802-.298-17.794-.605-36.192.353-54.341 1.462-27.86 2.973-56.671 8.707-84.654 4.162-20.317 10.792-39.345 20.269-58.166.746-1.481 2.552-2.074 4.028-1.331 1.48.745 2.076 2.549 1.331 4.028-9.235 18.343-15.695 36.881-19.751 56.674-5.644 27.542-7.143 56.124-8.592 83.765-.947 17.94-.642 36.234-.346 53.925.23 13.772.469 28.015.118 42.053-.041 1.631-1.376 2.925-2.998 2.925z"/><path d="m455.158 573.402h-.017c-1.657-.01-2.992-1.36-2.983-3.017.23-41.12.316-89.807-.789-139.136-.454-20.532-1.117-39.035-4.639-57.557-6.896-36.243-15.043-63.878-25.639-86.97-.624-1.367-1.263-2.753-1.911-4.162l-1.189-2.587c-.691-1.506-.03-3.287 1.476-3.979 1.505-.688 3.286-.03 3.978 1.475l1.188 2.583c.65 1.414 1.291 2.806 1.915 4.173 10.802 23.539 19.089 51.613 26.078 88.346 3.604 18.949 4.299 38.506 4.742 58.544 1.107 49.403 1.021 98.142.791 139.303-.009 1.651-1.351 2.983-3 2.983z"/><path d="m302.048 548.277c-1.534 0-2.843-1.171-2.983-2.729-.328-3.611 2.409-7.115 6.232-7.978 2.736-.614 5.816.058 8.676 1.896.228.146.454.3.681.454.545.369 1.108.752 1.48.839.875.198 2.318-.856 3.715-1.883 2.267-1.672 5.085-3.75 8.684-2.876 1.477.359 2.644 1.177 3.495 1.773l6.825 4.777c1.333.934 1.679 2.759.78 4.115s-2.717 1.75-4.094.885l-1.093-.684c-.231-.145-.437-.315-.614-.506l-5.246-3.673c-.513-.359-1.093-.766-1.474-.858-.865-.216-2.312.851-3.705 1.876-2.259 1.665-5.068 3.732-8.646 2.894-1.45-.34-2.573-1.103-3.476-1.715-.186-.126-.371-.252-.558-.372-1.475-.948-2.973-1.345-4.112-1.09-.906.204-1.625 1.041-1.576 1.581.15 1.65-1.066 3.109-2.716 3.259-.093.009-.185.013-.275.013z"/><path d="m340.615 515.165c-.626 0-1.257-.194-1.796-.599l-6.401-4.794c-1.597-1.197-3.267-2.347-4.572-2.173-.802.109-1.755.771-2.763 1.473-.598.415-1.215.845-1.901 1.24-4.499 2.59-10.243 2.472-14.635-.3-.932-.589-1.732-1.243-2.507-1.876-.957-.782-1.86-1.521-2.76-1.891-1.004-.414-2.296-.305-3.454.292s-1.998 1.584-2.245 2.642c-.376 1.614-1.992 2.618-3.604 2.238-1.613-.376-2.615-1.99-2.238-3.604.651-2.789 2.598-5.198 5.341-6.61 2.742-1.413 5.836-1.598 8.484-.507 1.724.71 3.078 1.817 4.273 2.794.663.543 1.29 1.055 1.912 1.447 2.493 1.574 5.885 1.645 8.439.173.464-.267.951-.605 1.467-.965 1.477-1.026 3.149-2.189 5.386-2.492 3.845-.527 7.057 1.881 8.972 3.315l6.401 4.794c1.326.993 1.597 2.873.604 4.199-.589.787-1.491 1.202-2.403 1.202z"/><path d="m295.574 475.149c-.455 0-.917-.104-1.351-.323-1.479-.747-2.072-2.552-1.325-4.03 3.209-6.353 11.501-9.483 18.106-6.834.951.381 1.853.847 2.725 1.299 2.063 1.068 3.484 1.736 4.396 1.342.421-.184.938-.702 1.486-1.251.76-.761 1.62-1.623 2.814-2.265 4.896-2.632 10.2.908 12.466 2.419 2.899 1.935 5.017 2.584 6.116 1.882 1.397-.889 3.252-.477 4.142.921s.477 3.252-.921 4.142c-4.983 3.169-10.767-.685-12.666-1.952-1.964-1.31-4.75-2.954-6.297-2.126-.414.223-.896.706-1.407 1.218-.834.836-1.873 1.877-3.342 2.516-3.592 1.562-6.894-.145-9.545-1.517-.78-.403-1.517-.784-2.198-1.058-3.774-1.517-8.688.342-10.52 3.97-.527 1.045-1.584 1.648-2.68 1.648z"/><path d="m340.482 436.838c-.534 0-1.075-.143-1.563-.441-1.761-1.078-3.175-2.413-4.543-3.705-.856-.809-1.666-1.573-2.511-2.226-1.439-1.111-3.668-2.166-5.203-1.471-.766.345-1.57 1.183-2.423 2.068-1.571 1.635-3.525 3.668-6.59 3.87-3.092.207-5.337-1.587-7.144-3.024-.541-.432-1.054-.84-1.536-1.156-1.781-1.168-4.151-1.499-6.185-.861-2.032.638-3.788 2.262-4.584 4.239-.618 1.539-2.368 2.282-3.902 1.664-1.537-.618-2.282-2.365-1.664-3.902 1.472-3.658 4.595-6.546 8.355-7.726 3.762-1.181 7.975-.592 11.271 1.568.714.469 1.359.983 1.984 1.48 1.149.917 2.246 1.78 3.008 1.731.746-.05 1.676-1.018 2.661-2.042 1.153-1.199 2.461-2.56 4.283-3.381 3.358-1.512 7.595-.692 11.335 2.192 1.081.835 2.038 1.738 2.963 2.612 1.197 1.13 2.328 2.198 3.557 2.95 1.413.865 1.857 2.712.992 4.125-.566.924-1.552 1.434-2.562 1.434z"/><path d="m300.866 396.833c-.459 0-.924-.105-1.36-.328-1.476-.752-2.062-2.559-1.311-4.035 1.638-3.214 4.712-5.69 8.436-6.796 3.724-1.104 7.652-.703 10.779 1.097.868.501 1.625 1.06 2.356 1.601 1.044.771 1.946 1.438 2.835 1.687 2.588.732 5.705-1.935 8.137-4.334 1.178-1.163 3.078-1.152 4.242.029 1.163 1.179 1.15 3.078-.029 4.242-2.306 2.272-7.71 7.597-13.97 5.84-1.948-.546-3.452-1.657-4.779-2.638-.625-.462-1.216-.897-1.788-1.229-1.707-.982-3.921-1.182-6.076-.542-2.154.639-3.902 2.012-4.797 3.768-.529 1.039-1.583 1.639-2.675 1.639z"/><path d="m304.648 352.015c-.255 0-.513-.033-.771-.102-1.602-.424-2.556-2.066-2.131-3.668.985-3.719 4.133-7.721 8.715-7.723h.004c2.729 0 4.884 1.438 6.614 2.593.236.157.472.314.706.466 1.451.939 2.509 1.151 2.872.949.348-.189.856-.958 1.265-1.576.988-1.492 2.342-3.535 5.02-3.996 3.238-.554 5.446 1.62 7.069 3.208.49.479 1.285 1.258 1.69 1.459 1.535-.404 3.138.46 3.626 1.991.502 1.579-.371 3.266-1.95 3.768-3.443 1.1-5.924-1.326-7.562-2.93-.541-.529-1.427-1.396-1.855-1.562-.266.215-.741.933-1.034 1.375-.773 1.168-1.736 2.622-3.383 3.524-1.779.977-4.787 1.563-9.016-1.173-.258-.167-.518-.34-.778-.514-1.22-.814-2.372-1.583-3.284-1.583-1.269 0-2.502 1.692-2.918 3.26-.355 1.344-1.569 2.232-2.897 2.232z"/><path d="m379.515 545.513c-.384 0-.773-.074-1.15-.23-1.53-.636-2.255-2.392-1.619-3.922 1.825-4.392 5.917-7.849 10.944-9.248 5.025-1.401 10.314-.552 14.146 2.266.8.589 1.517 1.223 2.21 1.837 1.32 1.168 2.46 2.176 3.646 2.432 1.358.293 3.153-.382 5.339-1.997.435-.322.865-.656 1.296-.991 1.892-1.468 4.035-3.131 6.738-3.911 4.091-1.182 9.369.515 10.7 4.923.479 1.586-.419 3.26-2.006 3.738-1.582.479-3.26-.419-3.738-2.006-.244-.808-1.968-1.275-3.292-.891-1.598.461-3.115 1.639-4.723 2.887-.469.363-.937.727-1.409 1.075-3.683 2.723-7.011 3.719-10.166 3.038-2.725-.585-4.657-2.295-6.361-3.804-.621-.55-1.208-1.068-1.789-1.496-2.358-1.735-5.716-2.228-8.982-1.319-3.267.909-5.888 3.066-7.012 5.771-.479 1.153-1.596 1.85-2.771 1.85z"/><path d="m380.953 501.776c-.692 0-1.388-.238-1.954-.725-1.257-1.079-1.4-2.974-.32-4.23 2.629-3.061 5.608-6.528 9.706-8.662 5.023-2.613 10.728-2.377 14.537.604.418.326.818.691 1.216 1.059.493.456 1.053.973 1.371 1.059.556.144 1.807-.759 2.813-1.486.74-.535 1.505-1.088 2.359-1.56 7.126-3.931 15.04.834 20.374 4.762 1.334.982 1.619 2.861.637 4.195-.984 1.334-2.86 1.62-4.195.637-6.366-4.69-10.791-6.069-13.917-4.34-.534.294-1.12.719-1.741 1.168-1.93 1.394-4.576 3.302-7.881 2.42-1.751-.47-2.938-1.566-3.893-2.448-.275-.254-.549-.512-.84-.739-2.217-1.735-5.739-1.22-8.07-.008-3.071 1.599-5.539 4.472-7.926 7.25-.593.69-1.433 1.045-2.276 1.045z"/><path d="m383.118 465.36c-.62 0-1.245-.191-1.781-.588-1.332-.984-1.614-2.863-.629-4.195 2.174-2.941 4.638-6.275 8.364-8.331 3.812-2.103 9.644-2.631 13.438 1.176.596.597 1.094 1.254 1.533 1.833.356.47.938 1.237 1.243 1.431.354-.166 1.073-.935 1.513-1.405.454-.485.923-.987 1.463-1.462 2.849-2.501 7.123-3.357 11.434-2.291 3.495.864 6.493 2.759 9.139 4.431 1.4.886 1.818 2.738.934 4.139-.885 1.401-2.738 1.819-4.139.934-2.371-1.498-4.822-3.048-7.373-3.679-1.858-.459-4.418-.443-6.034.975-.318.279-.668.654-1.039 1.052-1.318 1.41-3.309 3.545-6.354 3.308-2.848-.218-4.419-2.292-5.567-3.806-.355-.469-.69-.911-.999-1.221-1.463-1.467-4.35-1.232-6.293-.159-2.579 1.423-4.541 4.077-6.438 6.644-.588.796-1.495 1.217-2.414 1.217z"/><path d="m383.283 425.291c-.536 0-1.078-.143-1.568-.444-1.411-.867-1.853-2.715-.984-4.127 1.975-3.212 4.212-6.854 7.745-9.393 3.615-2.599 9.266-3.941 13.74-1.092.897.571 1.663 1.259 2.339 1.865.808.726 1.644 1.476 2.2 1.519.673.071 1.805-.965 2.865-1.952.558-.52 1.135-1.056 1.77-1.555 2.923-2.297 6.864-3.159 10.82-2.362 3.953.796 7.257 3.115 9.063 6.364.805 1.448.284 3.274-1.164 4.08-1.449.807-3.274.284-4.08-1.164-.938-1.687-2.809-2.957-5.004-3.398-2.198-.445-4.413.006-5.929 1.197-.438.345-.9.774-1.39 1.23-1.724 1.604-4.064 3.789-7.419 3.542-2.584-.202-4.335-1.773-5.741-3.036-.552-.495-1.073-.964-1.554-1.27-2.099-1.335-5.108-.468-7.017.903-2.553 1.835-4.374 4.798-6.135 7.663-.566.921-1.551 1.429-2.559 1.429z"/><path d="m383.953 386.328c-.154 0-.31-.012-.467-.036-1.637-.255-2.757-1.789-2.501-3.427.821-5.269 4.188-9.981 9.236-12.933 5.047-2.949 10.807-3.57 15.801-1.7.805.302 1.574.648 2.317.984 1.729.781 3.355 1.522 4.638 1.264 1.21-.243 2.435-1.461 3.687-2.795 1.556-1.658 3.687-3.928 6.735-4.644 2.113-.494 4.489.03 6.206 1.377 1.477 1.158 2.3 2.77 2.317 4.538.017 1.656-1.313 3.013-2.971 3.029h-.03c-1.596 0-2.905-1.248-2.994-2.829-.19-.168-.726-.371-1.156-.274-1.286.303-2.586 1.688-3.732 2.908-1.469 1.565-3.688 3.93-6.88 4.572-3.166.632-5.888-.595-8.288-1.678-.685-.31-1.332-.602-1.952-.834-3.25-1.217-7.238-.745-10.67 1.262-3.433 2.006-5.801 5.25-6.336 8.678-.23 1.479-1.508 2.537-2.96 2.537z"/><path d="m381.458 336.257c-4.181 0-8.375-1.598-10.181-5.629-.678-1.512-.002-3.287 1.511-3.964 1.511-.68 3.286-.003 3.964 1.511.914 2.041 4.479 2.488 7.399 1.743 1.204-.308 2.419-.738 3.705-1.195 2.84-1.01 5.772-2.021 9.098-1.949 2.577.08 4.865.841 7.078 1.577 1.54.512 2.994.995 4.409 1.194 1.578.224 3.459-.282 4.465-1.201.607-.554.587-.984.578-1.168-.078-1.655 1.199-3.061 2.854-3.14 1.663-.077 3.061 1.199 3.14 2.854.104 2.214-.793 4.305-2.529 5.887-2.321 2.117-5.986 3.183-9.343 2.709-1.954-.274-3.74-.868-5.468-1.442-1.887-.628-3.669-1.22-5.371-1.272-2.201-.088-4.48.744-6.902 1.604-1.356.482-2.759.98-4.229 1.355-1.327.339-2.752.525-4.178.525z"/><path d="m382.275 299.548c-.256 0-.514-.009-.775-.027-2.472-.177-4.914-1.521-6.372-3.506-1.221-1.662-1.647-3.612-1.202-5.493.381-1.612 2-2.611 3.61-2.228 1.612.381 2.609 1.998 2.228 3.61-.042.179.086.402.2.559.419.57 1.246 1.021 1.966 1.073 1.744.121 3.667-.757 5.709-1.689l.639-.291c2.97-1.339 6.491-2.55 10.076-1.379 1.33.434 2.557 1.152 3.639 1.787.841.493 2.265 1.299 2.708 1.269 1.373-.93 3.239-.573 4.167.799.928 1.373.568 3.232-.804 4.161-3.396 2.3-6.834.28-9.107-1.053-.899-.528-1.749-1.026-2.464-1.259-1.636-.535-3.824.277-5.745 1.144l-.616.28c-2.314 1.057-4.913 2.243-7.855 2.243z"/><path d="m467.439 160.896c-.352 0-.709-.062-1.058-.194-1.551-.585-2.333-2.315-1.748-3.865 1.804-4.782 7.48-6.577 12.155-5.872 2.196.331 4.187 1.043 6.11 1.732 1.448.519 2.815 1.009 4.176 1.302 2.276.486 5.212.232 6.27-1.496.866-1.412 2.713-1.854 4.126-.991 1.412.866 1.856 2.713.991 4.126-2.777 4.531-8.549 5.111-12.65 4.227-1.747-.376-3.368-.957-4.936-1.519-1.729-.619-3.362-1.204-4.979-1.447-2.225-.339-5.011.358-5.65 2.056-.453 1.202-1.595 1.942-2.808 1.942z"/><path d="m466.748 207.008c-1.526 0-3.085-.268-4.6-.806-3.567-1.268-6.371-3.856-7.693-7.103-.625-1.534.112-3.285 1.646-3.91 1.537-.626 3.286.111 3.91 1.646.678 1.664 2.189 3.017 4.146 3.713 1.958.695 3.982.599 5.558-.263.728-.398 1.464-.972 2.244-1.578 1.336-1.04 2.851-2.219 4.795-2.871 4.091-1.375 7.949.117 11.356 1.432.888.343 1.726.666 2.541.932 1.942.631 4.377.507 5.662-.292.569-.354.69-.709.734-1.009.237-1.641 1.768-2.781 3.398-2.539 1.641.237 2.777 1.759 2.539 3.398-.314 2.173-1.559 4.035-3.504 5.245-2.807 1.746-7.001 2.102-10.686.901-.969-.314-1.923-.683-2.846-1.039-2.7-1.043-5.251-2.023-7.286-1.342-.977.328-1.969 1.101-3.021 1.919-.933.726-1.896 1.477-3.048 2.106-1.769.968-3.779 1.458-5.849 1.458z"/><path d="m494.13 249.748c-.678 0-1.368-.057-2.068-.18-3.312-.579-5.957-2.49-8.29-4.176-1.995-1.441-3.88-2.803-5.839-3.133-2.708-.452-5.625.997-8.715 2.535-.926.461-1.848.919-2.768 1.332-5.659 2.542-13.242 2.704-16.512-2.948-.118-.204-.212-.421-.279-.647l-.625-2.109c-.471-1.589.436-3.259 2.023-3.729 1.596-.473 3.26.436 3.729 2.023l.505 1.702c1.57 2.146 5.969 1.46 8.701.234.85-.382 1.699-.805 2.553-1.229 3.634-1.81 7.746-3.862 12.382-3.081 3.343.562 6.007 2.487 8.357 4.186 1.985 1.434 3.86 2.788 5.812 3.13 3.967.689 8.015-2.71 11.775-6.498 1.169-1.175 3.066-1.182 4.243-.015 1.176 1.168 1.182 3.067.015 4.243-2.785 2.804-8.303 8.359-14.999 8.359z"/><path d="m465.197 294.312c-2.007 0-4.052-.332-6.033-1.001-4.625-1.562-8.409-4.795-10.381-8.868-.722-1.492-.099-3.286 1.393-4.008 1.494-.724 3.286-.098 4.008 1.393 1.275 2.635 3.79 4.748 6.9 5.799 3.108 1.05 6.391.895 9.001-.426 1.117-.564 2.216-1.34 3.379-2.16 2.19-1.545 4.675-3.296 7.789-3.861 3.969-.723 7.634.692 10.865 1.938.738.285 1.475.569 2.209.824 7.425 2.583 16.051 2.02 23.078-1.501 1.479-.742 3.284-.143 4.025 1.338.743 1.48.144 3.283-1.338 4.025-8.57 4.295-18.679 4.951-27.736 1.806-.797-.277-1.596-.585-2.397-.895-2.737-1.055-5.316-2.053-7.635-1.633-1.812.329-3.556 1.56-5.403 2.861-1.288.909-2.62 1.848-4.127 2.61-2.308 1.168-4.919 1.758-7.597 1.758z"/><path d="m499.078 343.273c-2.663 0-5.55-.828-8.53-2.467-1.302-.715-2.525-1.51-3.709-2.278-1.75-1.137-3.403-2.21-5.147-2.935-6.136-2.542-13.925-.282-17.74 5.152-.952 1.355-2.821 1.683-4.18.73-1.355-.952-1.683-2.823-.73-4.18 5.367-7.641 16.326-10.824 24.95-7.244 2.251.934 4.216 2.21 6.116 3.443 1.142.742 2.222 1.443 3.33 2.053 1.723.945 5.006 2.382 7.647 1.375 1.241-.475 2.417-1.513 3.661-2.611 1.075-.949 2.188-1.932 3.53-2.754 6.063-3.718 14.729-2 18.919 3.752.976 1.34.681 3.216-.658 4.191-1.341.977-3.217.68-4.191-.658-2.38-3.267-7.489-4.278-10.935-2.17-.897.551-1.771 1.321-2.694 2.137-1.516 1.338-3.233 2.854-5.489 3.717-1.303.498-2.692.746-4.149.746z"/><path d="m495.352 385.54c-3.654 0-7.085-1.417-10.285-3.004l-1.013-.505c-2.843-1.426-5.528-2.773-8.255-2.933-2.32-.12-5.104 1.076-5.521 3.097-.336 1.622-1.923 2.665-3.545 2.332-1.623-.335-2.667-1.922-2.332-3.545 1.135-5.496 6.91-8.165 11.75-7.874 3.96.232 7.484 2 10.594 3.56l.986.492c2.938 1.457 6.045 2.748 8.854 2.281 1.633-.267 3.274-1.142 5.012-2.067 1.335-.711 2.715-1.445 4.247-2.003 3.021-1.097 6.506-.982 9.098.3 1.949.964 3.303 2.51 3.915 4.47.494 1.581-.387 3.264-1.969 3.758-1.582.49-3.264-.387-3.758-1.969-.047-.149-.171-.546-.85-.882-1.121-.555-2.925-.57-4.386-.038-1.135.413-2.272 1.019-3.477 1.66-2.091 1.114-4.254 2.266-6.864 2.693-.743.121-1.478.177-2.202.177z"/><path d="m471.846 433.639c-.345 0-.694-.06-1.036-.186-1.555-.572-2.352-2.296-1.779-3.852 1.36-3.698 4.372-6.795 8.263-8.498 3.889-1.702 8.208-1.812 11.849-.301.799.332 1.522.711 2.223 1.077 1.027.538 1.998 1.046 2.873 1.201 1.748.312 3.804-.624 5.981-1.615.53-.242 1.059-.481 1.585-.706 5.092-2.177 9.765-1.726 12.501 1.205 1.131 1.212 1.064 3.11-.146 4.24-1.212 1.132-3.11 1.064-4.24-.146-1.031-1.105-3.636-.688-5.758.219-.484.207-.97.428-1.458.649-2.78 1.265-5.928 2.697-9.512 2.062-1.788-.316-3.287-1.102-4.609-1.794-.611-.32-1.188-.622-1.741-.852-2.137-.887-4.74-.792-7.142.257-2.402 1.051-4.237 2.899-5.037 5.073-.446 1.213-1.594 1.965-2.815 1.965z"/><path d="m497.188 476.112c-1.296 0-2.61-.192-3.935-.636-1.984-.666-3.622-1.813-5.067-2.826-.709-.497-1.378-.966-2.046-1.354-3.526-2.058-8.039-2.309-11.773-.651-1.521.669-3.287-.015-3.959-1.527-.671-1.516.013-3.287 1.527-3.959 5.465-2.422 12.065-2.056 17.228.954.884.516 1.688 1.079 2.466 1.624 1.221.854 2.373 1.662 3.532 2.052 3.651 1.223 7.962-1.271 12.132-3.684l.108-.062c7.377-4.266 13.407-4.92 17.919-1.946 1.384.911 1.767 2.771.854 4.155-.911 1.383-2.773 1.766-4.155.854-2.461-1.622-6.369-.903-11.615 2.131l-.106.062c-3.796 2.195-8.322 4.814-13.109 4.814z"/><path d="m467.32 539.54c-.298 0-.601-.045-.899-.139-1.581-.496-2.46-2.18-1.964-3.761 1.804-5.745 8.558-7.635 13.984-6.492 2.269.476 4.333 1.314 6.329 2.124 1.896.771 3.687 1.497 5.49 1.85 3.587.699 7.518.013 11.683-.714 6.146-1.072 12.499-2.184 18.33 1.214 1.431.834 1.915 2.671 1.081 4.103-.833 1.432-2.669 1.918-4.103 1.081-3.934-2.293-8.956-1.416-14.276-.486-4.518.789-9.188 1.605-13.865.691-2.373-.464-4.521-1.335-6.597-2.179-1.832-.744-3.562-1.446-5.305-1.812-2.843-.594-6.341.233-7.027 2.418-.402 1.282-1.586 2.103-2.861 2.103z"/><path d="m475.881 504.521c-.501 0-1.009-.126-1.476-.391-1.441-.816-1.948-2.647-1.132-4.089 3.278-5.787 10.892-7.978 20.365-5.86.912.204 1.834.427 2.762.652 5.102 1.236 9.92 2.405 13.873.572 1.504-.696 3.286-.042 3.983 1.46.697 1.503.043 3.287-1.46 3.983-5.852 2.714-12.205 1.174-17.81-.185-.893-.217-1.78-.432-2.657-.628-5.216-1.165-11.591-1.001-13.836 2.962-.552.975-1.567 1.522-2.613 1.522z"/><path d="m590.012 267.898c-4.059 0-8.047-1.998-9.975-2.963-2.137-1.071-7.331-3.321-9.413-1.062-1.124 1.217-3.021 1.292-4.24.168-1.217-1.125-1.292-3.022-.168-4.24 2.449-2.65 7.3-4.845 16.509-.231 4.915 2.462 8.101 2.958 9.741 1.515 1.244-1.093 3.139-.972 4.234.273 1.094 1.244.971 3.141-.273 4.234-1.939 1.704-4.188 2.306-6.415 2.306z"/><path d="m588.071 303.805c-1.64 0-3.284-.226-4.879-.687-1.944-.562-3.675-1.418-5.348-2.246-1.647-.815-3.205-1.586-4.773-1.97-1.484-.361-3.292-.115-4.396.604-.78.508-.875 1.034-.905 1.208-.294 1.632-1.854 2.72-3.484 2.422-1.63-.294-2.715-1.854-2.422-3.484.383-2.128 1.607-3.918 3.541-5.176 2.499-1.623 5.981-2.161 9.092-1.401 2.212.54 4.144 1.496 6.011 2.421 1.503.744 2.922 1.446 4.351 1.859 3.381.978 7.255.307 10.11-1.75 1.346-.97 3.218-.663 4.188.682.968 1.344.663 3.219-.682 4.188-3.034 2.186-6.707 3.331-10.402 3.331z"/><path d="m566.951 346.364c-1.316 0-2.524-.874-2.891-2.205-.625-2.271-.032-4.653 1.627-6.534 2.161-2.45 5.822-3.778 9.098-3.303 2.735.396 5.031 1.556 7.252 2.678 1.307.66 2.541 1.284 3.775 1.7 1.604.543 3.574.474 4.79-.164.701-.369.89-.788.97-1.071.453-1.594 2.113-2.521 3.706-2.065 1.594.453 2.519 2.112 2.065 3.706-.583 2.05-1.948 3.689-3.948 4.741-2.678 1.406-6.318 1.613-9.503.539-1.639-.554-3.125-1.305-4.562-2.03-1.873-.946-3.642-1.84-5.404-2.096-1.276-.183-2.917.401-3.739 1.334-.465.527-.379.84-.342.974.439 1.597-.499 3.248-2.097 3.688-.266.073-.534.108-.798.108z"/><path d="m569.802 385.411c-3.198 0-6.263-1.291-7.782-4.223-.763-1.471-.188-3.281 1.282-4.044 1.472-.764 3.282-.188 4.044 1.282.646 1.249 3.308 1.237 5.165.395 1.106-.503 2.196-1.204 3.351-1.946 1.807-1.162 3.675-2.363 5.956-3.058 2.88-.876 6.287-.397 8.681 1.221 1.876 1.269 3.01 3.134 3.192 5.254.142 1.651-1.081 3.104-2.731 3.247-1.669.128-3.105-1.082-3.247-2.731-.01-.119-.037-.436-.574-.799-.895-.606-2.431-.799-3.573-.451-1.484.451-2.929 1.38-4.457 2.364-1.284.825-2.612 1.68-4.116 2.362-1.61.731-3.421 1.127-5.189 1.127z"/><path d="m576.577 430.404c-4.508 0-8.232-3.762-9.79-5.336-1.166-1.177-1.156-3.076.021-4.242 1.175-1.167 3.075-1.157 4.242.021 2.774 2.802 4.806 3.929 6.21 3.438.811-.28 1.595-1.161 2.504-2.18.688-.771 1.467-1.646 2.408-2.4 2.162-1.734 5.499-2.182 7.938-1.067 1.86.852 3.014 2.543 3.085 4.524.06 1.656-1.234 3.047-2.89 3.106-1.456.066-2.664-.908-3.012-2.239-.399-.019-1.017.075-1.367.355-.551.442-1.102 1.06-1.685 1.713-1.28 1.437-2.732 3.064-5.018 3.857-.904.313-1.791.449-2.648.449z"/><path d="m586.545 474.199c-2.489 0-4.689-1.437-6.419-2.565-1.396-.91-2.842-1.852-3.708-1.676-.359.073-.887.398-1.446.743-.646.398-1.379.85-2.261 1.186-5.723 2.176-11.119-2.638-13.152-4.45-1.237-1.103-1.346-2.998-.243-4.235s2.998-1.345 4.235-.243c2.023 1.804 4.948 4.115 7.023 3.322.353-.135.789-.403 1.251-.688.888-.547 1.992-1.229 3.394-1.514 3.283-.671 6.002 1.105 8.187 2.53 1.296.846 2.757 1.813 3.367 1.525 1.503-.697 3.287-.047 3.985 1.456.698 1.502.047 3.286-1.456 3.985-.95.441-1.872.623-2.757.623z"/><path d="m561.569 509.275c-1.567 0-3.148-.298-4.707-1.047-1.493-.718-2.122-2.51-1.404-4.004.718-1.493 2.506-2.122 4.004-1.404 2.571 1.234 6.143-.316 9.597-1.817.497-.215.988-.429 1.474-.633 5.951-2.507 13.673-2.502 16.554 3.44.723 1.49.101 3.285-1.391 4.008-1.486.725-3.284.101-4.008-1.391-1.056-2.176-5.403-1.969-8.827-.528-.465.196-.936.4-1.411.607-2.938 1.276-6.373 2.769-9.88 2.769z"/><path d="m560.451 541.058c-.888 0-1.768-.393-2.359-1.145-1.298-1.648-1.667-3.83-1.012-5.985.759-2.497 2.805-4.616 5.212-5.398 3.073-.997 6.497-.424 10.467 1.763.617.339 1.228.699 1.837 1.06 1.708 1.01 3.321 1.964 4.954 2.32 1.631.354 3.412-.186 3.813-1.159.632-1.532 2.386-2.26 3.918-1.629 1.531.632 2.261 2.386 1.629 3.918-1.733 4.203-6.776 5.58-10.64 4.731-2.575-.562-4.781-1.865-6.728-3.017-.558-.329-1.114-.658-1.677-.969-2.406-1.323-4.331-1.763-5.72-1.312-.563.184-1.133.801-1.326 1.437-.055.183-.092.431-.014.53 1.024 1.302.8 3.188-.502 4.213-.55.433-1.204.643-1.854.643z"/><path d="m617.287 532.205c-.065 0-.132-.002-.198-.007-1.653-.107-2.906-1.535-2.798-3.188.318-4.886 3.351-9.464 7.726-11.664 4.373-2.198 9.856-1.902 13.971.756 1.223.79 2.248 1.716 3.24 2.61 1.375 1.24 2.563 2.312 3.854 2.65 1.681.438 3.771-.329 5.781-1.226l.609-.274c2.445-1.102 5.206-2.357 8.38-2.229 2.403.095 4.782 1.197 6.361 2.948 1.312 1.455 1.97 3.265 1.854 5.097-.106 1.653-1.523 2.916-3.186 2.803-1.653-.105-2.908-1.531-2.803-3.186.014-.21-.094-.444-.32-.695-.496-.55-1.357-.94-2.143-.971-1.741-.084-3.657.792-5.678 1.702l-.63.283c-2.866 1.28-6.27 2.467-9.751 1.55-2.701-.709-4.638-2.456-6.347-3.997-.854-.771-1.661-1.498-2.48-2.027-2.322-1.501-5.544-1.676-8.018-.434-2.472 1.242-4.254 3.933-4.435 6.693-.104 1.587-1.423 2.805-2.99 2.805z"/><path d="m667.089 491.077c-1.098 0-2.154-.604-2.682-1.652-2.25-4.469-8.122-6.801-12.824-5.087-.529.192-1.09.44-1.683.703-1.999.886-4.486 1.99-7.309 1.438-3.067-.598-4.994-2.831-6.543-4.626-.963-1.116-1.873-2.171-2.824-2.625-1.598-.763-3.847.091-5.239 1.331-1.891 1.685-3.137 4.252-4.342 6.734-.723 1.491-2.519 2.111-4.009 1.39-1.491-.724-2.113-2.519-1.39-4.009 1.393-2.869 2.971-6.12 5.75-8.596 2.876-2.562 7.644-4.256 11.815-2.265 2.086.996 3.518 2.655 4.781 4.119 1.137 1.318 2.119 2.456 3.149 2.657.968.19 2.31-.405 3.729-1.035.658-.291 1.34-.593 2.061-.855 7.543-2.744 16.624.854 20.235 8.028.745 1.479.149 3.283-1.331 4.028-.433.218-.893.321-1.347.321z"/><path d="m621.079 450.7c-.063 0-.127-.002-.191-.006-1.654-.104-2.91-1.529-2.806-3.183.227-3.592 2.379-6.957 5.758-9.002 3.377-2.043 7.356-2.391 10.644-.925 1.488.663 2.786 1.616 3.933 2.458 1.521 1.117 2.828 2.098 4.031 2.051 1.181-.032 2.433-1.049 3.883-2.227 1.207-.979 2.575-2.091 4.213-2.837 2.767-1.26 6.063-1.198 9.04.171 2.979 1.369 5.171 3.829 6.016 6.749.46 1.592-.457 3.256-2.048 3.716-1.595.46-3.256-.458-3.716-2.048-.354-1.226-1.386-2.334-2.758-2.965-1.374-.631-2.887-.69-4.048-.162-.938.427-1.899 1.208-2.917 2.034-2.008 1.631-4.285 3.479-7.504 3.566-3.258.054-5.638-1.667-7.743-3.213-.99-.727-1.925-1.412-2.824-1.813-1.492-.664-3.397-.449-5.095.578s-2.773 2.614-2.876 4.245c-.101 1.59-1.421 2.812-2.991 2.812z"/><path d="m621.944 411.584c-.131 0-.263-.008-.396-.025-1.643-.217-2.799-1.724-2.583-3.366.521-3.954 3.192-7.471 7.146-9.407 3.953-1.937 8.369-1.891 11.812.122.682.397 1.301.839 1.9 1.265 1.042.74 2.126 1.511 2.744 1.42.553-.077 1.336-.925 2.094-1.745.773-.837 1.649-1.786 2.779-2.537 5.413-3.596 12.245-.01 14.49 1.168 3.481 1.827 6.553 3.256 8.857 2.257 1.522-.662 3.287.039 3.945 1.559.659 1.52-.038 3.286-1.559 3.945-5.126 2.228-10.486-.588-14.031-2.448-3.992-2.095-6.732-2.58-8.384-1.482-.529.353-1.094.963-1.69 1.609-1.335 1.445-2.996 3.245-5.676 3.618-2.976.415-5.235-1.187-7.046-2.473-.515-.366-1.002-.712-1.452-.976-1.704-.995-4.001-.964-6.146.087-2.145 1.05-3.578 2.846-3.836 4.802-.199 1.51-1.488 2.608-2.971 2.608z"/><path d="m633.697 366.809c-.459 0-.923-.105-1.359-.328-1.477-.751-2.063-2.558-1.312-4.034 1.815-3.565 4.075-8.003 7.991-10.91 4.091-3.036 10.783-4.103 15.128-.09.329.304.639.635.946.969.302.328.678.736.875.836.617.308 2.596-1.213 3.659-2.029.379-.292.753-.578 1.118-.845 6.505-4.744 16.438-3.981 22.145 1.699 1.174 1.169 1.178 3.069.009 4.243-1.169 1.173-3.068 1.178-4.243.009-3.64-3.625-10.223-4.133-14.375-1.104-.326.238-.659.494-.998.755-2.401 1.845-6.032 4.638-10.012 2.63-1.174-.591-1.96-1.444-2.592-2.13-.196-.213-.391-.43-.602-.624-1.877-1.731-5.344-1.089-7.482.498-2.785 2.067-4.61 5.652-6.222 8.815-.529 1.04-1.583 1.64-2.675 1.64z"/><path d="m652.174 320.539c-.657 0-1.318-.215-1.871-.656-1.294-1.035-1.505-2.923-.471-4.217 1.995-2.496 4.257-5.325 7.271-7.384 3.703-2.53 7.918-3.354 11.562-2.26 1.361.408 2.544 1.053 3.587 1.622.781.425 1.519.827 2.215 1.07 2.599.911 5.923-.349 7.27-2.745.811-1.443 2.64-1.959 4.085-1.146 1.444.812 1.957 2.641 1.146 4.085-2.774 4.938-9.138 7.343-14.481 5.469-1.157-.404-2.191-.968-3.104-1.466-.863-.47-1.678-.914-2.441-1.144-1.871-.56-4.285-.013-6.452 1.468-2.273 1.553-4.151 3.903-5.968 6.176-.593.741-1.465 1.127-2.346 1.127z"/></g></g></svg>