<svg id="Layer_3" enable-background="new 0 0 300 300" viewBox="0 0 300 300" xmlns="http://www.w3.org/2000/svg"><g><g><path d="m230.71 170.865c-5.74 9.94-15.82 15.81-26.45 16.59.9 3.02 1.38 6.21 1.38 9.52 0 18.42-14.93 33.36-33.35 33.36-11.48 0-21.6-5.8-27.6-14.62-2.15 2.29-4.68 4.3-7.55 5.96-15.95 9.21-36.36 3.75-45.57-12.21-5.74-9.94-5.78-21.6-1.13-31.2-3.07-.73-6.07-1.91-8.94-3.56-15.96-9.21-21.42-29.61-12.21-45.57 5.74-9.93 15.81-15.8 26.45-16.58-.9-3.02-1.38-6.22-1.38-9.53 0-18.42 14.93-33.36 33.35-33.36 11.48 0 21.6 5.8 27.6 14.62 2.15-2.29 4.68-4.3 7.55-5.96 15.95-9.21 36.36-3.74 45.57 12.21 5.73 9.93 5.78 21.59 1.14 31.2 3.06.73 6.07 1.91 8.93 3.57 15.96 9.21 21.42 29.61 12.21 45.56z" fill="#ffcc3e"/><circle cx="150" cy="150" fill="#ea761a" r="45.532"/></g><g fill="#603913"><path d="m235.976 145.04c-2.444-9.123-8.295-16.747-16.472-21.465-2.271-1.318-4.673-2.375-7.168-3.153 4.047-10.052 3.283-21.431-2.174-30.887-4.722-8.177-12.347-14.026-21.472-16.472s-18.654-1.191-26.832 3.53c-2.295 1.326-4.408 2.881-6.306 4.635-6.686-8.535-16.925-13.563-27.843-13.563-19.492 0-35.35 15.862-35.35 35.36 0 2.638.289 5.248.86 7.789-10.724 1.516-20.196 7.864-25.662 17.32-9.747 16.892-3.941 38.56 12.945 48.304 2.287 1.315 4.689 2.367 7.168 3.14-4.057 10.048-3.296 21.427 2.167 30.887 4.721 8.181 12.347 14.031 21.473 16.476 9.123 2.442 18.652 1.188 26.832-3.534 2.296-1.328 4.409-2.882 6.306-4.635 6.686 8.535 16.925 13.563 27.843 13.563 19.492 0 35.35-15.862 35.35-35.36 0-2.633-.289-5.24-.86-7.779 10.727-1.517 20.199-7.869 25.662-17.33 4.721-8.178 5.976-17.705 3.533-26.826zm-6.998 24.825c-5.2 9.004-14.495 14.834-24.865 15.595-.604.045-1.156.36-1.5.859s-.443 1.127-.27 1.707c.86 2.887 1.297 5.896 1.297 8.948 0 17.292-14.063 31.36-31.35 31.36-10.392 0-20.092-5.139-25.946-13.745-.341-.502-.893-.821-1.498-.869-.052-.004-.104-.006-.156-.006-.55 0-1.079.227-1.458.631-2.037 2.17-4.424 4.054-7.092 5.597-7.253 4.188-15.703 5.302-23.795 3.134-8.093-2.167-14.856-7.356-19.043-14.611-5.199-9.003-5.596-19.967-1.062-29.328.265-.546.267-1.182.007-1.729-.26-.548-.754-.948-1.344-1.089-2.922-.694-5.75-1.82-8.403-3.346-14.973-8.641-20.122-27.857-11.478-42.837 5.202-8.999 14.497-14.826 24.865-15.586.604-.045 1.156-.36 1.5-.859s.444-1.126.271-1.707c-.86-2.887-1.296-5.9-1.296-8.958 0-17.292 14.063-31.36 31.35-31.36 10.392 0 20.092 5.139 25.946 13.745.341.502.893.821 1.498.869.607.049 1.2-.183 1.614-.625 2.04-2.173 4.426-4.056 7.092-5.597 7.251-4.188 15.703-5.298 23.795-3.131 8.093 2.169 14.856 7.356 19.043 14.608 5.193 8.999 5.594 19.964 1.071 29.329-.264.546-.266 1.181-.006 1.728.26.548.753.947 1.342 1.088 2.943.702 5.766 1.831 8.395 3.357 7.255 4.187 12.444 10.947 14.611 19.038 2.166 8.089 1.053 16.537-3.135 23.79z"/><path d="m150 102.468c-26.209 0-47.532 21.323-47.532 47.532s21.323 47.532 47.532 47.532 47.532-21.323 47.532-47.532-21.323-47.532-47.532-47.532zm0 91.064c-24.003 0-43.532-19.528-43.532-43.532s19.528-43.532 43.532-43.532 43.532 19.528 43.532 43.532-19.529 43.532-43.532 43.532z"/><circle cx="143.531" cy="171.269" r="4.358"/><path d="m165.312 164.911c-1.882-1.501-4.624-1.192-6.125.69s-1.192 4.624.69 6.125 4.624 1.192 6.125-.69 1.192-4.624-.69-6.125z"/><path d="m171.205 147.325c-2.347.536-3.815 2.872-3.279 5.219s2.872 3.815 5.219 3.279 3.815-2.872 3.279-5.219c-.536-2.346-2.872-3.814-5.219-3.279z"/><path d="m163.165 137.571c2.169 1.044 4.773.133 5.818-2.036s.133-4.773-2.036-5.818-4.773-.133-5.818 2.036c-1.044 2.169-.132 4.774 2.036 5.818z"/><path d="m148.491 131.958c2.169-1.044 3.08-3.649 2.036-5.818s-3.649-3.08-5.818-2.036-3.08 3.649-2.036 5.818 3.65 3.08 5.818 2.036z"/><path d="m131.674 134.711c-2.347-.536-4.683.933-5.219 3.279-.536 2.347.933 4.683 3.279 5.219 2.347.536 4.683-.933 5.219-3.279.536-2.347-.932-4.683-3.279-5.219z"/><path d="m126.621 154.796c-1.882 1.501-2.191 4.243-.69 6.125s4.243 2.191 6.125.69c1.882-1.5 2.191-4.243.69-6.125s-4.243-2.191-6.125-.69z"/><circle cx="150" cy="150" r="4.358"/></g></g></svg>