<svg id="Layer_3" enable-background="new 0 0 300 300" viewBox="0 0 300 300" xmlns="http://www.w3.org/2000/svg"><g><g><path d="m190.345 132.733c2.5 10.31-2.01 21.42-11.7 26.9-6.77 3.83-14.58 4.06-21.25 1.32-2.89-1.18-5.56-2.93-7.83-5.18-1.66 1.58-3.51 2.89-5.5 3.92-7.21 3.77-16.14 3.83-23.66-.6-9.58-5.67-13.88-16.86-11.2-27.11-10.16-3-17.55-12.46-17.44-23.59.1-11.14 7.66-20.46 17.88-23.27-2.49-10.3 2.01-21.43 11.7-26.9 9.7-5.48 21.55-3.59 29.09 3.86 7.68-7.31 19.56-8.97 29.15-3.32 9.59 5.66 13.89 16.87 11.21 27.12 10.17 3 17.53 12.46 17.44 23.58-.1 11.14-7.66 20.46-17.89 23.27z" fill="#ffcc3e"/><path d="m159.315 204.343c.98 10.67 2.35 21.35 4.16 32.05.07.42.1.83.1 1.23 0 3.95-3.19 7.31-7.3 7.31-3.64 0-6.72-2.66-7.25-6.26-3.5-24.11-4.78-50.88-4.96-78.97 0 0 0 0 0-.01 1.99-1.03 3.84-2.34 5.5-3.92 2.27 2.25 4.94 4 7.83 5.18-.01 8.77.21 17.54.69 26.33 17.4-22.59 33.42 3.01 1.23 17.06z" fill="#7cad45"/></g><g fill="#603913"><path d="m156.497 108.929c0-3.589-2.909-6.498-6.497-6.498s-6.497 2.909-6.497 6.498c0 3.588 2.909 6.497 6.497 6.497s6.497-2.908 6.497-6.497z"/><path d="m145.021 116.09c-2.365-1.365-5.389-.555-6.754 1.81s-.555 5.389 1.81 6.754 5.389.555 6.754-1.81c1.364-2.365.554-5.389-1.81-6.754z"/><path d="m153.712 116.822c-2.365 1.365-3.175 4.389-1.81 6.754s4.389 3.175 6.754 1.81 3.175-4.389 1.81-6.754-4.39-3.175-6.754-1.81z"/><path d="m163.635 104.717c-2.731 0-4.944 2.214-4.944 4.944s2.214 4.944 4.944 4.944 4.944-2.214 4.944-4.944c0-2.731-2.213-4.944-4.944-4.944z"/><path d="m154.979 101.769c2.365 1.365 5.389.555 6.754-1.81s.555-5.389-1.81-6.754-5.389-.555-6.754 1.81-.554 5.388 1.81 6.754z"/><path d="m146.288 101.036c2.365-1.365 3.175-4.389 1.81-6.754s-4.389-3.175-6.754-1.81-3.175 4.389-1.81 6.754c1.366 2.366 4.39 3.176 6.754 1.81z"/><circle cx="136.365" cy="108.197" r="4.944"/><path d="m210.235 109.479c.089-11.086-6.854-21.077-17.097-24.919 2-10.769-2.979-21.878-12.538-27.52-9.556-5.63-21.684-4.61-30.14 2.351-8.328-7.12-20.438-8.365-30.098-2.91-9.658 5.451-14.838 16.465-13.036 27.275-10.33 3.658-17.461 13.526-17.561 24.617-.109 11.086 6.835 21.082 17.097 24.933-1.996 10.753 2.979 21.858 12.528 27.51 6.982 4.114 15.266 4.776 22.704 1.947.285 30.246 1.905 55.209 4.953 76.201.679 4.617 4.561 7.969 9.229 7.969 5.128 0 9.3-4.176 9.3-9.31 0-.529-.043-1.055-.128-1.563-1.68-9.93-3.027-20.177-4.007-30.479 14.023-6.511 18.711-15.158 18.375-21.202-.207-3.713-2.366-6.647-5.635-7.66-4.3-1.332-9.461.717-14.339 5.54-.265-6.07-.405-12.264-.434-18.495 2.392.689 4.839 1.038 7.28 1.038 4.472 0 8.918-1.15 12.942-3.427 9.661-5.463 14.842-16.475 13.036-27.274 10.335-3.658 17.47-13.526 17.569-24.622zm-50.565 79.025c5.545-7.2 10.521-8.835 13.327-7.965 1.68.521 2.71 2 2.825 4.061.259 4.665-4.117 12.153-17.306 17.91-.791.345-1.271 1.157-1.192 2.016 1 10.882 2.406 21.716 4.179 32.198.049.292.073.586.073.899 0 2.928-2.377 5.31-5.3 5.31-2.667 0-4.883-1.914-5.271-4.547-3.083-21.24-4.698-46.605-4.931-77.514.013-.008.025-.017.038-.024.536-.312 1.056-.647 1.568-.996.122-.083.242-.167.362-.253.51-.361 1.012-.734 1.496-1.131.491.422 1 .819 1.519 1.202.168.124.342.237.512.357.359.251.723.498 1.094.731.206.129.415.251.624.375.353.208.711.407 1.075.598.219.115.439.229.662.339.125.061.245.131.372.19.013 8.505.246 16.953.693 25.134.046.835.606 1.553 1.404 1.801.796.246 1.667-.029 2.177-.691zm30.145-57.7c-1.042.287-1.668 1.35-1.414 2.4 2.337 9.638-2.08 19.79-10.741 24.688-6.003 3.396-13.111 3.837-19.509 1.21-2.693-1.1-5.108-2.697-7.178-4.749-.097-.096-.201-.18-.311-.252-.031-.02-.065-.032-.097-.051-.081-.047-.162-.094-.247-.129-.04-.016-.083-.024-.123-.037-.08-.027-.16-.055-.243-.072-.048-.009-.097-.009-.145-.015-.077-.009-.154-.022-.232-.022-.003 0-.006-.001-.009-.001-.066 0-.131.012-.197.018-.055.006-.111.005-.166.015-.075.014-.147.04-.22.062-.047.014-.096.023-.142.041-.081.032-.158.076-.235.118-.035.019-.073.033-.107.054-.109.069-.214.15-.311.243-1.502 1.43-3.198 2.638-5.048 3.596-6.895 3.605-15.014 3.398-21.715-.549-8.561-5.067-12.79-15.299-10.284-24.883.273-1.045-.333-2.118-1.369-2.424-9.522-2.812-16.104-11.716-16.006-21.654.089-9.944 6.837-18.728 16.41-21.36 1.042-.286 1.667-1.348 1.414-2.398-2.333-9.65 2.083-19.803 10.74-24.689 8.66-4.892 19.639-3.435 26.7 3.542.769.759 2.001.77 2.785.026 7.187-6.84 18.189-8.092 26.755-3.046 8.569 5.057 12.801 15.293 10.292 24.892-.273 1.045.333 2.119 1.369 2.424 9.504 2.804 16.086 11.705 16.006 21.644-.091 9.944-6.843 18.727-16.422 21.358z"/></g></g></svg>