<svg id="Layer_3" enable-background="new 0 0 300 300" viewBox="0 0 300 300" xmlns="http://www.w3.org/2000/svg"><g><path d="m162.481 171.748c30.07 5.84 4.45 34.15-47.48 55.4-21.34-51.9-19.18-90.01 6.1-72.71-13.38-56.69 19.69-81.88 25.27-43.78 5.05-25.76 20.99-41.85 32.79-36.92s11.53 27.59-3.26 49.27c31.05-22.78 36.33 18.45-13.42 48.74z" fill="#b2c757"/><g fill="#5c5c06"><path d="m201.544 124.878c-.235-4.522-2.207-7.886-5.552-9.473-3.642-1.728-8.503-1.16-14.086 1.566 6.721-12.519 9.286-25.581 6.553-34.799-1.487-5.015-4.436-8.57-8.528-10.279-4.093-1.711-8.699-1.312-13.316 1.155-8.477 4.529-15.972 15.525-20.164 29.094-1.979-5.887-4.987-9.746-8.774-11.126-3.479-1.267-7.259-.309-10.645 2.7-8.443 7.504-14.511 28.207-8.864 56.648-7.01-3.527-11.405-2.09-13.963-.02-10.298 8.334-6.703 39.505 8.946 77.564.317.772 1.063 1.24 1.851 1.24.252 0 .509-.049.756-.15 38.086-15.585 62.802-34.916 61.501-48.103-.323-3.275-2.387-7.411-9.818-9.923 24.214-15.955 34.69-34.814 34.103-46.094zm-40.103 45.162c-.706.43-1.074 1.248-.929 2.062.146.813.777 1.452 1.587 1.609 4.852.942 10.73 3.022 11.18 7.578.898 9.104-18.835 27.236-57.184 43.243-15.533-38.543-16.483-65.324-9.374-71.078 1.076-.87 2.337-1.229 3.688-1.229 3.121 0 6.714 1.915 9.562 3.863.681.468 1.58.465 2.261-.001.681-.467 1.005-1.305.815-2.108-6.885-29.174-1.383-50.14 6.643-57.273 1.582-1.405 4.014-2.879 6.618-1.932 3.837 1.398 6.784 7.293 8.084 16.174.141.964.957 1.686 1.931 1.709 1.021.035 1.824-.659 2.011-1.615 3.152-16.076 11.068-29.605 20.167-34.467 2.456-1.312 6.166-2.548 9.889-.993 3.721 1.555 5.444 5.06 6.234 7.726 2.933 9.893-1.14 25.034-10.375 38.572-.549.805-.438 1.888.263 2.565s1.788.75 2.573.174c7.238-5.31 13.506-7.35 17.194-5.602 2.505 1.188 3.162 3.955 3.271 6.066.558 10.726-10.504 29.367-36.109 44.957z"/><path d="m158.759 126.459c-1.035 1.052-2.108 2.094-3.065 3.222-1.939 2.239-3.735 4.608-5.328 7.099-1.599 2.488-2.98 5.108-4.129 7.823-1.149 2.717-2.18 5.473-3.217 8.213-1.041 2.74-1.999 5.505-2.898 8.285-.879 2.787-1.685 5.591-2.445 8.404-1.455 5.645-2.762 11.31-3.774 17.029l.485.121c1.785-5.515 3.592-11.006 5.669-16.387 1.012-2.698 2.066-5.376 3.186-8.022 1.093-2.656 2.24-5.284 3.461-7.873 1.207-2.594 2.568-5.113 3.976-7.589 1.391-2.485 2.729-4.98 4.017-7.508l3.896-7.608c.657-1.274 1.344-2.533 1.99-3.837.656-1.296 1.364-2.563 1.963-3.939l-.385-.319c-1.185.902-2.307 1.878-3.402 2.886z"/></g></g></svg>