<svg id="flat" viewBox="0 0 960 960" xmlns="http://www.w3.org/2000/svg"><g><path d="m648.86 362.17c91.49 62.95 148.9 173.61 146.02 284.83-63 1.11-128.22 1.37-194.36 1.26-11.024-103.853.503-202.707 48.34-286.09z" fill="#3d4659"/><path d="m629.96 350.13c6.45 3.79 12.75 7.8 18.9 12.04-28.89 92.61-45.21 189.13-48.34 286.09-158.71-.25-322.69-2.56-473.86.11-3.55-118.69 61.55-237.01 163.7-297.54 102.15-60.54 237.2-60.81 339.6-.7z" fill="#fe7e61"/></g><path d="m202.232 588.948c50.65 31.288 93.059-44.966 46.389-77.712-50.019-35.096-96.117 46.993-46.389 77.712z" fill="#3d4659"/><path d="m362.241 519.903c24.587 11.235 56.082 4.005 73.883-16.339 34.463-39.385 7.761-117.3-50.192-105.124-56.742 11.922-84.486 93.681-23.691 121.462z" fill="#3d4659"/><path d="m480.586 601.497c49.235 23.671 96.892-51.59 35.913-69.613-46.674-13.795-87.712 44.709-35.913 69.613z" fill="#3d4659"/><path d="m519.455 392.348c-8.883 19.906.504 46.019 20.028 55.713 19.523 9.694 45.998 1.389 56.488-17.718 28.474-51.868-52.578-91.633-76.516-37.995z" fill="#3d4659"/><path d="m349.179 323.717c-20.436 7.033-40.177 16.064-58.819 27.113-26.217 15.535-49.985 34.884-70.786 57.061 24.099 8.008 51.277 7.118 74.226-3.871 30.698-14.689 52.067-46.585 55.379-80.303z" fill="#3d4659"/><path d="m645.86 537.533c-1.499 0-2.794-1.121-2.975-2.647-1.701-14.36 5.334-29.255 17.505-37.063 12.171-7.807 28.642-7.994 40.986-.461 12.344 7.531 19.713 22.264 18.337 36.658-.158 1.65-1.621 2.86-3.272 2.701-1.649-.157-2.858-1.622-2.701-3.271 1.163-12.16-5.062-24.604-15.489-30.967-10.427-6.36-24.341-6.207-34.621.391-10.281 6.596-16.224 19.177-14.788 31.308.195 1.646-.981 3.137-2.626 3.332-.12.014-.239.021-.356.021z" fill="#e0eded"/><g fill="#3d4659"><path d="m193.077 706.29c-1.516 0-2.818-1.146-2.98-2.687-.173-1.647 1.022-3.124 2.67-3.297 7.144-.751 18.241-4.991 20.494-11 .819-2.188 2.184-10.54 2.109-41.87-.004-1.656 1.336-3.003 2.993-3.007h.007c1.654 0 2.996 1.338 3 2.993.079 33.255-1.384 41.032-2.491 43.989-3.465 9.24-17.471 14.02-25.486 14.861-.106.012-.212.017-.317.017z"/><path d="m306.441 699.131c-.303 0-.61-.046-.914-.144-2.47-.789-5.041-1.438-7.526-2.065-7.906-1.995-16.08-4.059-22.055-10.862-6.135-6.989-5.879-33.692-5.765-38.974.036-1.656 1.401-3.017 3.064-2.935 1.657.035 2.971 1.407 2.935 3.063-.36 16.702 1.478 31.7 4.275 34.886 4.743 5.402 11.675 7.151 19.014 9.004 2.575.65 5.237 1.322 7.884 2.168 1.579.504 2.449 2.192 1.945 3.771-.407 1.274-1.587 2.088-2.857 2.088z"/><path d="m379.949 708.381c-1.271 0-2.452-.814-2.858-2.091-.502-1.579.37-3.267 1.949-3.769 9.19-2.925 19.268-6.738 22.518-15.008.574-1.973.562-15.084.553-25.619-.005-4.869-.009-9.904.029-14.589.014-1.648 1.354-2.976 3-2.976h.025c1.657.014 2.989 1.368 2.975 3.024-.039 4.658-.034 9.679-.029 14.534.016 17.98-.067 25.531-.97 27.821-4.211 10.72-15.774 15.185-26.281 18.528-.302.097-.609.143-.911.143z"/><path d="m505.021 705.511c-.296 0-.596-.044-.894-.137-.871-.271-1.793-.548-2.749-.834-7.425-2.224-16.666-4.992-21.34-11.022-2.153-2.783-4.371-10.401-4.509-45.815-.006-1.657 1.332-3.005 2.988-3.012h.012c1.651 0 2.993 1.335 3 2.988.134 34.435 2.32 40.959 3.253 42.165 3.494 4.509 11.713 6.971 18.317 8.948.978.293 1.921.576 2.812.854 1.582.493 2.464 2.175 1.972 3.757-.4 1.285-1.585 2.108-2.863 2.108z"/><path d="m573.973 720.48c-.973 0-1.928-.473-2.505-1.345-.914-1.382-.535-3.243.847-4.157 3.85-2.547 7.679-4.35 11.057-5.941 5.521-2.6 9.882-4.653 11.47-8.557 1.771-4.372 2.204-20.856 2.622-36.798.135-5.124.273-10.423.458-15.57.06-1.655 1.457-2.908 3.106-2.891 1.656.06 2.95 1.45 2.89 3.105-.184 5.118-.322 10.402-.457 15.513-.472 17.983-.879 33.514-3.061 38.897-2.472 6.076-8.301 8.821-14.472 11.729-3.35 1.577-6.814 3.209-10.303 5.517-.51.337-1.084.498-1.652.498z"/><path d="m699.313 715.871c-.171 0-.346-.016-.521-.046-14.055-2.459-22.251-7.84-29.443-13.141-6.598-4.851-7.223-22.908-6.068-54.534.061-1.656 1.471-2.921 3.107-2.889 1.656.061 2.949 1.452 2.889 3.107-.456 12.47-1.665 45.592 3.629 49.483 6.894 5.081 14.138 9.826 26.92 12.062 1.632.285 2.724 1.84 2.438 3.472-.255 1.458-1.521 2.484-2.952 2.484z"/><path d="m702.454 411.799c-.134 0-.269-.009-.404-.026-1.642-.222-2.794-1.732-2.573-3.374 2.655-19.715 7.561-34.792 14.999-46.095 9.783-14.864 24.733-24.535 39.992-25.87 17.531-1.546 35.034 9.301 39.841 24.663.495 1.581-.386 3.264-1.967 3.759-1.583.491-3.264-.386-3.759-1.968-3.999-12.78-18.759-21.77-33.592-20.478-13.448 1.177-26.72 9.847-35.503 23.192-6.932 10.533-11.533 24.794-14.064 43.597-.203 1.506-1.491 2.6-2.969 2.6z"/><path d="m671.973 383.673c-1.657 0-3-1.343-3-3 0-20.152 2.442-49.066 14.075-72.365 12.103-24.238 31.109-36.62 56.492-36.799 17.357-.159 30.495 6.66 40.179 20.731.939 1.365.594 3.233-.771 4.173-1.365.938-3.233.593-4.172-.771-8.589-12.479-19.752-18.286-35.194-18.134-58.314.411-64.609 72.282-64.609 103.164 0 1.657-1.343 3-3 3z"/><g><path d="m816.637 373.88c-.589-6.441-4.686-12.172-10.693-14.956-8.313-3.854-22.548.978-27.199 9.229-2.889 5.125-2.598 11.77.741 16.928 3.062 4.729 8.431 7.895 14.359 8.466.676.065 1.355.098 2.035.098 4.739 0 9.531-1.569 13.689-4.515 4.976-3.525 7.618-9.226 7.067-15.249z"/><path d="m796.292 318.071c6.084-3.587 8.996-10.071 7.598-16.923-1.53-7.498-7.575-13.191-15.043-14.168-6.41-.838-12.166 1.806-15.4 7.073-3.516 5.728-3.22 13.183.753 18.994 3.179 4.649 8.534 7.22 13.913 7.22 2.824 0 5.654-.709 8.179-2.196z"/></g></g></svg>