<svg id="Layer_3" enable-background="new 0 0 300 300" viewBox="0 0 300 300" xmlns="http://www.w3.org/2000/svg"><g><g><path d="m136.908 91.889c-9.6.339-23.261 13.501-20.249 33.413-16.622-7.65-27.591-.301-30.175 7.996-29.137-6.905-46.509-42.626-16.834-42.966-15.346-28.603 21.036-48.487 33.801-24.695 13.233-31.578 33.004-9.048 33.457 26.252z" fill="#eb6974"/><path d="m236.388 132.014c22.325 7.303.738 30.142-22.906 28.439.016-6.886-6.522-15.033-20.885-13.205 7.001-14.322-.192-27.496-7.352-30.032 8.729-26.541 29.009-38.851 31.499-11.873 15.287-14.932 38.034 8.725 19.644 26.671z" fill="#eb6974"/><path d="m213.482 160.453c-.028 8.345-9.689 14.833-26.709-.604-11.263 5.997-23.922 24.41-32.038 41.793 1.478 12.337 2.162 25.815 1.931 40.34-.042 2.882-1.677 5.314-4.003 6.562-1.542.827-3.399 1.131-5.282.689-4.036-.944-6.59-4.964-5.655-8.995.489-2.135.849-4.552 1.076-7.216.659-7.719.233-17.397-1.118-27.635-3.167-24.073-11.455-51.152-22.784-62.687-26.369 12.15-35.558.671-32.416-9.401 2.584-8.298 13.553-15.647 30.175-7.996-3.012-19.912 10.648-33.074 20.249-33.413 9.573-.347 15.095 12.101-4.129 43.365 8.379 11.767 14.937 28.051 19.053 48.267 8.008-14.623 16.967-25.592 26.227-32.592-7.093-28.174.034-36.254 7.185-33.713 7.16 2.536 14.353 15.711 7.352 30.032 14.364-1.828 20.902 6.318 20.886 13.204z" fill="#7cad45"/></g><path d="m239.857 131.22c6.304-7.5 5.777-14.7 4.803-18.52-1.648-6.46-6.688-11.75-12.842-13.478-4.704-1.319-9.412-.5-13.56 2.303-1.868-10.669-6.876-12.909-9.883-13.25-8.328-.933-18.667 10.384-24.436 26.586-2.381-.32-4.606.347-6.405 1.983-5.18 4.71-5.785 16.508-1.729 33.298-8.288 6.536-16.051 15.883-23.128 27.849-4.015-17.359-9.893-31.735-17.51-42.813 11.283-18.665 15.087-33.038 10.708-40.548-1.535-2.634-3.979-4.225-7.013-4.628-.701-21.679-8.704-39.256-18.954-41.249-3.68-.716-10.504.133-16.745 12.694-3.883-5.238-9.303-8.181-15.576-8.376-7.901-.262-15.787 4.12-20.127 11.124-2.617 4.224-5.987 12.764-.926 24.307-11.717 1.206-13.845 8.393-14.203 11.617-1.316 11.844 12.17 29.108 31.761 34.625-.729 4.433.664 8.713 3.858 11.518 3.515 3.086 12.101 6.953 30.469-1.151 10.771 12.023 18.421 38.8 21.282 60.538 1.362 10.33 1.745 19.736 1.107 27.203-.219 2.567-.566 4.902-1.031 6.935-1.181 5.085 2.025 10.197 7.146 11.394.725.17 1.46.255 2.192.255 1.559 0 3.103-.382 4.492-1.128 3.069-1.646 5.007-4.825 5.058-8.293.223-14.069-.409-27.537-1.878-40.04 7.263-15.393 19.046-33.173 29.729-39.676 11.978 10.418 19.482 9.498 22.938 7.975 3.11-1.372 5.216-4.252 5.826-7.754.266.006.535.029.801.029 15.826 0 29.664-9.758 31.47-18.95.507-2.573.625-8.557-7.694-12.379zm-183.549-30.659c.742-6.683 7.678-8.164 13.365-8.229.7-.008 1.344-.381 1.699-.983.356-.602.371-1.346.041-1.963-4.446-8.286-4.642-16.484-.552-23.084 3.505-5.657 9.773-9.241 16.085-9.241.172 0 .345.003.517.008 5.982.187 11.034 3.565 14.226 9.514.364.679 1.065 1.084 1.858 1.052.771-.037 1.451-.513 1.749-1.225 4.104-9.793 9.027-14.67 13.85-13.731 7.157 1.391 15.033 16.009 15.722 37.422-.001 0-.003.001-.004.001-.528.094-1.059.224-1.591.375-.074.021-.148.039-.222.061-.508.152-1.016.332-1.524.535-.093.037-.186.075-.279.113-.507.211-1.012.443-1.514.702-.076.039-.151.082-.227.122-.526.279-1.049.577-1.566.906-.001.001-.002.001-.003.002-.516.329-1.024.688-1.528 1.065-.073.055-.147.107-.22.163-.478.366-.948.755-1.411 1.162-.087.077-.174.154-.26.232-.46.415-.912.847-1.353 1.301-.068.07-.134.143-.201.213-.46.483-.912.982-1.347 1.507-3.184 3.836-8.08 11.764-7.308 23.602-9.133-3.362-15.755-2.071-19.842-.252-.567.252-1.114.534-1.646.834-.172.097-.333.206-.502.308-.353.214-.702.431-1.037.665-.188.131-.367.271-.549.409-.299.226-.592.456-.875.697-.18.153-.354.311-.526.47-.268.247-.526.501-.776.762-.161.168-.321.336-.475.51-.246.277-.478.564-.705.855-.134.172-.272.34-.399.516-.241.334-.461.68-.676 1.029-.09.146-.19.286-.275.435-.282.491-.543.993-.774 1.51-17.05-4.821-30.055-20.358-28.945-30.35zm151.533 66.051c-2.152.948-8.382 2.043-19.725-8.245-.627-.568-1.54-.681-2.284-.284-12.737 6.783-25.689 27.248-32.91 42.711-.157.338-.218.714-.173 1.084 1.496 12.485 2.141 25.967 1.917 40.073-.029 2.019-1.159 3.869-2.949 4.83-1.182.636-2.558.813-3.881.504-2.977-.696-4.844-3.655-4.16-6.602.508-2.219.885-4.74 1.12-7.492.661-7.75.271-17.456-1.129-28.066-2.808-21.342-10.606-50.864-23.34-63.827-.385-.392-.901-.599-1.428-.599-.282 0-.567.06-.836.184-17.864 8.231-25.162 4.402-27.473 2.373-2.516-2.209-3.337-5.709-2.197-9.363 1.126-3.615 3.933-6.65 7.699-8.327 3.796-1.688 10.298-2.789 19.73 1.553.667.306 1.45.224 2.038-.218s.886-1.171.775-1.898c-1.847-12.207 3.003-20.206 6.058-23.887.224-.27.452-.534.685-.791.465-.515.945-1.005 1.437-1.467.246-.231.496-.456.747-.673 3.023-2.607 6.419-4.192 9.416-4.298 1.71-.057 4.047.366 5.441 2.757 1.342 2.301 4.488 11.811-11.346 37.562-.42.684-.391 1.553.075 2.208 8.409 11.811 14.708 27.794 18.722 47.505.168.823.831 1.453 1.661 1.579.829.123 1.649-.281 2.053-1.017 7.778-14.205 16.419-24.957 25.68-31.958.641-.484.93-1.305.733-2.083-5.784-22.976-1.288-29.259.228-30.637 1.181-1.072 2.646-1.308 4.351-.702 2.872 1.018 5.673 4.137 7.31 8.142 1.404 3.439 3.132 10.497-1.087 19.126-.323.661-.257 1.445.171 2.042s1.15.914 1.878.82c8.003-1.018 12.536 1.293 14.936 3.411 2.356 2.081 3.704 4.925 3.697 7.804-.01 2.86-1.37 5.165-3.64 6.166zm35.786-23.786c-1.489 7.581-14.607 15.988-28.281 15.71-.035-.247-.092-.491-.141-.736-.028-.138-.047-.276-.079-.413-.105-.453-.231-.902-.382-1.344-.026-.076-.06-.148-.087-.224-.132-.367-.277-.73-.439-1.087-.067-.147-.144-.29-.216-.436-.14-.282-.286-.561-.444-.834-.09-.155-.185-.308-.281-.46-.164-.26-.336-.515-.517-.767-.105-.146-.209-.292-.32-.435-.202-.261-.418-.515-.638-.765-.104-.118-.203-.239-.311-.354-.336-.358-.687-.706-1.06-1.036-2.641-2.331-7.244-4.868-14.704-4.648 3.14-8.615 1.344-15.638-.138-19.266-.199-.487-.416-.959-.642-1.423-.04-.082-.079-.165-.119-.246-.221-.44-.453-.868-.697-1.285-.048-.082-.097-.163-.146-.244-.254-.422-.516-.834-.791-1.229-.02-.028-.041-.055-.061-.083-.27-.384-.551-.751-.839-1.107-.044-.054-.086-.109-.13-.163-.295-.356-.6-.694-.912-1.018-.058-.06-.116-.119-.174-.178-.319-.322-.643-.631-.977-.919-.034-.029-.069-.056-.103-.085-.329-.279-.664-.54-1.005-.784-.036-.026-.071-.053-.107-.078-.349-.244-.704-.465-1.063-.67-.034-.02-.067-.045-.102-.064 5.55-15.602 14.673-24.533 20.204-23.905 3.598.408 6.086 5.247 6.827 13.276.07.768.577 1.427 1.301 1.693.72.267 1.536.094 2.088-.446 3.711-3.624 8.185-4.939 12.595-3.7 4.803 1.348 8.747 5.515 10.048 10.616 1.48 5.804-.576 11.804-5.792 16.895-.501.488-.71 1.203-.552 1.884.159.681.661 1.23 1.326 1.448 4.121 1.347 8.829 3.987 7.861 8.91z" fill="#603913"/></g></svg>