<svg id="flat" viewBox="0 0 960 960" xmlns="http://www.w3.org/2000/svg"><path d="m580.851 182.575c-25.879-5.471-48.814 89.243-73.195 89.542-28.788.353-50.73-69.499-79.497-68.346-27.347 1.097-24.553 84.042-50.714 88.693-27.642 4.914-62.52-72.791-89.18-52.011-23.729 18.495-8.702 133.291 37.599 177.617 41.344 39.58 106.369 31.395 178.735 17.088 93.834-18.552 122.45-90.013 114.82-165.841-4.172-41.455-23.082-83.468-38.568-86.741z" fill="#fe7e61"/><g fill="#feca7a"><path d="m301.515 180.746c-3.536-9.916-12.959-19.068-25.145-18.489-12.173.578-25.926 11.907-25.541 26.897.384 14.991 15.681 27.878 30.483 25.474s25.24-19.757 20.204-33.882z"/><path d="m419.316 133.438c-8.743-1.929-17.972 1.501-24.317 7.262s-9.786 15.047-8.256 23.48c2.571 14.168 20.937 20.67 34.498 15.831 10.731-3.828 19.485-13.678 17.974-24.97-1.769-13.217-12.543-19.979-19.899-21.602z"/><path d="m591.148 103.765c-8.234-4.258-21.727-3.006-30.339.422-8.846 3.606-14.52 13.434-13.851 22.964s7.277 18.229 16.032 22.05 19.268 2.902 27.591-1.787c7.731-4.355 13.79-12.299 14.236-21.161.466-9.258-5.435-18.23-13.668-22.488z"/></g><path d="m706.095 600.315c-6.842-20.493-32.911-27.417-54.46-25.866-45.912 3.304-87.1 32.656-113.666 70.247-26.565 37.591-38.731 82.742-48.023 127.825 64.005-16.826 162.574-57.467 203.184-109.722 11.754-15.125 21.145-37.981 12.965-62.483z" fill="#6aac96"/><path d="m445.8 618.803c-13.861-19.346-30.739-37.117-51.821-48.159-21.082-11.043-46.84-14.688-68.954-5.893-34.805 13.843-52.3 60.161-35.117 93.444 35.856 69.454 168.883 98.177 200.038 114.326-.131-59.156-12.117-109.012-44.146-153.717z" fill="#6aac96"/><g fill="#3d4659"><path d="m488.417 861.939c-.035 0-.07 0-.106-.002-1.656-.057-2.952-1.446-2.894-3.102 4.362-125.736 9.791-282.219-13.433-417.681-.28-1.633.817-3.184 2.45-3.464 1.633-.281 3.184.817 3.464 2.45 23.328 136.069 17.887 292.893 13.515 418.903-.056 1.621-1.387 2.896-2.996 2.896z"/><path d="m491.105 774.692c-.555 0-1.116-.154-1.618-.476-1.395-.895-1.799-2.751-.904-4.145 23.849-37.152 68.836-87.822 115.578-117.273 1.403-.884 3.255-.462 4.137.939.883 1.402.463 3.254-.939 4.137-45.961 28.959-90.237 78.845-113.727 115.438-.573.893-1.54 1.38-2.527 1.38z"/><path d="m491.11 774.692c-1.098 0-2.156-.605-2.683-1.653-20.347-40.48-54.443-76.72-86.862-92.323-1.493-.718-2.121-2.511-1.402-4.004s2.511-2.121 4.004-1.402c33.538 16.142 68.716 53.445 89.621 95.035.744 1.48.147 3.284-1.333 4.028-.432.217-.892.32-1.345.32z"/></g></svg>