<svg id="flat" viewBox="0 0 960 960" xmlns="http://www.w3.org/2000/svg"><path d="m868.359 226.994c-2.798-.1-12.714-1.159-17.236 12.419-4.487 13.471 7.85 19.92 9.253 24.27 1.777 5.512-2.72 11.074-4.875 16.449-2.625 6.551-3.492 13.651-4.335 20.657-3.905 32.441-7.811 43.08-11.716 75.521-10.228-5.682-33.68-12.623-44.469-12.103.323-13.208-.516-26.445-2.534-39.502-1.136-7.347-2.644-14.691-2.579-22.125.069-7.823 1.878-15.705.49-23.404-.938-5.198-3.323-10.33-2.455-15.54.389-2.334 11.061-8.024 13.706-14.965 2.753-7.226.629-19.099-2.753-22.709-20.301-21.677-32.813 6.293-33.72 14.451-1.72 15.483 11.423 18.223 12.018 20.155.418 1.36.26 2.822.096 4.236-3.44 29.845-6.88 59.69-10.32 89.535-.967 8.392-1.956 16.815-3.652 25.079-6.843 7.413-12.041 16.626-16.832 25.62-20.409 38.308-41.246 80.668-57.4 120.955l-438.749 126.769c-56.374 4.066-107.974 46.04-163.227 57.94-5.63 1.212-12.522 3.236-13.568 8.899-1.378 7.465 8.491 11.394 16.039 12.204 31.809 3.415 63.862 3.696 95.853 3.973 39.444.342 78.887.684 118.331 1.027 118.508 1.028 409.861 3.026 431.617 4.084 21.132 1.027 59.235 4.326 76.844-7.402 4.092-2.726 7.955-6.24 9.55-10.891 1.324-3.86.947-8.065.668-12.135-4.402-64.254 19.503-126.566 39.563-187.766 2.502-7.633 4.959-15.323 6.165-23.265 1.658-10.917.915-22.044-.058-33.043-1.384-15.637-3.845-51.413-6.547-64.994 4.735-51.087-1.515-69.437 6.088-120.229.579-3.865 1.269-7.829 3.31-11.162 1.051-1.716 2.45-4.394 3.142-6.284 1.1-3.003 10.236-3.348 12.3-14.359 2.064-11.01-8.371-22.021-18.006-22.365z" fill="#ffbeb5"/><path d="m870.73 248.666c-.286 0-.577-.042-.865-.128-1.656-.498-3.362-.887-5.07-1.157-1.637-.258-2.754-1.794-2.496-3.431.259-1.637 1.797-2.753 3.431-2.496 1.975.312 3.947.762 5.862 1.337 1.587.477 2.486 2.15 2.009 3.737-.391 1.299-1.582 2.137-2.872 2.137z" fill="#3d4659"/><path d="m781.524 243.358c-1.404 0-2.658-.99-2.94-2.42-.321-1.625.737-3.203 2.363-3.524l4.833-.953c1.622-.319 3.203.736 3.524 2.363.321 1.625-.737 3.203-2.363 3.524l-4.833.953c-.196.039-.391.057-.584.057z" fill="#3d4659"/><path d="m686.455 513.023c-9.766-41.612-31.831-79.491-58.295-113.054-17.296-21.936-36.971-42.625-61.304-56.345-24.751-13.957-53.122-20.046-81.247-24.093-35.64-5.127-71.988-7.262-107.628-2.137-49.808 7.162-98.087 29.212-132.956 65.493-34.868 36.281-55.266 87.217-50.677 137.327 4.429 48.365 30.561 91.67 56.184 132.928 7.681 12.367 15.594 24.975 26.946 34.089 11.768 9.448 26.446 14.486 41.09 18.136 48.825 12.171 101.001 10.586 148.997-4.526 12.159-3.828 24.418-8.796 34.801-16.031 51.199-3.897 135.713-2.947 168.823-47.568 21.585-36.892 25.031-82.609 15.265-124.22z" fill="#614d48"/><path d="m502.37 687.813c-.948 0-1.881-.449-2.464-1.286-.947-1.359-.613-3.229.747-4.176 6.35-4.424 11.589-9.499 15.573-15.083 1.693-2.374 3.434-4.758 5.188-7.158 9.103-12.464 18.515-25.352 23.101-39.488 9.442-29.109 13.38-55.931 11.705-79.721-.997-14.15-6.803-27.378-13.181-40.81-13.683-28.819-26.792-51.543-46.295-68.77-23.692-20.929-56.614-31.524-88.065-28.331-31.452 3.189-61.577 20.173-80.586 45.432-13.567 18.028-19.61 37.786-17.016 55.633 3.285 22.595 21.163 44.099 49.051 59 12.554 6.707 26.177 10.688 38.359 11.209 13.997.594 25.595-3.443 33.556-11.687 5.133-5.315 8.861-12.593 10.78-21.046 3.092-13.618.456-26.953-7.049-35.67-8.294-9.634-23.148-12.289-32.432-5.8-1.357.949-3.229.617-4.178-.74-.949-1.358-.618-3.229.74-4.178 11.896-8.314 30.027-5.263 40.417 6.803 8.742 10.153 11.865 25.448 8.354 40.913-2.162 9.522-6.421 17.782-12.316 23.886-9.188 9.515-22.369 14.189-38.128 13.514-13.062-.559-27.599-4.79-40.93-11.912-29.588-15.808-48.6-38.927-52.162-63.428-2.826-19.443 3.623-40.788 18.16-60.104 19.997-26.572 51.688-44.439 84.774-47.794 33.085-3.358 67.719 7.787 92.643 29.803 21.46 18.957 35.628 45.18 47.742 70.693 6.369 13.414 12.677 27.78 13.746 42.961 1.729 24.562-2.302 52.149-11.983 81.994-4.881 15.049-14.582 28.331-23.962 41.175-1.74 2.382-3.468 4.748-5.148 7.104-4.384 6.146-10.113 11.704-17.028 16.521-.522.364-1.12.539-1.712.539z" fill="#dfccb2"/></svg>