<svg id="Layer_3" enable-background="new 0 0 300 300" viewBox="0 0 300 300" xmlns="http://www.w3.org/2000/svg"><g><g><path d="m210.429 110.96c-8.05 2.44-16.14 3.69-23.68 4 5.79 4.23 11.53 9.6 16.65 16.18 9.33 11.98 12.03 24.97 6.05 29.02-4.69 3.18-13.34-.09-21.36-7.44 5.02 9.38 5.68 18.08.99 21.26-5.98 4.05-18.38-2.37-27.7-14.34-1.76-2.26-3.37-4.58-4.84-6.92v-.01c-2.67-4.26-4.85-8.6-6.56-12.86-2.08 5.3-4.95 10.81-8.75 16.26-.82 1.18-1.69 2.36-2.6 3.53-9.32 11.98-21.73 18.39-27.7 14.34-4.69-3.18-4.03-11.88.99-21.26-8.02 7.36-16.68 10.62-21.36 7.45-5.98-4.06-3.28-17.05 6.05-29.02 4.96-6.39 10.72-11.84 16.63-16.23-7.35-.25-15.38-1.45-23.67-3.96-15.08-4.58-25.45-13.6-23.17-20.16 1.79-5.15 10.85-7.25 21.98-5.69-9.98-4.84-15.98-11.51-14.2-16.66 2.29-6.56 16.37-8.17 31.44-3.6 8.04 2.44 15.38 5.86 21.68 9.74-2.01-6.6-3.27-14.09-3.27-22.22 0-14.79 5.98-26.79 13.37-26.79 5.81 0 10.74 7.39 12.6 17.74 1.85-10.35 6.79-17.74 12.59-17.74 7.39 0 13.38 12 13.38 26.79 0 7.88-1.22 15.45-3.22 22.24 6.1-3.82 13.34-7.25 21.63-9.76 15.07-4.58 29.15-2.96 31.44 3.59 1.79 5.16-4.21 11.83-14.19 16.67 11.11-1.56 20.17.53 21.97 5.69 2.29 6.55-8.09 15.58-23.17 20.16z" fill="#dfa5ca"/><circle cx="149.999" cy="100.387" fill="#f49788" r="20.089"/><path d="m192.479 271.93c-1.49 1.67-3.53 2.49-5.56 2.49-2.24 0-4.47-1-5.97-2.95-8.37-10.92-15.62-21.65-21.61-32.16-25.37 3.01-37.67-.15-46.8-13.92-4.05-6.12-1.82-14.55 4.89-17.51 8.4-3.7 18.77-.66 31.41 10.17-8.99-21.74-11.93-42.45-7.61-61.93v-.01c3.8-5.45 6.67-10.96 8.75-16.26 1.71 4.26 3.89 8.6 6.56 12.86v.01c-9.25 21.75-1.26 53.65 13.55 79.74 2.67-16.49 7.76-24.78 14.56-27.3 2.51-.93 5.27.52 6.13 3.05 3.92 11.52-.95 23.78-12.83 36.64v.01c4.43 6.26 9.21 11.93 14.16 16.72 2.88 2.79 3.05 7.36.37 10.35z" fill="#b2c757"/></g><g fill="#603913"><path d="m149.999 122.476c-12.18 0-22.089-9.909-22.089-22.089 0-12.181 9.909-22.09 22.089-22.09s22.089 9.909 22.089 22.09c0 12.179-9.909 22.089-22.089 22.089zm0-40.179c-9.975 0-18.089 8.115-18.089 18.09s8.115 18.089 18.089 18.089 18.089-8.114 18.089-18.089-8.114-18.09-18.089-18.09z"/><path d="m235.487 90.141c-1.601-4.588-7.479-7.278-15.743-7.521 6.525-4.761 9.573-10.201 7.963-14.841-2.685-7.678-17.58-9.805-33.907-4.844-6.31 1.91-12.308 4.425-17.889 7.497 1.367-5.937 2.058-11.992 2.058-18.063 0-16.144-6.756-28.79-15.38-28.79-5.207 0-9.802 4.543-12.593 12.041-2.797-7.498-7.394-12.041-12.597-12.041-8.619 0-15.37 12.646-15.37 28.79 0 6.143.698 12.196 2.078 18.058-5.653-3.082-11.658-5.595-17.907-7.492-16.336-4.952-31.229-2.819-33.911 4.861-1.601 4.631 1.451 10.066 7.975 14.824-8.274.241-14.158 2.933-15.754 7.522-.753 2.167-.495 4.604.749 7.047 3.146 6.184 12.239 12.193 23.731 15.684 6.23 1.886 12.569 3.13 18.911 3.713-4.789 4.013-9.104 8.482-12.869 13.334-6.903 8.856-10.532 18.551-9.47 25.299.458 2.911 1.798 5.195 3.876 6.606 4.178 2.83 10.688 1.701 17.597-2.764-2.378 7.544-1.463 13.701 2.772 16.573 1.531 1.038 3.373 1.532 5.423 1.532 6.57 0 15.272-5.083 22.709-13.569-1.839 15.086.304 31.306 6.425 48.408-10.52-7.434-19.831-9.439-27.742-5.957-3.651 1.61-6.397 4.757-7.534 8.633-1.177 4.014-.527 8.319 1.785 11.813 9.185 13.851 21.663 17.824 47.388 14.952 5.777 9.998 12.872 20.501 21.104 31.241 1.824 2.371 4.578 3.73 7.556 3.73 2.69 0 5.261-1.151 7.052-3.158 3.405-3.803 3.198-9.563-.472-13.119-4.476-4.331-8.84-9.418-12.988-15.14 11.963-13.409 16.054-25.997 12.161-37.437-.6-1.767-1.907-3.237-3.586-4.036-1.635-.779-3.458-.865-5.132-.245-7.045 2.609-11.906 10.252-14.784 23.292-10.925-21.049-18.906-48.551-12.126-69.469.895 1.291 1.814 2.55 2.757 3.761 10.107 12.98 23.461 19.466 30.401 14.767 4.236-2.873 5.15-9.032 2.77-16.58 6.912 4.464 13.424 5.591 17.599 2.761 2.075-1.406 3.415-3.685 3.875-6.591 1.067-6.746-2.561-16.445-9.467-25.313-3.825-4.915-8.142-9.377-12.876-13.313 6.419-.612 12.758-1.86 18.907-3.725h.001c11.5-3.493 20.596-9.508 23.738-15.697 1.236-2.439 1.492-4.872.736-7.034zm-67.137 143.306c.418.738 1.255 1.128 2.093.981.835-.15 1.485-.812 1.62-1.649 2.38-14.699 6.848-23.36 13.281-25.744.654-.239 1.372-.202 2.024.106.709.338 1.263.962 1.518 1.713 3.549 10.431-.509 21.761-12.406 34.638-.341.37-.531.864-.531 1.367 0 .414.128.817.367 1.155 4.567 6.454 9.413 12.175 14.401 17.002 2.12 2.054 2.24 5.383.272 7.578-.001.001-.002.002-.003.003-1.048 1.175-2.493 1.822-4.068 1.822-1.726 0-3.324-.791-4.383-2.167-8.436-11.006-15.655-21.749-21.459-31.933-.359-.629-1.025-1.01-1.737-1.01-.078 0-.157.005-.236.014-25.127 2.981-36.456-.31-44.896-13.037-1.659-2.508-2.126-5.598-1.281-8.479.816-2.782 2.702-4.948 5.309-6.099 7.8-3.433 17.659-.117 29.303 9.858.703.603 1.725.645 2.475.101.749-.543 1.028-1.528.674-2.384-8.999-21.761-11.55-42.069-7.586-60.366.344-.498.665-1.006.997-1.51.283-.429.575-.853.849-1.286.386-.61.75-1.23 1.119-1.848.234-.392.479-.779.706-1.173.406-.707.788-1.422 1.171-2.137.169-.315.349-.625.513-.941.537-1.036 1.051-2.08 1.539-3.131.337.716.686 1.428 1.044 2.137.124.245.254.486.38.729.24.462.479.925.728 1.384.155.285.315.568.473.852.231.415.462.829.7 1.241.17.294.345.585.519.877.156.261.306.526.465.786-9.628 24.147.867 57.335 14.046 80.55zm62.832-138.081c-2.585 5.092-11.159 10.59-21.334 13.68-7.503 2.274-15.302 3.592-23.181 3.916-.85.034-1.584.603-1.832 1.417-.247.813.047 1.694.734 2.196 6.091 4.449 11.558 9.763 16.251 15.794 6.155 7.902 9.559 16.629 8.673 22.231-.286 1.811-1.015 3.124-2.167 3.904-3.709 2.519-11.477-.468-18.886-7.26-.719-.658-1.807-.704-2.578-.105-.77.599-.997 1.664-.537 2.523 4.57 8.54 5.241 16.214 1.632 18.661-4.384 2.974-15.733-2.011-25-13.912-1.627-2.09-3.192-4.323-4.653-6.643-.022-.041-.045-.082-.071-.122-2.515-4.013-4.668-8.232-6.398-12.543-.304-.758-1.039-1.255-1.856-1.255-.002 0-.005 0-.008 0-.82.003-1.555.506-1.854 1.27-.269.686-.549 1.369-.841 2.05-2.039 4.765-4.62 9.397-7.69 13.799-.789 1.136-1.642 2.295-2.536 3.444-9.265 11.91-20.611 16.889-24.999 13.913-3.61-2.448-2.939-10.122 1.631-18.662.46-.859.233-1.926-.537-2.523-.362-.281-.794-.42-1.226-.42-.487 0-.972.177-1.353.526-7.404 6.797-15.17 9.783-18.884 7.27-1.154-.784-1.884-2.102-2.169-3.918-.882-5.605 2.522-14.326 8.676-22.221 4.603-5.931 10.067-11.264 16.243-15.852.682-.507.97-1.39.716-2.201s-.992-1.374-1.841-1.403c-7.743-.264-15.534-1.567-23.157-3.875-10.167-3.088-18.737-8.581-21.327-13.669-.748-1.471-.928-2.79-.535-3.921 1.373-3.944 9.704-5.783 19.813-4.366.971.141 1.904-.456 2.191-1.398.287-.941-.155-1.952-1.041-2.382-8.979-4.354-14.522-10.329-13.185-14.2 1.662-4.761 13.969-6.895 28.971-2.346 7.509 2.279 14.646 5.485 21.212 9.529.707.434 1.611.39 2.271-.12.659-.508.934-1.37.691-2.166-2.112-6.936-3.183-14.216-3.183-21.637 0-14.829 5.879-24.79 11.37-24.79 4.557 0 8.929 6.618 10.632 16.094.171.953 1 1.646 1.968 1.646h.001c.969-.001 1.797-.694 1.968-1.648 1.693-9.475 6.061-16.092 10.621-16.092 5.496 0 11.38 9.961 11.38 24.79 0 7.313-1.056 14.605-3.138 21.674-.235.798.048 1.656.71 2.159.663.502 1.567.542 2.27.102 6.438-4.032 13.554-7.242 21.15-9.541 14.996-4.561 27.304-2.428 28.969 2.331 1.347 3.882-4.193 9.86-13.173 14.215-.886.43-1.328 1.44-1.041 2.382.286.942 1.212 1.538 2.191 1.398 10.099-1.418 18.425.42 19.804 4.37.394 1.126.216 2.44-.528 3.907z"/></g></g></svg>