<svg id="Layer_3" enable-background="new 0 0 300 300" viewBox="0 0 300 300" xmlns="http://www.w3.org/2000/svg"><g><g><g fill="#ffcc3e"><path d="m167.36 71.391c0 12.42-2.6 23.93-6.12 32.25-3.17-2.25-7.05-3.58-11.24-3.58-4.12 0-7.94 1.28-11.08 3.47-3.52-8-6.28-19.14-6.28-32.14 0-13.05 4-23.64 8.94-23.64 3.88 0 7.18 6.53 8.42 15.66 1.24-9.13 4.54-15.66 8.42-15.66 4.94 0 8.94 10.59 8.94 23.64z"/><path d="m130.56 119.501c0 1.95.29 3.83.82 5.6-8.69.88-20.14.07-32.5-3.95-12.41-4.04-21.24-11.12-19.72-15.81 1.2-3.69 8.43-4.82 17.49-3.17-8.3-4-13.48-9.16-12.28-12.85 1.52-4.69 12.83-5.23 25.24-1.2 11.8 3.84 21.94 9.87 28.77 15.79-4.75 3.55-7.82 9.21-7.82 15.59z"/><path d="m149.57 138.931c-1.19 5.5-3.41 11.87-6.88 18.53-1.91 3.67-4.2 7.43-6.92 11.17-7.67 10.56-17.13 16.77-21.13 13.86-3.14-2.28-1.98-9.49 2.39-17.61-6.37 6.66-12.87 10-16.01 7.72-4-2.91-1.02-13.82 6.65-24.38 7.3-10.05 16.17-17.83 23.91-22.49 2.23 6.62 7.94 11.63 14.95 12.89.99.18 2 .29 3.04.31z"/><path d="m198.98 172.601c-3.14 2.28-9.64-1.06-16.01-7.72 4.37 8.12 5.53 15.33 2.39 17.61-4 2.91-13.46-3.3-21.13-13.86-3.67-5.06-6.68-10.32-9.02-15.42-2.31-5.03-3.97-9.91-4.98-14.28 1.76-.02 3.47-.28 5.09-.74 6.09-1.72 10.97-6.34 13.03-12.28 7.54 4.4 16.33 11.79 23.98 22.31 7.67 10.56 10.65 21.47 6.65 24.38z"/><path d="m201.12 121.151c-11.8 3.84-23.55 4.91-32.55 4.14.56-1.83.87-3.77.87-5.79 0-6.32-3.01-11.93-7.68-15.48 6.51-5.8 16.26-11.88 28.63-15.9 12.41-4.03 23.72-3.49 25.24 1.2 1.2 3.69-3.98 8.85-12.28 12.85 9.06-1.65 16.29-.52 17.49 3.17 1.52 4.69-7.31 11.77-19.72 15.81z"/></g><path d="m169.44 119.501c0 2.02-.31 3.96-.87 5.79-.07.21-.14.42-.22.62-2.06 5.94-6.94 10.56-13.03 12.28-1.62.46-3.33.72-5.09.74-.08.01-.15.01-.23.01-.14 0-.29 0-.43-.01-1.04-.02-2.05-.13-3.04-.31-7.01-1.26-12.72-6.27-14.95-12.89-.07-.21-.14-.42-.2-.63-.53-1.77-.82-3.65-.82-5.6 0-6.38 3.07-12.04 7.82-15.59.17-.13.36-.26.54-.38 3.14-2.19 6.96-3.47 11.08-3.47 4.19 0 8.07 1.33 11.24 3.58.18.12.35.25.52.38 4.67 3.55 7.68 9.16 7.68 15.48z" fill="#fc5441"/><path d="m173.73 237.681c3.29 4.54 1.84 10.93-3.14 13.48l-.18.09c-4.35 2.23-9.68.6-12.06-3.67-14.54-26.11-19.06-62.02-15.66-90.12 3.47-6.66 5.69-13.03 6.88-18.53.14.01.29.01.43.01.08 0 .15 0 .23-.01 1.01 4.37 2.67 9.25 4.98 14.28-.03 19.64.61 36.91 4.23 52.37 2.15-6.11 4.59-11.45 7.54-15.38 4.5-6 14.31-3.48 14.87 4 .57 7.78-7.25 17.12-17.54 26.64 2.45 5.88 5.53 11.48 9.42 16.84z" fill="#61961f"/></g><path d="m222.742 104.723c-1.069-3.291-5.061-5.129-10.979-5.29 4.691-3.611 6.838-7.444 5.77-10.729-1.01-3.117-4.683-4.982-10.344-5.251-5.002-.241-11.19.744-17.417 2.766-9.035 2.936-17.559 7.272-24.569 12.447 2.668-8.325 4.157-17.955 4.157-27.275 0-12.43-3.834-25.64-10.94-25.64-3.455 0-6.436 3.232-8.42 8.819-1.984-5.587-4.966-8.819-8.42-8.819-7.106 0-10.94 13.21-10.94 25.64 0 9.532 1.519 18.981 4.288 27.254-7.105-5.128-15.822-9.536-24.701-12.426-6.225-2.021-12.406-3.005-17.417-2.765-5.66.269-9.333 2.134-10.343 5.249-1.069 3.287 1.078 7.12 5.769 10.731-5.917.16-9.91 2-10.979 5.291-2.188 6.751 9.188 14.482 21.003 18.328 8.824 2.87 18.034 4.369 26.57 4.369.216 0 .426-.014.642-.016-7.063 5.168-13.938 12.091-19.422 19.64-7.3 10.051-11.957 22.99-6.207 27.174 2.792 2.026 7.1 1.166 11.986-2.184-1.676 5.68-1.162 10.043 1.633 12.072 1.003.729 2.208 1.091 3.574 1.091 2.251 0 4.941-.981 7.888-2.916 4.188-2.747 8.614-7.179 12.462-12.477.87-1.197 1.701-2.424 2.513-3.663-1.753 29.032 4.515 60.525 16.703 82.411 2.033 3.647 5.78 5.709 9.662 5.709 1.698 0 3.422-.395 5.04-1.224l.197-.099c2.864-1.466 4.937-4.104 5.688-7.234.762-3.181.092-6.534-1.839-9.199 0 0 0-.001-.001-.001-3.438-4.738-6.276-9.708-8.649-15.159 12.376-11.633 17.673-20.082 17.145-27.296-.315-4.205-3.063-7.563-7.172-8.765-4.239-1.238-8.67.219-11.292 3.713-1.881 2.506-3.647 5.657-5.341 9.543-1.966-11.106-2.64-23.204-2.792-37.053 1.641 2.857 3.425 5.641 5.365 8.315 3.849 5.299 8.275 9.731 12.462 12.478 2.948 1.935 5.638 2.916 7.889 2.916 1.366 0 2.57-.361 3.572-1.09 2.795-2.03 3.31-6.394 1.634-12.073 4.884 3.35 9.193 4.209 11.986 2.184.001 0 .001-.001.002-.001 5.749-4.182 1.092-17.122-6.209-27.173-5.595-7.694-12.361-14.463-19.453-19.527 8.77-.032 18.398-1.586 27.245-4.465 11.813-3.846 23.19-11.577 21.001-18.33zm-56.085 19.983c-.023.074-.029.151-.042.227-.059.104-.115.209-.154.324-1.856 5.353-6.224 9.469-11.687 11.011-1.49.423-3.027.646-4.566.664-.014 0-.027.005-.041.005-.056.002-.11-.002-.166.005-.096 0-.197.001-.291-.005-.019-.001-.038.002-.057.001-.015-.001-.029-.005-.044-.006-.897-.018-1.787-.108-2.725-.279-6.247-1.123-11.385-5.552-13.408-11.561-.032-.095-.081-.181-.126-.269-.014-.099-.025-.198-.054-.295-.488-1.631-.736-3.323-.736-5.027 0-5.557 2.558-10.655 7.017-13.988.072-.054.131-.12.195-.183.1-.047.2-.094.292-.159 2.918-2.035 6.354-3.111 9.936-3.111 3.636 0 7.123 1.11 10.082 3.211.071.05.153.074.228.114.075.08.15.16.239.228 4.379 3.329 6.891 8.391 6.891 13.888 0 1.757-.263 3.508-.783 5.205zm-25.077-74.955c2.234 0 5.254 5.21 6.438 13.929.135.992.981 1.731 1.982 1.731s1.847-.739 1.982-1.731c1.184-8.719 4.203-13.929 6.438-13.929 2.83 0 6.94 8.43 6.94 21.64 0 10.166-1.841 20.693-5.089 29.288-3.138-1.719-6.644-2.618-10.271-2.618-3.577 0-7.036.874-10.134 2.543-3.379-8.56-5.226-18.834-5.226-29.213 0-13.21 4.11-21.64 6.94-21.64zm-42.081 69.498c-12.559-4.088-19.308-10.603-18.437-13.29.478-1.469 3.42-2.526 8.035-2.526 2.082 0 4.505.215 7.195.705.979.179 1.95-.397 2.26-1.349s-.132-1.986-1.034-2.421c-7.921-3.817-11.938-8.301-11.246-10.431.434-1.338 3.075-2.315 6.729-2.489 4.532-.211 10.213.699 15.99 2.574 9.659 3.143 19.099 8.149 26.273 13.896-4.289 4.039-6.705 9.593-6.705 15.582 0 1.276.113 2.546.337 3.796-9.19.577-19.533-.838-29.397-4.047zm34.653 48.207c-3.572 4.917-7.627 8.996-11.42 11.484-3.057 2.006-5.772 2.766-6.917 1.933-1.81-1.314-1.191-7.301 2.976-15.044.474-.881.224-1.978-.585-2.566-.353-.256-.765-.382-1.175-.382-.53 0-1.056.21-1.446.618-6.079 6.356-11.58 8.797-13.388 7.485-2.291-1.667-.667-10.905 7.091-21.587 5.974-8.224 13.652-15.658 21.335-20.701 2.933 6.195 8.7 10.662 15.548 11.893.307.056.612.105.914.147-.176.684-.368 1.374-.572 2.067-.068.232-.144.465-.215.698-.145.472-.291.945-.448 1.42-.092.28-.191.562-.288.843-.149.432-.3.865-.458 1.298-.108.296-.22.593-.333.889-.161.423-.326.847-.496 1.271-.119.298-.24.596-.364.895-.179.432-.365.865-.554 1.297-.125.286-.248.572-.376.858-.211.47-.431.939-.653 1.407-.116.245-.228.49-.346.735-.345.71-.698 1.419-1.066 2.124v.001c-1.965 3.773-4.24 7.446-6.764 10.917zm25.18 40.122c.886.045 1.7-.495 1.995-1.333 2.309-6.563 4.682-11.418 7.253-14.844 1.958-2.61 4.98-2.855 6.97-2.275 2.506.733 4.116 2.686 4.306 5.221.577 7.88-9.371 18.057-16.904 25.026-.616.57-.811 1.463-.488 2.237 2.602 6.245 5.757 11.886 9.647 17.246 1.245 1.718 1.677 3.875 1.188 5.918-.485 2.023-1.771 3.659-3.604 4.598l-.198.099c-3.402 1.746-7.532.487-9.4-2.863-13.014-23.369-19.071-58.086-15.465-88.549.085-.164.159-.331.243-.496.379-.747.747-1.497 1.102-2.25.144-.306.286-.612.426-.918.333-.728.652-1.456.961-2.186.104-.246.213-.491.314-.736.394-.956.768-1.911 1.119-2.865.075-.203.141-.404.214-.606.276-.768.537-1.534.784-2.298.045-.141.1-.283.144-.423.062.19.133.382.197.572.13.385.261.769.398 1.156.1.281.202.562.306.844.141.385.286.77.434 1.156.107.28.216.559.327.839.157.395.318.79.482 1.185.111.269.222.537.336.806.177.415.36.829.544 1.244.083.187.161.375.246.562-.021 20.4.711 37.138 4.283 52.393.203.864.952 1.492 1.84 1.54zm31.38-58.182c7.757 10.681 9.382 19.917 7.093 21.586-1.808 1.312-7.31-1.128-13.389-7.484-.691-.723-1.813-.824-2.621-.236-.81.588-1.06 1.685-.585 2.566 4.167 7.744 4.785 13.73 2.975 15.045-1.144.832-3.857.072-6.916-1.934-3.792-2.488-7.848-6.567-11.419-11.483-3.436-4.737-6.404-9.811-8.822-15.081-.403-.876-.783-1.757-1.15-2.638-.069-.165-.139-.331-.207-.496-.348-.848-.678-1.695-.991-2.539-.061-.163-.118-.326-.177-.489-.311-.855-.608-1.708-.88-2.553-.008-.023-.016-.047-.024-.071-.276-.858-.524-1.706-.758-2.546-.027-.097-.054-.193-.08-.29 1.047-.136 2.086-.349 3.105-.639 5.924-1.673 10.803-5.81 13.44-11.281 7.767 4.945 15.303 12.171 21.406 20.563zm-19.636-25.944c.242-1.304.364-2.626.364-3.951 0-5.933-2.38-11.454-6.604-15.482 7.109-5.861 16.311-10.791 26.172-13.995 5.777-1.876 11.455-2.79 15.991-2.575 3.654.174 6.295 1.151 6.729 2.491.692 2.128-3.325 6.612-11.246 10.429-.902.435-1.343 1.469-1.034 2.421.31.952 1.275 1.527 2.26 1.349 8.652-1.576 14.537-.311 15.229 1.819.871 2.688-5.877 9.203-18.437 13.291-9.636 3.137-20.221 4.637-29.424 4.203z" fill="#603913"/></g></svg>