<svg id="Layer_3" enable-background="new 0 0 300 300" viewBox="0 0 300 300" xmlns="http://www.w3.org/2000/svg"><g><g><path d="m214.233 105.531c-.459 10.585-3.976 20.381-9.698 28.519-2.858 4.065-8.845 4.493-12.023.673-2.362-2.84-3.497-6.785-3.469-10.352.02-2.71.7-5.2 2.02-6.84-.8 1-1.65 1.92-2.54 2.74-12.59 11.67-30.64-6.58-19.23-19.42 1.29-1.44 2.76-2.74 4.42-3.9-3.32.81-6.53 1.3-9.64 1.43-11.82.51-18.43-13.63-10.34-22.27 3.16-3.37 7.09-5.85 11.83-6.37-1.52-.05-2.93-.3-4.24-.71-4.941-1.535-8.317-5.336-9.789-9.286-1.835-4.925 1.77-10.093 7.023-10.279.652-.023 1.308-.035 1.966-.035 11.88 0 22.85 3.84 31.74 10.36-.41.87-.77 1.76-1.08 2.67-1.13 3.19-1.73 6.55-1.73 10.01 0 13.78 9.45 25.84 23.61 32.54.39.17.78.35 1.17.52z" fill="#ffe89c"/><path d="m214.283 103.181v.01c0 .78-.02 1.56-.05 2.34-.39-.17-.78-.35-1.17-.52-14.16-6.7-23.61-18.76-23.61-32.54 0-3.46.6-6.82 1.73-10.01.31-.91.67-1.8 1.08-2.67 1.36.99 2.67 2.05 3.92 3.17 11.11 9.85 18.1 24.22 18.1 40.22z" fill="#fab000"/><path d="m191.063 117.531c-1.32 1.64-2 4.13-2.02 6.84-.21.11-.43.21-.65.31-16.77 7.64-34.21 7.74-45.33 1.43-4.37-2.48-7.77-5.95-9.77-10.33-6.95-15.23 5.56-35.92 28.03-46.75 1.31.41 2.72.66 4.24.71-4.74.52-8.67 3-11.83 6.37-8.09 8.64-1.48 22.78 10.34 22.27 3.11-.13 6.32-.62 9.64-1.43-1.66 1.16-3.13 2.46-4.42 3.9-11.41 12.84 6.64 31.09 19.23 19.42.89-.82 1.74-1.74 2.54-2.74z" fill="#b2c757"/><path d="m134.203 204.471c1.47 9.99 3.54 21.08 6.27 33.4.17.77.25 1.53.25 2.28 0 5.15-3.84 9.69-9.19 10.34-5.48.67-10.54-3.06-11.53-8.5-5.39-29.54-7.34-53.68-6.24-73.04-24.48-9.14-31.42-25.27-26.62-46.07 11.89 2.37 21.89 10.28 29.1 26.4 3.16-15.13 8.96-26.12 17.05-33.5 2 4.38 5.4 7.85 9.77 10.33-9 10.59-13.84 28.88-10.87 61.68 9.31-13.39 19.69-21.67 31.23-24.41 4.5 11.57-.58 31.97-29.22 41.09z" fill="#5a9134"/></g><path d="m197.518 61.472c-1.297-1.163-2.669-2.272-4.078-3.298-.003-.002-.006-.003-.008-.005-9.584-7.025-20.964-10.738-32.909-10.738-.683 0-1.362.012-2.037.036-3.156.112-6.079 1.733-7.819 4.336-1.725 2.58-2.091 5.729-1.006 8.641 1.35 3.625 3.9 6.682 7.13 8.69-20.692 11.461-31.705 30.911-25.868 46.146-6.975 6.783-12.121 16.219-15.336 28.135-6.88-12.733-16.098-20.111-28.052-22.494-1.057-.209-2.097.458-2.34 1.511-5.252 22.758 3.66 38.855 26.495 47.867-.944 19.563 1.189 43.793 6.346 72.052 1.087 5.972 6.303 10.22 12.225 10.22.5 0 1.006-.03 1.514-.093 6.242-.759 10.949-6.058 10.949-12.325 0-.909-.1-1.822-.297-2.713-2.521-11.375-4.535-21.994-5.995-31.598 16.814-5.77 24.229-15.001 27.494-21.832 3.387-7.089 3.884-14.871 1.363-21.353-.362-.932-1.357-1.448-2.326-1.222-10.535 2.502-20.339 9.508-29.198 20.853-1.707-25.28 1.54-42.869 9.852-53.641 5.384 2.681 11.784 4.028 18.676 4.028 7.967 0 16.572-1.803 24.974-5.341.49 3.261 1.794 6.365 3.71 8.669 1.786 2.146 4.39 3.355 7.194 3.355.132 0 .265-.003.398-.009 3.066-.124 5.838-1.637 7.604-4.148 6.119-8.703 9.597-18.933 10.06-29.583 0-.001-.001-.003 0-.005 0-.002.001-.004.001-.006.031-.806.051-1.611.051-2.416v-.011c-.002-15.933-6.845-31.137-18.767-41.708zm-67.317 126.5c.076.837.667 1.538 1.48 1.753.814.216 1.673-.101 2.154-.792 8.606-12.377 18.113-20.151 28.285-23.138 1.41 5.067.772 11.096-1.805 16.489-3.027 6.334-10.12 14.995-26.718 20.281-.934.297-1.514 1.227-1.372 2.196 1.49 10.129 3.608 21.414 6.295 33.542.134.607.203 1.229.203 1.848 0 4.248-3.195 7.84-7.433 8.354-4.428.545-8.52-2.478-9.32-6.874-5.229-28.655-7.318-53.07-6.211-72.567.05-.875-.476-1.681-1.297-1.987-21.292-7.949-29.744-21.634-25.788-41.796 11.135 2.878 19.57 11.016 25.742 24.816.354.792 1.178 1.266 2.04 1.172.862-.093 1.566-.73 1.743-1.579 2.746-13.144 7.645-23.429 14.578-30.619.141.232.294.456.443.683.06.09.116.183.177.273.315.464.649.915.998 1.357.078.098.159.194.239.291.304.372.62.735.948 1.09.08.086.157.174.238.259.395.415.807.818 1.235 1.209.082.075.168.147.251.221.375.333.762.657 1.161.972.099.078.196.157.296.234.432.331.872.655 1.332.965-9.268 12.393-12.506 32.502-9.894 61.347zm13.849-63.6c-2.682-1.522-4.878-3.388-6.582-5.565-.934-1.194-1.726-2.478-2.356-3.857 0-.001-.001-.001-.001-.002-4.988-10.935 1.277-25.357 14.371-36.06-.029.063-.048.13-.076.193-.164.373-.313.75-.445 1.133-.026.075-.056.148-.081.224-.146.447-.267.901-.37 1.358-.025.11-.044.221-.066.331-.076.38-.137.763-.182 1.149-.012.104-.028.207-.038.311-.045.466-.068.935-.068 1.405 0 .096.006.192.008.288.008.394.031.789.071 1.184.012.119.022.238.036.356.058.474.135.948.239 1.421.014.063.033.126.048.189.098.417.216.832.349 1.245.04.125.081.249.125.373.165.47.345.938.557 1.4 2.655 5.781 8.231 9.205 14.566 8.93 1.018-.042 2.058-.123 3.118-.241-5.902 7.251-3.834 16.083 1.405 21.214.312.305.641.597.98.88.106.089.217.172.326.258.242.192.487.379.74.559.13.092.261.181.394.27.25.167.506.327.766.481.133.079.265.159.4.234.307.17.621.329.94.48.092.043.18.092.272.134.413.187.835.356 1.265.508.103.036.208.064.312.098.331.109.665.209 1.004.296.15.038.301.07.452.104.306.068.614.127.925.176.156.024.312.048.47.068.336.041.674.068 1.014.085.096.005.191.021.288.024-13.054 3.943-26.219 3.449-35.176-1.634zm58.849 8.528c-1.044 1.485-2.683 2.379-4.495 2.453-1.704.053-3.288-.628-4.354-1.909-1.909-2.294-3.033-5.681-3.007-9.059.005-.726.071-1.418.179-2.072.025-.153.049-.307.08-.455.143-.688.346-1.317.599-1.871.018-.04.033-.083.052-.122.008-.017.017-.03.025-.047.185-.379.395-.722.629-1.016.006-.007.012-.015.018-.021.689-.862.551-2.119-.31-2.81-.862-.693-2.118-.555-2.81.306-.008.009-.015.018-.022.027-.74.922-1.519 1.762-2.319 2.5-5.454 5.055-11.809 3.485-15.685-.311-3.912-3.83-5.796-10.569-.696-16.309 1.188-1.325 2.559-2.535 4.076-3.595.789-.552 1.073-1.587.677-2.464s-1.36-1.347-2.296-1.119c-.811.198-1.614.375-2.407.532-2.38.47-4.674.752-6.846.843-.068.003-.132-.001-.199 0-.278.007-.555.012-.823.001-4.997-.199-8.296-3.464-9.739-6.605-1.52-3.308-1.801-8.276 1.967-12.3 3.183-3.395 6.745-5.329 10.589-5.75 1.043-.114 1.821-1.016 1.781-2.064s-.884-1.889-1.933-1.923c-.335-.011-.667-.035-.996-.068-.932-.095-1.842-.279-2.716-.553-3.895-1.21-7.075-4.229-8.508-8.074-.631-1.692-.418-3.522.584-5.021 1.042-1.56 2.732-2.493 4.636-2.561.628-.022 1.26-.034 1.895-.034 10.56 0 20.641 3.124 29.26 9.052-.175.438-.337.876-.485 1.311-1.224 3.455-1.845 7.048-1.845 10.678 0 .885.036 1.765.108 2.638.021.255.066.506.093.76.065.616.126 1.233.227 1.842.049.299.126.592.183.889.108.558.207 1.118.344 1.668.08.321.188.635.277.953.146.52.282 1.042.454 1.556.107.319.241.63.358.946.186.504.361 1.011.572 1.507.137.323.302.637.449.956.221.48.432.963.676 1.435.168.324.363.638.542.959.254.456.497.916.773 1.364.205.333.438.654.654.981.28.424.548.853.847 1.268.241.335.511.657.765.987.305.395.597.796.919 1.183.282.339.592.664.888.996.323.363.633.733.972 1.088.329.345.687.675 1.031 1.011.334.327.654.661 1.002.98.373.343.775.669 1.164 1.003.346.297.68.602 1.038.892.419.338.865.658 1.301.986.356.268.698.544 1.065.805.462.328.952.637 1.431.953.366.242.72.493 1.096.728.499.311 1.024.602 1.54.9.382.221.752.452 1.143.665.539.294 1.104.567 1.661.847.379.191.744.393 1.131.577-.653 9.4-3.841 18.399-9.26 26.107zm8.92-30.761c-.4-.212-.792-.431-1.182-.651-.416-.235-.83-.472-1.234-.715-.376-.227-.745-.46-1.111-.694-.396-.254-.787-.51-1.17-.773-.352-.241-.698-.487-1.04-.735-.374-.272-.741-.547-1.102-.827-.328-.255-.651-.512-.969-.773-.35-.288-.693-.581-1.03-.877-.304-.267-.604-.536-.897-.81-.327-.305-.644-.615-.957-.927-.279-.278-.555-.557-.823-.841-.302-.321-.593-.647-.881-.975-.253-.288-.505-.577-.747-.87-.277-.336-.541-.678-.803-1.021-.227-.297-.455-.594-.671-.896-.251-.351-.486-.708-.722-1.065-.201-.305-.404-.608-.593-.917-.224-.366-.431-.737-.638-1.109-.174-.311-.352-.62-.514-.935-.196-.381-.373-.768-.552-1.154-.146-.315-.299-.628-.433-.946-.168-.397-.314-.8-.464-1.202-.118-.316-.244-.63-.351-.948-.139-.417-.255-.84-.375-1.261-.089-.312-.188-.621-.266-.935-.111-.445-.194-.896-.283-1.345-.059-.297-.131-.592-.18-.891-.083-.503-.135-1.011-.191-1.518-.027-.251-.07-.5-.091-.753-.063-.763-.096-1.53-.096-2.302 0-3.174.543-6.317 1.624-9.366.014-.042.032-.084.047-.126.589.48 1.168.973 1.733 1.479 10.872 9.64 17.192 23.42 17.42 37.913-.152-.081-.308-.155-.458-.234z" fill="#603913"/></g></svg>