<svg id="flat" viewBox="0 0 960 960" xmlns="http://www.w3.org/2000/svg"><path d="m282.104 205.049c-1.3-13.28 4.167-27.047 14.223-35.817 5.666-4.941 12.794-8.521 16.746-14.915 4.175-6.755 3.94-15.209 5.286-23.035 3.186-18.514 16.55-34.943 34.028-41.831s38.457-3.993 53.417 7.37c10.558 8.02 17.287 14.652 29.96 18.548 10.994 3.38 18.789-.262 30.257.618 16.425 1.261 31.635 18.139 37.394 33.572 5.76 15.433 1.768 34.045-9.814 45.759-6.312 6.384-14.916 14.462-22.067 19.89-14.76 11.203-16.902 21.883-20.876 37.532-4.458 17.553-12.441 24.98-29.118 32.043-12.404 5.254-28.804 5.35-39.661-2.624-7.627-5.602-12.236-10.126-17.721-20.252-10.151-18.74-20.674-16.033-47.677-21.94-16.517-3.613-32.771-18.504-34.378-34.918z" fill="#fe7e61"/><path d="m432.117 405.65c-11.969-18.941-26.329-37.052-45.515-48.625s-43.976-15.677-64.239-6.114c25.798 48.904 53.131 99.607 98.082 131.802 18.364 13.152 39.285 22.882 55.753 38.342-8.504-32.812-25.975-86.75-44.082-115.405z" fill="#91b398"/><path d="m568.099 253.279c-28.492 11.989-52.714 33.86-67.539 60.984-14.826 27.124-36.213 75.777-29.621 140.15 31.165-17.943 69.294-63.06 84.299-95.741s19.567-70.063 12.861-105.394z" fill="#91b398"/><path d="m702.47 558.635c-.894-1.261-2.663-1.444-4.208-1.494-43.673-1.423-84.465-1.358-128.195-1.476-55.008-.148-110.016-.058-165.024.119-23.839.076-47.677.173-71.516.286-9.607.046-19.213.096-28.82.146-5.319.028-13.302-.02-18.537.397-8.418.671-13.724-.431-22.275.627-1.388.172-2.808.395-4.019 1.094-4.087 2.359-3.655 8.297-2.681 12.914 2.322 11.007 4.644 21.013 6.966 32.019 1.323 6.27 2.662 12.592 5.247 18.455.318.721.669 1.454 1.179 2.045.138.16.288.31.451.446 2.663 2.219 9.863 1.204 13.341 1.212.892.002 1.783 0 2.675 0 6.891 40.721 13.682 81.46 20.883 122.128 2.819 15.921 6.027 34.439 8.497 50.038 3.685 23.27 8.036 43.798 16.492 65.708.724 1.877 1.541 3.854 3.174 5.028 1.588 1.142 3.653 1.313 5.605 1.445 76.105 5.12 132.621 4.444 208.801 4.444 14.885 0 50.182-.358 64.581-4.133 2.818-.739 5.724-1.657 7.815-3.686 1.764-1.711 2.768-4.04 3.699-6.314 16.605-40.585 21.725-85.308 29.538-128.22 6.51-35.752 13.774-76.842 18.027-104.906 5.315.369 13.756 1.145 16.516-1.019 5.255-4.152 5.787-20.726 6.868-26.658 1.284-7.048 2.426-14.119 3.583-21.189.714-4.362 3.924-15.807 1.336-19.457z" fill="#f2ab5a"/><path d="m477.072 558.591c-1.648 0-2.989-1.331-3-2.981-.583-93.079-16.071-187.993-44.79-274.481-.522-1.572.33-3.271 1.902-3.792s3.27.33 3.792 1.902c28.914 87.079 44.508 182.633 45.095 276.334.01 1.657-1.324 3.009-2.981 3.019h-.02z" fill="#3d4659"/><path d="m375.929 204.591c1.164.835 2.394 1.553 3.672 2.156 10.633 5.021 24.61 2.127 32.081-7.272 13.982-17.589-5.347-37.358-22.936-39.482-25.208-3.044-31.849 30.953-12.817 44.597z" fill="#feca7a"/><path d="m631.457 629.985c-3.433 0-6.973-.003-10.626-.009-41.799-.069-84.293-.348-125.389-.617l-33.241-.214c-54.351-.342-110.552-.696-165.825-.72l-4.704.002c-2.434.002-4.867.005-7.3-.001-1.657-.004-2.997-1.351-2.992-3.008.004-1.654 1.347-2.992 3-2.992h.008c2.426.006 4.852.003 7.278.001l4.713-.002c55.29.024 111.5.378 165.86.72l33.243.214c41.088.27 83.575.549 125.359.617 22.201.035 40.376-.039 54.024-.221 1.65-.029 3.018 1.302 3.04 2.959.022 1.656-1.303 3.018-2.959 3.04-11.43.154-26.027.231-43.489.231z" fill="#3d4659"/></svg>