<svg id="flat" viewBox="0 0 960 960" xmlns="http://www.w3.org/2000/svg"><g fill="#a8b8c2"><path d="m398.094 116.911c-5.902 1.184-21.064 21.8-21.382 41.232-.542 33.162-1.356 60.331-1.898 93.493-.182 11.109-.428 22.539-4.76 32.77-4.332 10.232-7.794 18.837-18.903 19.035-10.763.193-14.324-7.983-19.22-17.57s-4.679-20.584-5.128-31.339c-1.758-42.081.315-58.438-3.461-96.067-.726-7.229-10.203-45.304-22.239-46.744-11.233-1.344-24.985 21.725-25.9 48.859-1.338 39.67-1.252 59.53-1.783 98.646-.498 36.69-22.96 40.162-30.937 35.774-6.492-3.571-9.765-11.533-10.219-18.928-4.533-73.72-2.249-158.536-23.552-162.16-31.242 5.622-32.505 152.793-30.498 231.309.545 21.322 2.042 61.019 15.184 77.819 17.827 22.789 49.065 21.885 77.974 23.076 1.521.021 3.047.045 4.577.072-1.447 48.503.073 101.827 1.556 142.392v.01l41.77-6.91c-.644-43.478 1.463-91.654 2.584-134.754 37.018-.093 70.457-3.526 85.63-22.262 27.281-33.687 14.122-189.757 12.249-262.172-.693-26.816-11.793-47.556-21.642-45.58z"/><path d="m718.969 147.299c-8.113-11.583-26.858-27.554-40.626-30.784-15.916-3.734-31.926 5.435-44.566 15.803-46.743 38.337-74.328 92.888-85.46 152.307s-10.897 84.28-8.015 144.665c.509 10.671 1.989 63.444 9.145 71.375 15.864 17.582 58.384 12.86 89.542 9.492.251 27.705.866 57.87 1.775 90.252l35.48-.06c1.178-28.244 2.197-60.673 3.037-91.334 37.45 3.5 102.348 14.237 102.543-23.185.944-181.542 7.428-238.196-62.855-338.531z"/></g><g fill="#f2ab5a"><path d="m262.125 602.045c-9.466 15.31-9.062 34.513-8.357 52.499 1.612 41.11 3.224 82.22 4.836 123.33.454 11.566 1.249 24.062 8.678 32.939 9.847 11.765 36.738 11.247 52.066 5.635 32.037-11.729 24.276-68.692 24.208-84.034-.127-28.79 2.229-42.376-.395-87.081-1.435-24.443 5.655-54.235-23.138-63.435-17.807-5.69-48.204 4.465-57.899 20.146z"/><path d="m612.718 676.726c1.393 43.626 2.787 87.252 4.18 130.878.314 9.846.871 20.403 6.853 28.23 7.785 10.185 27.974 10.381 40.715 11.794 12.117 1.344 26.598 1.737 33.927-8.006 4.221-5.611 4.72-13.093 5.058-20.109 1.83-38.014 1.66-74.028 3.49-112.042 1.29-26.8 9.308-80.278-13.384-97.466-18.402-13.939-33.716-14.569-53.874-9.316-31.541 8.22-27.924 46.056-26.966 76.037z"/></g><g fill="#3d4659"><path d="m321.859 449.925c-.027 0-.054 0-.08 0-1.656-.043-2.964-1.421-2.921-3.077 1.07-41.174 3.052-117.317-13.408-124.373-10.687 3.275-23.643 27.854-26.505 123.803-.05 1.656-1.408 2.96-3.089 2.909-1.655-.049-2.958-1.432-2.909-3.088 2.517-84.329 12.689-125.539 32.016-129.691.493-.105 1.004-.085 1.487.058 18.186 5.425 20.499 50.063 18.406 130.539-.042 1.629-1.377 2.922-2.997 2.922z"/><path d="m638.986 513.157c-1.644 0-2.984-1.325-2.999-2.973-1.218-134.534 6.127-195.492 24.56-203.828.259-.117.532-.197.813-.237 3.62-.515 7.053.566 9.921 3.128 5.882 5.255 15.481 23.345 13.681 85.458-.048 1.689-.147 6.443-.297 13.564-.432 20.536-1.234 58.762-2.386 100.826-.046 1.657-1.461 2.93-3.081 2.917-1.656-.045-2.962-1.425-2.917-3.081 1.151-42.045 1.954-80.258 2.385-100.788.15-7.144.25-11.913.298-13.61.962-33.165-1.602-71.809-11.68-80.812-1.452-1.297-2.951-1.849-4.648-1.71-5.236 2.779-12.207 14.952-16.493 56.299-3.366 32.467-4.726 78.856-4.155 141.818.015 1.657-1.316 3.012-2.973 3.027h-.028z"/></g></svg>