<svg id="Layer_3" enable-background="new 0 0 300 300" viewBox="0 0 300 300" xmlns="http://www.w3.org/2000/svg"><g><g><path d="m197.916 181.531c-5.984 1.461-12.612 1.689-19.215.968-.669 6.58-2.248 12.993-4.926 18.522-3.219 6.674-11.781 8.694-17.688 4.163-4.902-3.764-9.216-8.782-12.783-14.363-5.576 3.575-11.595 6.325-17.612 7.693-7.262 1.642-14.2-3.78-14.33-11.189-.116-6.142 1.134-12.627 3.292-18.88-6.298-2.11-12.222-5.092-17.055-8.927-5.833-4.622-5.914-13.38-.174-18.098 4.754-3.906 10.626-6.966 16.881-9.171-2.274-6.219-3.635-12.677-3.642-18.827-.009-7.415 6.819-12.922 14.105-11.387 6.041 1.272 12.121 3.935 17.77 7.434 3.455-5.637 7.671-10.721 12.494-14.547 5.825-4.613 14.422-2.727 17.77 3.899 2.778 5.494 4.478 11.877 5.255 18.442 6.595-.813 13.231-.685 19.25.689 7.269 1.659 11.165 9.52 8.051 16.249-2.579 5.572-6.529 10.864-11.199 15.56 4.757 4.622 8.805 9.87 11.488 15.407 3.241 6.688-.499 14.608-7.732 16.363z" fill="#e44619"/><circle cx="150" cy="150" fill="#f9b001" r="18.41"/></g><g fill="#603913"><path d="m207.452 164.296c-2.396-4.945-6-9.946-10.482-14.558 4.446-4.723 7.876-9.66 10.209-14.697 1.731-3.743 1.682-8.012-.135-11.71-1.831-3.728-5.216-6.399-9.287-7.329-5.455-1.245-11.492-1.559-17.969-.94-.938-6.413-2.683-12.172-5.196-17.143-1.867-3.695-5.259-6.324-9.306-7.214-4.053-.893-8.24.074-11.493 2.65-4.364 3.462-8.36 7.961-11.897 13.392-5.622-3.275-11.236-5.517-16.712-6.669-4.081-.86-8.268.148-11.49 2.766-3.2 2.599-5.032 6.456-5.027 10.581.007 5.57 1.05 11.492 3.104 17.628-6.068 2.328-11.313 5.291-15.613 8.823-3.204 2.633-5.02 6.512-4.983 10.642.037 4.135 1.927 7.988 5.184 10.568 4.321 3.429 9.747 6.38 15.784 8.598-1.949 6.193-2.883 12.132-2.778 17.678.072 4.125 1.979 7.955 5.231 10.509 3.272 2.567 7.478 3.516 11.541 2.596 5.45-1.239 11.015-3.563 16.57-6.915 3.643 5.373 7.728 9.814 12.164 13.221 2.436 1.869 5.368 2.85 8.36 2.85 1.064 0 2.136-.124 3.196-.376 4.022-.957 7.357-3.638 9.149-7.352 2.415-4.985 4.056-10.77 4.888-17.218 6.419.519 12.578.106 17.928-1.202 4.039-.98 7.366-3.687 9.131-7.426 1.761-3.737 1.736-8.02-.071-11.753zm-3.548 10.044c-1.247 2.641-3.601 4.553-6.46 5.247-.001 0-.002 0-.003.001-5.451 1.332-11.857 1.652-18.524.923-.527-.057-1.06.099-1.475.434-.414.335-.678.822-.731 1.353-.688 6.779-2.282 12.785-4.737 17.854-1.268 2.629-3.627 4.524-6.473 5.201-2.864.683-5.853.042-8.195-1.755-4.513-3.465-8.656-8.126-12.315-13.854-.286-.447-.738-.763-1.257-.876-.142-.031-.286-.047-.429-.047-.38 0-.755.108-1.08.316-5.639 3.615-11.509 6.184-16.973 7.426-2.883.65-5.866-.02-8.187-1.841-2.302-1.807-3.651-4.516-3.702-7.436-.105-5.56.995-11.85 3.184-18.189.174-.504.139-1.058-.096-1.536-.236-.479-.653-.843-1.159-1.013-6.355-2.129-12.042-5.102-16.448-8.598-2.306-1.827-3.643-4.55-3.669-7.47-.026-2.915 1.258-5.654 3.523-7.516 4.313-3.543 9.941-6.597 16.276-8.831.504-.178.916-.55 1.144-1.033s.253-1.038.069-1.54c-2.296-6.279-3.514-12.552-3.521-18.143-.003-2.913 1.29-5.636 3.549-7.471 2.282-1.853 5.25-2.564 8.144-1.957 5.494 1.157 11.417 3.639 17.129 7.177.453.281 1 .369 1.515.246.518-.123.965-.447 1.243-.901 3.497-5.705 7.657-10.554 12.031-14.024 2.306-1.826 5.275-2.509 8.149-1.878 2.869.631 5.272 2.495 6.595 5.112 2.52 4.983 4.267 11.13 5.054 17.775.063.528.333 1.01.752 1.338s.951.477 1.479.411c6.668-.822 13.086-.596 18.56.654 2.89.66 5.291 2.552 6.587 5.192 1.283 2.611 1.317 5.625.095 8.267-2.339 5.052-6.074 10.236-10.802 14.99-.377.379-.586.893-.582 1.427.005.535.223 1.045.606 1.417 4.808 4.672 8.64 9.805 11.081 14.844 1.278 2.642 1.297 5.667.053 8.304z"/><path d="m150 129.59c-11.254 0-20.41 9.156-20.41 20.41s9.156 20.409 20.41 20.409 20.41-9.155 20.41-20.409-9.156-20.41-20.41-20.41zm0 36.819c-9.048 0-16.41-7.361-16.41-16.409s7.361-16.41 16.41-16.41 16.41 7.361 16.41 16.41c0 9.048-7.362 16.409-16.41 16.409z"/></g></g></svg>