<svg id="Layer_3" enable-background="new 0 0 300 300" viewBox="0 0 300 300" xmlns="http://www.w3.org/2000/svg"><g><g><path d="m212.077 167.826c-2.21.72-4.44 1.29-6.67 1.72 1.54 1.65 3 3.41 4.38 5.31 8.63 11.87 9.15 26.19 1.17 31.99-6.27 4.55-12.75 6.85-20.78 0 4.03 9.75-.15 15.21-6.42 19.76-7.98 5.79-21.44.87-30.06-10.99-1.36-1.88-2.59-3.81-3.7-5.8-1.09 1.97-2.32 3.9-3.7 5.8-8.62 11.86-22.08 16.78-30.06 10.99-6.26-4.55-10.45-10.01-6.42-19.77-8.03 6.86-14.51 4.56-20.78.01-7.97-5.8-7.45-20.12 1.17-31.99 1.36-1.87 2.82-3.64 4.37-5.3-2.21-.44-4.43-1.01-6.66-1.73-13.95-4.54-22.79-15.82-19.74-25.2 2.39-7.36 6.29-13.03 16.81-12.21-8.99-5.52-8.81-12.39-6.42-19.76 3.05-9.38 16.83-13.31 30.78-8.78 2.21.72 4.35 1.57 6.41 2.52-.28-2.23-.42-4.52-.42-6.86 0-14.67 7.99-26.57 17.85-26.57 7.75 0 14.34 1.96 16.82 12.22 2.46-10.26 9.06-12.22 16.8-12.22 9.86 0 17.86 11.9 17.86 26.57 0 2.32-.14 4.61-.42 6.85 2.04-.94 4.18-1.78 6.41-2.51 13.95-4.53 27.73-.6 30.78 8.78 2.39 7.37 2.57 14.24-6.42 19.76 10.52-.82 14.41 4.85 16.81 12.21 3.04 9.38-5.8 20.66-19.75 25.2z" fill="#f49788"/><circle cx="149.999" cy="151.54" fill="#fabeaa" r="40.331"/><g fill="#ffcc3e"><circle cx="149.306" cy="166.762" r="6.299"/><circle cx="163.15" cy="160.308" r="6.453"/><circle cx="163.86" cy="144.714" r="6.453"/><circle cx="150.693" cy="136.319" r="6.299"/><circle cx="136.849" cy="143.484" r="6.453"/><circle cx="136.139" cy="159.078" r="6.453"/></g></g><g fill="#603913"><path d="m233.729 142.006c-1.852-5.678-5.035-11.967-13.213-13.376 5.791-5.95 4.666-12.91 2.823-18.592-3.387-10.412-18.326-14.925-33.305-10.062-1.178.386-2.342.805-3.483 1.255.077-1.224.116-2.458.116-3.694 0-15.754-8.909-28.57-19.86-28.57-5.975 0-12.941 1.079-16.805 8.433-3.876-7.354-10.843-8.433-16.815-8.433-10.945 0-19.85 12.816-19.85 28.57 0 1.242.039 2.478.115 3.697-1.161-.46-2.326-.881-3.487-1.26-14.979-4.863-29.914-.348-33.301 10.065-1.842 5.681-2.966 12.64 2.822 18.589-8.189 1.407-11.367 7.7-13.212 13.379-3.385 10.411 6.046 22.846 21.028 27.722 1.167.377 2.355.721 3.555 1.029-.785.948-1.544 1.924-2.269 2.922-9.251 12.739-9.578 28.343-.727 34.784 4.837 3.51 11.11 6.729 18.555 3.055-1.188 8.225 3.813 13.193 8.645 16.705 2.595 1.882 5.692 2.774 9.009 2.774 8.012 0 17.3-5.202 23.845-14.207.729-1.004 1.426-2.028 2.084-3.065.66 1.039 1.354 2.063 2.079 3.066 9.254 12.731 23.99 17.861 32.854 11.433 4.834-3.508 9.839-8.473 8.646-16.698 7.448 3.668 13.72.446 18.556-3.063 4.415-3.209 6.712-8.682 6.467-15.41-.235-6.435-2.79-13.316-7.194-19.374-.722-.993-1.479-1.968-2.269-2.92 1.201-.307 2.392-.651 3.56-1.032 14.97-4.873 24.406-17.308 21.031-27.722zm-28.701 25.576c-.715.138-1.299.652-1.523 1.345-.226.692-.058 1.452.439 1.983 1.509 1.618 2.931 3.341 4.226 5.122 3.941 5.422 6.226 11.519 6.432 17.168.195 5.355-1.517 9.626-4.819 12.027-5.977 4.334-11.374 6.01-18.308.097-.703-.601-1.728-.64-2.474-.097-.747.543-1.025 1.528-.673 2.382 3.485 8.432.224 13.044-5.746 17.377-7.078 5.135-19.31.402-27.265-10.543-1.306-1.805-2.508-3.69-3.573-5.602-.354-.634-1.021-1.026-1.747-1.026-.001 0-.002 0-.003 0-.727.001-1.395.396-1.747 1.031-1.051 1.899-2.252 3.781-3.568 5.593-7.958 10.951-20.188 15.682-27.267 10.548-5.968-4.338-9.229-8.955-5.747-17.389.353-.854.074-1.839-.674-2.382-.352-.255-.764-.381-1.175-.381-.464 0-.927.161-1.299.479-6.934 5.923-12.332 4.249-18.304-.086-7.068-5.144-6.345-18.242 1.611-29.197 1.303-1.793 2.721-3.512 4.214-5.11.495-.53.664-1.288.441-1.978-.222-.691-.801-1.207-1.513-1.349-2.177-.434-4.343-.996-6.432-1.67-12.881-4.192-21.16-14.366-18.457-22.681 2.278-7.016 5.666-11.544 14.752-10.833.917.066 1.772-.497 2.058-1.376s-.068-1.839-.855-2.322c-7.765-4.768-7.84-10.42-5.564-17.438 2.704-8.315 15.381-11.676 28.258-7.497 2.065.673 4.148 1.492 6.192 2.435.662.304 1.435.227 2.02-.203.586-.429.894-1.143.803-1.863-.269-2.134-.404-4.358-.404-6.61 0-13.548 7.11-24.57 15.85-24.57 7.378 0 12.731 1.818 14.876 10.69.218.897 1.021 1.53 1.944 1.53h.002c.924-.001 1.728-.635 1.943-1.534 2.126-8.869 7.476-10.687 14.854-10.687 8.745 0 15.86 11.022 15.86 24.57 0 2.228-.136 4.45-.404 6.603-.09.721.218 1.433.804 1.862.587.43 1.36.506 2.018.202 1.977-.911 4.061-1.727 6.189-2.424 12.881-4.182 25.559-.82 28.261 7.495 2.276 7.019 2.202 12.67-5.564 17.438-.787.484-1.141 1.444-.855 2.323s1.136 1.442 2.058 1.376c9.069-.708 12.465 3.819 14.753 10.833 2.695 8.315-5.589 18.49-18.467 22.682-2.091.68-4.254 1.238-6.431 1.657z"/><path d="m172.678 115.797c-9.547-6.057-20.882-8.034-31.917-5.567-22.777 5.094-37.165 27.77-32.072 50.548 4.401 19.681 21.928 33.098 41.305 33.098 3.05 0 6.146-.333 9.244-1.025 11.034-2.468 20.447-9.084 26.505-18.632s8.035-20.882 5.567-31.917-9.084-20.447-18.632-26.505zm9.687 56.279c-5.485 8.645-14.009 14.637-24.001 16.872-2.806.627-5.607.928-8.37.928-17.545-.001-33.416-12.15-37.401-29.97-4.612-20.626 8.416-41.159 29.041-45.772 2.806-.627 5.633-.938 8.439-.938 7.189 0 14.244 2.034 20.462 5.979 8.645 5.485 14.637 14.009 16.87 24 2.236 9.992.445 20.256-5.04 28.901z"/><path d="m170.75 149.61c2.7-3.8 1.806-9.087-1.994-11.788-3.055-2.171-7.072-2.013-9.934.108.33-1.654.17-3.42-.584-5.068-1.905-4.16-6.841-5.994-11.002-4.089-2.015.923-3.55 2.576-4.322 4.653-.451 1.212-.602 2.484-.473 3.734-1.295-1.148-2.946-1.918-4.797-2.093-4.644-.439-8.771 2.981-9.21 7.622-.344 3.645 1.697 6.968 4.836 8.442-1.611.578-3.009 1.626-4.02 3.051-2.7 3.8-1.806 9.087 1.994 11.788 1.446 1.028 3.139 1.564 4.878 1.564.475 0 .952-.04 1.429-.121 1.288-.218 2.477-.726 3.508-1.466-.142 1.416.069 2.885.703 4.27.923 2.016 2.575 3.551 4.653 4.323.942.351 1.92.525 2.896.525 1.176 0 2.35-.254 3.451-.758 2.016-.923 3.551-2.575 4.323-4.653.36-.968.527-1.975.517-2.978 1.324 1.158 2.967 1.879 4.753 2.047.271.025.54.038.81.038 1.96 0 3.844-.675 5.373-1.941 1.74-1.439 2.815-3.47 3.027-5.718s-.464-4.444-1.903-6.184c-.81-.979-1.811-1.738-2.927-2.26 1.608-.578 3.004-1.625 4.015-3.048zm-24.087-14.79c.4-1.076 1.195-1.932 2.239-2.41.578-.265 1.186-.39 1.783-.39 1.631 0 3.193.932 3.916 2.508.986 2.155.036 4.712-2.119 5.699-1.044.478-2.211.521-3.288.121-1.076-.4-1.932-1.195-2.41-2.239-.478-1.045-.521-2.212-.121-3.289zm-9.395 4.23c2.445.231 4.246 2.408 4.016 4.853s-2.414 4.238-4.853 4.015c-2.444-.231-4.245-2.408-4.015-4.853s2.411-4.254 4.852-4.015zm2.503 22.607c-1.422 2.001-4.207 2.474-6.211 1.051-2.001-1.422-2.473-4.208-1.05-6.21.688-.97 1.714-1.613 2.887-1.812.251-.042.503-.063.752-.063.916 0 1.809.283 2.57.824 2.001 1.423 2.472 4.208 1.052 6.21zm13.565 6.603c-.4 1.077-1.195 1.933-2.24 2.411-1.042.478-2.209.522-3.288.121-1.076-.4-1.932-1.195-2.41-2.239-.986-2.155-.036-4.712 2.119-5.699.57-.261 1.178-.393 1.787-.393.506 0 1.013.09 1.501.272 1.076.4 1.932 1.195 2.41 2.239.478 1.044.521 2.212.121 3.288zm1.397-8.747c-.03.318-.038.634-.032.949-.733-.627-1.572-1.133-2.503-1.479-2.075-.771-4.331-.69-6.348.233-.469.215-.904.473-1.313.76.309-2.939-.927-5.959-3.503-7.789-.418-.297-.859-.547-1.313-.761 2.975-1.082 5.227-3.792 5.544-7.147.054-.575.049-1.143-.011-1.696.743.644 1.597 1.163 2.546 1.515.941.35 1.92.524 2.896.524 1.176 0 2.35-.253 3.451-.758.515-.236.993-.519 1.434-.84-.643 3.177.573 6.585 3.381 8.58.42.298.864.542 1.32.757-.905.327-1.76.802-2.523 1.434-1.738 1.439-2.814 3.47-3.026 5.718zm11.255 4.226c-.916.758-2.069 1.113-3.258 1.002-1.184-.112-2.254-.678-3.012-1.595-.759-.917-1.115-2.073-1.003-3.258.111-1.184.678-2.254 1.595-3.012.806-.667 1.798-1.023 2.83-1.023.142 0 .284.007.427.021h.001c1.184.112 2.254.678 3.013 1.594.758.917 1.114 2.074 1.002 3.258-.111 1.185-.678 2.254-1.595 3.013zm1.501-16.446c-.688.97-1.714 1.613-2.887 1.812-1.177.197-2.354-.072-3.322-.761-.97-.689-1.613-1.714-1.812-2.888-.198-1.173.071-2.353.76-3.322.689-.97 1.715-1.613 2.888-1.812.252-.042.503-.063.753-.063.916 0 1.809.283 2.57.824.97.689 1.612 1.714 1.812 2.887.198 1.173-.072 2.353-.762 3.323z"/></g></g></svg>