<svg id="Layer_3" enable-background="new 0 0 300 300" viewBox="0 0 300 300" xmlns="http://www.w3.org/2000/svg"><g><path d="m138.977 145.895c-.9 0-1.718-.611-1.941-1.524-.094-.385-.188-.781-.268-1.177-.22-1.083.479-2.139 1.562-2.358 1.088-.223 2.138.479 2.358 1.562.07.345.152.688.234 1.022.262 1.073-.395 2.156-1.468 2.418-.16.038-.32.057-.477.057z" fill="#603913"/><path d="m149.999 189.965c-21.764 0-40.655-41.1-37.718-61.13.992-6.79 11.761-9.39 17.296-4.18 4.293 4.05 7.292 10.19 9.15 18.14-2.962-14.04 2.623-32.76 11.271-32.76s14.234 18.72 11.284 32.77c1.845-7.96 4.832-14.1 9.138-18.15 5.548-5.21 16.305-2.61 17.296 4.18 2.95 20.03-15.953 61.13-37.717 61.13z" fill="#f49788"/><path d="m149.999 191.965c-7.309 0-14.796-4.195-21.654-12.131-12.051-13.947-20.145-36.955-18.043-51.289.518-3.543 3.184-6.479 7.133-7.855 4.808-1.677 10.112-.691 13.512 2.51 1.974 1.861 3.714 4.156 5.212 6.866.687-7.05 2.893-13.757 6.208-17.844 2.221-2.739 4.86-4.187 7.631-4.187 2.769 0 5.406 1.445 7.626 4.18 3.315 4.083 5.524 10.789 6.216 17.841 1.497-2.71 3.235-5 5.209-6.857 3.409-3.201 8.716-4.186 13.522-2.507 3.943 1.377 6.605 4.313 7.123 7.854 2.108 14.317-5.977 37.318-18.025 51.271-6.861 7.947-14.356 12.148-21.67 12.148zm-27.819-68.064c-1.221 0-2.405.208-3.428.564-1.207.421-4.062 1.717-4.491 4.658-1.922 13.111 5.914 35.135 17.112 48.095 4.236 4.902 10.906 10.746 18.627 10.746 7.728 0 14.404-5.854 18.644-10.763 11.195-12.965 19.023-34.98 17.095-48.076-.43-2.941-3.279-4.237-4.484-4.658-2.798-.979-6.811-.848-9.464 1.646-3.89 3.659-6.77 9.428-8.559 17.143-.247 1.069-1.309 1.743-2.379 1.502-1.071-.236-1.751-1.291-1.526-2.364 2-9.523-.156-21.931-4.806-27.657-2.912-3.586-6.134-3.585-9.045.005-4.648 5.73-6.797 18.131-4.79 27.641.226 1.072-.453 2.128-1.523 2.365-1.068.235-2.132-.429-2.382-1.497-1.8-7.704-4.685-13.471-8.575-17.14-1.679-1.58-3.907-2.21-6.026-2.21z" fill="#603913"/></g></svg>