<svg id="flat" viewBox="0 0 960 960" xmlns="http://www.w3.org/2000/svg"><path d="m468.721 466.162c-47.359 50.594-111.639 118.829-157.912 173.373-7.62 8.983-9.078 23.726-.767 32.05 9.232 9.223 25.455 3.107 34.437-6.359 44.174-46.557 109.948-121.132 148.823-174.394l-24.582-24.67z" fill="#c7b19a"/><path d="m884.131 564.353c-9.808-21.774-28.393-38.173-46.807-53.381-65.837-54.331-136.745-102.492-211.51-143.676l-90.816 101.367c26.931 27.852 134.676 131.238 155.632 149.17 29.863 25.564 75.856 65.369 97.331 50.379 26.145-18.265-6.94-57.593-18.658-71.014-60.393-69.143-115.639-118.417-184.48-179.165 57.022 41.498 101.506 70.015 158.52 111.522 34.421 25.042 69.594 50.488 110.096 63.629 10.666 3.455 24.482 5.095 31.165-3.91 5.208-7.001 3.11-16.959-.472-24.921z" fill="#e0eded"/><path d="m354.596 114.895c-6.66-3.295-13.7-6.188-21.105-6.639-7.422-.45-15.317 1.895-20.088 7.591-5.26 6.289-5.766 15.525-3.313 23.356 2.461 7.822 7.454 14.567 12.421 21.109 50.124 65.966 92.038 105.318 162.363 168.562-48.951-43.555-115.187-99.949-176.018-136.08-7.254-4.303-30.803-17.03-46.618-9.378-43.868 21.206 66.61 119.321 81.683 132.134 42.255 35.916 80.894 69.22 138.326 103.681l43.655-53.434 43.369-44.301c-38.258-40.756-164.817-181.938-214.673-206.6z" fill="#e0eded"/><path d="m508.181 384.91c-17.551 20.352-34.648 42.345-39.925 68.697-2.808 14.022 5.534 25.06 16.958 33.662 10.185 7.67 21.17 2.496 32.172-4.921 26.26-17.702 45.342-42.649 67.699-65.079 22.612-22.687 75.973-77.208 32.251-104.087-36.905-22.688-88.54 47.825-109.154 71.728z" fill="#c7b19a"/><g fill="#614d48"><path d="m635.781 239.344c-9.969 2.493-19.372 7.818-25.865 15.782-6.494 7.964-9.848 18.656-8.079 28.779 1.556 8.902 6.787 16.712 12.49 23.722 5.517 6.781 11.678 13.17 19.085 17.814s16.182 7.457 24.888 6.656c4.734-.436 9.313-1.912 13.737-3.653 4.505-1.772 8.92-3.84 12.912-6.579 9.969-6.84 16.923-17.92 18.748-29.872 5.441-35.635-36.171-60.589-67.915-52.649z"/><path d="m135.901 842.798c-.747 0-1.494-.276-2.075-.834-1.196-1.146-1.237-3.046-.09-4.242l13.466-14.051c1.146-1.196 3.045-1.238 4.242-.091 1.196 1.146 1.237 3.045.09 4.241l-13.466 14.053c-.589.614-1.377.924-2.167.924z"/><path d="m165.179 805.426c-.388 0-.782-.076-1.162-.236-1.527-.643-2.244-2.401-1.602-3.929l7.171-17.041c.642-1.527 2.398-2.244 3.929-1.603 1.527.643 2.244 2.402 1.602 3.929l-7.171 17.043c-.483 1.146-1.595 1.837-2.767 1.837z"/><path d="m180.081 745.103c-1.657 0-3-1.343-3-3v-18c0-1.657 1.343-3 3-3s3 1.343 3 3v18c0 1.657-1.343 3-3 3z"/><path d="m173.739 679.451c-1.277 0-2.46-.821-2.862-2.104-1.981-6.326-5.827-12.206-10.829-16.556-1.25-1.087-1.383-2.981-.296-4.232 1.087-1.249 2.982-1.383 4.232-.295 5.914 5.141 10.277 11.812 12.618 19.29.495 1.581-.385 3.265-1.966 3.76-.298.093-.601.138-.897.138z"/><path d="m134.573 642.247c-.129 0-.259-.008-.39-.025l-17.973-2.332c-1.643-.213-2.802-1.718-2.589-3.36.214-1.645 1.721-2.807 3.361-2.589l17.973 2.332c1.643.213 2.802 1.718 2.589 3.36-.196 1.513-1.486 2.614-2.971 2.614z"/><path d="m76.269 677.336c-.024 0-.049 0-.073 0-1.656-.04-2.967-1.414-2.927-3.071.197-8.214 3.608-16.291 9.358-22.159 1.16-1.185 3.058-1.203 4.242-.043 1.184 1.159 1.203 3.059.043 4.242-4.698 4.794-7.484 11.393-7.646 18.104-.039 1.632-1.375 2.928-2.998 2.928z"/><path d="m108.107 742.898c-.296 0-.597-.044-.894-.137-13.439-4.19-24.622-15.067-29.183-28.386-.537-1.567.299-3.273 1.866-3.81 1.57-.537 3.274.298 3.811 1.866 3.953 11.542 13.645 20.969 25.292 24.601 1.582.493 2.464 2.176 1.971 3.757-.401 1.285-1.585 2.108-2.863 2.108z"/><path d="m145.608 749.397c-.883 0-1.765-.009-2.646-.026-1.656-.031-2.973-1.4-2.941-3.057.032-1.656 1.384-3.013 3.058-2.941 6.889.126 13.854-.28 20.685-1.228 1.637-.232 3.156.918 3.384 2.56.228 1.641-.918 3.156-2.56 3.384-6.268.869-12.64 1.309-18.979 1.309z"/><path d="m203.334 738.644c-1.201 0-2.334-.727-2.796-1.913-.601-1.544.164-3.283 1.708-3.884l27.488-10.694c1.544-.6 3.283.163 3.884 1.708.601 1.544-.164 3.283-1.708 3.884l-27.489 10.694c-.357.139-.725.205-1.087.205z"/><path d="m255.129 717.11c-1.316 0-2.523-.873-2.89-2.204-.44-1.598.498-3.249 2.095-3.689 8.435-2.323 16.579-6.345 23.552-11.628 1.322-1.002 3.204-.742 4.203.579 1 1.32.741 3.202-.579 4.202-7.574 5.739-16.42 10.107-25.582 12.632-.267.073-.535.108-.799.108z"/><path d="m350.849 661.48c-.692 0-1.389-.238-1.955-.726-9.932-8.543-19.863-17.095-29.794-25.647l-2.606-2.244c-1.255-1.081-1.397-2.976-.316-4.231s2.976-1.396 4.231-.315l2.606 2.244c9.931 8.552 19.861 17.104 29.792 25.646 1.256 1.08 1.398 2.975.318 4.23-.593.69-1.432 1.044-2.276 1.044z"/><path d="m379.529 630.33c-.708 0-1.42-.249-1.991-.757l-32.72-29.07c-1.239-1.101-1.351-2.997-.251-4.235 1.101-1.238 2.997-1.352 4.235-.251l32.72 29.07c1.239 1.101 1.351 2.997.251 4.235-.593.667-1.417 1.008-2.244 1.008z"/><path d="m405.229 601.52c-.736 0-1.474-.27-2.053-.812-10.621-9.969-21.035-20.387-30.955-30.965-1.133-1.208-1.072-3.106.136-4.24 1.209-1.134 3.107-1.072 4.241.137 9.833 10.485 20.157 20.812 30.685 30.693 1.208 1.134 1.268 3.032.134 4.24-.59.63-1.389.947-2.188.947z"/><path d="m432.999 569.36c-.711 0-1.426-.252-1.998-.763-10.534-9.412-20.76-19.426-30.396-29.762-1.13-1.212-1.063-3.11.149-4.24s3.11-1.063 4.24.148c9.511 10.204 19.606 20.088 30.005 29.379 1.235 1.104 1.342 3.001.238 4.236-.593.663-1.414 1.001-2.238 1.001z"/><path d="m463.409 532.6c-.705 0-1.412-.246-1.981-.748l-29.64-26.1c-1.244-1.096-1.364-2.991-.269-4.234 1.096-1.244 2.992-1.363 4.234-.27l29.64 26.1c1.244 1.095 1.364 2.991.269 4.234-.593.674-1.421 1.018-2.252 1.018z"/></g></svg>