<svg id="Layer_3" enable-background="new 0 0 300 300" viewBox="0 0 300 300" xmlns="http://www.w3.org/2000/svg"><g><g><path d="m167.46 127.652c-.62.82-1.29 1.6-2 2.32-2.51 2.57-5.54 4.51-8.84 5.81-1.31.52-2.66.94-4.04 1.24-1.75.39-3.54.6-5.35.6-1.35 0-2.72-.12-4.09-.36-18.29-3.17-37.01-24.42-46.15-43.69-5-10.52-2.6-23.07 5.92-29.09 9.24-6.53 19.25-1.07 29.68 10.54-.34-15.6 3.24-26.43 14.44-27.99 10.33-1.43 20.66 6.09 24.22 17.18 6.51 20.3 7.38 48.62-3.79 63.44z" fill="#ffcc3e"/><path d="m176.89 185.002h-.01c-.32 24.76-9.08 46.37-24.85 65.36-1.52 1.84-3.72 2.78-5.94 2.78-1.79 0-3.58-.61-5.05-1.85-3.17-2.68-3.67-7.37-1.15-10.67 22.64-29.56 27.85-63.82 12.69-103.6 1.38-.3 2.73-.72 4.04-1.24 3.3-1.3 6.33-3.24 8.84-5.81 5.43 13.52 8.86 26.29 10.43 38.37 20.9-57.61 54.33-3.62 1 16.66z" fill="#5a9134"/></g><path d="m207.445 151.5c-.771-6.072-4.443-10.349-9.357-10.896-7.442-.825-15.188 6.655-21.351 20.311-1.828-9.818-4.839-20.046-8.962-30.506.44-.498.871-1.01 1.28-1.55.001-.001.002-.002.002-.003 11.524-15.291 10.785-44.401 4.098-65.255-3.892-12.12-15.229-20.099-26.401-18.549-10.225 1.424-15.525 9.621-16.126 25.01-10.973-10.813-20.447-13.167-28.872-7.212-9.211 6.508-12.036 20.086-6.572 31.581 9.387 19.791 28.757 41.535 47.612 44.803 1.479.258 2.97.39 4.435.39 1.341 0 2.699-.114 4.054-.326 13.727 37.248 9.372 70.923-12.983 100.112-3.172 4.153-2.535 10.044 1.45 13.412 1.774 1.497 4.025 2.322 6.34 2.322 2.914 0 5.642-1.278 7.479-3.502 16.175-19.477 24.678-41.425 25.285-65.258 21.691-8.689 30.01-23.69 28.589-34.884zm-63.964-16.208c-17.518-3.036-35.739-23.717-44.686-42.578-4.641-9.763-2.376-21.198 5.268-26.599 1.824-1.289 4.135-2.461 7.133-2.461 4.697 0 11.08 2.881 19.906 12.704.559.623 1.445.828 2.224.523.777-.308 1.281-1.067 1.264-1.903-.472-21.621 7.031-25.174 12.714-25.965 9.264-1.284 18.736 5.516 22.042 15.81 6.372 19.873 7.223 47.422-3.483 61.626-.574.759-1.188 1.473-1.833 2.126-2.254 2.307-4.994 4.106-8.148 5.349-1.235.491-2.489.875-3.737 1.146-2.9.646-5.766.729-8.664.222zm32.806 47.799c-.807.25-1.396.997-1.407 1.885-.303 23.417-8.509 44.985-24.393 64.113-1.078 1.305-2.681 2.053-4.397 2.053-1.391 0-2.691-.477-3.759-1.377-2.354-1.99-2.729-5.472-.854-7.926 23.148-30.225 27.771-65.018 13.747-103.446.714-.22 1.424-.47 2.128-.75.602-.237 1.186-.499 1.763-.771.146-.069.292-.14.437-.211.526-.26 1.042-.531 1.546-.819.046-.026.093-.05.138-.076.542-.315 1.066-.651 1.58-1 .128-.087.254-.176.38-.264.442-.311.875-.634 1.296-.97.055-.044.114-.082.169-.126 4.686 12.189 7.793 24.016 9.246 35.195.119.915.848 1.629 1.765 1.73.932.102 1.784-.439 2.099-1.306 6.859-18.909 14.952-24.999 19.876-24.444 3.059.341 5.294 3.186 5.832 7.424 1.247 9.833-6.68 23.249-27.192 31.086z" fill="#603913"/></g></svg>