<svg id="flat" viewBox="0 0 960 960" xmlns="http://www.w3.org/2000/svg"><path d="m349.42 722.69.08 1.18c-2.23 3.73-4.47 7.47-6.7 11.2-4.76 7.97-9.9 16.3-18.08 20.63-3.54 1.87-7.52 2.89-11.52 2.95-3.77.06-7.66-.78-10.71-2.98-5.82-4.21-7.36-12.27-6.87-19.43.17-2.43.53-6.25.91-10.53l-.01-.72c17.065-12.398 35.26-13.051 52.9-2.3z" fill="#dfccb2"/><g><g><path d="m817.011 672.198s.453 12.531-3.121 23.602c-25.13 7.3-63.69 13.19-99.87 14.04-8.56.2-14.7 2.25-16.76 15.11-.05.29-.08.58-.12.87-.95 7.44-1.92 14.98-4.55 21.99-2.65 7.04-7.16 13.63-13.7 17.31-5.05 2.86-17.9 4.73-28.66-8.46-7.4-9.08-9.42-20.45-10.04-32.22-.5-9.72-9.81-18.12-37.44-18.36s-36.91 6.75-39.16 15.38c-5.53 21.14-10.4 31.28-15.7 35.52-5.3 4.25-12.66 6.38-19.06 4.16-8.04-2.79-12.5-11.21-15.59-19.11-4.35-11.16-7.53-22.79-9.5-34.61-60.73-5.86-57.62-129.21-41.7-193.8 18.69-75.87 74.43-108.38 129.96-111.1 50.7-2.49 68.93 24.49 79.83 46.37 1.75-10.85 11.24-33.31 42.61-41.14 21.08-5.26 39.84 13.2 41.59 28.35 2.09 37.81 1.33 77.18 3.71 114.84.83 13.11 3.55 90.45 49.61 92.57 10.909 11.749 7.661 28.688 7.661 28.688z" fill="#dfccb2"/><path d="m765.8 355.64c5.59 9.93 6 22.32 2.3 33.1-2.76 8.02-7.71 15.28-14.16 20.78l-.37.04c-13.46-25.878-15.292-48.761-16.38-70.07l.56-.23c11.38-.5 22.45 6.46 28.05 16.38z" fill="#dfccb2"/><path d="m755.71 430.69c.11 1.8.22 3.6.32 5.41-1.75-15.15-20.51-33.61-41.59-28.35-31.37 7.83-40.86 30.29-42.61 41.14-10.9-21.88-29.13-48.86-79.83-46.37-55.53 2.72-111.27 35.23-129.96 111.1-15.92 64.59-19.03 187.94 41.7 193.8-4.3.13-84.6 10.53-154.32 15.27-19.01 1.3-37.23 2.17-52.9 2.3-13.25.12-24.69-.3-33.25-1.44-5-.66-9.85-2.31-14.03-5.14-18.49-12.5-8.01-34.41 2.48-49.8-31.77 19.46-70.01 28.14-107.06 24.3-19.31-1.99-41.57-10.56-45.6-29.54-1.8-8.48.59-17.28 3.84-25.31 10.54-26.04 29.65-33.53 54.52-46.6-16.24 1.38-32.94 2.72-48.57-1.9-15.63-4.63-30.18-16.64-32.87-32.72-2.2-13.19 3.81-26.41 11.4-37.42 15.08-21.86 37.19-38.78 62.23-47.63-21.29-8.16-48.19-7.64-61.92-25.84-10.13-13.42-8.53-33.13.18-47.51 8.71-14.39 23.21-24.3 38.14-32.05 45.81-23.77 100.02-30.91 150.42-19.83-19.59-9.83-42.32-25.08-39.83-46.86 2.15-18.77 22.4-29.61 40.75-34.1 58.5-14.29 119.62 3.01 177 21.29-10.93-8.9-22.25-18.33-27.75-31.31-5.49-12.98-2.92-30.55 9.37-37.45 8.11-4.56 18.11-3.49 27.29-1.94 41.31 6.98 81.44 20.92 118.19 41.05-6.38-8.2-12.9-16.7-15.64-26.72-2.73-10.03-.74-22.09 7.52-28.4 8.94-6.84 21.89-4.84 32.11-.12 26.65 12.32 73.21 53.25 92.56 75.34 17.94 20.49 30.41 40.11 39.19 62.15 8.14 20.41 13.13 42.89 16.38 70.07.82 6.74 1.52 13.77 2.14 21.13z" fill="#c7b19a"/><path d="m483.877 350.358c-14.113-4.789-31.21-.299-40.245 11.554-6.497 8.522-10.228 17.84-9.544 28.535.321 5.029 2.809 13.835 4.832 18.452 3.846 8.776 11.699 13.589 20.319 17.775-7.03-7.314-10.096-25.423 2.7-27.32 9.317-1.381 22.404 5.939 22.404 5.939s-7.022-18.607.998-24.623c7.034-5.276 17.968-2.995 26.06 2.301-2.833-14.632-13.41-27.824-27.523-32.613z" fill="#dfccb2"/></g><g fill="#614d48"><path d="m459.238 429.671c-.439 0-.886-.097-1.307-.302-8.785-4.26-17.502-9.542-21.76-19.266-2.125-4.86-4.731-14.047-5.076-19.463-.688-10.688 2.631-20.681 10.147-30.549 9.609-12.597 27.948-17.882 43.601-12.572 14.795 5.022 26.375 18.714 29.502 34.881.314 1.626-.749 3.2-2.376 3.515-1.631.315-3.2-.75-3.515-2.376-2.726-14.088-12.75-25.996-25.54-30.338-13.287-4.51-28.807-.081-36.9 10.528-6.601 8.666-9.522 17.344-8.931 26.527.296 4.659 2.665 13.05 4.585 17.442 3.283 7.498 9.922 11.928 18.88 16.271 1.491.723 2.113 2.518 1.391 4.008-.519 1.069-1.588 1.692-2.701 1.692z"/><path d="m503.744 710.42c-.097 0-.194-.005-.292-.014-13.626-1.315-24.963-8.23-33.696-20.556-15.916-22.462-19.919-58.325-20.474-84.455-.645-30.293 3.036-64.87 9.845-92.493 8.933-36.26 26.51-64.736 52.243-84.637 22.397-17.321 50.228-27.26 80.483-28.742 23.498-1.162 42.071 3.635 56.783 14.641 10.335 7.73 17.269 17.611 22.283 26.559 3.898-10.835 14.51-28.823 42.794-35.884 9.727-2.427 19.95-.393 28.789 5.728 8.979 6.217 15.458 16.104 16.508 25.188.032.264.057.558.08.852.129 1.651-1.105 3.096-2.758 3.225-1.643.135-3.095-1.106-3.225-2.758-.016-.206-.032-.412-.056-.61-.862-7.465-6.344-15.686-13.966-20.964-7.398-5.122-15.895-6.844-23.92-4.838-33.85 8.448-39.571 33.725-40.375 38.706-.208 1.287-1.222 2.292-2.51 2.488-1.298.197-2.557-.462-3.138-1.628-11.661-23.406-29.939-47.035-76.997-44.712-29.022 1.422-55.686 10.931-77.107 27.496-24.635 19.052-41.486 46.413-50.087 81.326-12.024 48.785-16.965 134.414 9.698 172.044 7.681 10.839 17.564 16.912 29.377 18.052 1.649.159 2.857 1.625 2.698 3.274-.149 1.551-1.456 2.712-2.982 2.712z"/><path d="m753.941 412.52c-.848 0-1.69-.357-2.283-1.054-1.075-1.261-.925-3.153.336-4.229 6.081-5.187 10.67-11.921 13.269-19.474 3.6-10.486 2.823-21.946-2.077-30.652-5.26-9.317-15.433-15.28-25.304-14.854-1.668.061-3.057-1.211-3.129-2.865-.073-1.655 1.21-3.057 2.865-3.129 12.097-.53 24.451 6.664 30.794 17.902 5.729 10.178 6.673 23.466 2.525 35.549-2.949 8.569-8.153 16.206-15.051 22.088-.564.482-1.257.718-1.945.718z"/></g></g><g fill="#614d48"><path d="m867.64 654.2c16.03 48.33-30.17 54.29-53.75 41.6-3.28-1.76-6.13-3.89-8.3-6.31-12.8-14.26-7.87-33.07 3.76-45.98h.01c16.5-18.35 46.51-24.78 58.28 10.69z"/><path d="m719.82 548.65c11.62-1.35 9.7 16.39 9.04 22.06-.33 2.87-.96 5.77-2.6 8.27-1.64 2.51-4.43 4.58-7.78 5.03-3.34.44-9.11-2.81-8.71-8.62.44-6.53-.55-25.51 10.05-26.74z"/><path d="m596.72 545.31c15.53-1.41 11.81 27.85 9.33 32.78-.92 1.82-2.11 3.63-4.14 4.74-2.04 1.11-5.1 1.37-7.4.13-2.25-1.23-3.13-3.44-3.69-5.45-1.54-5.54-5.38-31.17 5.9-32.2z"/></g></svg>