<svg id="flat" viewBox="0 0 960 960" xmlns="http://www.w3.org/2000/svg"><path d="m792.149 699.631c0 14.84-4.03 43.42-5.22 57.95-110.92 2.93-233.67 8.23-344.59 11.17-38.53 1.02-55.13-22.55-81.43-35.46-7.17 21.51-1.51 27.14-11.64 32.21-10.14 5.07-43.35 3.34-54.68 3.49-44.04.61-70.1 1.5-114.43-1.83-3.82-18.07-9.17-35.3-9.17-60.35 156.818-25.193 249.419-30.219 299.469-30.899 103.96-1.41 204.705-.047 321.691 23.719z" fill="#f2ab5a"/><path d="m771.659 606.451c17.55 25.75 20.49 58.48 20.49 93.18-134.55 5.66-217.96 5.8-321.92 7.21-50.05.68-147.04 8.22-299.24-.03-12.49-81.53 15.88-163.22 22.87-245.4 3.01-35.43 2.04-71.06 1.06-106.6-1.33-48.23-7.4-98.83-8.73-147.06 30.5-13.85 138.74-20.31 226.08-16.01h.01c48.11 2.37 89.87 8.01 108.79 17.46.28 80.51-23.21 179.14-7.25 266.33 2.68 14.68 6.1 29.76 14.99 41.74 18.23 24.56 52.51 28.63 82.6 34.08 39.36 7.12 75.09 9.82 113.3 21.64 20.57 6.36 38.26 20.71 46.95 33.46z" fill="#feca7a"/></svg>