<svg id="Layer_3" enable-background="new 0 0 300 300" viewBox="0 0 300 300" xmlns="http://www.w3.org/2000/svg"><g><path d="m155.683 76.207c-46.393 25.178-62.25 116.893-5.536 126 3.387 7.049 6.811 13.34 10.966 18.237 3.788 4.465 10.679 4.464 14.471.003 2.911-3.424 3.042-8.439.268-11.974-4.363-5.56-9.238-10.672-14.705-15.266 42.449-29.756 24.193-72.188-5.464-117z" fill="#5a9134"/><g fill="#603913"><path d="m164.37 193.346c41.875-31.19 21.451-75.225-7.019-118.242-.573-.865-1.712-1.149-2.622-.654-28.508 15.473-47.689 57.278-41.886 91.291 3.614 21.179 16.363 34.729 35.952 38.265 2.884 5.941 6.402 12.558 10.793 17.733 2.185 2.575 5.376 4.053 8.754 4.055h.005c3.379 0 6.572-1.477 8.76-4.051 3.525-4.147 3.658-10.247.317-14.504-3.986-5.083-8.37-9.747-13.054-13.893zm9.69 25.805c-1.427 1.679-3.509 2.642-5.712 2.642-.001 0-.002 0-.003 0-2.202-.001-4.282-.964-5.707-2.643-4.329-5.103-7.832-11.866-10.688-17.81-.284-.591-.839-1.005-1.486-1.108-18.351-2.947-30.312-15.436-33.678-35.165-4.85-28.42 9.371-69.346 38.253-86.203 11.805 17.964 25.326 40.872 28.437 61.782 3.125 21.001-4.555 37.658-23.477 50.923-.509.356-.823.93-.85 1.55-.027.621.236 1.22.711 1.619 5.205 4.374 10.056 9.41 14.418 14.969 2.173 2.769 2.081 6.74-.218 9.444z"/><path d="m149.847 116.838c.132-1.097-.65-2.092-1.747-2.224-1.097-.129-2.092.65-2.225 1.747-2.108 17.546-3.484 36.086.688 52.794.227.909 1.042 1.516 1.939 1.516.16 0 .323-.019.486-.06 1.072-.268 1.724-1.354 1.456-2.425-4.015-16.08-2.659-34.181-.597-51.348z"/></g></g></svg>