<svg id="Layer_3" enable-background="new 0 0 300 300" viewBox="0 0 300 300" xmlns="http://www.w3.org/2000/svg"><g><g><path d="m149.995 183.995c-31.17 0-39.18-20.47-38.35-42.64.03-.01.05-.03.08-.04 6.14-3 11.7-3.14 16.35 1.3 1.23 1.16 2.4 2.66 3.5 4.52 1.44-2.88 3.19-5.69 5.23-8.11 3.59-4.28 8.06-7.32 13.19-7.32s9.6 3.04 13.2 7.31c2.04 2.42 3.8 5.24 5.23 8.12 1.1-1.86 2.27-3.36 3.5-4.52 4.65-4.44 10.21-4.3 16.35-1.3.03.01.04.03.07.04h.01c.83 22.17-7.18 42.64-38.36 42.64z" fill="#ffcc3e"/><path d="m188.355 139.665c0 .14 0 .28-.01.42v1.27c-.03-.01-.04-.03-.07-.04-6.14-3-11.7-3.14-16.35 1.3-1.23 1.16-2.4 2.66-3.5 4.52-1.43-2.88-3.19-5.7-5.23-8.12-3.6-4.27-8.07-7.31-13.2-7.31s-9.6 3.04-13.19 7.32c-2.04 2.42-3.79 5.23-5.23 8.11-1.1-1.86-2.27-3.36-3.5-4.52-4.65-4.44-10.21-4.3-16.35-1.3-.03.01-.05.03-.08.04v-1.77c.04-8.26 5.66-14.95 12.59-14.95 2.42 0 4.68.82 6.6 2.23 3.91-6.51 11.03-10.86 19.16-10.86 8.14 0 15.26 4.35 19.17 10.86 1.92-1.42 4.18-2.23 6.6-2.23 6.95 0 12.59 6.73 12.59 15.03z" fill="#ea761a"/></g><path d="m190.354 141.279c-.001-.019-.008-.036-.01-.055v-1.074c.01-.162.011-.324.011-.485 0-9.391-6.546-17.03-14.591-17.03-2.089 0-4.131.514-6.003 1.499-4.571-6.379-11.821-10.129-19.767-10.129-7.941 0-15.188 3.752-19.759 10.132-1.879-.987-3.921-1.502-6.001-1.502-8 0-14.546 7.6-14.591 16.95v1.741c-.551 14.949 2.882 26.383 10.204 33.984 6.83 7.091 16.973 10.686 30.146 10.686 13.179 0 23.325-3.596 30.156-10.688 7.332-7.61 10.765-19.058 10.205-34.029zm-66.119-14.644c1.902 0 3.774.637 5.416 1.843.453.333 1.024.461 1.577.349.552-.111 1.031-.449 1.321-.932 3.719-6.192 10.24-9.89 17.445-9.89 7.211 0 13.736 3.697 17.455 9.89.291.483.771.822 1.324.933.556.108 1.128-.02 1.58-.354 1.626-1.203 3.497-1.839 5.41-1.839 5.468 0 9.981 5.124 10.534 11.675-.397-.141-.79-.268-1.179-.383-.044-.013-.087-.022-.131-.035-.364-.105-.725-.199-1.082-.281-.134-.031-.266-.054-.4-.082-.267-.055-.532-.108-.795-.15-.15-.024-.299-.043-.448-.063-.245-.033-.488-.062-.73-.083-.15-.013-.3-.024-.449-.033-.241-.015-.479-.022-.716-.026-.142-.002-.283-.005-.424-.002-.252.004-.501.018-.749.034-.12.008-.241.013-.36.024-.312.03-.62.072-.926.122-.052.009-.105.013-.156.022-.362.064-.718.144-1.071.238-.074.02-.145.045-.218.066-.274.078-.545.162-.813.258-.111.04-.22.086-.329.128-.227.089-.454.181-.677.283-.12.055-.239.114-.358.172-.211.104-.42.213-.627.329-.12.067-.239.135-.358.206-.206.123-.409.255-.611.39-.112.075-.225.149-.337.228-.215.153-.427.317-.638.484-.092.073-.186.142-.278.218-.3.248-.596.508-.886.786-.663.626-1.308 1.338-1.929 2.131-1.2-2.049-2.505-3.913-3.898-5.565-4.425-5.247-9.519-8.021-14.729-8.021-5.223 0-10.314 2.778-14.72 8.031-1.385 1.643-2.688 3.504-3.894 5.56-.622-.793-1.266-1.504-1.926-2.127-.331-.316-.668-.609-1.01-.888-.112-.091-.228-.172-.341-.259-.233-.179-.466-.355-.704-.517-.139-.094-.28-.18-.42-.269-.219-.138-.44-.274-.663-.398-.15-.084-.303-.162-.455-.239-.221-.112-.443-.219-.668-.318-.156-.069-.313-.135-.471-.197-.23-.091-.462-.172-.696-.25-.157-.052-.313-.104-.472-.15-.249-.072-.502-.131-.756-.188-.148-.033-.294-.071-.443-.099-.303-.057-.61-.097-.919-.133-.104-.012-.206-.032-.311-.041-.416-.038-.838-.058-1.266-.059-.011 0-.021-.001-.031-.001-.065 0-.133.009-.199.01-.372.005-.747.022-1.127.055-.156.013-.313.035-.47.053-.309.036-.62.079-.934.133-.174.03-.348.063-.524.099-.312.063-.628.137-.945.218-.17.043-.339.084-.511.133-.37.104-.744.225-1.12.353-.099.034-.196.058-.296.093.557-6.545 5.079-11.675 10.532-11.675zm53.036 45.897c-6.049 6.279-15.226 9.463-27.275 9.463-12.045 0-21.219-3.183-27.266-9.46-6.353-6.595-9.42-16.646-9.123-29.886.014-.006.029-.014.043-.02.132-.058.26-.107.39-.161.215-.089.431-.18.642-.26.139-.053.274-.097.411-.146.198-.07.397-.142.591-.204.14-.045.277-.082.415-.122.187-.055.375-.11.559-.157.138-.035.274-.064.411-.095.179-.04.358-.08.535-.113.136-.025.27-.045.405-.066.172-.027.344-.052.513-.071.134-.015.266-.026.398-.036.166-.013.33-.023.493-.029.131-.005.26-.006.389-.006.161 0 .321.004.479.012.126.006.252.014.377.025.157.014.313.032.467.053.122.017.244.034.364.056.153.027.305.06.456.094.118.027.236.054.352.086.151.041.299.088.448.137.112.037.225.073.336.114.15.056.298.119.445.183.106.046.213.09.318.14.15.072.298.152.445.232.099.054.199.104.297.162.154.09.305.191.456.291.089.059.179.113.267.175.166.117.33.246.493.375.07.055.142.105.211.163.232.192.461.395.687.61 1.104 1.041 2.164 2.415 3.152 4.083.339.573.928.939 1.596.965.042.003.082.016.125.016.023 0 .047 0 .071-.001.731-.026 1.391-.45 1.718-1.104 1.482-2.966 3.154-5.562 4.973-7.719 2.527-3.014 6.602-6.605 11.658-6.605 4.052 0 7.979 2.22 11.671 6.599 1.831 2.172 3.503 4.77 4.968 7.721.325.656.984 1.082 1.718 1.109.736.031 1.421-.35 1.794-.98.988-1.668 2.048-3.042 3.16-4.092.224-.214.452-.416.682-.606.079-.066.161-.123.241-.186.152-.119.304-.24.459-.349.097-.068.196-.128.294-.193.141-.093.282-.187.426-.272.105-.062.212-.115.318-.173.14-.076.28-.153.423-.221.111-.053.223-.099.335-.147.141-.061.282-.122.426-.175.116-.043.233-.08.35-.118.143-.047.287-.093.432-.133.12-.033.242-.061.365-.089.146-.033.292-.065.44-.091.125-.022.251-.04.377-.058.15-.02.3-.038.453-.052.128-.011.257-.019.387-.026.154-.008.31-.011.467-.012.132 0 .264.001.398.006.159.005.319.015.481.028.136.01.272.022.409.037.164.018.331.042.498.067.138.021.277.042.417.068.171.031.344.069.518.108.141.031.282.062.426.098.177.045.358.097.538.15.144.042.287.081.433.128.186.059.375.126.564.193.145.051.289.099.436.155.196.074.397.158.597.24.145.06.287.115.434.179.022.01.044.021.066.031.296 13.237-2.77 23.288-9.123 29.882z" fill="#603913"/></g></svg>