<svg id="flat" viewBox="0 0 960 960" xmlns="http://www.w3.org/2000/svg"><path d="m882.2 361.59c-11.08-25.87-36.25-42.86-61.83-54.59-11.39-5.23-34.96-6.77-36.05 7.85-.01.08-.02.17-.02.25-2.61 28.53 2.23 54.44 2.96 84.14h-.01c-53.73 68.25-104.49 128.28-160.32 190.3-4.74-62.79-9.39-123.25-14.44-193.74-.87-12.04-9.84-65.76-91.24-67.9-83.19-2.18-72.92-5.87-141.46.61-61.75 5.83-81.97 14.81-93.3 63.63-30.89-8.36-75.94-18.81-102.86-13.86-23.26 4.27-47.38 12.97-61.4 32.02-12.38 16.83-14.81 39.42-10.74 59.9s13.99 39.29 24.61 57.28c36 61.02 77.34 113.04 122.41 165.94-.15 3.77-.3 7.6-.45 11.48-.35 9.03 1.63 34.41 6.98 41.7 8.15 11.11 25.12 15.31 38.91 15.31 104.95.04 178.84-.99 283.79-.96 15.26.01 32.77-1.03 42.14-13.07 7.54-9.7 7.02-23.2 6.14-35.45-.47-6.55-.94-13.02-1.4-19.41 62.21-97.02 113.01-179.14 175.9-277.05 19.8-7.12 45.27-19.1 65.01-28.98 2.24-.66 4.29-1.77 5.92-3.5 5.33-5.62 3.8-14.78.75-21.9zm-605.21 93.29c-10.11 88.75-14.21 143.33-17.29 210.71-38.84-45.15-59.54-75.92-91.52-126.78-6.5-10.33-27.05-44.24-33.49-64.87-3.64-11.66-12.03-61.88 41.42-75.76 19.98-5.18 73.1 4.75 106.37 14.91-1.93 12.02-3.67 25.85-5.49 41.79z" fill="#feca7a"/><g fill="#3d4659"><path d="m869.399 390.816c-1.992 0-4.11-.193-6.341-.581-14.213-2.468-28.509-10.285-41.342-22.604-2.766-2.654-5.511-5.169-8.166-7.601-5.34-4.892-10.384-9.513-15.509-15.115l-.089-.097c-4.985-5.451-13.329-14.575-15.577-22.074-.476-1.587.426-3.259 2.013-3.735 1.584-.479 3.259.425 3.735 2.012 1.854 6.186 9.922 15.008 14.257 19.747l.089.098c4.945 5.406 9.895 9.94 15.135 14.74 2.68 2.456 5.452 4.995 8.267 7.697 11.969 11.489 25.183 18.758 38.214 21.021 4.09.709 7.753.642 10.588-.199 1.592-.467 3.259.436 3.729 2.024.471 1.588-.436 3.258-2.023 3.729-2.11.625-4.444.938-6.979.938z"/><path d="m804.222 330.32h-.298c-1.657 0-3-1.343-3-3s1.343-3 3-3h.298c1.657 0 3 1.343 3 3s-1.343 3-3 3z"/><path d="m820.615 322.272c-1.657 0-3-1.343-3-3v-.298c0-1.657 1.343-3 3-3s3 1.343 3 3v.298c0 1.657-1.343 3-3 3z"/><path d="m825.384 346.415h-.298c-1.657 0-3-1.343-3-3s1.343-3 3-3h.298c1.657 0 3 1.343 3 3s-1.343 3-3 3z"/><path d="m849.229 366.683h-.298c-1.657 0-3-1.343-3-3s1.343-3 3-3h.298c1.657 0 3 1.343 3 3s-1.343 3-3 3z"/><path d="m847.44 341.05h-.298c-1.657 0-3-1.343-3-3s1.343-3 3-3h.298c1.657 0 3 1.343 3 3s-1.343 3-3 3z"/><path d="m868.603 358.337h-.298c-1.657 0-3-1.343-3-3s1.343-3 3-3h.298c1.657 0 3 1.343 3 3s-1.343 3-3 3z"/><path d="m868.752 378.009h-.298c-1.657 0-3-1.343-3-3s1.343-3 3-3h.298c1.657 0 3 1.343 3 3s-1.343 3-3 3z"/></g></svg>