<svg id="Layer_3" enable-background="new 0 0 300 300" viewBox="0 0 300 300" xmlns="http://www.w3.org/2000/svg"><g><g><path d="m166.885 109.235c15.172-36.629-48.943-36.629-33.771 0-15.172-36.629-60.509 8.707-23.88 23.88-36.629-15.172-36.629 48.943 0 33.771-36.629 15.172 8.707 60.509 23.88 23.88-15.172 36.629 48.943 36.629 33.771 0 15.172 36.629 60.509-8.707 23.88-23.88 36.629 15.172 36.629-48.943 0-33.771 36.63-15.173-8.707-60.51-23.88-23.88z" fill="#ffe89c"/><path d="m156.054 131.367c3.027-9.316-15.135-9.316-12.108 0-3.027-9.316-17.721 1.359-9.796 7.117-7.925-5.758-13.537 11.516-3.742 11.516-9.796 0-4.183 17.273 3.742 11.516-7.925 5.758 6.769 16.433 9.796 7.117-3.027 9.316 15.135 9.316 12.108 0 3.027 9.316 17.721-1.359 9.796-7.117 7.925 5.758 13.537-11.516 3.742-11.516 9.796 0 4.183-17.273-3.742-11.516 7.925-5.757-6.769-16.433-9.796-7.117z" fill="#fab000"/></g><g fill="#603913"><g><path d="m215.693 135.704c-3.507-4.571-8.509-6.907-14.411-6.907-.031 0-.062 0-.093 0 4.219-4.184 6.128-9.398 5.372-15.141-1.297-9.851-10.366-18.92-20.217-20.217-5.743-.754-10.957 1.153-15.141 5.372.025-5.942-2.313-10.979-6.907-14.504-7.883-6.049-20.709-6.049-28.592 0-4.595 3.525-6.932 8.562-6.907 14.504-4.184-4.219-9.396-6.13-15.141-5.372-9.851 1.297-18.92 10.366-20.217 20.217-.756 5.742 1.152 10.957 5.372 15.141-.031 0-.063 0-.093 0-5.901 0-10.904 2.337-14.411 6.907-6.049 7.883-6.049 20.709 0 28.592 3.507 4.571 8.509 6.908 14.411 6.907h.093c-4.219 4.184-6.128 9.398-5.372 15.141 1.297 9.851 10.366 18.92 20.217 20.217 5.746.757 10.957-1.152 15.141-5.372-.025 5.942 2.313 10.979 6.907 14.504 3.941 3.024 9.119 4.537 14.296 4.537s10.354-1.512 14.296-4.537c4.595-3.525 6.932-8.562 6.907-14.504 4.184 4.219 9.395 6.128 15.141 5.372 9.851-1.297 18.92-10.366 20.217-20.217.756-5.742-1.152-10.957-5.372-15.141h.093c5.901 0 10.904-2.337 14.411-6.907 6.049-7.883 6.049-20.709 0-28.592zm-3.173 26.157c-4.458 5.807-11.912 6.936-20.989 3.177-1.023-.425-2.191.062-2.613 1.082-.104.251-.153.512-.153.768.001.784.466 1.527 1.235 1.846 9.078 3.76 13.551 9.829 12.595 17.088-1.058 8.035-8.739 15.716-16.773 16.773-7.256.96-13.328-3.518-17.088-12.595-.422-1.021-1.592-1.507-2.613-1.083-.769.318-1.234 1.062-1.235 1.846 0 .256.049.516.153.768 3.76 9.078 2.632 16.532-3.177 20.989-6.43 4.934-17.292 4.934-23.722 0-5.809-4.457-6.937-11.911-3.177-20.989.104-.251.153-.512.153-.768-.001-.784-.466-1.527-1.235-1.846-1.023-.424-2.191.062-2.613 1.083-3.76 9.078-9.836 13.554-17.088 12.595-8.035-1.058-15.716-8.739-16.773-16.773-.956-7.259 3.517-13.328 12.595-17.088.77-.318 1.234-1.062 1.235-1.846 0-.256-.049-.516-.153-.768-.422-1.02-1.592-1.507-2.613-1.082-9.078 3.761-16.532 2.633-20.989-3.177-4.934-6.429-4.934-17.292 0-23.722 4.457-5.809 11.912-6.937 20.989-3.177 1.021.423 2.191-.063 2.613-1.082.104-.251.153-.512.153-.768-.001-.784-.466-1.527-1.235-1.846-9.078-3.76-13.551-9.829-12.595-17.088 1.058-8.035 8.739-15.716 16.773-16.773 7.265-.954 13.328 3.518 17.088 12.595.422 1.021 1.59 1.507 2.613 1.083.769-.318 1.234-1.062 1.235-1.846 0-.256-.049-.516-.153-.768-3.76-9.078-2.632-16.532 3.177-20.989 6.43-4.934 17.292-4.934 23.722 0 5.809 4.457 6.937 11.911 3.177 20.989-.104.251-.153.512-.153.768.001.784.466 1.527 1.235 1.846 1.021.424 2.191-.062 2.613-1.083 3.76-9.078 9.829-13.558 17.088-12.595 8.035 1.058 15.716 8.739 16.773 16.773.956 7.259-3.517 13.328-12.595 17.088-.77.318-1.234 1.062-1.235 1.846 0 .256.049.516.153.768.422 1.02 1.59 1.505 2.613 1.082 9.08-3.76 16.532-2.632 20.989 3.177 4.933 6.429 4.933 17.293 0 23.722z"/><path d="m172.899 136.596c-.879-.639-1.82-1.04-2.791-1.206.143-.974.052-1.993-.284-3.027-1.194-3.676-5.312-6.667-9.177-6.667-1.086 0-2.084.229-2.966.665-.457-.872-1.13-1.643-2.009-2.282-3.128-2.271-8.216-2.271-11.344 0-.879.639-1.552 1.41-2.009 2.282-.882-.437-1.879-.665-2.966-.665-3.865 0-7.982 2.991-9.177 6.667-.336 1.034-.427 2.053-.284 3.027-.97.166-1.912.567-2.791 1.206-3.127 2.272-4.7 7.112-3.505 10.788.335 1.034.861 1.912 1.549 2.616-.688.704-1.213 1.582-1.549 2.616-1.195 3.676.378 8.516 3.505 10.788.879.639 1.82 1.04 2.791 1.206-.143.974-.052 1.993.284 3.027 1.194 3.676 5.312 6.667 9.177 6.667 1.086 0 2.084-.229 2.966-.665.457.872 1.13 1.643 2.009 2.282 1.564 1.136 3.618 1.704 5.672 1.704s4.108-.568 5.672-1.704c.879-.639 1.552-1.41 2.009-2.282.882.437 1.879.665 2.966.665 3.865 0 7.982-2.991 9.177-6.667.336-1.034.427-2.053.284-3.027.97-.166 1.912-.567 2.791-1.206 3.127-2.272 4.7-7.112 3.505-10.788-.335-1.034-.861-1.912-1.549-2.616.688-.704 1.213-1.582 1.549-2.616 1.195-3.676-.378-8.516-3.505-10.788zm-3.307 15.404c2.157 0 2.75 1.057 3.008 1.852.652 2.006-.345 5.076-2.052 6.316-.676.491-1.777.998-3.521-.271-.014-.01-.028-.02-.042-.029-.345-.238-.74-.353-1.132-.353-.618 0-1.228.286-1.62.824-.258.355-.382.767-.382 1.175 0 .618.286 1.228.824 1.619 1.745 1.268 1.604 2.471 1.345 3.266-.652 2.006-3.263 3.904-5.373 3.904-.836 0-2.024-.237-2.69-2.289-.342-1.051-1.472-1.625-2.521-1.284-.845.275-1.382 1.059-1.382 1.902 0 .205.032.413.098.618.667 2.051-.155 2.942-.832 3.433-1.706 1.24-4.935 1.24-6.641 0-.676-.491-1.499-1.382-.832-3.433.066-.206.098-.414.098-.618 0-.843-.537-1.627-1.382-1.902-1.05-.337-2.178.233-2.521 1.284-.667 2.052-1.854 2.289-2.69 2.289-2.109 0-4.721-1.897-5.373-3.904-.258-.795-.4-1.999 1.345-3.266.538-.391.824-1.001.824-1.619 0-.408-.124-.819-.382-1.175-.392-.539-1.001-.824-1.62-.824-.366 0-.736.1-1.064.308-.037.023-.074.048-.11.074-1.744 1.268-2.846.761-3.521.271-1.707-1.24-2.705-4.31-2.052-6.316.258-.795.851-1.852 3.008-1.852 1.104 0 2-.896 2-2s-.896-2-2-2c-2.157 0-2.75-1.057-3.008-1.852-.652-2.006.345-5.076 2.052-6.316.676-.491 1.778-.997 3.521.271.894.65 2.144.452 2.794-.442.258-.355.382-.767.382-1.175 0-.618-.286-1.228-.824-1.619-1.745-1.268-1.604-2.471-1.345-3.266.652-2.006 3.263-3.904 5.373-3.904.836 0 2.024.237 2.69 2.289.342 1.05 1.47 1.624 2.521 1.284.845-.275 1.382-1.059 1.382-1.902 0-.205-.032-.413-.098-.618-.667-2.051.155-2.942.832-3.433 1.706-1.24 4.935-1.24 6.641 0 .676.491 1.499 1.382.832 3.433-.066.206-.098.414-.098.618 0 .843.537 1.627 1.382 1.902 1.052.341 2.179-.233 2.521-1.284.667-2.052 1.854-2.289 2.69-2.289 2.109 0 4.721 1.897 5.373 3.904.258.795.4 1.999-1.345 3.266-.538.391-.824 1.001-.824 1.619 0 .408.124.819.382 1.175.001.001.001.002.002.003.392.537 1 .821 1.617.821.408 0 .819-.124 1.174-.382 1.743-1.269 2.845-.762 3.521-.271 1.707 1.24 2.705 4.31 2.052 6.316-.258.795-.851 1.852-3.008 1.852-1.104 0-2 .896-2 2s.896 2 2.001 2z"/><ellipse cx="150" cy="150" rx="8.906" ry="8.906" transform="matrix(.998 -.071 .071 .998 -10.256 11.011)"/></g><path d="m150 160.906c-6.014 0-10.906-4.892-10.906-10.906s4.892-10.906 10.906-10.906 10.906 4.892 10.906 10.906-4.892 10.906-10.906 10.906zm0-17.812c-3.808 0-6.906 3.098-6.906 6.906s3.098 6.906 6.906 6.906 6.906-3.098 6.906-6.906-3.098-6.906-6.906-6.906z"/></g></g></svg>