<svg id="Layer_3" enable-background="new 0 0 300 300" viewBox="0 0 300 300" xmlns="http://www.w3.org/2000/svg"><g><g><path d="m191.41 149.854c-7.26 1.59-14.49 1.22-21.11-.76-4.23-1.26-8.22-3.17-11.82-5.65-1.87 2.34-3.99 4.5-6.34 6.4-4.98 4.05-10.97 7.04-17.69 8.51-22.59 4.94-44.85-9.09-49.71-31.33-2.57-11.72.21-23.39 6.71-32.52-7.35-5.7-12.82-13.85-14.95-23.6-4.87-22.25 9.49-44.29 32.09-49.23 11.9-2.6 23.7.06 32.93 6.42 5.82-7.3 14.14-12.74 24.04-14.9 22.58-4.94 44.84 9.09 49.71 31.33 2.56 11.71-.22 23.38-6.73 32.52 7.36 5.68 12.83 13.84 14.96 23.59 4.87 22.24-9.49 44.28-32.09 49.22z" fill="#c2c3dc"/><circle cx="150.001" cy="85.77" fill="#ffcc3e" r="33.536"/><path d="m164.41 273.984c.45 1.19.66 2.4.66 3.59 0 4.57-3.12 8.8-7.87 9.94-5.53 1.32-11.03-2.13-12.35-7.66-3.72-15.58-3.24-30.05-.96-43.39h-.01c-25.97-11.38-31.89-28.93-24.25-50.19 12.06 2.11 21.93 11.49 28.86 30.56 8.15-28.39 19.42-50.74 3.65-66.99 2.35-1.9 4.47-4.06 6.34-6.4 3.6 2.48 7.59 4.39 11.82 5.65 18.86 47.91-24.14 76.58-5.89 124.89z" fill="#5a9134"/></g><g fill="#603913"><path d="m150 50.234c-19.594 0-35.536 15.941-35.536 35.536 0 19.594 15.941 35.535 35.536 35.535s35.536-15.941 35.536-35.535c.001-19.594-15.941-35.536-35.536-35.536zm0 67.072c-17.389 0-31.536-14.146-31.536-31.535s14.148-31.537 31.536-31.537c17.389 0 31.536 14.147 31.536 31.536s-14.146 31.536-31.536 31.536z"/><path d="m225.454 100.207c-2.007-9.188-7.031-17.487-14.225-23.562 6.25-9.634 8.435-21.389 5.995-32.549-5.1-23.286-28.468-38.023-52.09-32.856-9.34 2.038-17.798 7.055-24.007 14.201-9.725-6.111-21.634-8.197-32.964-5.722-11.446 2.502-21.246 9.245-27.594 18.986-6.354 9.75-8.493 21.337-6.022 32.625 2.003 9.169 7.024 17.471 14.218 23.568-6.246 9.633-8.425 21.391-5.978 32.552 2.466 11.284 9.247 20.916 19.094 27.122 7.094 4.472 15.167 6.777 23.409 6.777 3.187 0 6.399-.345 9.589-1.042 6.247-1.368 11.96-3.985 17.02-7.76 10.739 12.534 5.485 29.135-1.111 49.966-.85 2.684-1.717 5.423-2.574 8.226-6.756-15.452-16.239-24.337-28.238-26.436-.959-.17-1.898.378-2.227 1.293-8.408 23.399-.36 40.91 23.917 52.064-2.408 15.119-2 29.089 1.24 42.656.763 3.195 2.71 5.905 5.485 7.633 1.959 1.219 4.169 1.846 6.418 1.846.951 0 1.909-.111 2.859-.339 5.536-1.328 9.403-6.215 9.403-11.884 0-1.467-.266-2.912-.789-4.297-8.847-23.418-3.023-41.71 3.143-61.076 5.828-18.306 11.835-37.209 4.031-60.275 6.023 1.234 12.304 1.214 18.382-.117 11.445-2.502 21.245-9.244 27.594-18.985 6.354-9.747 8.493-21.331 6.022-32.615zm-59.841 110.78c-6.102 19.166-12.412 38.984-3.074 63.704.352.932.53 1.901.53 2.883 0 3.813-2.605 7.1-6.334 7.994-2.147.512-4.36.151-6.233-1.014-1.875-1.167-3.191-3.001-3.708-5.165-3.221-13.49-3.527-27.421-.934-42.589.1-.581-.067-1.176-.448-1.627-.212-.251-.482-.443-.781-.563-22.801-10.009-30.563-25.076-23.684-46.022 11.159 2.668 19.565 12.153 25.662 28.929.296.815 1.085 1.338 1.949 1.316.866-.03 1.614-.614 1.854-1.447 1.354-4.714 2.794-9.264 4.187-13.663 6.696-21.144 12.511-39.507.411-53.696.076-.068.148-.145.224-.213.51-.463 1.009-.941 1.5-1.432.157-.157.313-.313.467-.473.57-.588 1.131-1.187 1.672-1.811.809.509 1.636.987 2.475 1.442.282.153.573.287.858.433.565.29 1.13.579 1.707.844.346.159.699.3 1.049.45.531.227 1.062.454 1.602.66.373.143.752.271 1.129.403.364.128.723.271 1.091.389 8.709 22.953 2.936 41.087-3.171 60.268zm50.468-80.347c-5.771 8.854-14.685 14.984-25.098 17.261-6.683 1.464-13.637 1.214-20.112-.724-4.027-1.199-7.815-3.01-11.256-5.38-.864-.594-2.042-.42-2.697.398-1.82 2.278-3.851 4.328-6.04 6.097-4.932 4.013-10.603 6.74-16.855 8.108-10.409 2.279-21.067.427-30.01-5.211-8.933-5.63-15.083-14.363-17.319-24.594-2.34-10.671-.013-21.945 6.386-30.932.622-.874.444-2.083-.404-2.74-7.235-5.611-12.286-13.583-14.222-22.447-2.24-10.234-.299-20.741 5.466-29.587 5.771-8.855 14.685-14.985 25.097-17.262 2.845-.622 5.729-.927 8.6-.927 8.085 0 16.068 2.423 22.769 7.039.867.598 2.044.423 2.699-.399 5.723-7.179 13.856-12.219 22.903-14.192 21.475-4.701 42.702 8.673 47.329 29.803 2.332 10.669-.002 21.943-6.405 30.933-.624.875-.444 2.087.407 2.743 7.234 5.583 12.287 13.55 14.228 22.435 2.24 10.229.298 20.734-5.466 29.578z"/></g></g></svg>