<svg id="Layer_3" enable-background="new 0 0 300 300" viewBox="0 0 300 300" xmlns="http://www.w3.org/2000/svg"><g><g><path d="m204.663 119.735c-2.62 4.53-7.38 7.11-12.36 7.11-1.65 0-3.33-.28-4.96-.88-4.48-1.62-8.74-3.53-12.77-5.77-.42-.23-.83-.46-1.24-.7-3-1.74-5.87-3.66-8.59-5.78.49 3.41.72 6.86.72 10.34 0 3.25-.21 6.52-.59 9.81-.22 1.85-.49 3.71-.82 5.57-1.22 6.86-7.11 11.89-14.06 11.89-3.48 0-6.68-1.26-9.18-3.37-2.49-2.13-4.27-5.1-4.87-8.53-.91-5.17-1.41-10.3-1.41-15.37 0-3.49.24-6.93.73-10.35-2.72 2.13-5.58 4.05-8.6 5.79-4.39 2.54-9.08 4.68-14.02 6.47-6.53 2.38-13.83-.21-17.31-6.24-1.28-2.22-1.89-4.66-1.89-7.08 0-4.15 1.79-8.22 5.15-11.04 4.02-3.38 8.22-6.37 12.61-8.91 3.01-1.74 6.11-3.27 9.32-4.55-3.2-1.29-6.31-2.81-9.32-4.55-4.39-2.54-8.59-5.53-12.61-8.91-5.32-4.48-6.73-12.1-3.26-18.13 2.62-4.53 7.39-7.12 12.37-7.12 1.65 0 3.33.28 4.95.88 4.94 1.8 9.62 3.94 14.01 6.47 3.02 1.74 5.88 3.67 8.6 5.81-.49-3.43-.73-6.88-.73-10.35 0-5.08.5-10.21 1.42-15.39 1.21-6.86 7.1-11.89 14.05-11.89 3.47 0 6.69 1.26 9.19 3.37 2.49 2.12 4.26 5.1 4.86 8.53.91 5.17 1.41 10.3 1.41 15.38 0 3.46-.23 6.92-.72 10.34 2.72-2.14 5.59-4.06 8.59-5.8 4.39-2.53 9.08-4.67 14.02-6.47 6.54-2.38 13.84.21 17.31 6.24 1.28 2.23 1.9 4.68 1.9 7.11 0 4.13-1.8 8.2-5.16 11.03-4.02 3.37-8.22 6.36-12.61 8.9-3.02 1.74-6.11 3.26-9.32 4.55 3.2 1.28 6.3 2.81 9.32 4.55 4.4 2.54 8.59 5.53 12.61 8.92 5.32 4.47 6.74 12.1 3.26 18.12z" fill="#f49788"/><path d="m179.077 104.951c-1.391 2.408-3.926 3.781-6.574 3.781-.876 0-1.772-.149-2.639-.466-2.624-.956-5.114-2.091-7.45-3.444-1.599-.927-3.124-1.947-4.569-3.077.257 1.819.381 3.652.381 5.5 0 2.701-.262 5.431-.748 8.186-.649 3.647-3.782 6.323-7.48 6.323-1.851 0-3.554-.669-4.881-1.794-1.327-1.13-2.272-2.71-2.594-4.534-.485-2.755-.748-5.48-.748-8.181 0-1.853.124-3.686.386-5.505-1.446 1.135-2.97 2.155-4.574 3.082-2.337 1.353-4.832 2.487-7.455 3.444-3.475 1.264-7.361-.114-9.208-3.32-.683-1.184-1.01-2.482-1.01-3.771 0-2.205.955-4.37 2.743-5.872 2.139-1.799 4.371-3.389 6.708-4.737 1.599-.927 3.247-1.739 4.955-2.423-1.703-.684-3.356-1.491-4.955-2.418-2.337-1.353-4.569-2.943-6.708-4.742-2.832-2.383-3.579-6.437-1.733-9.642 1.391-2.408 3.931-3.786 6.579-3.786.876 0 1.767.149 2.634.466 2.624.956 5.114 2.096 7.45 3.444 1.604.927 3.129 1.952 4.574 3.087-.262-1.823-.386-3.657-.386-5.505 0-2.701.262-5.431.752-8.186.644-3.647 3.777-6.323 7.475-6.323 1.847 0 3.559.669 4.886 1.794s2.267 2.71 2.589 4.534c.485 2.75.748 5.48.748 8.181 0 1.843-.124 3.682-.381 5.5 1.446-1.135 2.97-2.155 4.569-3.082 2.337-1.348 4.832-2.487 7.455-3.444 3.48-1.264 7.361.114 9.208 3.32.683 1.184 1.015 2.487 1.015 3.781 0 2.2-.96 4.365-2.747 5.867-2.139 1.794-4.371 3.384-6.708 4.737-1.604.927-3.247 1.734-4.955 2.418 1.703.684 3.351 1.496 4.955 2.423 2.342 1.348 4.569 2.943 6.708 4.742 2.832 2.378 3.584 6.436 1.733 9.642z" fill="#fff"/><circle cx="150.003" cy="88.146" fill="#ffd42b" r="11.247"/><path d="m164.593 266.715c.23.68.34 1.37.34 2.04 0 3.34-2.71 6.28-6.3 6.28-2.72 0-5.14-1.75-5.98-4.34-11.01-33.9-10.18-54.9-5.65-71.1-45.22-35.56 1.59-59.34 5.32-14.62 6.89-15.85 15.08-28.9 12.55-51.11.38-3.29.59-6.56.59-9.81 0-3.48-.23-6.93-.72-10.34 2.72 2.12 5.59 4.04 8.59 5.78.41.24.82.47 1.24.7 18.5 57.1-37.07 68.01-9.98 146.52z" fill="#5a9134"/></g><g fill="#603913"><path d="m178.632 93.778c-2.292-1.928-4.647-3.591-6.995-4.943-.411-.237-.824-.467-1.239-.689.416-.222.83-.452 1.241-.689 2.372-1.374 4.724-3.035 6.992-4.937 2.2-1.847 3.461-4.543 3.461-7.398 0-1.673-.443-3.326-1.282-4.778-2.325-4.036-7.214-5.805-11.625-4.201-2.786 1.015-5.399 2.223-7.773 3.592-.408.237-.812.479-1.208.727.016-.47.023-.942.023-1.414 0-2.731-.262-5.6-.778-8.528-.394-2.233-1.554-4.261-3.266-5.711-1.725-1.463-3.919-2.269-6.179-2.269-4.657 0-8.629 3.354-9.444 7.972-.52 2.921-.783 5.793-.783 8.536 0 .473.008.944.023 1.414-.399-.249-.803-.492-1.212-.728-2.377-1.371-4.99-2.579-7.762-3.589-1.064-.39-2.182-.588-3.321-.588-3.421 0-6.606 1.833-8.313 4.788-2.324 4.034-1.408 9.152 2.178 12.171 2.262 1.902 4.615 3.565 6.993 4.942.408.237.822.467 1.238.689-.414.222-.826.451-1.235.688-2.372 1.367-4.725 3.029-6.996 4.938-2.196 1.845-3.456 4.543-3.456 7.403 0 1.672.442 3.322 1.277 4.769 2.326 4.038 7.214 5.805 11.625 4.201 2.809-1.023 5.424-2.232 7.771-3.591.409-.236.813-.479 1.211-.727-.016.471-.023.944-.023 1.418 0 2.729.262 5.598.778 8.528.392 2.221 1.552 4.249 3.27 5.711 1.725 1.462 3.917 2.268 6.175 2.268 4.654 0 8.628-3.353 9.45-7.976.516-2.933.778-5.804.778-8.532 0-.474-.008-.947-.024-1.419.398.248.801.49 1.209.727 2.354 1.363 4.967 2.571 7.765 3.591 1.065.39 2.184.588 3.326.588 3.42 0 6.603-1.832 8.306-4.78 2.332-4.037 1.416-9.157-2.176-12.174zm-1.287 10.173c-.991 1.715-2.846 2.781-4.842 2.781-.671 0-1.328-.116-1.954-.345-2.581-.941-4.98-2.049-7.132-3.295-1.54-.892-3-1.875-4.341-2.922-.642-.501-1.525-.564-2.232-.155-.706.408-1.094 1.204-.979 2.012.24 1.696.362 3.452.362 5.22 0 2.497-.241 5.134-.717 7.835-.481 2.708-2.799 4.672-5.511 4.672-1.311 0-2.585-.468-3.584-1.316-1.008-.859-1.69-2.051-1.921-3.358-.476-2.701-.717-5.337-.717-7.833 0-1.782.123-3.539.365-5.22.117-.809-.271-1.607-.979-2.017-.311-.18-.657-.269-1-.269-.439 0-.875.144-1.235.427-1.333 1.047-2.793 2.03-4.341 2.924-2.147 1.243-4.549 2.352-7.137 3.295-2.582.937-5.438-.088-6.792-2.44-.485-.841-.742-1.8-.742-2.771 0-1.675.74-3.257 2.03-4.341 2.092-1.759 4.251-3.285 6.424-4.537 1.542-.894 3.122-1.667 4.695-2.296.759-.304 1.256-1.039 1.257-1.855 0-.817-.496-1.553-1.254-1.857-1.604-.645-3.185-1.416-4.699-2.293-2.177-1.261-4.338-2.789-6.422-4.542-2.102-1.769-2.643-4.76-1.289-7.111.993-1.719 2.85-2.786 4.848-2.786.668 0 1.323.116 1.949.345 2.558.932 4.959 2.041 7.134 3.295 1.533.886 2.993 1.872 4.34 2.929.642.504 1.527.567 2.235.158s1.096-1.207.979-2.016c-.242-1.686-.365-3.442-.365-5.22 0-2.509.243-5.145.722-7.838.478-2.706 2.793-4.67 5.505-4.67 1.313 0 2.589.469 3.593 1.32 1.001.849 1.681 2.04 1.913 3.355.476 2.699.717 5.334.717 7.833 0 1.768-.122 3.524-.362 5.22-.114.809.274 1.605.981 2.013.708.407 1.592.344 2.234-.16 1.329-1.043 2.788-2.027 4.334-2.923 2.17-1.251 4.572-2.361 7.138-3.296 2.581-.938 5.439.087 6.793 2.439.489.847.747 1.809.747 2.781 0 1.67-.741 3.25-2.032 4.334-2.09 1.753-4.252 3.28-6.423 4.538-1.564.903-3.101 1.653-4.699 2.293-.759.304-1.256 1.039-1.256 1.855 0 .817.497 1.553 1.255 1.857 1.569.63 3.15 1.403 4.703 2.3 2.147 1.236 4.306 2.763 6.419 4.541 2.103 1.767 2.644 4.757 1.285 7.11z"/><path d="m150.003 74.899c-7.305 0-13.248 5.943-13.248 13.248s5.943 13.248 13.248 13.248 13.247-5.943 13.247-13.248-5.942-13.248-13.247-13.248zm0 22.495c-5.099 0-9.248-4.148-9.248-9.248s4.148-9.248 9.248-9.248c5.099 0 9.247 4.148 9.247 9.248s-4.148 9.248-9.247 9.248z"/><path d="m202.692 100.086c-4.183-3.527-8.523-6.597-12.901-9.125-1.775-1.022-3.562-1.964-5.347-2.817 1.786-.852 3.559-1.787 5.35-2.819 4.369-2.528 8.707-5.589 12.896-9.102 3.732-3.143 5.872-7.721 5.872-12.56 0-2.834-.749-5.638-2.167-8.107-3.942-6.852-12.238-9.848-19.729-7.122-5.15 1.877-9.973 4.103-14.338 6.619-1.764 1.022-3.469 2.1-5.101 3.222.156-1.984.234-4 .234-6.032 0-5.006-.485-10.297-1.44-15.725-.663-3.786-2.627-7.234-5.54-9.714-2.936-2.478-6.657-3.842-10.48-3.842-7.898 0-14.636 5.695-16.02 13.541-.962 5.42-1.451 10.716-1.451 15.74 0 2.015.081 4.031.24 6.033-1.655-1.141-3.364-2.219-5.111-3.226-4.372-2.52-9.191-4.746-14.314-6.613-1.799-.667-3.699-1.004-5.645-1.004-5.802 0-11.205 3.111-14.103 8.123-3.939 6.845-2.381 15.532 3.706 20.658 4.173 3.509 8.512 6.574 12.896 9.111 1.747 1.009 3.535 1.95 5.349 2.815-1.789.854-3.578 1.797-5.349 2.822-4.383 2.536-8.722 5.602-12.894 9.109-3.727 3.127-5.864 7.71-5.864 12.572 0 2.838.746 5.631 2.158 8.08 3.955 6.852 12.25 9.845 19.723 7.121 5.15-1.866 9.975-4.093 14.337-6.617 1.753-1.01 3.462-2.086 5.112-3.219-.16 2.002-.24 4.024-.24 6.046 0 4.999.485 10.287 1.44 15.715.659 3.766 2.626 7.213 5.55 9.713 2.936 2.478 6.654 3.842 10.47 3.842 5.356 0 10.177-2.627 13.161-6.765-.908 11.85-5.135 21.079-9.552 30.706-.094.206-.189.413-.284.62-2.677-12.589-9.229-18.201-15.057-19.181-5.02-.843-9.598 1.641-11.672 6.33-3.279 7.413-.175 20.517 18.139 35.305-5.268 20.013-3.394 41.982 6.022 70.972 1.11 3.423 4.278 5.723 7.882 5.723 4.577 0 8.3-3.714 8.3-8.28 0-.905-.15-1.807-.445-2.681-.001-.004-.002-.007-.004-.011-14.463-41.916-5.152-63.766 3.851-84.897 7.184-16.86 13.986-32.843 7.481-57.055 2.823 1.366 5.772 2.623 8.836 3.731 1.809.666 3.71 1.003 5.651 1.003 5.799 0 11.199-3.107 14.091-8.109 3.957-6.839 2.4-15.525-3.699-20.649zm-36.037 79.512c-8.867 20.81-18.916 44.397-3.955 87.763.155.458.233.927.233 1.394 0 2.36-1.929 4.28-4.3 4.28-1.865 0-3.504-1.188-4.078-2.958-9.359-28.817-11.095-50.389-5.626-69.944.217-.778-.055-1.611-.69-2.111-17.452-13.724-20.599-25.476-17.992-31.37 1.155-2.61 3.427-4.11 6.101-4.11.408 0 .826.035 1.25.106 5.079.854 11.461 7.258 12.731 22.492.076.914.764 1.658 1.668 1.807.901.15 1.794-.335 2.159-1.176 1.009-2.321 2.063-4.618 3.082-6.838 6.066-13.221 11.796-25.712 9.647-45.067.049-.43.086-.855.128-1.282.038-.386.082-.774.116-1.157.043-.493.074-.979.109-1.468.025-.346.055-.696.076-1.039.032-.538.051-1.067.073-1.598.012-.287.03-.579.039-.865.025-.811.038-1.612.038-2.403 0-2.04-.079-4.062-.234-6.048 1.64 1.124 3.343 2.199 5.094 3.214.195.114.39.226.586.337 7.845 24.948.994 41.026-6.255 58.041zm36.276-60.864c-2.18 3.77-6.252 6.111-10.628 6.111-1.468 0-2.904-.255-4.28-.761-4.437-1.604-8.635-3.5-12.489-5.644-.403-.221-.797-.441-1.197-.675-2.968-1.722-5.782-3.615-8.364-5.628-.643-.501-1.526-.562-2.233-.152-.706.41-1.092 1.207-.976 2.015.464 3.23.7 6.614.7 10.056 0 .808-.016 1.63-.043 2.461-.076 2.302-.253 4.686-.534 7.12v.001c-.222 1.866-.492 3.699-.802 5.448-1.055 5.934-6.14 10.24-12.091 10.24-2.873 0-5.675-1.029-7.88-2.89-2.209-1.889-3.701-4.501-4.2-7.356-.916-5.202-1.38-10.256-1.38-15.023 0-3.391.239-6.778.71-10.066.116-.809-.272-1.606-.979-2.015-.312-.18-.657-.269-1.001-.269-.438 0-.874.144-1.233.425-2.602 2.038-5.417 3.933-8.369 5.634-4.162 2.408-8.771 4.535-13.704 6.322-5.648 2.059-11.911-.196-14.892-5.36-1.062-1.841-1.623-3.944-1.623-6.081 0-3.677 1.617-7.142 4.437-9.509 3.996-3.359 8.142-6.29 12.324-8.709 3.003-1.736 6.052-3.224 9.06-4.423.759-.303 1.258-1.037 1.259-1.854s-.494-1.553-1.252-1.859c-3.089-1.245-6.14-2.734-9.066-4.426-4.182-2.42-8.329-5.351-12.323-8.709-4.603-3.876-5.787-10.438-2.816-15.599 2.183-3.775 6.26-6.121 10.638-6.121 1.471 0 2.902.254 4.265.759 4.917 1.792 9.524 3.919 13.696 6.324 2.93 1.688 5.744 3.588 8.362 5.649.644.506 1.528.569 2.236.161s1.096-1.207.981-2.016c-.471-3.299-.71-6.687-.71-10.067 0-4.79.467-9.85 1.39-15.043 1.046-5.932 6.127-10.237 12.081-10.237 2.879 0 5.685 1.029 7.893 2.893 2.198 1.871 3.685 4.482 4.187 7.354.916 5.201 1.38 10.259 1.38 15.033 0 3.433-.235 6.816-.7 10.056-.116.809.272 1.607.98 2.016.709.409 1.593.344 2.236-.161 2.551-2.007 5.362-3.905 8.353-5.639 4.16-2.398 8.771-4.526 13.705-6.324 5.657-2.06 11.921.194 14.892 5.356 1.069 1.863 1.635 3.978 1.635 6.114 0 3.657-1.622 7.119-4.445 9.497-4.01 3.361-8.157 6.289-12.324 8.7-3.024 1.742-5.99 3.19-9.067 4.427-.758.305-1.255 1.041-1.254 1.857 0 .817.499 1.552 1.257 1.855 2.999 1.199 6.048 2.688 9.063 4.425 4.172 2.409 8.318 5.342 12.323 8.72 4.61 3.874 5.793 10.43 2.812 15.587z"/></g></g></svg>