<svg id="Layer_3" enable-background="new 0 0 300 300" viewBox="0 0 300 300" xmlns="http://www.w3.org/2000/svg"><g><g><path d="m196.436 171.197c-7.417.307-14.569-.473-21.015-1.976 3.813 5.202 7.304 11.418 9.967 18.584 4.844 13.045 3.836 25.44-2.237 27.693-4.768 1.775-11.249-3.235-16.16-11.785 1.862 9.683.218 17.707-4.55 19.482-6.073 2.252-14.929-6.491-19.767-19.525-2.585-6.96-4.052-14.005-4.618-20.604-3.771 5.24-8.608 10.482-14.603 15.226-10.901 8.64-23.006 11.509-27.029 6.433-3.154-3.991-.396-11.704 6.22-19.014-8.637 4.77-16.775 5.679-19.932 1.697-4.02-5.086 1.551-16.205 12.458-24.833 5.813-4.611 12.06-8.18 18.158-10.764-6.144-1.961-12.621-4.945-18.991-9.177-11.578-7.704-18.051-18.318-14.468-23.718 2.822-4.237 11.007-4 20.008.039-7.199-6.74-10.585-14.196-7.772-18.435 3.592-5.397 15.891-3.525 27.471 4.17 6.172 4.109 11.503 8.942 15.846 13.944-.026-6.448.802-13.528 2.86-20.884 3.747-13.392 11.841-22.836 18.084-21.09 4.904 1.372 7.2 9.229 6.151 19.037 4.184-8.931 10.223-14.456 15.127-13.084 6.242 1.746 8.261 14.02 4.514 27.412-1.995 7.132-4.945 13.696-8.353 19.367 6.123-2.016 13.109-3.412 20.742-3.727 13.895-.578 25.377 4.214 25.65 10.682.211 5.095-6.552 9.711-16.203 11.737 9.78 1.216 16.903 5.252 17.114 10.347.276 6.468-10.777 12.189-24.672 12.766z" fill="#f49788"/><path d="m155.333 140.238c13.416-13.124-14.447-20.919-9.79-2.739-4.658-18.18-25.34 2.052-7.267 7.109-18.073-5.056-10.893 22.971 2.523 9.848-13.416 13.124 14.447 20.919 9.79 2.739 4.658 18.18 25.34-2.052 7.267-7.109 18.073 5.056 10.892-22.971-2.523-9.848z" fill="#fdd13d"/><circle cx="148.066" cy="147.347" fill="#ea5766" r="6.464"/></g><g fill="#603913"><path d="m211.899 147.755c6.61-2.784 10.486-6.958 10.299-11.493-.324-7.696-12.521-13.224-27.729-12.596-5.639.233-11.177 1.048-16.522 2.428 2.579-4.953 4.638-10.158 6.142-15.531 4.106-14.678 1.514-27.802-5.901-29.877-4.361-1.218-9.316 1.598-13.54 7.399-.605-7.152-3.375-12.131-7.738-13.351-7.419-2.082-16.442 7.798-20.549 22.477-1.52 5.432-2.454 10.951-2.792 16.465-3.912-3.983-8.229-7.554-12.882-10.652-12.691-8.434-25.978-10.02-30.243-3.61-2.506 3.775-1.354 9.352 2.853 15.16-6.984-1.637-12.574-.54-15.089 3.237-4.257 6.415 2.344 18.05 15.027 26.49 4.717 3.134 9.68 5.73 14.803 7.748-5.015 2.497-9.743 5.499-14.105 8.959-11.949 9.453-17.565 21.595-12.784 27.644 2.816 3.553 8.475 4.181 15.297 1.973-3.711 6.135-4.397 11.788-1.586 15.345 2.456 3.1 7.063 4.034 12.965 2.631 5.387-1.28 11.38-4.384 16.873-8.737 4.431-3.506 8.434-7.423 11.946-11.684.819 5.523 2.212 10.949 4.158 16.189 4.68 12.607 12.869 21.171 19.693 21.17.91 0 1.796-.152 2.646-.467 4.248-1.582 6.595-6.772 6.604-13.945 4.691 5.431 9.855 7.828 14.103 6.249 3.709-1.375 6.021-5.464 6.511-11.513.446-5.517-.652-12.176-3.094-18.752-1.966-5.29-4.454-10.304-7.42-14.961 5.499.927 11.087 1.281 16.676 1.048 7.005-.291 13.57-1.852 18.487-4.396 5.392-2.791 8.27-6.502 8.103-10.451-.19-4.536-4.396-8.372-11.212-10.596zm1.268 17.492c-4.408 2.281-10.38 3.685-16.814 3.952-6.889.285-13.776-.363-20.478-1.926-.818-.191-1.661.147-2.123.845-.461.698-.438 1.61.056 2.285 4.011 5.473 7.276 11.562 9.705 18.099 2.242 6.04 3.257 12.089 2.856 17.036-.352 4.346-1.778 7.293-3.917 8.086-3.562 1.328-9.336-3.26-13.727-10.906-.486-.847-1.512-1.219-2.431-.879-.916.34-1.452 1.293-1.268 2.253 1.665 8.655.283 15.901-3.281 17.229-4.313 1.597-12.442-5.538-17.196-18.346-2.398-6.457-3.912-13.212-4.5-20.078-.072-.833-.654-1.535-1.461-1.757-.177-.048-.355-.072-.532-.072-.633 0-1.241.301-1.623.832-3.962 5.505-8.746 10.494-14.222 14.827-5.046 3.999-10.484 6.833-15.314 7.981-4.244 1.009-7.49.563-8.903-1.222-2.36-2.986.22-9.897 6.134-16.432.656-.725.692-1.818.085-2.584-.606-.766-1.678-.98-2.534-.509-7.718 4.262-15.033 5.188-17.396 2.208-2.859-3.617 1.419-13.551 12.132-22.026 5.369-4.259 11.323-7.789 17.695-10.49.771-.326 1.256-1.098 1.218-1.933-.039-.836-.593-1.559-1.39-1.813-6.436-2.054-12.657-5.062-18.49-8.937-11.369-7.565-16.455-17.111-13.912-20.944 2.114-3.17 9.48-2.854 17.525.754.889.4 1.942.097 2.483-.717.542-.814.415-1.9-.298-2.568-6.435-6.024-9.577-12.698-7.474-15.867 2.551-3.832 13.322-2.832 24.697 4.727 5.73 3.816 10.928 8.389 15.445 13.591.548.632 1.434.855 2.214.561.782-.294 1.299-1.044 1.296-1.88-.027-6.788.909-13.63 2.785-20.337 3.682-13.156 11.191-20.94 15.619-19.702 3.662 1.024 5.64 8.131 4.701 16.898-.104.972.509 1.876 1.45 2.139.943.264 1.936-.193 2.35-1.078 3.737-7.981 9.109-13.035 12.777-12.007 4.434 1.24 6.808 11.791 3.128 24.947-1.853 6.618-4.592 12.968-8.142 18.875-.431.716-.37 1.625.151 2.278s1.397.912 2.188.652c6.44-2.12 13.236-3.341 20.2-3.628 13.645-.565 23.374 4.166 23.568 8.766.157 3.809-5.989 7.887-14.616 9.697-.956.201-1.628 1.064-1.587 2.041.04.977.781 1.781 1.751 1.902 8.744 1.087 15.204 4.639 15.362 8.447.099 2.272-2.068 4.725-5.942 6.73z"/><path d="m166.729 136.144c-1.021-.731-3.063-1.802-5.843-1.338.525-2.768-.501-4.835-1.21-5.872-2.485-3.633-7.974-5.168-11.981-3.352-1.144.518-3.093 1.752-4.081 4.391-2.135-1.839-4.44-1.98-5.689-1.888-4.389.335-8.462 4.319-8.894 8.7-.123 1.25-.028 3.555 1.763 5.73-2.659.93-3.937 2.852-4.479 3.984-1.904 3.968-.49 9.487 3.088 12.052 1.021.732 3.063 1.803 5.843 1.338-.525 2.768.501 4.835 1.21 5.872 1.773 2.593 5.075 4.117 8.279 4.117 1.284 0 2.554-.246 3.701-.765 1.145-.519 3.094-1.752 4.081-4.391 2.136 1.838 4.434 1.981 5.69 1.888 4.389-.335 8.461-4.319 8.893-8.7.124-1.25.029-3.555-1.762-5.73 2.659-.93 3.937-2.852 4.479-3.983 1.905-3.97.491-9.489-3.088-12.053zm-17.383-6.918c2.272-1.029 5.621-.092 7.029 1.966 1.864 2.726-.729 5.942-2.44 7.617-.4.392-.602.91-.602 1.429 0 .191.036.379.09.564-1.46-1.198-3.326-1.918-5.358-1.918-.414 0-.818.04-1.217.098.424-.375.695-.903.695-1.481 0-.164-.02-.331-.063-.497-.594-2.321-1.142-6.416 1.866-7.778zm-1.281 22.585c-2.461 0-4.463-2.002-4.463-4.464 0-2.461 2.002-4.463 4.463-4.463s4.464 2.002 4.464 4.463-2.003 4.464-4.464 4.464zm-15.052-14.634c.244-2.481 2.73-4.914 5.217-5.104 3.31-.247 4.781 3.603 5.376 5.923.191.743.778 1.273 1.476 1.441-2.216.839-3.989 2.578-4.87 4.773-.147-.709-.651-1.32-1.397-1.528-2.306-.645-6.127-2.219-5.802-5.505zm-1.281 18.122c-2.027-1.452-2.891-4.822-1.812-7.07 1.429-2.976 5.511-2.339 7.816-1.694.739.206 1.493-.039 1.987-.56-.073.448-.122.904-.122 1.373 0 1.967.68 3.775 1.81 5.214-.685-.221-1.464-.073-2.013.465-1.71 1.674-4.981 4.197-7.666 2.272zm15.053 10.169c-2.272 1.03-5.622.091-7.028-1.966-1.864-2.726.729-5.942 2.44-7.617.4-.392.602-.91.602-1.429 0-.191-.036-.379-.09-.564 1.46 1.197 3.326 1.918 5.357 1.918.415 0 .819-.04 1.218-.098-.424.375-.695.903-.695 1.481 0 .164.02.331.063.497.594 2.321 1.142 6.416-1.867 7.778zm16.334-7.951c-.244 2.481-2.731 4.914-5.218 5.104-3.266.249-4.78-3.603-5.375-5.922-.19-.744-.779-1.274-1.478-1.441 2.217-.839 3.991-2.578 4.872-4.774.147.709.651 1.32 1.397 1.529 2.306.644 6.126 2.217 5.802 5.504zm3.092-11.052c-1.427 2.976-5.51 2.34-7.816 1.694-.742-.208-1.494.036-1.986.557.073-.447.121-.903.121-1.37 0-1.967-.681-3.775-1.811-5.214.684.221 1.464.073 2.013-.464 1.712-1.674 4.986-4.196 7.668-2.273 2.027 1.452 2.89 4.822 1.811 7.07z"/></g></g></svg>