<svg id="Layer_3" enable-background="new 0 0 300 300" viewBox="0 0 300 300" xmlns="http://www.w3.org/2000/svg"><g><g><g fill="#e94416"><path d="m175.981 75.855c5.72 17.55-4.69 37.3-23.21 41.42v.01c-2.29.51-4.69.78-7.21.78-2.12 0-4.17-.2-6.14-.58-18.76-3.61-30.27-23.45-24.29-41.63-13.13-22.82 9.45-28.53 15.85-14.36 2.47-10.71 9.83-16.71 14.58-16.71 4.74 0 12.1 6 14.57 16.71 6.4-14.17 28.98-8.46 15.85 14.36z"/><path d="m111.761 147.065c-1.45 3.4-3.82 6.46-7.18 8.81-.97.68-1.97 1.26-3 1.74-12.39 5.88-28.2-2.03-32.86-16.11-17.5-9.1-7.14-21.68 2.73-15.33-3.29-7.71-1.73-14.41.98-16.3 2.7-1.89 9.52-1.05 15.63 4.69-2.57-11.45 12.8-16.86 15.33 2.69 9.15 7.28 12.57 20.01 8.37 29.81z"/><path d="m231.281 124.875c-4.7 14.21-20.76 22.13-33.2 15.94-.91-.44-1.8-.97-2.66-1.57-2.87-2.01-5.02-4.53-6.48-7.34-5.23-9.97-1.94-23.62 7.66-31.27 2.53-19.56 17.91-14.15 15.34-2.7 6.1-5.74 12.93-6.57 15.63-4.69 2.71 1.9 4.27 8.59.98 16.3 9.86-6.34 20.23 6.23 2.73 15.33z"/></g><path d="m150.472 255.215c-5.216 0-9.461-4.195-9.524-9.41l-.057-4.74c-.17-29.03-15.69-56.62-39.31-83.45 1.03-.48 2.03-1.06 3-1.74 3.36-2.35 5.73-5.41 7.18-8.81 11.99 11.72 21.49 25.48 28.5 41.29l-.84-70.85v-.02c1.97.38 4.02.58 6.14.58 2.52 0 4.92-.27 7.21-.78l1.786 81.999c5.786-24.643 21.671-50.429 34.374-67.369l.01-.01c1.46 2.81 3.61 5.33 6.48 7.34.86.6 1.75 1.13 2.66 1.57-21.077 32.155-38.643 57.689-38.091 104.761.063 5.302-4.215 9.639-9.518 9.639z" fill="#b2c757"/></g><path d="m238.582 106.975c-2.025-1.124-4.391-1.424-6.775-.927 1.572-6.677-.063-12.32-3.093-14.445-3.031-2.109-8.886-1.703-14.606 2.068-.352-2.41-1.446-4.528-3.198-6.045-2.276-1.971-5.286-2.52-8.048-1.465-2.449.934-6.699 3.917-8.132 13.424-9.408 7.959-12.819 21.654-8.102 32.075-7.299 9.84-22.078 31.398-30.35 54.784l-1.471-67.621c8.531-2.338 15.642-7.887 20.142-15.775 4.704-8.246 5.854-18.022 3.199-26.964 5.782-10.496 3.819-16.643 2.098-19.402-2.073-3.325-5.802-5.136-9.957-4.865-3.643.244-7.035 2.06-9.516 4.959-3.386-8.745-10.08-13.992-15.211-13.992-5.136 0-11.834 5.247-15.221 13.992-2.48-2.9-5.874-4.716-9.517-4.959-4.154-.274-7.884 1.541-9.957 4.865-1.721 2.76-3.683 8.906 2.097 19.4-2.708 9.038-1.493 18.894 3.379 27.182 4.694 7.985 12.321 13.683 21.098 15.831l.715 60.288c-6.397-12.244-14.477-23.239-24.074-32.811 3.744-10.349.17-22.794-8.818-30.369-1.434-9.499-5.681-12.481-8.128-13.414-2.761-1.055-5.768-.505-8.042 1.465-1.753 1.518-2.848 3.638-3.199 6.049-5.732-3.777-11.589-4.182-14.607-2.069-3.031 2.114-4.668 7.757-3.093 14.442-2.384-.5-4.751-.2-6.777.924-2.632 1.458-4.179 4.094-4.14 7.049.035 2.621 1.376 7.637 9.812 12.251 2.699 7.442 8.363 13.454 15.648 16.568 3.309 1.414 6.702 2.121 10.021 2.121 2.845 0 5.634-.524 8.269-1.562 25.32 29.065 37.715 55.59 37.864 81.061l.057 4.74c.075 6.278 5.245 11.386 11.523 11.386 3.101 0 6.01-1.215 8.19-3.421 2.183-2.209 3.365-5.136 3.329-8.241-.532-45.273 15.666-69.962 36.173-101.218l.66-1.006c2.682 1.078 5.522 1.627 8.423 1.627 3.24 0 6.553-.674 9.792-2.023 7.286-3.036 13.168-9.229 15.874-16.662 8.433-4.613 9.773-9.626 9.809-12.246.04-2.954-1.508-5.589-4.14-7.049zm-118.791-5.739c-4.443-7.558-5.448-16.581-2.76-24.756.178-.54.117-1.13-.166-1.623-3.849-6.688-4.798-12.542-2.604-16.058 1.19-1.909 3.312-3.009 5.747-3.009.182 0 .365.006.55.018 2.821.189 6.563 1.998 8.602 6.51.353.782 1.165 1.247 2.02 1.167.854-.084 1.559-.705 1.752-1.541 2.251-9.761 8.897-15.159 12.631-15.159 3.729 0 10.37 5.398 12.621 15.16.193.836.898 1.456 1.752 1.541.857.087 1.667-.385 2.02-1.167 2.038-4.512 5.779-6.321 8.601-6.51 2.657-.181 5.018.939 6.297 2.991 2.193 3.517 1.245 9.37-2.604 16.058-.282.491-.344 1.079-.168 1.617 2.639 8.099 1.689 17.062-2.606 24.592-4.213 7.385-11.01 12.448-19.137 14.256-.044.01-.086.023-.129.035-.256.056-.516.102-.774.151-.236.045-.471.094-.71.134-.26.043-.523.075-.785.111-.255.035-.508.075-.764.104-.252.028-.506.046-.759.069-.269.024-.537.053-.807.07-.246.015-.493.02-.74.03-.279.011-.557.027-.836.031-.24.003-.481-.005-.721-.007-.286-.002-.571 0-.856-.01-.249-.009-.497-.03-.745-.044-.275-.016-.55-.027-.823-.051-.298-.026-.593-.064-.889-.099-.221-.026-.444-.044-.665-.074-.515-.071-1.026-.155-1.532-.253h-.001c-8.324-1.6-15.617-6.807-20.012-14.284zm-35.481 54.555c-6.384-2.729-11.502-8.305-13.689-14.915-.163-.495-.514-.906-.976-1.146-7.494-3.896-8.348-7.686-8.367-9.134-.02-1.479.738-2.754 2.079-3.498.789-.438 1.685-.653 2.631-.653 1.408 0 2.93.477 4.382 1.412.738.474 1.7.413 2.372-.154s.895-1.505.55-2.313c-2.995-7.017-1.432-12.678.287-13.876 1.71-1.199 7.555-.713 13.114 4.509.639.601 1.597.714 2.36.279.764-.436 1.152-1.318.96-2.175-.633-2.819.003-5.379 1.699-6.849 1.159-1.006 2.619-1.279 3.999-.751 1.353.516 4.614 2.618 5.697 10.985.066.515.331.984.738 1.308 8.307 6.611 11.651 18.414 7.778 27.456-.001.001-.002.003-.002.004-1.379 3.233-3.562 5.91-6.488 7.957-.87.609-1.778 1.137-2.71 1.571-5.005 2.376-10.834 2.368-16.414-.017zm110.509-13.65c-20.055 30.566-37.374 56.964-36.828 103.458.023 2.028-.749 3.939-2.175 5.382-1.423 1.44-3.321 2.233-5.345 2.233-4.1 0-7.475-3.335-7.523-7.434l-.057-4.728c-.153-26.228-12.644-53.358-38.166-82.877.338-.211.673-.432 1.002-.663.609-.426 1.182-.883 1.738-1.354.13-.11.259-.22.386-.333.537-.476 1.055-.969 1.54-1.488.051-.054.097-.113.147-.168.442-.484.857-.988 1.253-1.508.096-.126.194-.252.288-.38.415-.57.807-1.157 1.168-1.768.017-.028.038-.054.054-.082 10.857 11.08 19.641 24.098 26.131 38.733.385.868 1.331 1.347 2.254 1.144.928-.202 1.585-1.028 1.574-1.978l-.813-68.509c.094.011.191.014.286.024.627.069 1.257.125 1.891.159.069.004.138.011.207.015.575.028 1.151.044 1.729.044.112 0 .222-.008.334-.009.255-.002.509-.013.764-.021.478-.014.953-.036 1.428-.07.269-.019.536-.04.803-.065.482-.045.96-.101 1.437-.165.164-.022.332-.033.495-.057l1.733 79.648c.022 1.007.79 1.84 1.792 1.945.992.097 1.926-.551 2.155-1.532 6.121-26.07 23.459-52.183 32.282-64.266.053.075.115.143.169.217.268.366.548.724.838 1.074.089.107.175.216.266.321.369.427.753.842 1.156 1.242.076.075.157.146.234.221.344.332.7.653 1.067.966.12.102.241.204.363.305.451.368.912.726 1.396 1.065.315.22.634.431.953.631zm35.539-19.04c-.462.24-.813.652-.976 1.146-2.213 6.688-7.402 12.293-13.882 14.993-5.647 2.354-11.52 2.278-16.549-.226-.793-.384-1.596-.858-2.383-1.408-2.516-1.762-4.484-3.99-5.856-6.631-4.791-9.131-1.656-21.771 7.135-28.777.406-.323.671-.792.737-1.308 1.083-8.373 4.348-10.477 5.701-10.993.463-.176.933-.263 1.398-.263.927 0 1.833.345 2.605 1.015 1.697 1.469 2.332 4.029 1.7 6.847-.192.857.197 1.74.96 2.175.766.437 1.723.321 2.362-.281 5.546-5.22 11.397-5.701 13.11-4.509 1.716 1.203 3.28 6.869.289 13.877-.345.808-.122 1.747.55 2.313.671.567 1.634.628 2.372.154 2.426-1.561 5.048-1.842 7.009-.754 1.342.744 2.1 2.02 2.08 3.499-.017 1.449-.87 5.236-8.362 9.131z" fill="#603913"/></g></svg>