<svg id="Layer_3" enable-background="new 0 0 300 300" viewBox="0 0 300 300" xmlns="http://www.w3.org/2000/svg"><g><g><path d="m181.16 165.411c-10.05-3.51-20.92.24-31.16 12.12-10.25-11.87-21.11-15.63-31.16-12.12-33.13-30.66-11.81-64.46 15.73-40.6-1.71-9.85 3.86-18.21 15.43-18.21s17.14 8.36 15.43 18.21c27.54-23.86 48.86 9.94 15.73 40.6z" fill="#dfa5ca"/><path d="m193.93 174.311c-6.22 17.58-25.07 24.86-43.93 13.93-18.86 10.93-37.72 3.65-43.93-13.93 4.01-4.34 8.31-7.34 12.77-8.9 10.05-3.51 20.91.25 31.16 12.12 10.24-11.88 21.11-15.63 31.16-12.12 4.46 1.57 8.76 4.56 12.77 8.9z" fill="#7cad45"/></g><path d="m184.715 164.754c17.356-17.397 18.562-35.844 10.554-44.787-5.028-5.616-15.035-8.451-27.554.491-.171-3.847-1.446-7.313-3.742-10.042-3.2-3.804-8.032-5.815-13.974-5.815s-10.773 2.011-13.974 5.815c-2.296 2.729-3.571 6.195-3.742 10.042-12.52-8.944-22.525-6.107-27.554-.491-8.008 8.942-6.802 27.388 10.551 44.784-3.724 1.813-7.307 4.551-10.68 8.202-.504.545-.664 1.324-.417 2.023 3.167 8.965 9.465 15.58 17.735 18.627 3.269 1.204 6.711 1.801 10.24 1.801 5.852 0 11.938-1.641 17.84-4.868 9.458 5.174 19.386 6.269 28.068 3.07 8.271-3.045 14.574-9.661 17.747-18.629.247-.699.087-1.479-.417-2.024-3.362-3.641-6.945-6.378-10.681-8.199zm-77.005-42.119c5.651-6.312 15.68-4.865 25.551 3.688.639.554 1.558.644 2.294.229.735-.416 1.131-1.25.986-2.083-.784-4.518.12-8.594 2.546-11.478 2.417-2.872 6.19-4.39 10.913-4.39s8.496 1.518 10.913 4.39c2.426 2.884 3.33 6.96 2.546 11.478-.145.833.251 1.667.986 2.083s1.655.325 2.294-.229c9.869-8.551 19.897-9.998 25.551-3.688 6.946 7.758 5.146 24.487-11.64 40.51-.057-.017-.116-.032-.173-.049-.096-.028-.194-.055-.291-.082-.147-.041-.294-.08-.443-.118-.108-.028-.216-.054-.326-.081-.141-.034-.284-.067-.427-.099-.118-.027-.237-.052-.357-.077-.138-.029-.277-.056-.417-.082-.128-.024-.256-.048-.386-.071-.134-.023-.269-.045-.405-.066-.138-.021-.276-.042-.415-.062-.13-.018-.262-.034-.394-.05-.148-.018-.295-.036-.444-.051-.125-.013-.251-.023-.378-.034-.159-.014-.317-.027-.478-.038-.119-.008-.24-.013-.36-.019-.17-.009-.34-.018-.512-.022-.109-.003-.221-.003-.331-.005-.186-.002-.371-.006-.559-.004-.093.001-.188.005-.282.007-.206.004-.413.008-.622.018-.062.003-.125.009-.187.012-1.105.061-2.246.201-3.421.436-.031.006-.062.011-.094.017-.242.05-.487.107-.732.164-.083.02-.165.037-.248.057-.226.055-.453.118-.681.181-.105.029-.208.055-.313.086-.217.063-.436.132-.655.201-.118.038-.235.073-.354.113-.213.071-.428.148-.643.225-.126.045-.252.09-.379.137-.211.08-.423.165-.635.25-.134.054-.267.107-.401.164-.208.088-.418.181-.628.275-.141.063-.281.127-.423.193-.207.097-.414.198-.622.301-.146.073-.292.146-.439.222-.205.106-.411.215-.618.328-.152.083-.305.167-.457.253-.204.115-.409.233-.614.355-.157.093-.315.189-.473.286-.203.125-.407.251-.611.382-.162.104-.325.212-.488.32-.202.134-.404.269-.607.41-.167.116-.335.236-.503.356-.2.143-.4.287-.602.436-.174.129-.349.265-.523.399-.197.152-.394.302-.592.46-.18.144-.361.294-.542.443-.194.16-.388.318-.584.484-.188.16-.377.329-.566.494-.189.167-.378.33-.568.502-.203.184-.407.378-.611.569-.177.166-.353.327-.53.497-.237.229-.476.469-.714.707-.145.145-.29.284-.436.433-.385.393-.771.798-1.159 1.217-.494-.533-.985-1.038-1.475-1.53-.139-.14-.277-.275-.416-.411-.383-.376-.764-.74-1.144-1.092-.117-.108-.234-.22-.351-.326-.481-.438-.96-.857-1.437-1.257-.095-.079-.188-.153-.283-.231-.391-.323-.781-.634-1.169-.932-.138-.106-.275-.211-.413-.314-.41-.307-.818-.603-1.223-.884-.065-.045-.13-.094-.195-.138-.465-.318-.927-.616-1.387-.901-.125-.077-.249-.151-.374-.226-.354-.213-.706-.417-1.057-.612-.126-.07-.251-.141-.376-.208-.45-.242-.898-.473-1.342-.686-.054-.026-.108-.048-.162-.074-.395-.186-.788-.36-1.178-.523-.13-.055-.26-.107-.39-.159-.349-.14-.696-.272-1.041-.395-.095-.034-.19-.071-.285-.103-.427-.147-.851-.281-1.271-.403-.103-.03-.205-.056-.308-.084-.33-.091-.658-.175-.984-.251-.121-.028-.241-.057-.361-.083-.393-.086-.783-.164-1.169-.229-.02-.003-.04-.008-.06-.011-.406-.068-.806-.121-1.203-.167-.113-.013-.225-.024-.338-.035-.307-.031-.611-.056-.913-.075-.098-.006-.196-.014-.293-.019-.384-.019-.763-.03-1.138-.031-.015 0-.031-.001-.046-.001-.026 0-.05.003-.076.003-.585.002-1.16.024-1.722.067-.047.003-.093.009-.14.013-.548.045-1.086.107-1.61.187-.055.008-.108.018-.163.026-.511.081-1.012.176-1.499.284-.062.014-.123.029-.185.043-.474.11-.937.23-1.388.362-.028.008-.058.014-.086.022-16.783-16.019-18.582-32.748-11.636-40.506zm68.977 67.218c-7.855 2.893-16.977 1.704-25.684-3.342-.621-.359-1.385-.359-2.006 0-8.711 5.049-17.835 6.233-25.694 3.34-6.783-2.499-12.045-7.827-14.921-15.07 3.543-3.624 7.279-6.139 11.117-7.481.598-.209 1.197-.389 1.798-.54 6.61-1.667 13.408.118 20.038 5.214 2.411 1.853 4.801 4.144 7.151 6.867.285.33.667.554 1.085.646.139.031.283.046.428.046h.001c.581 0 1.134-.254 1.514-.694 9.017-10.459 18.618-14.531 27.845-11.881.379.109.758.21 1.136.342 3.853 1.355 7.589 3.87 11.121 7.482-2.88 7.244-8.145 12.573-14.929 15.071z" fill="#603913"/></g></svg>