<svg id="Layer_3" enable-background="new 0 0 300 300" viewBox="0 0 300 300" xmlns="http://www.w3.org/2000/svg"><g><g><path d="m248.48 160.684c-11.03 7.53-27.08 9.31-48.13 7.62h-.05c-3.27-.25-6.67-.6-10.19-1.02 16.98 13.84 28.72 27.35 31.16 40.28 1.52 8.04-5.66 15.22-13.7 13.71-12.94-2.44-26.45-14.18-40.28-31.17 3.11 26.16 2.1 45.63-6.6 58.38-5.09 7.45-16.29 7.45-21.38 0-8.7-12.75-9.71-32.23-6.59-58.38-.01.01-.01.01-.01.02-13.84 16.98-27.35 28.71-40.27 31.15-8.04 1.51-15.22-5.67-13.71-13.71.25-1.34.61-2.69 1.06-4.05 3.88-11.69 14.89-23.83 30.1-36.23-3.54.42-6.95.77-10.24 1.02-21.05 1.69-37.1-.09-48.13-7.62-7.45-5.08-7.45-16.28 0-21.37 12.75-8.7 32.22-9.71 58.37-6.6-16.98-13.83-28.72-27.34-31.16-40.28-1.51-8.04 5.67-15.22 13.71-13.7 12.93 2.44 26.44 14.18 40.28 31.17-3.12-26.15-2.11-45.63 6.59-58.38 5.09-7.46 16.29-7.46 21.38 0 8.7 12.76 9.71 32.23 6.6 58.38 13.83-16.99 27.34-28.73 40.28-31.17 8.04-1.52 15.22 5.66 13.7 13.7-2.44 12.94-14.18 26.45-31.16 40.28 26.15-3.11 45.62-2.1 58.37 6.6 7.46 5.09 7.46 16.29 0 21.37z" fill="#fbaf01"/><circle cx="150.001" cy="150.002" fill="#ffe89c" r="33.536"/><g fill="#afaf3b"><path d="m263.26 231.324c-52.72 21.64-87.83-.65-95.97-41.22 13.83 16.99 27.34 28.73 40.28 31.17 8.04 1.51 15.22-5.67 13.7-13.71-2.44-12.93-14.18-26.44-31.16-40.28 3.52.42 6.92.77 10.19 1.02h.05c35.3 4.87 58.71 23.13 62.91 63.02z"/><path d="m132.71 190.124c-8.15 40.56-43.26 62.84-95.97 41.2 4.2-39.89 27.61-58.15 62.91-63.02 3.29-.25 6.7-.6 10.24-1.02-15.21 12.4-26.22 24.54-30.1 36.23-.45 1.36-.81 2.71-1.06 4.05-1.51 8.04 5.67 15.22 13.71 13.71 12.92-2.44 26.43-14.17 40.27-31.15z"/></g></g><g fill="#603913"><path d="m150.001 114.467c-19.594 0-35.535 15.941-35.535 35.536s15.941 35.536 35.535 35.536c19.595 0 35.536-15.941 35.536-35.536s-15.941-35.536-35.536-35.536zm0 67.071c-17.389 0-31.535-14.146-31.535-31.536 0-17.389 14.146-31.536 31.535-31.536s31.536 14.147 31.536 31.536c0 17.39-14.147 31.536-31.536 31.536z"/><path d="m219.898 170.726c12.753-.652 22.412-3.408 29.71-8.391 4.047-2.757 6.465-7.364 6.467-12.326.003-4.967-2.415-9.583-6.468-12.347-11.183-7.631-27.739-10.041-53.189-7.635 15.916-13.812 24.706-26.025 26.816-37.222.837-4.426-.589-8.994-3.814-12.22-3.227-3.226-7.799-4.653-12.22-3.816-11.201 2.112-23.416 10.905-37.223 26.824 2.405-25.442-.004-42.002-7.635-53.196-2.764-4.05-7.378-6.467-12.343-6.467s-9.579 2.417-12.343 6.467c-7.636 11.191-10.042 27.751-7.627 53.196-13.816-15.921-26.028-24.712-37.219-26.824-4.423-.837-8.991.59-12.219 3.813-3.229 3.225-4.66 7.794-3.828 12.223 2.111 11.197 10.901 23.411 26.817 37.223-25.451-2.407-42.005.003-53.189 7.636-4.047 2.765-6.462 7.38-6.46 12.347.003 4.961 2.418 9.57 6.46 12.326 7.298 4.982 16.959 7.738 29.709 8.391-27.145 9.108-42.046 29.006-45.351 60.389-.093.883.408 1.722 1.229 2.06 13.944 5.724 27.1 8.591 39.097 8.591 10.753 0 20.575-2.304 29.193-6.917 10.904-5.837 19.462-15.348 25.01-27.508-.803 19.382 1.897 32.772 8.378 42.271 2.764 4.045 7.378 6.46 12.342 6.46s9.578-2.415 12.343-6.461c6.476-9.492 9.178-22.882 8.38-42.267 5.546 12.154 14.099 21.662 24.998 27.499 8.622 4.617 18.444 6.922 29.203 6.922 11.995 0 25.153-2.867 39.095-8.589.821-.338 1.322-1.177 1.229-2.06-3.302-31.387-18.202-51.285-45.348-60.392zm-117.515 60.595c-16.832 9.009-38.757 8.561-63.485-1.282 4.187-35.097 24.145-54.647 60.966-59.746.159-.012.325-.027.486-.04.441-.035.881-.069 1.334-.108.621-.053 1.253-.111 1.898-.172-13.588 11.794-21.921 22.352-25.411 32.142-5.476 2.878-9.263 5.733-11.521 8.715-.667.88-.493 2.135.388 2.802.361.273.785.405 1.205.405.605 0 1.203-.273 1.597-.793 1.415-1.869 3.732-3.785 6.885-5.719-.701 4.321.72 8.742 3.866 11.888 3.226 3.227 7.793 4.655 12.222 3.824.688-.13 1.379-.286 2.075-.467.228-.059.459-.136.688-.201.469-.132.937-.262 1.41-.417.279-.092.561-.203.841-.302.427-.152.853-.298 1.283-.469.302-.12.608-.259.912-.388.411-.175.822-.344 1.236-.536.318-.147.638-.312.957-.469.405-.199.81-.394 1.219-.609.328-.173.66-.364.99-.547.404-.224.806-.445 1.213-.685.337-.199.677-.414 1.016-.624.404-.25.808-.498 1.215-.763.345-.225.693-.465 1.04-.701.406-.276.812-.551 1.221-.842.352-.25.706-.515 1.059-.776.409-.302.818-.605 1.23-.923.358-.276.718-.564 1.078-.851.413-.33.827-.661 1.243-1.005.365-.302.731-.615 1.098-.928.416-.355.833-.713 1.251-1.083.372-.329.746-.668 1.121-1.008.42-.382.84-.767 1.263-1.164.378-.354.757-.717 1.138-1.083.425-.409.852-.824 1.28-1.248.384-.38.769-.767 1.155-1.159.43-.436.861-.879 1.294-1.33.391-.406.782-.819 1.175-1.238.435-.463.871-.934 1.309-1.412.397-.433.795-.87 1.194-1.315.195-.218.387-.422.583-.643-4.82 15.053-13.937 26.698-26.217 33.27zm66.458-42.48c-.136-.167-.296-.305-.47-.417-.008-.005-.015-.012-.023-.017-.169-.105-.354-.181-.544-.231-.015-.004-.03-.01-.045-.014-.188-.045-.382-.06-.577-.049-.02.001-.039 0-.059.001-.191.016-.38.063-.564.136-.016.006-.033.005-.049.012-.009.004-.015.011-.024.015-.016.007-.032.01-.048.018-.162.076-.305.177-.437.289-.02.017-.041.032-.06.05-.139.127-.255.272-.352.431-.014.023-.028.045-.042.068-.09.162-.156.335-.198.516-.006.027-.013.053-.018.081-.035.183-.044.372-.025.563.001.016-.004.031-.002.047 3.35 28.172 1.417 45.756-6.265 57.016-2.048 2.997-5.343 4.716-9.039 4.716s-6.991-1.719-9.038-4.715c-7.688-11.267-9.617-28.852-6.256-57.016.004-.033-.006-.064-.004-.097.009-.143.004-.285-.017-.424-.013-.088-.033-.171-.058-.256-.02-.069-.047-.134-.074-.2-.058-.143-.127-.275-.216-.4-.014-.02-.03-.038-.045-.057-.119-.156-.257-.291-.419-.407-.015-.011-.031-.021-.047-.031-.092-.062-.173-.136-.276-.184-.268-.122-.55-.181-.83-.181-.475 0-.935.178-1.303.496-.016.013-.031.027-.046.041-.043.04-.091.073-.132.117-.042.046-.079.096-.116.146-.562.689-1.115 1.344-1.67 2.009-.366.438-.737.894-1.101 1.323-.546.643-1.083 1.251-1.623 1.871-.367.421-.739.86-1.104 1.271-.541.61-1.074 1.186-1.61 1.772-.355.389-.715.795-1.068 1.174-.541.581-1.074 1.128-1.609 1.685-.34.354-.684.724-1.021 1.068-.528.538-1.048 1.043-1.571 1.557-.337.332-.679.681-1.014 1.004-.527.507-1.046.98-1.567 1.462-.323.299-.65.615-.971.905-.528.477-1.048.919-1.57 1.371-.307.266-.619.549-.924.806-.533.448-1.057.862-1.584 1.284-.288.231-.58.479-.866.702-.544.424-1.081.813-1.619 1.208-.262.193-.528.403-.789.589-.56.399-1.112.763-1.665 1.131-.233.155-.47.327-.702.477-.575.371-1.143.707-1.711 1.044-.205.122-.413.259-.617.376-.571.328-1.135.622-1.699.916-.196.102-.395.22-.59.318-.605.304-1.202.573-1.799.837-.15.066-.302.146-.451.21-.612.261-1.217.489-1.821.709-.131.048-.263.108-.394.153-.639.224-1.272.414-1.903.591-.091.026-.185.061-.276.086-.72.195-1.435.359-2.144.493-.795.15-1.587.2-2.365.155-2.335-.136-4.543-1.132-6.288-2.876-2.326-2.326-3.318-5.48-2.722-8.655.224-1.198.557-2.468.988-3.774.005-.014.01-.027.014-.041 3.464-10.407 13.099-21.948 29.455-35.281.689-.562.925-1.512.578-2.33-.348-.819-1.19-1.306-2.077-1.206-1.561.185-3.027.346-4.444.492-2.018.208-3.919.384-5.711.52-.004 0-.007.001-.011.001-22.084 1.77-36.971-.539-46.841-7.279-2.995-2.042-4.713-5.331-4.715-9.024-.001-3.698 1.718-6.993 4.715-9.042 11.26-7.683 28.841-9.616 57.006-6.266.897.111 1.73-.387 2.078-1.205.347-.819.111-1.77-.579-2.332-18.351-14.948-28.313-27.738-30.455-39.099-.597-3.174.396-6.328 2.724-8.653 2.326-2.324 5.484-3.31 8.649-2.712 11.355 2.143 24.146 12.109 39.1 30.468.561.689 1.509.924 2.332.578.819-.348 1.311-1.195 1.205-2.078-3.361-28.165-1.432-45.749 6.256-57.016 2.048-3.001 5.342-4.722 9.038-4.722s6.99 1.721 9.038 4.721c7.684 11.27 9.615 28.854 6.266 57.017-.104.884.387 1.73 1.206 2.078.822.349 1.77.111 2.331-.579 14.943-18.358 27.733-28.324 39.101-30.467 3.173-.602 6.324.39 8.649 2.714 2.324 2.325 3.313 5.477 2.713 8.65-2.142 11.362-12.104 24.152-30.456 39.1-.69.562-.926 1.512-.579 2.332.348.819 1.19 1.316 2.078 1.205 28.166-3.349 45.747-1.417 57.007 6.266 3.002 2.049 4.724 5.344 4.722 9.042-.001 3.693-1.722 6.981-4.721 9.023 0 .001-.001.001-.002.002-9.872 6.738-24.758 9.048-46.843 7.278-.029-.003-.073-.005-.116-.006-.646-.049-1.309-.105-1.979-.164-.889-.078-1.796-.161-2.736-.255-.016-.001-.03-.003-.046-.004-.231-.023-.476-.051-.71-.075-1.458-.151-2.969-.317-4.575-.509-.885-.1-1.73.386-2.078 1.205s-.112 1.77.577 2.331c18.354 14.96 28.316 27.75 30.458 39.102.6 3.17-.389 6.323-2.712 8.648-2.325 2.327-5.48 3.324-8.652 2.724-11.367-2.143-24.156-12.109-39.1-30.467zm28.768 42.474c-12.278-6.575-21.393-18.224-26.208-33.277.201.227.399.437.599.661.391.436.781.865 1.17 1.29.444.485.887.963 1.328 1.433.388.414.775.822 1.161 1.223.437.455.872.902 1.305 1.342.383.389.765.774 1.146 1.151.431.427.859.844 1.287 1.256.378.365.756.726 1.132 1.079.425.398.847.786 1.268 1.169.372.339.744.676 1.114 1.002.422.373.841.733 1.26 1.091.365.312.729.623 1.091.923.419.347.835.68 1.25 1.012.357.285.714.571 1.069.845.417.321.83.627 1.244.933.349.258.699.519 1.046.767.415.296.827.575 1.238.855.341.231.682.468 1.021.688.415.271.827.524 1.239.778.331.205.663.415.992.609.416.245.828.472 1.241.701.321.178.644.364.964.532.417.22.83.419 1.244.622.311.153.624.314.934.457.423.195.842.369 1.261.546.297.125.595.261.89.378.438.174.873.323 1.308.478.272.097.547.205.818.294.477.157.95.288 1.424.421.226.063.454.14.678.198.696.18 1.389.337 2.077.467 4.429.83 8.996-.6 12.222-3.828 3.143-3.147 4.56-7.569 3.853-11.888 3.155 1.935 5.472 3.852 6.888 5.722.394.52.991.793 1.597.793.42 0 .845-.132 1.205-.405.881-.667 1.055-1.922.388-2.802-2.26-2.984-6.049-5.841-11.531-8.72-3.5-9.788-11.862-20.377-25.4-32.133 1.286.122 2.523.229 3.725.32.011.001.024.002.038.002 36.791 5.109 56.732 24.658 60.917 59.739-24.731 9.842-46.661 10.29-63.493 1.276z"/></g></g></svg>